<?xml version="1.0" encoding="UTF-8" standalone="no"?>
<!-- Created with Inkscape (http://www.inkscape.org/) -->

<svg
   width="42.479553mm"
   height="50.245575mm"
   viewBox="0 0 42.479553 50.245575"
   version="1.1"
   id="svg1"
   xml:space="preserve"
   inkscape:version="1.4.3 (0d15f75042, 2025-12-25)"
   sodipodi:docname="pin.svg"
   xmlns:inkscape="http://www.inkscape.org/namespaces/inkscape"
   xmlns:sodipodi="http://sodipodi.sourceforge.net/DTD/sodipodi-0.dtd"
   xmlns="http://www.w3.org/2000/svg"
   xmlns:svg="http://www.w3.org/2000/svg"><sodipodi:namedview
     id="namedview1"
     pagecolor="#ffffff"
     bordercolor="#000000"
     borderopacity="0.25"
     inkscape:showpageshadow="2"
     inkscape:pageopacity="0.0"
     inkscape:pagecheckerboard="0"
     inkscape:deskcolor="#d1d1d1"
     inkscape:document-units="mm"
     inkscape:zoom="0.78751403"
     inkscape:cx="177.1397"
     inkscape:cy="226.02772"
     inkscape:window-width="1920"
     inkscape:window-height="1135"
     inkscape:window-x="0"
     inkscape:window-y="0"
     inkscape:window-maximized="1"
     inkscape:current-layer="layer1" /><defs
     id="defs1" /><g
     inkscape:label="Layer 1"
     inkscape:groupmode="layer"
     id="layer1"
     transform="translate(-94.324669,-111.4248)"><g
       id="g1"
       transform="matrix(0.26317152,0,0,0.26317152,85.593267,103.03117)"
       style="fill:#a6b1b8;fill-opacity:1"><path
         style="fill:#a6b1b8;fill-opacity:1"
         d="m 179.7228,65.981033 -0.29264,-0.323816 0.32382,0.292639 c 0.30184,0.27278 0.36961,0.354992 0.29264,0.354992 -0.0171,0 -0.16287,-0.145717 -0.32382,-0.323815 z m -4.83359,-4.83232 -0.24155,-0.273997 0.274,0.241548 c 0.1507,0.132851 0.274,0.25615 0.274,0.273997 0,0.07814 -0.0807,0.01454 -0.30645,-0.241548 z m -1.99788,-1.893073 c -0.12393,-0.158028 -0.12041,-0.161552 0.0376,-0.03762 0.16597,0.130161 0.21875,0.21198 0.13675,0.21198 -0.0207,0 -0.0992,-0.07846 -0.17437,-0.174362 z"
         id="path7" /><path
         style="fill:#a6b1b8;fill-opacity:1"
         d="m 146.60815,153.82629 c 0.005,-0.11607 0.0284,-0.13968 0.0602,-0.0602 0.0288,0.0719 0.0252,0.15786 -0.008,0.19097 -0.0331,0.0331 -0.0567,-0.0257 -0.0523,-0.13077 z m 0,-2.59052 c 0.005,-0.11607 0.0284,-0.13968 0.0602,-0.0602 0.0288,0.0719 0.0252,0.15786 -0.008,0.19097 -0.0331,0.0331 -0.0567,-0.0257 -0.0523,-0.13077 z M 179.268,65.532673 c -0.12393,-0.158027 -0.12041,-0.161551 0.0376,-0.03762 0.16597,0.130161 0.21875,0.21198 0.13674,0.21198 -0.0207,0 -0.0992,-0.07846 -0.17436,-0.174362 z m -3.93236,-3.9356 -0.1898,-0.22418 0.22418,0.189804 c 0.21067,0.17837 0.26954,0.258556 0.1898,0.258556 -0.0189,0 -0.11978,-0.100881 -0.22418,-0.22418 z"
         id="path6" /><path
         style="fill:#a6b1b8;fill-opacity:1"
         d="m 146.63833,152.53933 c 1.9e-4,-0.65759 0.0163,-0.91364 0.0358,-0.569 0.0195,0.34464 0.0194,0.88268 -3.6e-4,1.19563 -0.0197,0.31295 -0.0357,0.031 -0.0355,-0.62663 z M 59.917465,99.54547 c 0,-0.02069 0.07846,-0.09915 0.174362,-0.174362 0.158027,-0.123933 0.161551,-0.120409 0.03762,0.03762 -0.130161,0.165968 -0.21198,0.218748 -0.21198,0.136744 z m 0.996354,-0.996354 c 0,-0.02069 0.07846,-0.09915 0.174362,-0.174362 0.158028,-0.123934 0.161552,-0.12041 0.03762,0.03762 -0.130161,0.165967 -0.21198,0.218747 -0.21198,0.136744 z M 181.16107,67.525382 c -0.12393,-0.158027 -0.12041,-0.161551 0.0376,-0.03762 0.0959,0.07521 0.17436,0.153672 0.17436,0.174362 0,0.082 -0.0818,0.02922 -0.21198,-0.136744 z m -2.53174,-2.640339 -0.49443,-0.523086 0.52309,0.494431 c 0.2877,0.271938 0.52308,0.507327 0.52308,0.523087 0,0.07435 -0.0923,-0.0084 -0.55174,-0.494432 z m -2.59052,-2.590522 -0.49443,-0.523086 0.52309,0.494432 c 0.28769,0.271937 0.52308,0.507326 0.52308,0.523086 0,0.07435 -0.0923,-0.0084 -0.55174,-0.494432 z m -2.6493,-2.540704 c -0.12393,-0.158027 -0.12041,-0.161551 0.0376,-0.03762 0.16597,0.130161 0.21875,0.21198 0.13674,0.21198 -0.0207,0 -0.0992,-0.07846 -0.17436,-0.174362 z"
         id="path5" /><path
         style="fill:#a6b1b8;fill-opacity:1"
         d="m 60.515278,98.935458 c 0.185898,-0.191798 0.360414,-0.348724 0.387814,-0.348724 0.0274,0 -0.102281,0.156926 -0.288179,0.348724 -0.185898,0.191798 -0.360415,0.348724 -0.387814,0.348724 -0.0274,0 0.10228,-0.156926 0.288179,-0.348724 z M 180.86217,67.226476 c -0.12394,-0.158028 -0.12041,-0.161552 0.0376,-0.03762 0.16596,0.130161 0.21874,0.21198 0.13674,0.21198 -0.0207,0 -0.0992,-0.07846 -0.17436,-0.174362 z m -3.52669,-3.636694 -0.79474,-0.821993 0.82199,0.794747 c 0.45209,0.43711 0.82199,0.807007 0.82199,0.821992 0,0.07267 -0.1111,-0.03131 -0.84924,-0.794746 z"
         id="path4" /><path
         style="fill:#a6b1b8;fill-opacity:1"
         d="m 79.919277,91.048088 c 0.0685,-0.02764 0.18059,-0.02764 0.249089,0 0.0685,0.02764 0.01245,0.05025 -0.124544,0.05025 -0.136999,0 -0.193044,-0.02262 -0.124545,-0.05025 z m 3.985418,0 c 0.0685,-0.02764 0.180589,-0.02764 0.249088,0 0.0685,0.02764 0.01246,0.05025 -0.124544,0.05025 -0.136999,0 -0.193044,-0.02262 -0.124544,-0.05025 z M 180.56326,66.927569 c -0.12393,-0.158027 -0.12041,-0.161551 0.0376,-0.03762 0.0959,0.07521 0.17436,0.153672 0.17436,0.174362 0,0.082 -0.0818,0.02922 -0.21198,-0.136745 z m -6.62251,-6.625757 -0.18981,-0.22418 0.22418,0.189805 c 0.21068,0.178369 0.26954,0.258555 0.18981,0.258555 -0.0189,0 -0.11979,-0.100881 -0.22418,-0.22418 z m -1.64723,-1.544349 c -0.12393,-0.158028 -0.12041,-0.161552 0.0376,-0.03762 0.0959,0.07521 0.17436,0.153672 0.17436,0.174362 0,0.082 -0.0818,0.02922 -0.21198,-0.136744 z"
         id="path3" /><path
         style="fill:#a6b1b8;fill-opacity:1"
         d="m 146.50852,154.72301 c 0.005,-0.11607 0.0284,-0.13968 0.0602,-0.0602 0.0288,0.0719 0.0252,0.15786 -0.008,0.19097 -0.0331,0.0331 -0.0567,-0.0257 -0.0523,-0.13077 z m 0.008,-4.42548 c 0,-0.137 0.0226,-0.19304 0.0503,-0.12454 0.0276,0.0685 0.0276,0.18059 0,0.24909 -0.0276,0.0685 -0.0503,0.0125 -0.0503,-0.12455 z M 85.305818,91.145648 c 0.07192,-0.02878 0.15786,-0.02524 0.190968,0.0079 0.03311,0.03311 -0.02574,0.05666 -0.130772,0.05233 -0.116069,-0.0048 -0.139679,-0.02839 -0.0602,-0.0602 z m -4.987999,-0.09756 c 0.0685,-0.02764 0.180589,-0.02764 0.249089,0 0.0685,0.02764 0.01245,0.05025 -0.124545,0.05025 -0.136998,0 -0.193043,-0.02262 -0.124544,-0.05025 z m 3.188334,0 c 0.0685,-0.02764 0.180589,-0.02764 0.249089,0 0.0685,0.02764 0.01245,0.05025 -0.124545,0.05025 -0.136998,0 -0.193043,-0.02262 -0.124544,-0.05025 z m 98.305797,-22.77544 -0.18981,-0.22418 0.22418,0.189805 c 0.21068,0.178369 0.26954,0.258555 0.18981,0.258555 -0.0189,0 -0.11979,-0.100881 -0.22418,-0.22418 z m -1.64206,-1.74362 -0.24155,-0.273998 0.274,0.241548 c 0.1507,0.132851 0.27399,0.25615 0.27399,0.273997 0,0.07814 -0.0807,0.01455 -0.30644,-0.241547 z m -5.77886,-5.778856 -0.24155,-0.273998 0.274,0.241548 c 0.1507,0.132851 0.274,0.25615 0.274,0.273997 0,0.07814 -0.0807,0.01454 -0.30645,-0.241547 z m -1.7986,-1.693803 c -0.12394,-0.158027 -0.12041,-0.161552 0.0376,-0.03762 0.16597,0.130161 0.21875,0.21198 0.13675,0.21198 -0.0207,0 -0.0991,-0.07846 -0.17436,-0.174362 z m -1.29526,-1.195625 c -0.12394,-0.158028 -0.12041,-0.161552 0.0376,-0.03762 0.16597,0.13016 0.21875,0.21198 0.13675,0.21198 -0.0207,0 -0.0992,-0.07846 -0.17436,-0.174362 z m -1.99271,-1.793439 c -0.12394,-0.158027 -0.12041,-0.161551 0.0376,-0.03762 0.16596,0.13016 0.21874,0.211979 0.13674,0.211979 -0.0207,0 -0.0992,-0.07846 -0.17436,-0.174362 z"
         id="path2" /><path
         style="fill:#a6b1b8;fill-opacity:1"
         d="m 33.302977,222.36787 c 0.105397,-0.26525 1.936096,-4.74168 4.068219,-9.94763 l 3.876587,-9.46537 8.356852,-10.36209 c 9.399483,-11.6549 47.656075,-59.11923 47.797327,-59.30136 0.06446,-0.0831 -5.563038,-4.90054 -19.070162,-16.32505 -10.53888,-8.91392 -19.175648,-16.26767 -19.192817,-16.34166 -0.05244,-0.22598 2.737987,-2.935184 3.966816,-3.851357 8.733106,-6.511109 21.522034,-7.518189 35.543684,-2.798931 l 1.418547,0.477441 19.82386,16.768147 c 12.18281,10.30491 19.80477,16.81789 19.77434,16.8972 -0.0272,0.071 0.37579,0.95448 0.89563,1.96332 5.07339,9.84589 7.00799,19.54515 5.58256,27.98857 -0.69492,4.11629 -2.15953,7.75099 -4.40777,10.93868 -0.37066,0.52553 -0.70534,0.90509 -0.77464,0.8785 -0.0962,-0.0369 -35.15943,-29.63889 -35.96859,-30.36633 -0.20823,-0.1872 -0.22391,-0.16779 -28.219755,34.91178 l -28.011412,35.09908 -7.741832,6.62575 c -4.258008,3.64417 -7.779462,6.64102 -7.825453,6.65967 -0.04599,0.0187 0.0026,-0.18311 0.108009,-0.44836 z M 122.15178,110.49342 103.3571,94.59367 l 1.86887,-2.315616 c 1.02788,-1.273589 8.63582,-10.709608 16.90654,-20.968931 13.21167,-16.388277 15.0567,-18.637158 15.1944,-18.520263 0.0862,0.07318 8.43868,7.135474 18.56105,15.69399 10.12238,8.558515 18.52518,15.6649 18.67291,15.791967 l 0.26858,0.23103 -9.95372,12.346031 c -5.47455,6.790322 -13.06169,16.201922 -16.86031,20.914682 -3.79862,4.71275 -6.94312,8.58169 -6.98777,8.59763 -0.0446,0.0159 -8.53879,-7.12591 -18.87587,-15.87077 z M 156.64667,67.115666 C 139.89619,52.942442 126.16253,41.317358 126.12742,41.282147 c -0.056,-0.05616 6.67731,-8.515223 7.27977,-9.145594 l 0.23169,-0.242423 2.8191,1.406933 c 10.2713,5.126113 21.81358,13.075051 32.15357,22.143521 7.42157,6.508936 14.42087,13.737674 20.83817,21.521257 1.53409,1.860716 5.06091,6.348865 5.14164,6.543136 0.0414,0.09954 -6.67548,8.556425 -7.27782,9.163182 l -0.21145,0.213006 z"
         id="path1" /></g></g></svg>
