<?xml version="1.0" encoding="UTF-8" standalone="no"?>
<svg
   class="w-[32px] h-auto mr-3"
   fill="none"
   version="1.1"
   id="svg367"
   sodipodi:docname="test.svg"
   width="161.35049"
   height="34.721779"
   inkscape:version="1.2.1 (9c6d41e410, 2022-07-14)"
   xmlns:inkscape="http://www.inkscape.org/namespaces/inkscape"
   xmlns:sodipodi="http://sodipodi.sourceforge.net/DTD/sodipodi-0.dtd"
   xmlns="http://www.w3.org/2000/svg"
   xmlns:svg="http://www.w3.org/2000/svg">
  <defs
     id="defs371" />
  <sodipodi:namedview
     id="namedview369"
     pagecolor="#ffffff"
     bordercolor="#000000"
     borderopacity="0.25"
     inkscape:showpageshadow="2"
     inkscape:pageopacity="0.0"
     inkscape:pagecheckerboard="0"
     inkscape:deskcolor="#d1d1d1"
     showgrid="false"
     inkscape:zoom="2"
     inkscape:cx="59.25"
     inkscape:cy="128.5"
     inkscape:window-width="1920"
     inkscape:window-height="1009"
     inkscape:window-x="-8"
     inkscape:window-y="-8"
     inkscape:window-maximized="1"
     inkscape:current-layer="g397" />
  <g
     id="g397"
     transform="translate(-69.149511,-28.278221)">
    <g
       id="g962">
      <path
         fill="currentColor"
         d="m 77.357075,30.522347 c 4.341067,3.259066 9.010114,9.867128 10.724611,13.413114 1.714496,-3.545918 6.383542,-10.154048 10.724597,-13.413181 3.132287,-2.351455 8.207577,-4.171011 8.207577,1.618831 0,1.156332 -0.66296,9.713608 -1.0518,11.102989 -1.35158,4.82991 -6.276611,6.06183 -10.657686,5.316208 7.657866,1.303252 9.605876,5.620327 5.398746,9.937394 -7.990184,8.198962 -11.484105,-2.057141 -12.379382,-4.685117 -0.164124,-0.481766 -0.240919,-0.707153 -0.242052,-0.5155 -0.0013,-0.191653 -0.07793,0.03371 -0.242051,0.5155 -0.895281,2.627976 -4.3892,12.884079 -12.379378,4.685117 -4.207142,-4.317067 -2.259194,-8.634142 5.398738,-9.937463 -4.381065,0.745622 -9.306097,-0.486298 -10.657682,-5.316208 -0.388842,-1.389381 -1.051802,-9.946719 -1.051802,-11.102983 0,-5.789779 5.075357,-3.970292 8.207564,-1.618701 z"
         id="path351"
         style="fill:#0085ff;fill-opacity:1;stroke-width:0.0666626" />
      <g
         id="g386"
         transform="translate(114.5,32)"
         style="fill:#0085ff;fill-opacity:1">
        <path
           d="m 15.3666,11.4928 c 2.7236,0.989 4.1694,3.274 4.1694,5.8317 0,4.3312 -2.8581,6.9571 -8.3389,6.9571 H 0 V 0 h 10.8272 c 5.2119,0 7.7337,2.69417 7.7337,6.27503 0,2.38724 -1.076,4.12647 -3.1943,5.21777 z M 10.491,3.78548 H 4.53936 V 10.1287 H 10.491 c 2.3201,0 3.5642,-1.22771 3.5642,-3.27391 0,-1.87569 -1.2778,-3.06931 -3.5642,-3.06931 z M 4.53936,20.462 h 6.42234 c 2.5555,0 3.9341,-1.1936 3.9341,-3.3421 0,-2.2508 -1.3114,-3.3762 -3.9341,-3.3762 H 4.53936 Z"
           fill="currentColor"
           id="path353"
           style="fill:#0085ff;fill-opacity:1" />
        <path
           d="M 25.8299,24.2816 H 21.5932 V 0 h 4.2367 z"
           fill="currentColor"
           id="path355"
           style="fill:#0085ff;fill-opacity:1" />
        <path
           d="M 39.8775,16.5402 V 6.68427 h 4.2368 V 24.2816 H 40.012 v -2.5577 c -1.3113,1.978 -3.1271,2.967 -5.4472,2.967 -3.6651,0 -6.0525,-2.2509 -6.0525,-6.3433 V 6.68427 h 4.2368 V 17.6315 c 0,2.2167 1.076,3.3421 3.2616,3.3421 2.0511,0 3.8668,-1.5347 3.8668,-4.4334 z"
           fill="currentColor"
           id="path357"
           style="fill:#0085ff;fill-opacity:1" />
        <path
           d="M 63.3989,15.7899 V 16.813 H 50.4197 c 0.3027,3.0352 1.9503,4.5357 4.5058,4.5357 1.9502,0 3.2616,-0.8525 3.9677,-2.5236 h 4.0686 c -0.9079,3.5808 -3.9341,5.8658 -8.07,5.8658 -2.5891,0 -4.6738,-0.8526 -6.2542,-2.5237 -1.5804,-1.671 -2.3874,-3.8878 -2.3874,-6.6843 0,-2.7623 0.7734,-4.9791 2.3538,-6.68422 1.5804,-1.67107 3.6315,-2.52365 6.2206,-2.52365 2.6227,0 4.7075,0.88669 6.2542,2.62596 1.5468,1.73931 2.3201,4.05831 2.3201,6.88891 z M 54.791,9.61716 c -2.3202,0 -3.9341,1.36414 -4.3376,4.19474 h 8.7088 C 58.7923,11.2541 57.2456,9.61716 54.791,9.61716 Z"
           fill="currentColor"
           id="path359"
           style="fill:#0085ff;fill-opacity:1" />
        <path
           d="m 72.7892,24.7591 c -5.0437,0 -7.7001,-2.0121 -7.9355,-6.0704 h 4.1359 c 0.2353,2.1826 1.3113,3.0011 3.8668,3.0011 2.2865,0 3.4298,-0.7162 3.4298,-2.1144 0,-1.2619 -0.807,-1.8757 -3.3961,-2.3191 l -1.9839,-0.341 c -3.7996,-0.648 -5.6826,-2.4213 -5.6826,-5.3201 0,-3.30807 2.5891,-5.32017 7.1957,-5.32017 4.9429,0 7.4984,1.97799 7.6665,5.96807 h -4.0014 c -0.1009,-2.1485 -1.345,-2.89877 -3.6651,-2.89877 -2.0175,0 -3.0262,0.68207 -3.0262,2.04617 0,1.2278 0.8742,1.7734 2.8917,2.1486 l 2.1856,0.341 c 4.2031,0.7844 6.0189,2.3531 6.0189,5.3542 0,3.5468 -2.8245,5.5248 -7.7001,5.5248 z"
           fill="currentColor"
           id="path361"
           style="fill:#0085ff;fill-opacity:1" />
        <path
           d="m 99.0846,24.2816 h -4.842 l -5.0437,-8.1848 -2.6227,2.6601 v 5.5247 H 82.4067 V 0 h 4.1695 v 13.9824 l 7.0612,-7.29813 h 5.0437 l -6.5568,6.65013 z"
           fill="currentColor"
           id="path363"
           style="fill:#0085ff;fill-opacity:1" />
        <path
           d="m 110.149,11.1177 1.413,-4.43343 H 116 L 109.309,25.714 c -0.706,1.9439 -1.581,3.3421 -2.69,4.1265 -1.11,0.7844 -2.69,1.1595 -4.775,1.1595 -0.706,0 -1.311,-0.0341 -1.8494,-0.1023 v -3.3762 h 1.6144 c 1.916,0 2.858,-1.1937 2.858,-2.8306 0,-0.8185 -0.269,-2.0121 -0.807,-3.5468 L 98.616,6.68427 h 4.573 l 1.412,4.39933 c 1.043,3.308 1.95,6.582 2.757,9.8218 0.74,-2.7965 1.682,-6.0704 2.791,-9.7877 z"
           fill="currentColor"
           id="path365"
           style="fill:#0085ff;fill-opacity:1" />
      </g>
    </g>
  </g>
</svg>
