<?xml version="1.0" encoding="UTF-8" standalone="no"?>
<!-- Created with Inkscape (http://www.inkscape.org/) -->

<svg
   xmlns:dc="http://purl.org/dc/elements/1.1/"
   xmlns:cc="http://creativecommons.org/ns#"
   xmlns:rdf="http://www.w3.org/1999/02/22-rdf-syntax-ns#"
   xmlns:svg="http://www.w3.org/2000/svg"
   xmlns="http://www.w3.org/2000/svg"
   xmlns:sodipodi="http://sodipodi.sourceforge.net/DTD/sodipodi-0.dtd"
   xmlns:inkscape="http://www.inkscape.org/namespaces/inkscape"
   width="49.445152mm"
   height="44.969051mm"
   viewBox="0 0 49.445152 44.969051"
   version="1.1"
   id="svg8"
   inkscape:version="0.92.5 (2060ec1f9f, 2020-04-08)"
   sodipodi:docname="gender.svg">
  <defs
     id="defs2" />
  <sodipodi:namedview
     id="base"
     pagecolor="#ffffff"
     bordercolor="#666666"
     borderopacity="1.0"
     inkscape:pageopacity="0.0"
     inkscape:pageshadow="2"
     inkscape:zoom="0.7"
     inkscape:cx="-198.89255"
     inkscape:cy="284.24624"
     inkscape:document-units="mm"
     inkscape:current-layer="layer1"
     showgrid="false"
     fit-margin-top="0"
     fit-margin-left="0"
     fit-margin-right="0"
     fit-margin-bottom="0"
     inkscape:window-width="1920"
     inkscape:window-height="1017"
     inkscape:window-x="-8"
     inkscape:window-y="-8"
     inkscape:window-maximized="1" />
  <metadata
     id="metadata5">
    <rdf:RDF>
      <cc:Work
         rdf:about="">
        <dc:format>image/svg+xml</dc:format>
        <dc:type
           rdf:resource="http://purl.org/dc/dcmitype/StillImage" />
        <dc:title></dc:title>
      </cc:Work>
    </rdf:RDF>
  </metadata>
  <g
     inkscape:label="Layer 1"
     inkscape:groupmode="layer"
     id="layer1"
     transform="translate(-104.18327,-151.92396)">
    <g
       id="g21"
       transform="translate(19.276786,80.508929)">
      <path
         style="fill:#6f4cf3;stroke-width:0.26458335"
         d="m 92.878196,115.98138 c -0.591737,-0.41853 -0.595312,-0.46307 -0.595312,-7.41751 v -6.99646 h -2.279817 c -2.045702,0 -2.266114,-0.0475 -2.146374,-0.46302 1.383737,-4.801248 4.425321,-15.893276 4.425692,-16.139581 2.91e-4,-0.200257 -0.356729,-0.330729 -0.905024,-0.330729 -0.78976,0 -0.940091,0.109929 -1.175921,0.859896 -0.148719,0.472942 -0.824396,2.705364 -1.501505,4.960937 -0.677108,2.255573 -1.353147,4.24987 -1.502309,4.431771 -0.440141,0.536748 -1.480969,0.385914 -1.915734,-0.277621 -0.369906,-0.564548 -0.27841,-0.997951 1.270721,-6.019271 1.788894,-5.79848 2.147946,-6.664984 3.149223,-7.600052 0.998982,-0.932925 2.11416,-1.118615 6.680343,-1.11235 3.55656,0.0049 4.404641,0.08431 5.293411,0.495803 2.05142,0.949775 2.43704,1.637316 4.26806,7.60968 0.92679,3.022971 1.68507,5.744538 1.68507,6.047926 0,1.224295 -1.55266,1.638109 -2.21861,0.591302 -0.20829,-0.327422 -1.011,-2.708672 -1.78379,-5.291667 l -1.40507,-4.696354 h -1.00043 c -0.55024,0 -0.99556,0.0893 -0.9896,0.198437 0.006,0.109141 1.06385,3.889375 2.35085,8.400521 l 2.34001,8.202082 -2.34661,0.076 -2.34662,0.076 -0.0704,7.19377 -0.0704,7.19377 -0.71959,0.25295 c -0.569113,0.20005 -0.831036,0.15209 -1.252519,-0.22934 -0.505123,-0.45714 -0.5366,-0.84962 -0.603325,-7.52274 l -0.0704,-7.04045 h -1.058334 -1.058333 l -0.132292,7.18832 c -0.07276,3.95358 -0.192067,7.24789 -0.265125,7.32068 -0.398627,0.39721 -1.512435,0.41745 -2.049979,0.0373 z m 27.787354,-1.10674 c -0.43301,-0.66061 -0.47485,-1.88255 -0.54355,-15.875005 L 120.0476,83.84033 h -1.05005 -1.05005 l -0.004,5.886979 c -0.002,3.237839 -0.0915,6.014727 -0.19844,6.170862 -0.40076,0.585276 -1.13017,0.632412 -1.65559,0.106992 -0.4913,-0.491293 -0.52317,-0.899567 -0.52317,-6.701393 0,-6.441723 0.13626,-7.451739 1.16113,-8.606394 1.09886,-1.238027 1.82798,-1.354963 8.44853,-1.354963 5.98068,0 6.21626,0.01986 7.06178,0.595313 1.97742,1.345822 1.97276,1.325837 2.0607,8.839685 0.057,4.872915 -0.007,6.855539 -0.23084,7.124993 -0.4475,0.539202 -1.50349,0.459026 -1.82324,-0.13843 -0.16452,-0.307396 -0.2739,-2.790437 -0.2739,-6.217708 V 83.84033 h -1.05833 -1.05833 v 15.17786 c 0,14.9544 -0.008,15.18812 -0.54837,15.875 -0.67772,0.86159 -1.89669,0.93754 -2.56308,0.1597 -0.41205,-0.48098 -0.47433,-1.48863 -0.59272,-9.59115 l -0.13229,-9.053701 h -1.05833 -1.05834 l -0.0649,9.128121 c -0.0635,8.93239 -0.0769,9.13806 -0.62463,9.59115 -0.85688,0.70885 -1.98891,0.59648 -2.54551,-0.25267 z M 94.015151,77.994958 c -1.866607,-1.638902 -1.772467,-3.87314 0.227468,-5.398565 0.81627,-0.622599 1.13568,-0.710281 2.164851,-0.594278 2.158814,0.243329 3.6567,2.365843 3.023528,4.284364 -0.801961,2.429967 -3.591772,3.310038 -5.415847,1.708479 z m 29.598419,-0.08696 c -1.30054,-0.566257 -1.96194,-1.612338 -1.96194,-3.103069 0,-1.092746 0.13465,-1.438038 0.87631,-2.247337 1.13341,-1.236764 2.97675,-1.503839 4.36514,-0.632448 0.90039,0.565113 1.63772,1.907269 1.63772,2.981128 0,0.982991 -0.89783,2.373822 -1.8684,2.894344 -1.05826,0.567551 -1.92207,0.597975 -3.04883,0.107382 z"
         id="path77"
         inkscape:connector-curvature="0" />
      <path
         style="fill:#6a44f2;stroke-width:0.26458335"
         d="m 92.878196,115.98138 c -0.591737,-0.41853 -0.595312,-0.46307 -0.595312,-7.41751 v -6.99646 h -2.279817 c -2.045702,0 -2.266114,-0.0475 -2.146374,-0.46302 1.383737,-4.801248 4.425321,-15.893276 4.425692,-16.139581 2.91e-4,-0.200257 -0.356729,-0.330729 -0.905024,-0.330729 -0.78976,0 -0.940091,0.109929 -1.175921,0.859896 -0.148719,0.472942 -0.824396,2.705364 -1.501505,4.960937 -0.677108,2.255573 -1.353147,4.24987 -1.502309,4.431771 -0.440141,0.536748 -1.480969,0.385914 -1.915734,-0.277621 -0.369906,-0.564548 -0.27841,-0.997951 1.270721,-6.019271 1.788894,-5.79848 2.147946,-6.664984 3.149223,-7.600052 0.998982,-0.932925 2.11416,-1.118615 6.680343,-1.11235 3.55656,0.0049 4.404641,0.08431 5.293411,0.495803 2.05142,0.949775 2.43704,1.637316 4.26806,7.60968 0.92679,3.022971 1.68507,5.744538 1.68507,6.047926 0,1.224295 -1.55266,1.638109 -2.21861,0.591302 -0.20829,-0.327422 -1.011,-2.708672 -1.78379,-5.291667 l -1.40507,-4.696354 h -1.00043 c -0.55024,0 -0.99556,0.0893 -0.9896,0.198437 0.006,0.109141 1.06385,3.889375 2.35085,8.400521 l 2.34001,8.202082 -2.34661,0.076 -2.34662,0.076 -0.0704,7.19377 -0.0704,7.19377 -0.71959,0.25295 c -0.569113,0.20005 -0.831036,0.15209 -1.252519,-0.22934 -0.505123,-0.45714 -0.5366,-0.84962 -0.603325,-7.52274 l -0.0704,-7.04045 h -1.058334 -1.058333 l -0.132292,7.18832 c -0.07276,3.95358 -0.192067,7.24789 -0.265125,7.32068 -0.398627,0.39721 -1.512435,0.41745 -2.049979,0.0373 z m 27.787354,-1.10674 c -0.43301,-0.66061 -0.47485,-1.88255 -0.54355,-15.875005 L 120.0476,83.84033 h -1.05005 -1.05005 l -0.004,5.886979 c -0.002,3.237839 -0.0915,6.014727 -0.19844,6.170862 -0.40076,0.585276 -1.13017,0.632412 -1.65559,0.106992 -0.49185,-0.491842 -0.52317,-0.900009 -0.52317,-6.817104 0,-6.005457 0.0273,-6.347337 0.59531,-7.45899 1.13841,-2.227913 1.19651,-2.24363 8.62605,-2.333091 6.44768,-0.07764 6.5504,-0.07032 7.43141,0.529167 1.9985,1.359891 1.99133,1.329333 2.07937,8.852266 0.057,4.872915 -0.007,6.855539 -0.23084,7.124993 -0.4475,0.539202 -1.50349,0.459026 -1.82324,-0.13843 -0.16452,-0.307396 -0.2739,-2.790437 -0.2739,-6.217708 V 83.84033 h -1.05833 -1.05833 v 15.17786 c 0,14.9544 -0.008,15.18812 -0.54837,15.875 -0.67772,0.86159 -1.89669,0.93754 -2.56308,0.1597 -0.41205,-0.48098 -0.47433,-1.48863 -0.59272,-9.59115 l -0.13229,-9.053701 h -1.05833 -1.05834 l -0.0649,9.128121 c -0.0635,8.93239 -0.0769,9.13806 -0.62463,9.59115 -0.85688,0.70885 -1.98891,0.59648 -2.54551,-0.25267 z M 94.015151,77.994958 c -1.866607,-1.638902 -1.772467,-3.87314 0.227468,-5.398565 0.81627,-0.622599 1.13568,-0.710281 2.164851,-0.594278 2.158814,0.243329 3.6567,2.365843 3.023528,4.284364 -0.801961,2.429967 -3.591772,3.310038 -5.415847,1.708479 z m 29.598419,-0.08696 c -1.30054,-0.566257 -1.96194,-1.612338 -1.96194,-3.103069 0,-1.092746 0.13465,-1.438038 0.87631,-2.247337 1.13341,-1.236764 2.97675,-1.503839 4.36514,-0.632448 0.90039,0.565113 1.63772,1.907269 1.63772,2.981128 0,0.982991 -0.89783,2.373822 -1.8684,2.894344 -1.05826,0.567551 -1.92207,0.597975 -3.04883,0.107382 z"
         id="path75"
         inkscape:connector-curvature="0" />
      <path
         style="fill:#fd1984;stroke-width:0.26458335"
         d="m 92.878196,115.98138 c -0.591737,-0.41853 -0.595312,-0.46307 -0.595312,-7.41751 v -6.99646 h -2.279817 c -2.045702,0 -2.266114,-0.0475 -2.146374,-0.46302 1.383737,-4.801248 4.425321,-15.893276 4.425692,-16.139581 2.91e-4,-0.200257 -0.356729,-0.330729 -0.905024,-0.330729 -0.78976,0 -0.940091,0.109929 -1.175921,0.859896 -0.148719,0.472942 -0.824396,2.705364 -1.501505,4.960937 -0.677108,2.255573 -1.353147,4.24987 -1.502309,4.431771 -0.440141,0.536748 -1.480969,0.385914 -1.915734,-0.277621 -0.369906,-0.564548 -0.27841,-0.997951 1.270721,-6.019271 1.788894,-5.79848 2.147946,-6.664984 3.149223,-7.600052 0.998982,-0.932925 2.11416,-1.118615 6.680343,-1.11235 3.55656,0.0049 4.404641,0.08431 5.293411,0.495803 2.05142,0.949775 2.43704,1.637316 4.26806,7.60968 0.92679,3.022971 1.68507,5.744538 1.68507,6.047926 0,1.224295 -1.55266,1.638109 -2.21861,0.591302 -0.20829,-0.327422 -1.011,-2.708672 -1.78379,-5.291667 l -1.40507,-4.696354 h -1.00043 c -0.55024,0 -0.99556,0.0893 -0.9896,0.198437 0.006,0.109141 1.06385,3.889375 2.35085,8.400521 l 2.34001,8.202082 -2.34661,0.076 -2.34662,0.076 -0.0704,7.19377 -0.0704,7.19377 -0.71959,0.25295 c -0.569113,0.20005 -0.831036,0.15209 -1.252519,-0.22934 -0.505123,-0.45714 -0.5366,-0.84962 -0.603325,-7.52274 l -0.0704,-7.04045 h -1.058334 -1.058333 l -0.132292,7.18832 c -0.07276,3.95358 -0.192067,7.24789 -0.265125,7.32068 -0.398627,0.39721 -1.512435,0.41745 -2.049979,0.0373 z m 27.787354,-1.10674 c -0.43301,-0.66061 -0.47485,-1.88255 -0.54355,-15.875005 L 120.0476,83.84033 h -1.05005 -1.05005 l -0.004,5.886979 c -0.002,3.237839 -0.0915,6.014727 -0.19844,6.170862 -0.40076,0.585276 -1.13017,0.632412 -1.65559,0.106992 -0.49185,-0.491842 -0.52317,-0.900009 -0.52317,-6.817104 0,-6.005457 0.0273,-6.347337 0.59531,-7.45899 1.13841,-2.227913 1.19651,-2.24363 8.62605,-2.333091 6.44768,-0.07764 6.5504,-0.07032 7.43141,0.529167 1.9985,1.359891 1.99133,1.329333 2.07937,8.852266 0.057,4.872915 -0.007,6.855539 -0.23084,7.124993 -0.4475,0.539202 -1.50349,0.459026 -1.82324,-0.13843 -0.16452,-0.307396 -0.2739,-2.790437 -0.2739,-6.217708 V 83.84033 h -1.05833 -1.05833 v 15.17786 c 0,14.9544 -0.008,15.18812 -0.54837,15.875 -0.63083,0.80198 -1.8197,0.93711 -2.47544,0.28137 -0.22868,-0.22868 -0.44162,-0.43704 -0.4732,-0.46302 -0.0316,-0.026 -0.12088,-4.15491 -0.19844,-9.17538 l -0.14101,-9.128121 h -1.05833 -1.05834 l -0.0649,9.128121 c -0.0635,8.93239 -0.0769,9.13806 -0.62463,9.59115 -0.85688,0.70885 -1.98891,0.59648 -2.54551,-0.25267 z M 94.015151,77.994958 c -1.866607,-1.638902 -1.772467,-3.87314 0.227468,-5.398565 0.81627,-0.622599 1.13568,-0.710281 2.164851,-0.594278 2.158814,0.243329 3.6567,2.365843 3.023528,4.284364 -0.801961,2.429967 -3.591772,3.310038 -5.415847,1.708479 z m 29.598419,-0.08696 c -1.30054,-0.566257 -1.96194,-1.612338 -1.96194,-3.103069 0,-1.092746 0.13465,-1.438038 0.87631,-2.247337 1.13341,-1.236764 2.97675,-1.503839 4.36514,-0.632448 0.90039,0.565113 1.63772,1.907269 1.63772,2.981128 0,0.982991 -0.89783,2.373822 -1.8684,2.894344 -1.05826,0.567551 -1.92207,0.597975 -3.04883,0.107382 z"
         id="path73"
         inkscape:connector-curvature="0" />
      <path
         style="fill:#6640f3;stroke-width:0.26458335"
         d="m 92.878196,115.98138 c -0.591737,-0.41853 -0.595312,-0.46307 -0.595312,-7.41751 v -6.99646 h -2.279817 c -2.045702,0 -2.266114,-0.0475 -2.146374,-0.46302 1.383737,-4.801248 4.425321,-15.893276 4.425692,-16.139581 2.91e-4,-0.200257 -0.356729,-0.330729 -0.905024,-0.330729 -0.78976,0 -0.940091,0.109929 -1.175921,0.859896 -0.148719,0.472942 -0.824396,2.705364 -1.501505,4.960937 -0.677108,2.255573 -1.353147,4.24987 -1.502309,4.431771 -0.440141,0.536748 -1.480969,0.385914 -1.915734,-0.277621 -0.369906,-0.564548 -0.27841,-0.997951 1.270721,-6.019271 1.788894,-5.79848 2.147946,-6.664984 3.149223,-7.600052 0.998982,-0.932925 2.11416,-1.118615 6.680343,-1.11235 3.55656,0.0049 4.404641,0.08431 5.293411,0.495803 2.05142,0.949775 2.43704,1.637316 4.26806,7.60968 0.92679,3.022971 1.68507,5.744538 1.68507,6.047926 0,1.224295 -1.55266,1.638109 -2.21861,0.591302 -0.20829,-0.327422 -1.011,-2.708672 -1.78379,-5.291667 l -1.40507,-4.696354 h -1.00043 c -0.55024,0 -0.99538,0.0893 -0.9892,0.198437 0.006,0.109141 1.05988,3.889375 2.34155,8.400521 l 2.33031,8.202082 -2.33731,0.076 -2.33732,0.076 -0.0704,7.19377 -0.0704,7.19377 -0.71959,0.25295 c -0.569113,0.20005 -0.831036,0.15209 -1.252519,-0.22934 -0.505123,-0.45714 -0.5366,-0.84962 -0.603325,-7.52274 l -0.0704,-7.04045 h -1.058334 -1.058333 l -0.132292,7.18832 c -0.07276,3.95358 -0.192067,7.24789 -0.265125,7.32068 -0.398627,0.39721 -1.512435,0.41745 -2.049979,0.0373 z m 27.787354,-1.10674 c -0.43301,-0.66061 -0.47485,-1.88255 -0.54355,-15.875005 L 120.0476,83.84033 h -1.05005 -1.05005 l -0.004,5.886979 c -0.002,3.237839 -0.0915,6.014727 -0.19844,6.170862 -0.40076,0.585276 -1.13017,0.632412 -1.65559,0.106992 -0.49185,-0.491842 -0.52317,-0.900009 -0.52317,-6.817104 0,-6.005457 0.0273,-6.347337 0.59531,-7.45899 1.13841,-2.227913 1.19651,-2.24363 8.62605,-2.333091 6.44768,-0.07764 6.5504,-0.07032 7.43141,0.529167 1.9985,1.359891 1.99133,1.329333 2.07937,8.852266 0.057,4.872915 -0.007,6.855539 -0.23084,7.124993 -0.4475,0.539202 -1.50349,0.459026 -1.82324,-0.13843 -0.16452,-0.307396 -0.2739,-2.790437 -0.2739,-6.217708 V 83.84033 h -1.05833 -1.05833 v 15.17786 c 0,14.9544 -0.008,15.18812 -0.54837,15.875 -0.63083,0.80198 -1.8197,0.93711 -2.47544,0.28137 -0.22868,-0.22868 -0.44162,-0.43704 -0.4732,-0.46302 -0.0316,-0.026 -0.12088,-4.15491 -0.19844,-9.17538 l -0.14101,-9.128121 h -1.05833 -1.05834 l -0.0649,9.128121 c -0.0635,8.93239 -0.0769,9.13806 -0.62463,9.59115 -0.85688,0.70885 -1.98891,0.59648 -2.54551,-0.25267 z M 94.774845,78.571047 c -0.786785,-0.338493 -1.888843,-1.729197 -2.087674,-2.634471 -0.236927,-1.078721 0.408966,-2.465718 1.555448,-3.340183 0.81627,-0.622599 1.13568,-0.710281 2.164851,-0.594278 1.409036,0.158818 2.582177,1.121422 3.033567,2.489148 0.618233,1.873279 -0.906679,4.037984 -2.970855,4.217297 -0.629525,0.05469 -1.392426,-0.0072 -1.695337,-0.137513 z m 28.838725,-0.663049 c -1.30054,-0.566257 -1.96194,-1.612338 -1.96194,-3.103069 0,-1.092746 0.13465,-1.438038 0.87631,-2.247337 1.13341,-1.236764 2.97675,-1.503839 4.36514,-0.632448 0.90039,0.565113 1.63772,1.907269 1.63772,2.981128 0,0.982991 -0.89783,2.373822 -1.8684,2.894344 -1.05826,0.567551 -1.92207,0.597975 -3.04883,0.107382 z"
         id="path71"
         inkscape:connector-curvature="0" />
      <path
         style="fill:#fe1481;stroke-width:0.26458335"
         d="m 92.878196,115.98138 c -0.591737,-0.41853 -0.595312,-0.46307 -0.595312,-7.41751 v -6.99646 h -2.279817 c -2.045702,0 -2.266114,-0.0475 -2.146374,-0.46302 1.383737,-4.801248 4.425321,-15.893276 4.425692,-16.139581 2.91e-4,-0.200257 -0.356729,-0.330729 -0.905024,-0.330729 -0.78976,0 -0.940091,0.109929 -1.175921,0.859896 -0.148719,0.472942 -0.824396,2.705364 -1.501505,4.960937 -0.677108,2.255573 -1.353147,4.24987 -1.502309,4.431771 -0.440141,0.536748 -1.480969,0.385914 -1.915734,-0.277621 -0.369906,-0.564548 -0.27841,-0.997951 1.270721,-6.019271 1.788894,-5.79848 2.147946,-6.664984 3.149223,-7.600052 0.998982,-0.932925 2.11416,-1.118615 6.680343,-1.11235 3.55656,0.0049 4.404641,0.08431 5.293411,0.495803 2.05142,0.949775 2.43704,1.637316 4.26806,7.60968 0.92679,3.022971 1.68507,5.744538 1.68507,6.047926 0,1.224295 -1.55266,1.638109 -2.21861,0.591302 -0.20829,-0.327422 -1.011,-2.708672 -1.78379,-5.291667 l -1.40507,-4.696354 h -1.00043 c -0.55024,0 -0.99538,0.0893 -0.9892,0.198437 0.006,0.109141 1.05988,3.889375 2.34155,8.400521 l 2.33031,8.202082 -2.33731,0.076 -2.33732,0.076 -0.0704,7.19377 -0.0704,7.19377 -0.71959,0.25295 c -0.569113,0.20005 -0.831036,0.15209 -1.252519,-0.22934 -0.505123,-0.45714 -0.5366,-0.84962 -0.603325,-7.52274 l -0.0704,-7.04045 h -1.058334 -1.058333 l -0.132292,7.18832 c -0.07276,3.95358 -0.192067,7.24789 -0.265125,7.32068 -0.398627,0.39721 -1.512435,0.41745 -2.049979,0.0373 z m 28.148004,-0.72886 c -0.25409,-0.1858 -0.57166,-0.81088 -0.70571,-1.38907 -0.13405,-0.57818 -0.24657,-7.56992 -0.25004,-15.537182 l -0.006,-14.485938 h -1.05833 -1.05833 v 5.799194 c 0,3.189556 -0.0723,5.987525 -0.1606,6.217708 -0.23287,0.606859 -1.60731,0.54102 -1.94676,-0.09326 -0.16637,-0.310871 -0.27389,-2.937418 -0.27389,-6.690812 0,-5.886304 0.0282,-6.234236 0.59531,-7.344093 1.13841,-2.227913 1.19651,-2.24363 8.62605,-2.333091 6.44768,-0.07764 6.5504,-0.07032 7.43141,0.529167 1.9985,1.359891 1.99133,1.329333 2.07937,8.852266 0.057,4.872915 -0.007,6.855539 -0.23084,7.124993 -0.4475,0.539202 -1.50349,0.459026 -1.82324,-0.13843 -0.16452,-0.307396 -0.2739,-2.790437 -0.2739,-6.217708 V 83.84033 h -1.05833 -1.05833 v 15.17786 c 0,14.9544 -0.008,15.18812 -0.54837,15.875 -0.63083,0.80198 -1.8197,0.93711 -2.47544,0.28137 -0.22868,-0.22868 -0.44162,-0.43704 -0.4732,-0.46302 -0.0316,-0.026 -0.12088,-4.15491 -0.19844,-9.17538 l -0.14101,-9.128121 h -1.05833 -1.05834 l -0.0649,9.128121 c -0.0635,8.93239 -0.0769,9.13806 -0.62463,9.59115 -0.66029,0.54622 -1.54013,0.59665 -2.18486,0.12521 z M 94.774845,78.571047 c -0.786785,-0.338493 -1.888843,-1.729197 -2.087674,-2.634471 -0.236927,-1.078721 0.408966,-2.465718 1.555448,-3.340183 0.81627,-0.622599 1.13568,-0.710281 2.164851,-0.594278 1.409036,0.158818 2.582177,1.121422 3.033567,2.489148 0.618233,1.873279 -0.906679,4.037984 -2.970855,4.217297 -0.629525,0.05469 -1.392426,-0.0072 -1.695337,-0.137513 z m 28.838725,-0.663049 c -1.30054,-0.566257 -1.96194,-1.612338 -1.96194,-3.103069 0,-2.503036 2.43697,-4.04714 4.81753,-3.052475 2.55474,1.067437 2.67141,4.719105 0.19324,6.048162 -1.05826,0.567551 -1.92207,0.597975 -3.04883,0.107382 z"
         id="path69"
         inkscape:connector-curvature="0" />
      <path
         style="fill:#643df2;stroke-width:0.26458335"
         d="m 92.878196,115.98138 c -0.591737,-0.41853 -0.595312,-0.46307 -0.595312,-7.41751 v -6.99646 h -2.248959 c -1.236927,0 -2.248958,-0.0327 -2.248958,-0.0727 0,-0.04 0.947252,-3.434035 2.105004,-7.542362 1.157752,-4.108326 2.183034,-7.88562 2.278404,-8.393986 0.171533,-0.914351 0.163333,-0.924302 -0.761568,-0.924302 -0.823109,0 -0.967244,0.102878 -1.204742,0.859896 -0.148376,0.472942 -0.826757,2.705364 -1.507513,4.960937 -0.680757,2.255573 -1.357077,4.24987 -1.502934,4.431771 -0.430739,0.537182 -1.475167,0.385599 -1.909398,-0.277121 -0.369544,-0.563996 -0.277074,-0.999087 1.281692,-6.030631 1.811268,-5.846596 2.150513,-6.667073 3.137924,-7.589192 0.998982,-0.932925 2.11416,-1.118615 6.680343,-1.11235 6.845411,0.0094 7.165841,0.285434 9.603851,8.273464 0.90348,2.960207 1.64269,5.618302 1.64269,5.906877 0,1.199905 -1.56506,1.599187 -2.21215,0.56437 -0.20474,-0.327422 -1.00916,-2.708672 -1.7876,-5.291667 l -1.41534,-4.696354 h -0.99662 c -0.54815,0 -0.99194,0.0893 -0.98622,0.198437 0.006,0.109141 1.0583,3.889375 2.33904,8.400521 l 2.32862,8.202082 -2.3348,0.076 -2.3348,0.076 -0.0704,7.19377 -0.0704,7.19377 -0.71959,0.25295 c -0.569113,0.20005 -0.831036,0.15209 -1.252519,-0.22934 -0.505123,-0.45714 -0.5366,-0.84962 -0.603325,-7.52274 l -0.0704,-7.04045 h -1.058334 -1.058333 l -0.132292,7.18832 c -0.07276,3.95358 -0.192067,7.24789 -0.265125,7.32068 -0.398627,0.39721 -1.512435,0.41745 -2.049979,0.0373 z m 28.148004,-0.72886 c -0.25409,-0.1858 -0.57166,-0.81088 -0.70571,-1.38907 -0.13405,-0.57818 -0.24657,-7.56992 -0.25004,-15.537182 l -0.006,-14.485938 h -1.05833 -1.05833 v 5.799194 c 0,3.189556 -0.0723,5.987525 -0.1606,6.217708 -0.23287,0.606859 -1.60731,0.54102 -1.94676,-0.09326 -0.16637,-0.310871 -0.27389,-2.937418 -0.27389,-6.690812 0,-5.886304 0.0282,-6.234236 0.59531,-7.344093 1.13841,-2.227913 1.19651,-2.24363 8.62605,-2.333091 6.44768,-0.07764 6.5504,-0.07032 7.43141,0.529167 1.9985,1.359891 1.99133,1.329333 2.07937,8.852266 0.057,4.872915 -0.007,6.855539 -0.23084,7.124993 -0.4475,0.539202 -1.50349,0.459026 -1.82324,-0.13843 -0.16452,-0.307396 -0.2739,-2.790437 -0.2739,-6.217708 V 83.84033 h -1.05833 -1.05833 v 15.17786 c 0,14.9544 -0.008,15.18812 -0.54837,15.875 -0.63083,0.80198 -1.8197,0.93711 -2.47544,0.28137 -0.22868,-0.22868 -0.44162,-0.43704 -0.4732,-0.46302 -0.0316,-0.026 -0.12088,-4.15491 -0.19844,-9.17538 l -0.14101,-9.128121 h -1.05833 -1.05834 l -0.0649,9.128121 c -0.0635,8.93239 -0.0769,9.13806 -0.62463,9.59115 -0.66029,0.54622 -1.54013,0.59665 -2.18486,0.12521 z M 94.774845,78.571047 c -0.786785,-0.338493 -1.888843,-1.729197 -2.087674,-2.634471 -0.236927,-1.078721 0.408966,-2.465718 1.555448,-3.340183 0.81627,-0.622599 1.13568,-0.710281 2.164851,-0.594278 1.409036,0.158818 2.582177,1.121422 3.033567,2.489148 0.618233,1.873279 -0.906679,4.037984 -2.970855,4.217297 -0.629525,0.05469 -1.392426,-0.0072 -1.695337,-0.137513 z m 28.838725,-0.663049 c -1.30054,-0.566257 -1.96194,-1.612338 -1.96194,-3.103069 0,-2.503036 2.43697,-4.04714 4.81753,-3.052475 2.55474,1.067437 2.67141,4.719105 0.19324,6.048162 -1.05826,0.567551 -1.92207,0.597975 -3.04883,0.107382 z"
         id="path67"
         inkscape:connector-curvature="0" />
      <path
         style="fill:#633cf2;stroke-width:0.26458335"
         d="m 92.878196,115.98138 c -0.591737,-0.41853 -0.595312,-0.46307 -0.595312,-7.41751 v -6.99646 h -2.248959 c -1.236927,0 -2.248958,-0.0327 -2.248958,-0.0727 0,-0.04 0.947252,-3.434035 2.105004,-7.542362 1.157752,-4.108326 2.183034,-7.88562 2.278404,-8.393986 0.171533,-0.914351 0.163333,-0.924302 -0.761568,-0.924302 -0.823109,0 -0.967244,0.102878 -1.204742,0.859896 -0.148376,0.472942 -0.826757,2.705364 -1.507513,4.960937 -0.680757,2.255573 -1.357077,4.24987 -1.502934,4.431771 -0.430739,0.537182 -1.475167,0.385599 -1.909398,-0.277121 -0.369544,-0.563996 -0.277074,-0.999087 1.281692,-6.030631 1.811268,-5.846596 2.150513,-6.667073 3.137924,-7.589192 0.998982,-0.932925 2.11416,-1.118615 6.680343,-1.11235 6.845411,0.0094 7.165841,0.285434 9.603851,8.273464 0.90348,2.960207 1.64269,5.618302 1.64269,5.906877 0,1.199905 -1.56506,1.599187 -2.21215,0.56437 -0.20474,-0.327422 -1.00916,-2.708672 -1.7876,-5.291667 l -1.41534,-4.696354 h -0.99662 c -0.54815,0 -0.99194,0.0893 -0.98622,0.198437 0.006,0.109141 1.0583,3.889375 2.33904,8.400521 l 2.32862,8.202082 -2.3348,0.076 -2.3348,0.076 -0.0704,7.19377 -0.0704,7.19377 -0.71959,0.25295 c -0.569113,0.20005 -0.831036,0.15209 -1.252519,-0.22934 -0.505123,-0.45714 -0.5366,-0.84962 -0.603325,-7.52274 l -0.0704,-7.04045 h -1.058334 -1.058333 l -0.132292,7.18832 c -0.07276,3.95358 -0.192067,7.24789 -0.265125,7.32068 -0.398627,0.39721 -1.512435,0.41745 -2.049979,0.0373 z m 28.148004,-0.72886 c -0.25409,-0.1858 -0.57166,-0.81088 -0.70571,-1.38907 -0.13405,-0.57818 -0.24657,-7.56992 -0.25004,-15.537182 l -0.006,-14.485938 h -1.05833 -1.05833 v 5.799194 c 0,3.189556 -0.0723,5.987525 -0.1606,6.217708 -0.24005,0.625565 -1.60863,0.538538 -1.96368,-0.124867 -0.19532,-0.36497 -0.26353,-2.645365 -0.20774,-6.945313 0.0757,-5.838986 0.12959,-6.480929 0.61223,-7.300315 0.29104,-0.494112 0.86502,-1.148956 1.27551,-1.455209 0.70403,-0.525255 1.117,-0.561287 7.28439,-0.63555 6.44768,-0.07764 6.5504,-0.07032 7.43141,0.529167 1.9985,1.359891 1.99133,1.329333 2.07937,8.852266 0.057,4.872915 -0.007,6.855539 -0.23084,7.124993 -0.4475,0.539202 -1.50349,0.459026 -1.82324,-0.13843 -0.16452,-0.307396 -0.2739,-2.790437 -0.2739,-6.217708 V 83.84033 h -1.05833 -1.05833 v 15.17786 c 0,14.9544 -0.008,15.18812 -0.54837,15.875 -0.63083,0.80198 -1.8197,0.93711 -2.47544,0.28137 -0.22868,-0.22868 -0.44162,-0.43704 -0.4732,-0.46302 -0.0316,-0.026 -0.12088,-4.15491 -0.19844,-9.17538 l -0.14101,-9.128121 h -1.05833 -1.05834 l -0.0649,9.128121 c -0.0635,8.93239 -0.0769,9.13806 -0.62463,9.59115 -0.66029,0.54622 -1.54013,0.59665 -2.18486,0.12521 z M 94.774845,78.571047 c -0.786785,-0.338493 -1.888843,-1.729197 -2.087674,-2.634471 -0.236927,-1.078721 0.408966,-2.465718 1.555448,-3.340183 0.81627,-0.622599 1.13568,-0.710281 2.164851,-0.594278 1.409036,0.158818 2.582177,1.121422 3.033567,2.489148 0.618233,1.873279 -0.906679,4.037984 -2.970855,4.217297 -0.629525,0.05469 -1.392426,-0.0072 -1.695337,-0.137513 z m 28.861165,-0.658049 c -1.40819,-0.621592 -1.85208,-1.362459 -1.85208,-3.091192 0,-1.385022 0.0893,-1.643928 0.81845,-2.373091 1.00827,-1.008264 2.48406,-1.273999 3.86678,-0.696261 2.55474,1.067437 2.67141,4.719105 0.19324,6.048162 -1.05523,0.565926 -1.92568,0.598249 -3.02639,0.112382 z"
         id="path65"
         inkscape:connector-curvature="0" />
      <path
         style="fill:#fe1280;stroke-width:0.26458335"
         d="m 92.878196,115.98138 c -0.591737,-0.41853 -0.595312,-0.46307 -0.595312,-7.41751 v -6.99646 h -2.248959 c -1.236927,0 -2.248958,-0.0327 -2.248958,-0.0727 0,-0.04 0.947252,-3.434035 2.105004,-7.542362 1.157752,-4.108326 2.183034,-7.88562 2.278404,-8.393986 0.171533,-0.914351 0.163333,-0.924302 -0.761568,-0.924302 -0.823109,0 -0.967244,0.102878 -1.204742,0.859896 -0.148376,0.472942 -0.826757,2.705364 -1.507513,4.960937 -0.680757,2.255573 -1.357077,4.24987 -1.502934,4.431771 -0.430739,0.537182 -1.475167,0.385599 -1.909398,-0.277121 -0.369544,-0.563996 -0.277074,-0.999087 1.281692,-6.030631 1.811268,-5.846596 2.150513,-6.667073 3.137924,-7.589192 0.998982,-0.932925 2.11416,-1.118615 6.680343,-1.11235 6.845411,0.0094 7.165841,0.285434 9.603851,8.273464 0.90348,2.960207 1.64269,5.618302 1.64269,5.906877 0,1.199905 -1.56506,1.599187 -2.21215,0.56437 -0.20474,-0.327422 -1.00916,-2.708672 -1.7876,-5.291667 l -1.41534,-4.696354 h -0.99662 c -0.54815,0 -0.99194,0.0893 -0.98622,0.198437 0.006,0.109141 1.0583,3.889375 2.33904,8.400521 l 2.32862,8.202082 -2.3348,0.076 -2.3348,0.076 -0.0704,7.19377 -0.0704,7.19377 -0.71959,0.25295 c -0.569113,0.20005 -0.831036,0.15209 -1.252519,-0.22934 -0.505123,-0.45714 -0.5366,-0.84962 -0.603325,-7.52274 l -0.0704,-7.04045 h -1.058334 -1.058333 l -0.132292,7.18832 c -0.07276,3.95358 -0.192067,7.24789 -0.265125,7.32068 -0.398627,0.39721 -1.512435,0.41745 -2.049979,0.0373 z m 28.148004,-0.72886 c -0.25409,-0.1858 -0.57166,-0.81088 -0.70571,-1.38907 -0.13405,-0.57818 -0.24657,-7.56992 -0.25004,-15.537182 l -0.006,-14.485938 h -1.05833 -1.05833 v 5.900208 c 0,6.248972 -0.0548,6.535209 -1.25009,6.535209 -1.03909,0 -1.17148,-0.938459 -1.0818,-7.66813 0.0754,-5.659333 0.13082,-6.303803 0.6121,-7.12088 0.29104,-0.494112 0.86501,-1.148956 1.27549,-1.455209 0.70322,-0.524663 1.11894,-0.561398 7.19776,-0.636038 7.21783,-0.08862 7.43576,-0.04613 8.77713,1.711356 l 0.74128,0.971239 0.079,6.725489 c 0.057,4.85294 -0.007,6.829437 -0.23084,7.09883 -0.4475,0.539202 -1.50349,0.459026 -1.82324,-0.13843 -0.16452,-0.307396 -0.2739,-2.790437 -0.2739,-6.217708 V 83.84033 h -1.05833 -1.05833 v 15.17786 c 0,14.9544 -0.008,15.18812 -0.54837,15.875 -0.63083,0.80198 -1.8197,0.93711 -2.47544,0.28137 -0.22868,-0.22868 -0.44162,-0.43704 -0.4732,-0.46302 -0.0316,-0.026 -0.12088,-4.15491 -0.19844,-9.17538 l -0.14101,-9.128121 h -1.05833 -1.05834 l -0.13229,9.215851 c -0.12538,8.73469 -0.1591,9.23544 -0.64588,9.59115 -0.63781,0.46606 -1.48927,0.48129 -2.09622,0.0375 z M 94.774845,78.571047 c -0.786785,-0.338493 -1.888843,-1.729197 -2.087674,-2.634471 -0.236927,-1.078721 0.408966,-2.465718 1.555448,-3.340183 0.81627,-0.622599 1.13568,-0.710281 2.164851,-0.594278 1.409036,0.158818 2.582177,1.121422 3.033567,2.489148 0.618233,1.873279 -0.906679,4.037984 -2.970855,4.217297 -0.629525,0.05469 -1.392426,-0.0072 -1.695337,-0.137513 z m 28.861165,-0.658049 c -1.40819,-0.621592 -1.85208,-1.362459 -1.85208,-3.091192 0,-1.388768 0.0883,-1.642943 0.82771,-2.382345 1.60658,-1.606585 4.42537,-1.1726 5.45573,0.839973 0.59099,1.154374 0.58555,2.007079 -0.02,3.136247 -0.85888,1.601473 -2.7337,2.237836 -4.41133,1.497317 z"
         id="path63"
         inkscape:connector-curvature="0" />
      <path
         style="fill:#613af2;stroke-width:0.26458335"
         d="m 92.878196,115.98138 c -0.591737,-0.41853 -0.595312,-0.46307 -0.595312,-7.41751 v -6.99646 h -2.266789 c -2.035138,0 -2.252656,-0.0473 -2.128499,-0.46302 1.379462,-4.618746 4.395288,-15.719121 4.395288,-16.177772 0,-0.160896 -0.407474,-0.292538 -0.905496,-0.292538 h -0.905497 l -0.793518,2.579687 c -0.436435,1.418829 -1.114389,3.651251 -1.506563,4.960938 -0.392174,1.309688 -0.832821,2.530078 -0.979215,2.711979 -0.429223,0.533328 -1.475792,0.386136 -1.904282,-0.267821 -0.361389,-0.55155 -0.261208,-1.024214 1.275784,-6.019272 1.794694,-5.832557 2.145411,-6.68314 3.137739,-7.609851 0.988656,-0.923282 2.10902,-1.118285 6.415759,-1.116685 4.786515,0.0018 5.744755,0.227358 7.145495,1.68212 0.97981,1.017595 1.18137,1.511237 2.71648,6.65309 0.91198,3.054667 1.65612,5.738487 1.65365,5.964044 -0.0121,1.1 -1.60761,1.423759 -2.21665,0.449792 -0.20474,-0.327422 -1.00916,-2.708672 -1.7876,-5.291667 l -1.41534,-4.696354 h -0.99662 c -0.54815,0 -0.99194,0.0893 -0.98622,0.198437 0.006,0.109141 1.0583,3.889375 2.33904,8.400521 l 2.32862,8.202082 -2.3348,0.076 -2.3348,0.076 -0.0704,7.17809 -0.0704,7.17809 -0.742912,0.24752 c -0.580681,0.19347 -0.854198,0.14681 -1.252519,-0.21366 -0.475151,-0.43001 -0.514365,-0.9372 -0.580003,-7.50163 l -0.0704,-7.04045 h -1.058334 -1.058333 l -0.132292,7.18832 c -0.07276,3.95358 -0.192067,7.24789 -0.265125,7.32068 -0.398627,0.39721 -1.512435,0.41745 -2.049979,0.0373 z m 28.148004,-0.72886 c -0.25409,-0.1858 -0.57166,-0.81088 -0.70571,-1.38907 -0.13405,-0.57818 -0.24657,-7.56992 -0.25004,-15.537182 l -0.006,-14.485938 h -1.05833 -1.05833 v 5.900208 c 0,6.248972 -0.0548,6.535209 -1.25009,6.535209 -1.03909,0 -1.17148,-0.938459 -1.0818,-7.66813 0.0754,-5.659333 0.13082,-6.303803 0.6121,-7.12088 0.29104,-0.494112 0.86501,-1.148956 1.27549,-1.455209 0.70322,-0.524663 1.11894,-0.561398 7.19776,-0.636038 7.21783,-0.08862 7.43576,-0.04613 8.77713,1.711356 l 0.74128,0.971239 0.079,6.725489 c 0.057,4.85294 -0.007,6.829437 -0.23084,7.09883 -0.4475,0.539202 -1.50349,0.459026 -1.82324,-0.13843 -0.16452,-0.307396 -0.2739,-2.790437 -0.2739,-6.217708 V 83.84033 h -1.05833 -1.05833 v 15.17786 c 0,14.9544 -0.008,15.18812 -0.54837,15.875 -0.63083,0.80198 -1.8197,0.93711 -2.47544,0.28137 -0.22868,-0.22868 -0.44162,-0.43704 -0.4732,-0.46302 -0.0316,-0.026 -0.12088,-4.15491 -0.19844,-9.17538 l -0.14101,-9.128121 h -1.05833 -1.05834 l -0.13229,9.215851 c -0.12538,8.73469 -0.1591,9.23544 -0.64588,9.59115 -0.63781,0.46606 -1.48927,0.48129 -2.09622,0.0375 z M 94.774845,78.571047 c -0.796288,-0.342581 -1.889711,-1.733151 -2.093936,-2.662981 -0.237224,-1.080072 0.532085,-2.60135 1.718641,-3.398546 1.808494,-1.215049 4.311117,-0.231301 5.041487,1.981743 0.618233,1.873279 -0.906679,4.037984 -2.970855,4.217297 -0.629525,0.05469 -1.392426,-0.0072 -1.695337,-0.137513 z m 28.861165,-0.658049 c -1.40819,-0.621592 -1.85208,-1.362459 -1.85208,-3.091192 0,-1.388768 0.0883,-1.642943 0.82771,-2.382345 1.60658,-1.606585 4.42537,-1.1726 5.45573,0.839973 0.59099,1.154374 0.58555,2.007079 -0.02,3.136247 -0.85888,1.601473 -2.7337,2.237836 -4.41133,1.497317 z"
         id="path61"
         inkscape:connector-curvature="0" />
      <path
         style="fill:#fe107f;stroke-width:0.26458335"
         d="m 92.878196,115.98138 c -0.591737,-0.41853 -0.595312,-0.46307 -0.595312,-7.41751 v -6.99646 h -2.266789 c -2.035138,0 -2.252656,-0.0473 -2.128499,-0.46302 1.379462,-4.618746 4.395288,-15.719121 4.395288,-16.177772 0,-0.160896 -0.407474,-0.292538 -0.905496,-0.292538 h -0.905497 l -0.793518,2.579687 c -0.436435,1.418829 -1.114389,3.651251 -1.506563,4.960938 -0.392174,1.309688 -0.832821,2.530078 -0.979215,2.711979 -0.429223,0.533328 -1.475792,0.386136 -1.904282,-0.267821 -0.361389,-0.55155 -0.261208,-1.024214 1.275784,-6.019272 1.794694,-5.832557 2.145411,-6.68314 3.137739,-7.609851 0.988656,-0.923282 2.10902,-1.118285 6.415759,-1.116685 4.786515,0.0018 5.744755,0.227358 7.145495,1.68212 0.97981,1.017595 1.18137,1.511237 2.71648,6.65309 0.91198,3.054667 1.65612,5.738487 1.65365,5.964044 -0.0121,1.1 -1.60761,1.423759 -2.21665,0.449792 -0.20474,-0.327422 -1.00916,-2.708672 -1.7876,-5.291667 l -1.41534,-4.696354 h -0.99662 c -0.54815,0 -0.99194,0.0893 -0.98622,0.198437 0.006,0.109141 1.0583,3.889375 2.33904,8.400521 l 2.32862,8.202082 -2.3348,0.076 -2.3348,0.076 -0.0704,7.17809 -0.0704,7.17809 -0.742912,0.24752 c -0.580681,0.19347 -0.854198,0.14681 -1.252519,-0.21366 -0.475151,-0.43001 -0.514365,-0.9372 -0.580003,-7.50163 l -0.0704,-7.04045 h -1.058334 -1.058333 l -0.132292,7.18832 c -0.07276,3.95358 -0.192067,7.24789 -0.265125,7.32068 -0.398627,0.39721 -1.512435,0.41745 -2.049979,0.0373 z m 28.009074,-0.89083 c -0.74431,-0.74431 -0.88691,-2.80567 -0.80363,-11.61705 0.0409,-4.322568 0.0532,-10.508352 0.0274,-13.746191 l -0.0469,-5.886979 h -1.05833 -1.05833 v 5.900208 c 0,6.248972 -0.0548,6.535209 -1.25009,6.535209 -1.03909,0 -1.17148,-0.938459 -1.0818,-7.66813 0.0919,-6.894093 0.18479,-7.318414 1.86487,-8.516741 0.83986,-0.599027 1.04448,-0.618362 7.35453,-0.694898 6.41942,-0.07786 6.50067,-0.07197 7.40431,0.536991 0.50251,0.338645 1.18141,1.088446 1.50865,1.666226 0.57187,1.009683 0.59516,1.302952 0.59934,7.546031 0.003,4.704363 -0.0832,6.583072 -0.31315,6.813021 -0.48607,0.486071 -1.4837,0.377788 -1.78985,-0.194273 -0.16452,-0.307396 -0.2739,-2.790437 -0.2739,-6.217708 V 83.84033 h -1.05833 -1.05833 v 15.17786 c 0,14.9544 -0.008,15.18812 -0.54837,15.875 -0.63083,0.80198 -1.8197,0.93711 -2.47544,0.28137 -0.22868,-0.22868 -0.44162,-0.43704 -0.4732,-0.46302 -0.0316,-0.026 -0.12088,-4.15491 -0.19844,-9.17538 l -0.14101,-9.128121 h -1.05833 -1.05834 l -0.13229,9.215851 c -0.12538,8.73469 -0.1591,9.23544 -0.64588,9.59115 -0.71233,0.52052 -1.64192,0.46874 -2.23515,-0.12449 z M 94.774845,78.571047 c -0.796288,-0.342581 -1.889711,-1.733151 -2.093936,-2.662981 -0.237224,-1.080072 0.532085,-2.60135 1.718641,-3.398546 1.808494,-1.215049 4.311117,-0.231301 5.041487,1.981743 0.618233,1.873279 -0.906679,4.037984 -2.970855,4.217297 -0.629525,0.05469 -1.392426,-0.0072 -1.695337,-0.137513 z m 28.861165,-0.645774 c -1.23741,-0.565343 -1.78614,-1.35802 -1.90185,-2.747367 -0.12592,-1.512025 0.26601,-2.350413 1.48181,-3.169739 1.62751,-1.096781 3.88115,-0.506643 4.83137,1.265144 0.58983,1.099801 0.61046,1.891624 0.0778,2.986407 -0.78997,1.623732 -2.8819,2.399874 -4.48916,1.665555 z"
         id="path59"
         inkscape:connector-curvature="0" />
      <path
         style="fill:#6038f2;stroke-width:0.26458335"
         d="m 92.870922,115.9722 c -0.582453,-0.40796 -0.588038,-0.47833 -0.588038,-7.40833 v -6.99646 h -2.266789 c -2.036754,0 -2.252323,-0.047 -2.124256,-0.46302 0.624525,-2.028793 4.129058,-14.759885 4.270394,-15.51327 0.179048,-0.954406 0.176944,-0.95704 -0.764584,-0.95704 h -0.944125 l -0.786721,2.579687 c -0.432696,1.418829 -1.049916,3.472657 -1.3716,4.564063 -0.826829,2.805264 -1.18942,3.439584 -1.96614,3.439584 -0.381661,0 -0.80996,-0.246321 -1.04075,-0.598551 -0.361389,-0.55155 -0.261208,-1.024214 1.275784,-6.019272 1.791424,-5.82193 2.153697,-6.70225 3.11396,-7.566881 1.053024,-0.948155 2.231478,-1.1612 6.414621,-1.159655 4.812172,0.0018 5.768482,0.226121 7.170412,1.68212 0.97981,1.017595 1.18137,1.511237 2.71648,6.65309 0.91198,3.054667 1.65612,5.738487 1.65365,5.964044 -0.0121,1.1 -1.60761,1.423759 -2.21665,0.449792 -0.20474,-0.327422 -1.00916,-2.708672 -1.7876,-5.291667 l -1.41534,-4.696354 h -0.99662 c -0.54815,0 -0.99663,0.06309 -0.99663,0.140205 0,0.160501 3.50937,12.675934 4.22662,15.073337 l 0.47494,1.587498 -2.34654,0.076 -2.34655,0.076 -0.0704,7.17809 -0.0704,7.17809 -0.742912,0.24752 c -0.580681,0.19347 -0.854198,0.14681 -1.252519,-0.21366 -0.475151,-0.43001 -0.514365,-0.9372 -0.580003,-7.50163 l -0.0704,-7.04045 -1.124479,-0.0814 -1.12448,-0.0814 v 7.14397 c 0,7.08243 -0.0051,7.1475 -0.588038,7.55583 -0.323421,0.22653 -0.713647,0.41188 -0.86717,0.41188 -0.153523,0 -0.543749,-0.18535 -0.86717,-0.41188 z m 28.016348,-0.88165 c -0.74431,-0.74431 -0.88691,-2.80567 -0.80363,-11.61705 0.0409,-4.322568 0.0532,-10.508352 0.0274,-13.746191 l -0.0469,-5.886979 h -1.05833 -1.05833 v 5.900208 c 0,6.248972 -0.0548,6.535209 -1.25009,6.535209 -1.03909,0 -1.17148,-0.938459 -1.0818,-7.66813 0.0919,-6.894093 0.18479,-7.318414 1.86487,-8.516741 0.83986,-0.599027 1.04448,-0.618362 7.35453,-0.694898 6.41942,-0.07786 6.50067,-0.07197 7.40431,0.536991 0.50251,0.338645 1.18141,1.088446 1.50865,1.666226 0.57187,1.009683 0.59516,1.302952 0.59934,7.546031 0.003,4.704363 -0.0832,6.583072 -0.31315,6.813021 -0.48607,0.486071 -1.4837,0.377788 -1.78985,-0.194273 -0.16452,-0.307396 -0.2739,-2.790437 -0.2739,-6.217708 V 83.84033 h -1.05833 -1.05833 v 15.17786 c 0,14.9544 -0.008,15.18812 -0.54837,15.875 -0.63083,0.80198 -1.8197,0.93711 -2.47544,0.28137 -0.22868,-0.22868 -0.44162,-0.43704 -0.4732,-0.46302 -0.0316,-0.026 -0.12088,-4.15491 -0.19844,-9.17538 l -0.14101,-9.128121 h -1.05833 -1.05834 l -0.13229,9.215851 c -0.12538,8.73469 -0.1591,9.23544 -0.64588,9.59115 -0.71233,0.52052 -1.64192,0.46874 -2.23515,-0.12449 z M 94.39955,78.237806 c -0.509323,-0.342192 -1.149762,-1.078711 -1.4232,-1.636707 -0.422857,-0.862916 -0.4518,-1.165932 -0.193658,-2.027531 0.326534,-1.089875 1.525545,-2.275499 2.565031,-2.536394 2.379928,-0.597323 4.846047,1.938076 4.095922,4.210985 -0.732905,2.220724 -3.232582,3.206724 -5.044095,1.989647 z m 29.23646,-0.312533 c -1.23741,-0.565343 -1.78614,-1.35802 -1.90185,-2.747367 -0.12592,-1.512025 0.26601,-2.350413 1.48181,-3.169739 1.62751,-1.096781 3.88115,-0.506643 4.83137,1.265144 0.58983,1.099801 0.61046,1.891624 0.0778,2.986407 -0.78997,1.623732 -2.8819,2.399874 -4.48916,1.665555 z"
         id="path57"
         inkscape:connector-curvature="0" />
      <path
         style="fill:#fe0e7e;stroke-width:0.26458335"
         d="m 92.870922,115.9722 c -0.582453,-0.40796 -0.588038,-0.47833 -0.588038,-7.40833 v -6.99646 h -2.266789 c -2.036754,0 -2.252323,-0.047 -2.124256,-0.46302 0.624525,-2.028793 4.129058,-14.759885 4.270394,-15.51327 0.179048,-0.954406 0.176944,-0.95704 -0.764584,-0.95704 h -0.944125 l -0.786721,2.579687 c -0.432696,1.418829 -1.049916,3.472657 -1.3716,4.564063 -0.826829,2.805264 -1.18942,3.439584 -1.96614,3.439584 -0.381661,0 -0.80996,-0.246321 -1.04075,-0.598551 -0.361389,-0.55155 -0.261208,-1.024214 1.275784,-6.019272 1.791424,-5.82193 2.153697,-6.70225 3.11396,-7.566881 1.053024,-0.948155 2.231478,-1.1612 6.414621,-1.159655 4.812172,0.0018 5.768482,0.226121 7.170412,1.68212 0.97981,1.017595 1.18137,1.511237 2.71648,6.65309 0.91198,3.054667 1.65612,5.738487 1.65365,5.964044 -0.0121,1.1 -1.60761,1.423759 -2.21665,0.449792 -0.20474,-0.327422 -1.00916,-2.708672 -1.7876,-5.291667 l -1.41534,-4.696354 h -0.99662 c -0.54815,0 -0.99663,0.06309 -0.99663,0.140205 0,0.160501 3.50937,12.675934 4.22662,15.073337 l 0.47494,1.587498 -2.34654,0.076 -2.34655,0.076 -0.0704,7.17809 -0.0704,7.17809 -0.742912,0.24752 c -0.580681,0.19347 -0.854198,0.14681 -1.252519,-0.21366 -0.475151,-0.43001 -0.514365,-0.9372 -0.580003,-7.50163 l -0.0704,-7.04045 -1.124479,-0.0814 -1.12448,-0.0814 v 7.14397 c 0,7.08243 -0.0051,7.1475 -0.588038,7.55583 -0.323421,0.22653 -0.713647,0.41188 -0.86717,0.41188 -0.153523,0 -0.543749,-0.18535 -0.86717,-0.41188 z m 27.986958,-0.91104 c -0.6523,-0.6523 -0.60954,0.47392 -0.63795,-16.801038 l -0.0235,-14.287501 -1.12448,-0.08136 -1.12447,-0.08136 v 5.935941 c 0,6.375123 -0.0624,6.672695 -1.35886,6.484065 -0.92318,-0.134313 -1.06574,-1.288567 -0.97377,-7.884131 0.0835,-5.991763 0.0847,-6.002633 0.78766,-7.063956 1.24098,-1.873743 1.72859,-1.977235 8.88913,-1.886617 6.09483,0.07713 6.30766,0.09789 7.14776,0.697093 0.47624,0.339677 1.10132,1.079074 1.38907,1.643106 0.47876,0.93845 0.52317,1.572228 0.52317,7.465426 0,4.656046 -0.0879,6.527864 -0.3175,6.757416 -0.48607,0.486071 -1.4837,0.377788 -1.78986,-0.194273 -0.16452,-0.307396 -0.2739,-2.790437 -0.2739,-6.217708 V 83.84033 h -1.05833 -1.05833 v 15.17786 c 0,14.9544 -0.008,15.18812 -0.54837,15.875 -0.36363,0.46228 -0.80284,0.69714 -1.30372,0.69714 -0.50087,0 -0.94008,-0.23486 -1.30371,-0.69714 -0.53029,-0.67416 -0.54837,-0.993 -0.54837,-9.6725 v -8.97537 l -1.12448,0.08136 -1.12448,0.08136 -0.13229,9.21585 c -0.12538,8.73469 -0.1591,9.23544 -0.64588,9.59115 -0.72354,0.52871 -1.64453,0.46613 -2.26454,-0.15388 z M 94.39955,78.237806 c -0.509323,-0.342192 -1.149762,-1.078711 -1.4232,-1.636707 -0.422857,-0.862916 -0.4518,-1.165932 -0.193658,-2.027531 0.326534,-1.089875 1.525545,-2.275499 2.565031,-2.536394 2.379928,-0.597323 4.846047,1.938076 4.095922,4.210985 -0.732905,2.220724 -3.232582,3.206724 -5.044095,1.989647 z m 29.17552,-0.333718 c -1.74586,-0.784052 -2.43282,-3.146969 -1.40498,-4.832684 1.36694,-2.241851 4.6267,-2.129865 5.87725,0.201907 0.58983,1.099801 0.61046,1.891624 0.0778,2.986407 -0.80195,1.648366 -2.87388,2.397143 -4.5501,1.64437 z"
         id="path55"
         inkscape:connector-curvature="0" />
      <path
         style="fill:#fe0d7e;stroke-width:0.26458335"
         d="m 92.870922,115.9722 c -0.582453,-0.40796 -0.588038,-0.47833 -0.588038,-7.40833 v -6.99646 h -2.266789 c -2.036754,0 -2.252323,-0.047 -2.124256,-0.46302 0.624525,-2.028793 4.129058,-14.759885 4.270394,-15.51327 0.179048,-0.954406 0.176944,-0.95704 -0.764584,-0.95704 h -0.944125 l -0.786237,2.579687 c -0.43243,1.418829 -1.099022,3.619615 -1.481314,4.890637 -0.382293,1.271022 -0.875541,2.491413 -1.096107,2.71198 -0.57717,0.577169 -1.349033,0.493714 -1.796892,-0.194283 -0.355427,-0.546005 -0.249809,-1.044558 1.275185,-6.019271 1.735936,-5.662831 2.156781,-6.715177 2.985341,-7.465013 1.150468,-1.04116 2.305911,-1.266289 6.491198,-1.264762 4.450742,0.0016 5.611002,0.211172 6.824902,1.2326 1.1621,0.977843 1.58752,1.971195 3.30268,7.711858 1.27892,4.28058 1.47888,5.214147 1.23259,5.754688 -0.38386,0.842499 -1.47554,0.869897 -1.9883,0.0499 -0.20474,-0.327422 -1.00916,-2.708672 -1.7876,-5.291667 l -1.41534,-4.696354 h -0.99662 c -0.54815,0 -0.99663,0.06517 -0.99663,0.144823 0,0.172461 2.90526,10.560244 3.95542,14.142677 l 0.73683,2.51354 -2.34612,0.0761 -2.34613,0.0761 -0.004,6.93539 c -0.002,3.81446 -0.0927,7.07477 -0.20108,7.24513 -0.377515,0.59347 -1.507102,0.6802 -1.984763,0.15239 -0.391768,-0.4329 -0.455675,-1.35763 -0.51759,-7.48947 l -0.07064,-6.99559 -1.124479,-0.0814 -1.12448,-0.0814 v 7.14397 c 0,7.08243 -0.0051,7.1475 -0.588038,7.55583 -0.323421,0.22653 -0.713647,0.41188 -0.86717,0.41188 -0.153523,0 -0.543749,-0.18535 -0.86717,-0.41188 z m 27.986958,-0.91104 c -0.6523,-0.6523 -0.60954,0.47392 -0.63795,-16.801038 l -0.0235,-14.287501 -1.12448,-0.08136 -1.12447,-0.08136 v 5.935941 c 0,6.375123 -0.0624,6.672695 -1.35886,6.484065 -0.92318,-0.134313 -1.06574,-1.288567 -0.97377,-7.884131 0.0835,-5.991763 0.0847,-6.002633 0.78766,-7.063956 1.24098,-1.873743 1.72859,-1.977235 8.88913,-1.886617 6.09483,0.07713 6.30766,0.09789 7.14776,0.697093 0.47624,0.339677 1.10132,1.079074 1.38907,1.643106 0.47876,0.93845 0.52317,1.572228 0.52317,7.465426 0,4.656046 -0.0879,6.527864 -0.3175,6.757416 -0.48607,0.486071 -1.4837,0.377788 -1.78986,-0.194273 -0.16452,-0.307396 -0.2739,-2.790437 -0.2739,-6.217708 V 83.84033 h -1.05833 -1.05833 v 15.17786 c 0,14.9544 -0.008,15.18812 -0.54837,15.875 -0.36363,0.46228 -0.80284,0.69714 -1.30372,0.69714 -0.50087,0 -0.94008,-0.23486 -1.30371,-0.69714 -0.53029,-0.67416 -0.54837,-0.993 -0.54837,-9.6725 v -8.97537 l -1.12448,0.08136 -1.12448,0.08136 -0.13229,9.21585 c -0.12538,8.73469 -0.1591,9.23544 -0.64588,9.59115 -0.72354,0.52871 -1.64453,0.46613 -2.26454,-0.15388 z M 94.39955,78.237806 c -0.509323,-0.342192 -1.149762,-1.078711 -1.4232,-1.636707 -0.422857,-0.862916 -0.4518,-1.165932 -0.193658,-2.027531 0.326534,-1.089875 1.525545,-2.275499 2.565031,-2.536394 2.379928,-0.597323 4.846047,1.938076 4.095922,4.210985 -0.732905,2.220724 -3.232582,3.206724 -5.044095,1.989647 z m 29.17552,-0.333718 c -1.74586,-0.784052 -2.43282,-3.146969 -1.40498,-4.832684 1.36694,-2.241851 4.6267,-2.129865 5.87725,0.201907 0.58983,1.099801 0.61046,1.891624 0.0778,2.986407 -0.80195,1.648366 -2.87388,2.397143 -4.5501,1.64437 z"
         id="path53"
         inkscape:connector-curvature="0" />
      <path
         style="fill:#fe0c7d;stroke-width:0.26458335"
         d="m 92.870922,115.9722 c -0.582453,-0.40796 -0.588038,-0.47833 -0.588038,-7.40833 v -6.99646 h -2.266789 c -2.036754,0 -2.252323,-0.047 -2.124256,-0.46302 0.624525,-2.028793 4.129058,-14.759885 4.270394,-15.51327 0.179048,-0.954406 0.176944,-0.95704 -0.764584,-0.95704 h -0.944125 l -0.786237,2.579687 c -0.43243,1.418829 -1.099022,3.619615 -1.481314,4.890637 -0.382293,1.271022 -0.875541,2.491413 -1.096107,2.71198 -0.57716,0.577159 -1.348992,0.493719 -1.797137,-0.194283 -0.35538,-0.545587 -0.258791,-1.015819 1.156361,-5.629632 2.257514,-7.360158 2.448957,-7.73719 4.378585,-8.623279 0.880716,-0.404426 1.746602,-0.486716 5.159375,-0.490324 4.50501,-0.0048 5.66457,0.201925 6.88255,1.226789 1.1621,0.977843 1.58752,1.971195 3.30268,7.711858 1.27892,4.28058 1.47888,5.214147 1.23259,5.754688 -0.38378,0.842318 -1.47495,0.869676 -1.99023,0.0499 -0.2058,-0.327422 -1.00536,-2.708672 -1.7768,-5.291667 l -1.40262,-4.696354 h -1.00742 c -0.55408,0 -1.00742,0.06768 -1.00742,0.150407 0,0.131908 3.79571,13.652546 4.47014,15.923033 l 0.25543,0.85989 h -2.36279 -2.36278 l -0.004,6.94532 c -0.002,3.81992 -0.0915,7.07306 -0.19843,7.22919 -0.375591,0.54851 -1.188939,0.65813 -1.819172,0.24519 L 97.5746,115.57813 v -7.13765 -7.13765 H 96.383925 95.1933 v 7.12875 c 0,7.06671 -0.0051,7.13233 -0.588038,7.54062 -0.323421,0.22653 -0.713647,0.41188 -0.86717,0.41188 -0.153523,0 -0.543749,-0.18535 -0.86717,-0.41188 z m 27.986958,-0.91104 c -0.6523,-0.6523 -0.60954,0.47392 -0.63795,-16.801038 l -0.0235,-14.287501 -1.12448,-0.08136 -1.12447,-0.08136 v 5.935941 c 0,6.375123 -0.0624,6.672695 -1.35886,6.484065 -0.92318,-0.134313 -1.06574,-1.288567 -0.97377,-7.884131 0.0835,-5.991763 0.0847,-6.002633 0.78766,-7.063956 1.24098,-1.873743 1.72859,-1.977235 8.88913,-1.886617 6.09483,0.07713 6.30766,0.09789 7.14776,0.697093 0.47624,0.339677 1.10132,1.079074 1.38907,1.643106 0.47876,0.93845 0.52317,1.572228 0.52317,7.465426 0,4.656046 -0.0879,6.527864 -0.3175,6.757416 -0.48607,0.486071 -1.4837,0.377788 -1.78986,-0.194273 -0.16452,-0.307396 -0.2739,-2.790437 -0.2739,-6.217708 V 83.84033 h -1.05833 -1.05833 v 15.17786 c 0,14.9544 -0.008,15.18812 -0.54837,15.875 -0.36363,0.46228 -0.80284,0.69714 -1.30372,0.69714 -0.50087,0 -0.94008,-0.23486 -1.30371,-0.69714 -0.53029,-0.67416 -0.54837,-0.993 -0.54837,-9.6725 v -8.97537 l -1.12448,0.08136 -1.12448,0.08136 -0.13229,9.21585 c -0.12538,8.73469 -0.1591,9.23544 -0.64588,9.59115 -0.72354,0.52871 -1.64453,0.46613 -2.26454,-0.15388 z M 94.372532,78.214442 C 93.878069,77.8851 93.249788,77.159095 92.97635,76.601099 c -0.422857,-0.862916 -0.4518,-1.165932 -0.193658,-2.027531 0.326534,-1.089875 1.525545,-2.275499 2.565031,-2.536394 1.735802,-0.435658 3.799358,0.932207 4.207128,2.78877 0.377487,1.718688 -1.577179,3.987302 -3.435509,3.987302 -0.466283,0 -1.252347,-0.269461 -1.74681,-0.598804 z m 29.202538,-0.310354 c -1.74586,-0.784052 -2.43282,-3.146969 -1.40498,-4.832684 1.36694,-2.241851 4.6267,-2.129865 5.87725,0.201907 0.58983,1.099801 0.61046,1.891624 0.0778,2.986407 -0.80195,1.648366 -2.87388,2.397143 -4.5501,1.64437 z"
         id="path51"
         inkscape:connector-curvature="0" />
      <path
         style="fill:#fe0a7c;stroke-width:0.26458335"
         d="m 92.870922,115.9722 c -0.582453,-0.40796 -0.588038,-0.47833 -0.588038,-7.40833 v -6.99646 h -2.266789 c -2.036752,0 -2.252324,-0.047 -2.124261,-0.46302 0.792748,-2.575369 4.39105,-15.72622 4.39105,-16.048133 0,-0.305301 -0.253847,-0.422177 -0.916939,-0.422177 h -0.916938 l -0.916671,2.976562 c -0.504169,1.63711 -1.166682,3.834835 -1.472252,4.883834 -0.786799,2.701026 -1.538669,3.311469 -2.676825,2.173314 -0.302293,-0.302294 -0.490702,-0.703173 -0.418686,-0.890843 0.07202,-0.18767 0.740658,-2.351355 1.485871,-4.808188 2.189046,-7.216896 2.509794,-7.826541 4.570782,-8.687676 1.161947,-0.485493 8.435355,-0.58194 10.050834,-0.133277 1.18328,0.328628 2.45946,1.353754 3.00954,2.417479 0.43224,0.835859 3.18043,9.599116 3.4364,10.957775 0.27893,1.48051 -1.3356,2.325263 -2.10053,1.099041 -0.20425,-0.327422 -1.00268,-2.708672 -1.77428,-5.291667 l -1.40292,-4.696354 h -1.00994 c -0.55547,0 -1.00995,0.06705 -1.00995,0.149001 0,0.08195 1.01204,3.755053 2.24896,8.16245 1.23693,4.407396 2.24896,8.150349 2.24896,8.317669 0,0.20537 -0.73071,0.30421 -2.24896,0.30421 h -2.24896 l -0.004,6.94532 c -0.002,3.81992 -0.0915,7.07306 -0.19843,7.22919 -0.375591,0.54851 -1.188939,0.65813 -1.819172,0.24519 L 97.5746,115.57813 v -7.13765 -7.13765 H 96.383925 95.1933 v 7.12875 c 0,7.06671 -0.0051,7.13233 -0.588038,7.54062 -0.323421,0.22653 -0.713647,0.41188 -0.86717,0.41188 -0.153523,0 -0.543749,-0.18535 -0.86717,-0.41188 z m 27.986958,-0.91104 c -0.6523,-0.6523 -0.60954,0.47392 -0.63795,-16.801038 l -0.0235,-14.287501 -1.12448,-0.08136 -1.12447,-0.08136 v 5.935941 c 0,6.375123 -0.0624,6.672695 -1.35886,6.484065 -0.92318,-0.134313 -1.06574,-1.288567 -0.97377,-7.884131 0.0835,-5.991763 0.0847,-6.002633 0.78766,-7.063956 1.24098,-1.873743 1.72859,-1.977235 8.88913,-1.886617 6.09483,0.07713 6.30766,0.09789 7.14776,0.697093 0.47624,0.339677 1.10132,1.079074 1.38907,1.643106 0.47876,0.93845 0.52317,1.572228 0.52317,7.465426 0,4.656046 -0.0879,6.527864 -0.3175,6.757416 -0.48607,0.486071 -1.4837,0.377788 -1.78986,-0.194273 -0.16452,-0.307396 -0.2739,-2.790437 -0.2739,-6.217708 V 83.84033 h -1.05833 -1.05833 v 15.17786 c 0,14.9544 -0.008,15.18812 -0.54837,15.875 -0.36363,0.46228 -0.80284,0.69714 -1.30372,0.69714 -0.50087,0 -0.94008,-0.23486 -1.30371,-0.69714 -0.53029,-0.67416 -0.54837,-0.993 -0.54837,-9.6725 v -8.97537 l -1.12448,0.08136 -1.12448,0.08136 -0.13229,9.21585 c -0.12538,8.73469 -0.1591,9.23544 -0.64588,9.59115 -0.72354,0.52871 -1.64453,0.46613 -2.26454,-0.15388 z M 94.480072,78.295722 c -3.163921,-1.929165 -1.667584,-6.646565 1.99011,-6.274086 1.387112,0.141256 2.569453,1.162254 2.996494,2.587592 0.245544,0.819552 0.212555,1.141117 -0.204342,1.991871 -0.973714,1.987035 -3.079116,2.733097 -4.782262,1.694623 z m 29.094998,-0.391634 c -1.74586,-0.784052 -2.43282,-3.146969 -1.40498,-4.832684 1.36694,-2.241851 4.6267,-2.129865 5.87725,0.201907 0.58983,1.099801 0.61046,1.891624 0.0778,2.986407 -0.80195,1.648366 -2.87388,2.397143 -4.5501,1.64437 z"
         id="path49"
         inkscape:connector-curvature="0" />
      <path
         style="fill:#5d35f2;stroke-width:0.26458335"
         d="m 92.870922,115.9722 c -0.582453,-0.40796 -0.588038,-0.47833 -0.588038,-7.40833 v -6.99646 h -2.266789 c -2.036243,0 -2.252428,-0.0471 -2.125597,-0.46302 0.960187,-3.148838 4.392386,-15.655123 4.392386,-16.005022 0,-0.354489 -0.218351,-0.465288 -0.916939,-0.465288 h -0.916938 l -0.918293,2.976562 c -0.505061,1.63711 -1.176947,3.844208 -1.49308,4.904662 -0.855926,2.871164 -1.647354,3.402687 -2.821189,1.894704 -0.258941,-0.332653 0.0238,-1.504894 1.49046,-6.179376 0.995512,-3.172865 2.039255,-6.083751 2.319428,-6.468636 0.280172,-0.384885 1.033678,-0.967682 1.674456,-1.295104 1.06086,-0.542072 1.53272,-0.59518 5.276178,-0.593837 2.261119,8.2e-4 4.553913,0.12445 5.095093,0.274751 1.17301,0.325775 2.4584,1.3517 2.99593,2.391167 0.42268,0.817379 3.19655,9.651025 3.44913,10.984087 0.28006,1.478111 -1.34028,2.329351 -2.09204,1.099041 -0.20007,-0.327422 -1.00108,-2.708672 -1.78003,-5.291667 l -1.41628,-4.696354 h -1.00419 c -0.55231,0 -1.0042,0.07868 -1.0042,0.174851 0,0.09617 1.01204,3.764528 2.24896,8.15191 1.23693,4.387381 2.24896,8.118699 2.24896,8.291819 0,0.2186 -0.68704,0.31475 -2.24896,0.31475 h -2.24896 l -0.004,6.94532 c -0.002,3.81992 -0.0915,7.07306 -0.19843,7.22919 -0.375591,0.54851 -1.188939,0.65813 -1.819172,0.24519 L 97.5746,115.57813 v -7.13765 -7.13765 H 96.383925 95.1933 v 7.12875 c 0,7.06671 -0.0051,7.13233 -0.588038,7.54062 -0.323421,0.22653 -0.713647,0.41188 -0.86717,0.41188 -0.153523,0 -0.543749,-0.18535 -0.86717,-0.41188 z m 27.986958,-0.91104 c -0.6523,-0.6523 -0.60954,0.47392 -0.63795,-16.801038 l -0.0235,-14.287501 -1.12448,-0.08136 -1.12447,-0.08136 v 5.935941 c 0,6.375123 -0.0624,6.672695 -1.35886,6.484065 -0.92318,-0.134313 -1.06574,-1.288567 -0.97377,-7.884131 0.0835,-5.991763 0.0847,-6.002633 0.78766,-7.063956 1.24098,-1.873743 1.72859,-1.977235 8.88913,-1.886617 6.09483,0.07713 6.30766,0.09789 7.14776,0.697093 0.47624,0.339677 1.10132,1.079074 1.38907,1.643106 0.47876,0.93845 0.52317,1.572228 0.52317,7.465426 0,4.656046 -0.0879,6.527864 -0.3175,6.757416 -0.48607,0.486071 -1.4837,0.377788 -1.78986,-0.194273 -0.16452,-0.307396 -0.2739,-2.790437 -0.2739,-6.217708 V 83.84033 h -1.05833 -1.05833 v 15.17786 c 0,14.9544 -0.008,15.18812 -0.54837,15.875 -0.36363,0.46228 -0.80284,0.69714 -1.30372,0.69714 -0.50087,0 -0.94008,-0.23486 -1.30371,-0.69714 -0.53029,-0.67416 -0.54837,-0.993 -0.54837,-9.6725 v -8.97537 l -1.12448,0.08136 -1.12448,0.08136 -0.13229,9.21585 c -0.12538,8.73469 -0.1591,9.23544 -0.64588,9.59115 -0.72354,0.52871 -1.64453,0.46613 -2.26454,-0.15388 z M 94.480072,78.295722 c -1.157458,-0.705747 -1.740181,-1.684238 -1.740181,-2.922059 0,-1.237822 0.582723,-2.216313 1.740181,-2.922059 1.07508,-0.655518 2.20346,-0.655518 3.27854,0 2.388888,1.456594 2.388888,4.387524 0,5.844118 -1.07508,0.655518 -2.20346,0.655518 -3.27854,0 z m 29.094998,-0.391634 c -1.74586,-0.784052 -2.43282,-3.146969 -1.40498,-4.832684 1.36694,-2.241851 4.6267,-2.129865 5.87725,0.201907 0.58983,1.099801 0.61046,1.891624 0.0778,2.986407 -0.80195,1.648366 -2.87388,2.397143 -4.5501,1.64437 z"
         id="path47"
         inkscape:connector-curvature="0" />
      <path
         style="fill:#5c33f2;stroke-width:0.26458335"
         d="m 92.870922,115.9722 c -0.582453,-0.40796 -0.588038,-0.47833 -0.588038,-7.40833 v -6.99646 h -2.266789 c -2.036243,0 -2.252428,-0.0471 -2.125597,-0.46302 0.960187,-3.148838 4.392386,-15.655123 4.392386,-16.005022 0,-0.354489 -0.218351,-0.465288 -0.916939,-0.465288 h -0.916938 l -0.918293,2.976562 c -0.505061,1.63711 -1.176947,3.844208 -1.49308,4.904662 -0.855926,2.871164 -1.647354,3.402687 -2.821189,1.894704 -0.258941,-0.332653 0.0238,-1.504894 1.49046,-6.179376 0.995512,-3.172865 2.039255,-6.083751 2.319428,-6.468636 0.280172,-0.384885 1.033678,-0.967682 1.674456,-1.295104 1.06086,-0.542072 1.53272,-0.59518 5.276178,-0.593837 2.261119,8.2e-4 4.553913,0.12445 5.095093,0.274751 1.17301,0.325775 2.4584,1.3517 2.99593,2.391167 0.42268,0.817379 3.19655,9.651025 3.44913,10.984087 0.28006,1.478111 -1.34028,2.329351 -2.09204,1.099041 -0.20007,-0.327422 -1.00108,-2.708672 -1.78003,-5.291667 l -1.41628,-4.696354 h -1.00419 c -0.55231,0 -1.0042,0.07868 -1.0042,0.174851 0,0.09617 1.01204,3.764528 2.24896,8.15191 1.23693,4.387381 2.24896,8.118699 2.24896,8.291819 0,0.2186 -0.68704,0.31475 -2.24896,0.31475 h -2.24896 l -0.004,6.94532 c -0.002,3.81992 -0.0915,7.07306 -0.19843,7.22919 -0.375591,0.54851 -1.188939,0.65813 -1.819172,0.24519 L 97.5746,115.57813 v -7.13765 -7.13765 H 96.383925 95.1933 v 7.12875 c 0,7.06671 -0.0051,7.13233 -0.588038,7.54062 -0.323421,0.22653 -0.713647,0.41188 -0.86717,0.41188 -0.153523,0 -0.543749,-0.18535 -0.86717,-0.41188 z m 27.986958,-0.91104 c -0.517,-0.517 -0.52916,-0.88194 -0.52916,-15.874996 V 83.84033 h -1.19063 -1.19062 v 5.920728 c 0,6.362583 -0.062,6.656704 -1.36373,6.468852 -0.90375,-0.130418 -1.05946,-1.42584 -0.96691,-8.043973 0.0814,-5.819561 0.0843,-5.844726 0.78567,-6.903961 1.2409,-1.873896 1.72849,-1.977389 8.88913,-1.88677 6.09483,0.07713 6.30766,0.09789 7.14777,0.697093 0.47623,0.339677 1.10131,1.079074 1.38906,1.643106 0.47876,0.93845 0.52318,1.572228 0.52318,7.465426 0,6.820471 -0.045,7.074916 -1.2501,7.074916 -0.4168,0 -0.69827,-0.218784 -0.87312,-0.678683 -0.14192,-0.373275 -0.25804,-3.171244 -0.25804,-6.217708 V 83.84033 h -1.05209 -1.05209 l -0.0724,15.369321 -0.0724,15.369319 -0.62463,0.50568 c -0.87055,0.70478 -1.74905,0.63467 -2.39888,-0.19146 -0.53029,-0.67416 -0.54837,-0.993 -0.54837,-9.6725 v -8.97537 l -1.12448,0.08136 -1.12448,0.08136 -0.13229,9.21585 c -0.12538,8.73469 -0.1591,9.23544 -0.64588,9.59115 -0.72354,0.52871 -1.64453,0.46613 -2.26454,-0.15388 z M 94.480072,78.295722 c -1.157458,-0.705747 -1.740181,-1.684238 -1.740181,-2.922059 0,-1.237822 0.582723,-2.216313 1.740181,-2.922059 1.07508,-0.655518 2.20346,-0.655518 3.27854,0 2.388888,1.456594 2.388888,4.387524 0,5.844118 -1.07508,0.655518 -2.20346,0.655518 -3.27854,0 z m 29.297388,-0.348783 c -1.87492,-0.663197 -2.68239,-3.112439 -1.60737,-4.875535 1.36819,-2.243905 4.60528,-2.130723 5.89273,0.206035 1.46344,2.656204 -1.34026,5.711235 -4.28536,4.6695 z"
         id="path45"
         inkscape:connector-curvature="0" />
      <path
         style="fill:#5c32f2;stroke-width:0.26458335"
         d="m 92.870922,115.9722 c -0.582453,-0.40796 -0.588038,-0.47833 -0.588038,-7.40833 v -6.99646 h -2.266789 c -2.036243,0 -2.252428,-0.0471 -2.125597,-0.46302 0.960187,-3.148838 4.392386,-15.655123 4.392386,-16.005022 0,-0.354489 -0.218351,-0.465288 -0.916939,-0.465288 h -0.916938 l -0.918293,2.976562 c -0.505061,1.63711 -1.176947,3.844208 -1.49308,4.904662 -0.855926,2.871164 -1.647354,3.402687 -2.821189,1.894704 -0.258941,-0.332653 0.0238,-1.504894 1.49046,-6.179376 0.995512,-3.172865 2.039255,-6.083751 2.319428,-6.468636 0.280172,-0.384885 1.033678,-0.967682 1.674456,-1.295104 1.06086,-0.542072 1.53272,-0.59518 5.276178,-0.593837 2.261119,8.2e-4 4.553913,0.12445 5.095093,0.274751 1.17301,0.325775 2.4584,1.3517 2.99593,2.391167 0.42268,0.817379 3.19655,9.651025 3.44913,10.984087 0.28006,1.478111 -1.34028,2.329351 -2.09204,1.099041 -0.20007,-0.327422 -1.00108,-2.708672 -1.78003,-5.291667 l -1.41628,-4.696354 h -1.00419 c -0.55231,0 -1.0042,0.07868 -1.0042,0.174851 0,0.09617 1.01204,3.764528 2.24896,8.15191 1.23693,4.387381 2.24896,8.118699 2.24896,8.291819 0,0.2186 -0.68704,0.31475 -2.24896,0.31475 h -2.24896 l -0.004,6.94532 c -0.002,3.81992 -0.0915,7.07306 -0.19843,7.22919 -0.375591,0.54851 -1.188939,0.65813 -1.819172,0.24519 L 97.5746,115.57813 v -7.13765 -7.13765 H 96.383925 95.1933 v 7.12875 c 0,7.06671 -0.0051,7.13233 -0.588038,7.54062 -0.323421,0.22653 -0.713647,0.41188 -0.86717,0.41188 -0.153523,0 -0.543749,-0.18535 -0.86717,-0.41188 z m 27.986958,-0.91104 c -0.517,-0.517 -0.52916,-0.88194 -0.52916,-15.874996 V 83.84033 h -1.19063 -1.19062 v 5.920728 c 0,6.362583 -0.062,6.656704 -1.36373,6.468852 -0.89872,-0.129693 -1.05618,-1.417112 -0.96518,-7.891663 0.0915,-6.509779 0.29832,-7.292675 2.22001,-8.403397 1.00659,-0.581806 1.20884,-0.596298 7.38494,-0.529167 6.17473,0.06712 6.3739,0.08607 7.21589,0.686616 0.47623,0.339677 1.10131,1.079074 1.38906,1.643106 0.47876,0.93845 0.52318,1.572228 0.52318,7.465426 0,6.820471 -0.045,7.074916 -1.2501,7.074916 -0.4168,0 -0.69827,-0.218784 -0.87312,-0.678683 -0.14192,-0.373275 -0.25804,-3.171244 -0.25804,-6.217708 V 83.84033 h -1.05833 -1.05833 l -0.019,3.902604 c -0.0104,2.146432 -0.0402,9.062572 -0.0661,15.369206 l -0.0472,11.46659 -0.62462,0.5058 c -0.8705,0.7049 -1.74902,0.63483 -2.39888,-0.19134 -0.53024,-0.6741 -0.54836,-0.99318 -0.54836,-9.65729 v -8.960153 h -1.19062 -1.19063 v 9.082003 9.08201 l -0.61236,0.57528 c -0.76387,0.71762 -1.60958,0.7346 -2.29806,0.0461 z M 94.480072,78.295722 c -1.157458,-0.705747 -1.740181,-1.684238 -1.740181,-2.922059 0,-1.237822 0.582723,-2.216313 1.740181,-2.922059 1.07508,-0.655518 2.20346,-0.655518 3.27854,0 2.388888,1.456594 2.388888,4.387524 0,5.844118 -1.07508,0.655518 -2.20346,0.655518 -3.27854,0 z m 29.297388,-0.347394 c -1.87528,-0.666164 -2.68214,-3.114249 -1.60737,-4.876924 1.36694,-2.241851 4.6267,-2.129865 5.87725,0.201907 0.6199,1.155878 0.61032,2.021337 -0.0341,3.078164 -0.95843,1.57187 -2.58256,2.184147 -4.23582,1.596853 z"
         id="path43"
         inkscape:connector-curvature="0" />
      <path
         style="fill:#fe087a;stroke-width:0.26458335"
         d="m 92.870922,115.9722 c -0.582453,-0.40796 -0.588038,-0.47833 -0.588038,-7.40833 v -6.99646 h -2.266789 c -2.036243,0 -2.252428,-0.0471 -2.125597,-0.46302 0.960187,-3.148838 4.392386,-15.655123 4.392386,-16.005022 0,-0.354489 -0.218351,-0.465288 -0.916939,-0.465288 h -0.916938 l -0.918293,2.976562 c -0.505061,1.63711 -1.176947,3.844208 -1.49308,4.904662 -0.855926,2.871164 -1.647354,3.402687 -2.821189,1.894704 -0.258941,-0.332653 0.0238,-1.504894 1.49046,-6.179376 0.995512,-3.172865 2.039255,-6.083751 2.319428,-6.468636 0.280172,-0.384885 1.033678,-0.967682 1.674456,-1.295104 1.06086,-0.542072 1.53272,-0.59518 5.276178,-0.593837 2.261119,8.2e-4 4.553913,0.12445 5.095093,0.274751 1.17301,0.325775 2.4584,1.3517 2.99593,2.391167 0.42268,0.817379 3.19655,9.651025 3.44913,10.984087 0.28006,1.478111 -1.34028,2.329351 -2.09204,1.099041 -0.20007,-0.327422 -1.00108,-2.708672 -1.78003,-5.291667 l -1.41628,-4.696354 h -1.00419 c -0.55231,0 -1.0042,0.07868 -1.0042,0.174851 0,0.09617 1.01204,3.764528 2.24896,8.15191 1.23693,4.387381 2.24896,8.118699 2.24896,8.291819 0,0.2186 -0.68704,0.31475 -2.24896,0.31475 h -2.24896 l -0.004,6.94532 c -0.002,3.81992 -0.0915,7.07306 -0.19843,7.22919 -0.375591,0.54851 -1.188939,0.65813 -1.819172,0.24519 L 97.5746,115.57813 v -7.13765 -7.13765 H 96.383925 95.1933 v 7.12875 c 0,7.06671 -0.0051,7.13233 -0.588038,7.54062 -0.323421,0.22653 -0.713647,0.41188 -0.86717,0.41188 -0.153523,0 -0.543749,-0.18535 -0.86717,-0.41188 z m 27.986958,-0.91104 c -0.517,-0.517 -0.52916,-0.88194 -0.52916,-15.874996 V 83.84033 h -1.19063 -1.19062 v 5.920728 c 0,6.362583 -0.062,6.656704 -1.36373,6.468852 -0.89872,-0.129693 -1.05618,-1.417112 -0.96518,-7.891663 0.0915,-6.509779 0.29832,-7.292675 2.22001,-8.403397 1.00659,-0.581806 1.20884,-0.596298 7.38494,-0.529167 6.17473,0.06712 6.3739,0.08607 7.21589,0.686616 0.47623,0.339677 1.10131,1.079074 1.38906,1.643106 0.47876,0.93845 0.52318,1.572228 0.52318,7.465426 0,6.820471 -0.045,7.074916 -1.2501,7.074916 -0.4168,0 -0.69827,-0.218784 -0.87312,-0.678683 -0.14192,-0.373275 -0.25804,-3.171244 -0.25804,-6.217708 V 83.84033 h -1.05833 c -0.91334,0 -1.06194,0.08156 -1.08467,0.595312 -0.0145,0.327422 -0.0442,7.243569 -0.0661,15.369215 l -0.0398,14.773903 -0.62463,0.50579 c -0.8159,0.66067 -1.68393,0.64158 -2.31093,-0.0508 -0.47177,-0.52098 -0.50889,-1.13905 -0.58006,-9.65729 l -0.076,-9.100683 h -1.18073 -1.18074 v 9.082003 9.08201 l -0.61236,0.57528 c -0.76387,0.71762 -1.60958,0.7346 -2.29806,0.0461 z M 94.480072,78.295722 c -1.157458,-0.705747 -1.740181,-1.684238 -1.740181,-2.922059 0,-1.237822 0.582723,-2.216313 1.740181,-2.922059 1.07508,-0.655518 2.20346,-0.655518 3.27854,0 2.388888,1.456594 2.388888,4.387524 0,5.844118 -1.07508,0.655518 -2.20346,0.655518 -3.27854,0 z m 29.297388,-0.347394 c -1.87528,-0.666164 -2.68214,-3.114249 -1.60737,-4.876924 1.40259,-2.300318 4.75999,-2.098555 5.95508,0.35787 0.54026,1.110456 0.50994,1.902372 -0.11189,2.922201 -0.95843,1.57187 -2.58256,2.184147 -4.23582,1.596853 z"
         id="path41"
         inkscape:connector-curvature="0" />
      <path
         style="fill:#5b32f2;stroke-width:0.26458335"
         d="m 92.870922,115.9722 c -0.582453,-0.40796 -0.588038,-0.47833 -0.588038,-7.40833 v -6.99646 h -2.266789 c -2.036101,0 -2.252457,-0.0471 -2.125971,-0.46302 1.033888,-3.399533 4.39276,-15.623067 4.39276,-15.986031 0,-0.376157 -0.20472,-0.484279 -0.916939,-0.484279 h -0.916938 l -0.953078,3.108854 c -1.925836,6.281902 -2.263026,7.181504 -2.749678,7.335962 -0.621006,0.197099 -1.14895,-0.01991 -1.52902,-0.628499 -0.251842,-0.403263 0.01854,-1.531013 1.496152,-6.240412 0.991949,-3.161509 2.038252,-6.063104 2.325117,-6.447989 1.136897,-1.525369 1.937561,-1.750236 6.573919,-1.84629 2.576929,-0.05339 4.685621,0.02763 5.345781,0.205396 1.27479,0.343265 2.55475,1.344539 3.12267,2.442768 0.43531,0.841812 3.54785,10.910483 3.54785,11.476872 0,0.516852 -0.76077,1.176672 -1.3567,1.176672 -0.68555,0 -1.17616,-1.137905 -2.76631,-6.416147 l -1.25544,-4.167187 h -1.01494 c -0.55822,0 -1.01495,0.08211 -1.01495,0.182466 0,0.100356 1.01204,3.772141 2.24896,8.159523 1.23693,4.387383 2.24896,8.115271 2.24896,8.284201 0,0.20905 -0.71829,0.30714 -2.24896,0.30714 h -2.24896 l -0.004,6.94532 c -0.002,3.81992 -0.0915,7.07306 -0.19843,7.22919 -0.375591,0.54851 -1.188939,0.65813 -1.819172,0.24519 L 97.5746,115.57813 v -7.13765 -7.13765 H 96.383925 95.1933 v 7.12875 c 0,7.06671 -0.0051,7.13233 -0.588038,7.54062 -0.323421,0.22653 -0.713647,0.41188 -0.86717,0.41188 -0.153523,0 -0.543749,-0.18535 -0.86717,-0.41188 z m 27.986958,-0.91104 c -0.517,-0.517 -0.52916,-0.88194 -0.52916,-15.874996 V 83.84033 h -1.19063 -1.19062 v 5.920728 c 0,6.362583 -0.062,6.656704 -1.36373,6.468852 -0.89872,-0.129693 -1.05618,-1.417112 -0.96518,-7.891663 0.0915,-6.509779 0.29832,-7.292675 2.22001,-8.403397 1.00659,-0.581806 1.20884,-0.596298 7.38494,-0.529167 6.17473,0.06712 6.3739,0.08607 7.21589,0.686616 0.47623,0.339677 1.10131,1.079074 1.38906,1.643106 0.47876,0.93845 0.52318,1.572228 0.52318,7.465426 0,6.820471 -0.045,7.074916 -1.2501,7.074916 -0.4168,0 -0.69827,-0.218784 -0.87312,-0.678683 -0.14192,-0.373275 -0.25804,-3.171244 -0.25804,-6.217708 V 83.84033 h -1.05833 c -0.91334,0 -1.06194,0.08156 -1.08467,0.595312 -0.0145,0.327422 -0.0442,7.243569 -0.0661,15.369215 l -0.0398,14.773903 -0.62463,0.50579 c -0.8159,0.66067 -1.68393,0.64158 -2.31093,-0.0508 -0.47177,-0.52098 -0.50889,-1.13905 -0.58006,-9.65729 l -0.076,-9.100683 h -1.18073 -1.18074 v 9.082003 9.08201 l -0.61236,0.57528 c -0.76387,0.71762 -1.60958,0.7346 -2.29806,0.0461 z M 94.496577,78.305759 c -1.217642,-0.742482 -1.684527,-1.561572 -1.684527,-2.955286 0,-2.636847 2.741427,-4.243425 4.946562,-2.898869 2.388888,1.456594 2.388888,4.387524 0,5.844118 -1.070184,0.652533 -2.202653,0.656017 -3.262035,0.01004 z m 29.280883,-0.357431 c -1.87528,-0.666164 -2.68214,-3.114249 -1.60737,-4.876924 1.40259,-2.300318 4.75999,-2.098555 5.95508,0.35787 0.54026,1.110456 0.50994,1.902372 -0.11189,2.922201 -0.95843,1.57187 -2.58256,2.184147 -4.23582,1.596853 z"
         id="path39"
         inkscape:connector-curvature="0" />
      <path
         style="fill:#fe067a;stroke-width:0.26458335"
         d="m 92.870922,115.9722 c -0.582453,-0.40796 -0.588038,-0.47833 -0.588038,-7.40833 v -6.99646 h -2.266789 c -2.036101,0 -2.252457,-0.0471 -2.125971,-0.46302 1.033888,-3.399533 4.39276,-15.623067 4.39276,-15.986031 0,-0.376157 -0.20472,-0.484279 -0.916939,-0.484279 h -0.916938 l -0.953078,3.108854 c -1.925836,6.281902 -2.263026,7.181504 -2.749678,7.335962 -0.621006,0.197099 -1.14895,-0.01991 -1.52902,-0.628499 -0.251842,-0.403263 0.01854,-1.531013 1.496152,-6.240412 0.991949,-3.161509 2.038252,-6.063104 2.325117,-6.447989 1.136897,-1.525369 1.937561,-1.750236 6.573919,-1.84629 2.576929,-0.05339 4.685621,0.02763 5.345781,0.205396 1.27479,0.343265 2.55475,1.344539 3.12267,2.442768 0.43531,0.841812 3.54785,10.910483 3.54785,11.476872 0,0.516852 -0.76077,1.176672 -1.3567,1.176672 -0.68555,0 -1.17616,-1.137905 -2.76631,-6.416147 l -1.25544,-4.167187 h -1.01494 c -0.55822,0 -1.01495,0.08211 -1.01495,0.182466 0,0.100356 1.01204,3.772141 2.24896,8.159523 1.23693,4.387383 2.24896,8.115271 2.24896,8.284201 0,0.20905 -0.71829,0.30714 -2.24896,0.30714 h -2.24896 l -0.004,6.94532 c -0.002,3.81992 -0.0915,7.07306 -0.19843,7.22919 -0.375591,0.54851 -1.188939,0.65813 -1.819172,0.24519 L 97.5746,115.57813 v -7.13765 -7.13765 H 96.383925 95.1933 v 7.12875 c 0,7.06671 -0.0051,7.13233 -0.588038,7.54062 -0.323421,0.22653 -0.713647,0.41188 -0.86717,0.41188 -0.153523,0 -0.543749,-0.18535 -0.86717,-0.41188 z m 27.997268,-0.96093 c -0.53001,-0.56889 -0.53947,-0.84736 -0.53947,-15.874996 V 83.84033 h -1.19063 -1.19062 v 5.920728 c 0,6.362583 -0.062,6.656704 -1.36373,6.468852 -0.89872,-0.129693 -1.05618,-1.417112 -0.96518,-7.891663 0.0924,-6.577656 0.26079,-7.213894 2.21117,-8.356896 l 1.13633,-0.665931 6.30373,0.07964 c 6.05413,0.07649 6.33687,0.103287 7.14091,0.676802 0.46045,0.328437 1.08553,1.110169 1.38906,1.737181 0.51257,1.058825 0.55188,1.593461 0.55188,7.506382 0,6.850393 -0.0501,7.10252 -1.3728,6.914483 -0.84915,-0.12071 -0.94062,-0.778927 -0.97715,-7.031767 l -0.0313,-5.357813 h -1.19062 -1.19063 v 15.463123 15.463119 l -0.58803,0.41188 c -0.81099,0.56804 -1.61751,0.51535 -2.21523,-0.14473 -0.47177,-0.52098 -0.50889,-1.13905 -0.58006,-9.65729 l -0.076,-9.100685 h -1.18073 -1.18074 v 9.082005 9.08201 l -0.61236,0.57528 c -0.78067,0.7334 -1.60224,0.73205 -2.28775,-0.004 z M 94.496577,78.305759 c -1.217642,-0.742482 -1.684527,-1.561572 -1.684527,-2.955286 0,-2.636847 2.741427,-4.243425 4.946562,-2.898869 2.388888,1.456594 2.388888,4.387524 0,5.844118 -1.070184,0.652533 -2.202653,0.656017 -3.262035,0.01004 z M 124.1762,78.093574 c -2.94095,-0.761197 -3.3986,-4.882055 -0.69732,-6.278941 2.7656,-1.430147 6.00679,1.625079 4.59777,4.333972 -0.76818,1.476859 -2.45644,2.318716 -3.90045,1.944969 z"
         id="path37"
         inkscape:connector-curvature="0" />
      <path
         style="fill:#5a30f2;stroke-width:0.26458335"
         d="m 92.81205,115.85491 c -0.50203,-0.50203 -0.529166,-0.88194 -0.529166,-7.40833 v -6.87917 h -2.266789 c -2.037897,0 -2.252092,-0.0467 -2.121256,-0.46302 0.294627,-0.93737 3.390555,-11.913372 3.992668,-14.155206 L 92.509298,84.63408 H 91.47776 90.446221 l -0.95671,3.108854 c -1.983828,6.446496 -2.258961,7.182251 -2.74326,7.335962 -0.621006,0.197099 -1.14895,-0.01991 -1.52902,-0.628499 -0.251842,-0.403263 0.01854,-1.531013 1.496152,-6.240412 0.991949,-3.161509 2.038252,-6.063104 2.325117,-6.447989 1.177979,-1.580489 1.88004,-1.758125 6.94855,-1.758125 2.546615,0 4.94845,0.08926 5.33742,0.198361 0.92879,0.260509 2.25517,1.392378 2.74764,2.344698 0.40077,0.775008 3.55661,11.023232 3.55661,11.549685 0,0.468677 -0.78938,1.120799 -1.3567,1.120799 -0.68555,0 -1.17616,-1.137905 -2.76631,-6.416147 l -1.25544,-4.167187 h -1.01494 c -0.55822,0 -1.01495,0.07737 -1.01495,0.171925 0,0.09456 1.01204,3.777978 2.24896,8.185374 1.23693,4.407397 2.24896,8.140031 2.24896,8.294741 0,0.17661 -0.83698,0.28129 -2.24896,0.28129 h -2.24896 l -0.004,6.94532 c -0.002,3.81992 -0.0915,7.07306 -0.19843,7.22919 -0.375591,0.54851 -1.188939,0.65813 -1.819172,0.24519 L 97.5746,115.57813 v -7.13765 -7.13765 H 96.383925 95.1933 v 7.12875 c 0,7.06671 -0.0051,7.13233 -0.588038,7.54062 -0.777164,0.54435 -1.15638,0.51955 -1.793212,-0.11729 z m 28.05614,-0.84364 c -0.53001,-0.56889 -0.53947,-0.84736 -0.53947,-15.874996 V 83.84033 h -1.19063 -1.19062 v 5.920728 c 0,6.362583 -0.062,6.656704 -1.36373,6.468852 -0.89872,-0.129693 -1.05618,-1.417112 -0.96518,-7.891663 0.0924,-6.577656 0.26079,-7.213894 2.21117,-8.356896 l 1.13633,-0.665931 6.30373,0.07964 c 6.05413,0.07649 6.33687,0.103287 7.14091,0.676802 0.46045,0.328437 1.08553,1.110169 1.38906,1.737181 0.51257,1.058825 0.55188,1.593461 0.55188,7.506382 0,6.850393 -0.0501,7.10252 -1.3728,6.914483 -0.84915,-0.12071 -0.94062,-0.778927 -0.97715,-7.031767 l -0.0313,-5.357813 h -1.19062 -1.19063 v 15.463123 15.463119 l -0.58803,0.41188 c -0.81099,0.56804 -1.61751,0.51535 -2.21523,-0.14473 -0.47177,-0.52098 -0.50889,-1.13905 -0.58006,-9.65729 l -0.076,-9.100685 h -1.18073 -1.18074 v 9.082005 9.08201 l -0.61236,0.57528 c -0.78067,0.7334 -1.60224,0.73205 -2.28775,-0.004 z M 94.496577,78.305759 c -1.217642,-0.742482 -1.684527,-1.561572 -1.684527,-2.955286 0,-2.636847 2.741427,-4.243425 4.946562,-2.898869 1.157458,0.705746 1.740181,1.684237 1.740181,2.922059 0,2.57553 -2.848637,4.245285 -5.002216,2.932096 z M 124.1762,78.093574 c -2.94095,-0.761197 -3.3986,-4.882055 -0.69732,-6.278941 2.7656,-1.430147 6.00679,1.625079 4.59777,4.333972 -0.76818,1.476859 -2.45644,2.318716 -3.90045,1.944969 z"
         id="path35"
         inkscape:connector-curvature="0" />
      <path
         style="fill:#fe0478;stroke-width:0.26458335"
         d="m 92.81205,115.85491 c -0.50203,-0.50203 -0.529166,-0.88194 -0.529166,-7.40833 v -6.87917 h -2.266789 c -2.037897,0 -2.252092,-0.0467 -2.121256,-0.46302 0.294627,-0.93737 3.390555,-11.913372 3.992668,-14.155206 L 92.509298,84.63408 H 91.47776 90.446221 l -0.95671,3.108854 c -1.983828,6.446496 -2.258961,7.182251 -2.74326,7.335962 -0.621006,0.197099 -1.14895,-0.01991 -1.52902,-0.628499 -0.251842,-0.403263 0.01854,-1.531013 1.496152,-6.240412 0.991949,-3.161509 2.038252,-6.063104 2.325117,-6.447989 1.177979,-1.580489 1.88004,-1.758125 6.94855,-1.758125 2.546615,0 4.94845,0.08926 5.33742,0.198361 0.92879,0.260509 2.25517,1.392378 2.74764,2.344698 0.40077,0.775008 3.55661,11.023232 3.55661,11.549685 0,0.468677 -0.78938,1.120799 -1.3567,1.120799 -0.68555,0 -1.17616,-1.137905 -2.76631,-6.416147 l -1.25544,-4.167187 h -1.01494 c -0.55822,0 -1.01495,0.07737 -1.01495,0.171925 0,0.09456 1.01204,3.777978 2.24896,8.185374 1.23693,4.407397 2.24896,8.140031 2.24896,8.294741 0,0.17661 -0.83698,0.28129 -2.24896,0.28129 h -2.24896 l -0.004,6.94532 c -0.002,3.81992 -0.0915,7.07306 -0.19843,7.22919 -0.375591,0.54851 -1.188939,0.65813 -1.819172,0.24519 L 97.5746,115.57813 v -7.13765 -7.13765 H 96.383925 95.1933 v 7.12875 c 0,7.06671 -0.0051,7.13233 -0.588038,7.54062 -0.777164,0.54435 -1.15638,0.51955 -1.793212,-0.11729 z m 28.09195,-0.87694 -0.57528,-0.61237 V 99.102965 83.84033 h -1.19063 -1.19062 v 5.920728 c 0,6.368237 -0.0609,6.655654 -1.37094,6.468852 -0.83938,-0.119689 -0.97791,-1.132692 -0.98875,-7.230205 -0.0118,-6.632066 0.24665,-7.625688 2.357,-9.061979 0.84439,-0.57469 1.0852,-0.595313 6.9511,-0.595313 6.84558,0 7.34541,0.117912 8.66655,2.044489 0.65021,0.948181 0.65772,1.025234 0.73613,7.549807 0.0853,7.098995 0.028,7.434817 -1.24406,7.286269 -0.92465,-0.107979 -1.04993,-0.962345 -1.06887,-7.289419 l -0.0152,-5.093229 h -1.19062 -1.19063 v 15.299714 15.299716 l -0.61236,0.57528 c -0.7728,0.72601 -1.54443,0.73259 -2.1909,0.0187 -0.47177,-0.52098 -0.50889,-1.13905 -0.58006,-9.65729 l -0.076,-9.100683 h -1.18073 -1.18074 v 8.960153 c 0,8.66411 -0.0181,8.98319 -0.54837,9.65729 -0.67683,0.86046 -1.55694,0.89268 -2.31593,0.0848 z M 94.496577,78.305759 c -1.217642,-0.742482 -1.684527,-1.561572 -1.684527,-2.955286 0,-2.636847 2.741427,-4.243425 4.946562,-2.898869 1.157458,0.705746 1.740181,1.684237 1.740181,2.922059 0,2.57553 -2.848637,4.245285 -5.002216,2.932096 z M 122.7531,77.26604 c -1.3152,-1.228583 -1.43558,-3.176561 -0.28657,-4.637293 0.62237,-0.791212 2.28096,-1.36747 3.24179,-1.126319 1.84016,0.461852 3.11451,2.581552 2.56076,4.259451 -0.48609,1.472851 -1.63406,2.257617 -3.30247,2.257617 -1.18132,0 -1.53627,-0.120821 -2.21351,-0.753456 z"
         id="path33"
         inkscape:connector-curvature="0" />
      <path
         style="fill:#592ff2;stroke-width:0.26458335"
         d="m 92.81205,115.85491 c -0.50203,-0.50203 -0.529166,-0.88194 -0.529166,-7.40833 v -6.87917 H 90.45244 c -1.006744,0 -1.998136,-0.0643 -2.203093,-0.143 -0.297231,-0.11405 0.09886,-1.814204 1.957117,-8.400516 1.281372,-4.541638 2.332295,-8.287288 2.335384,-8.323668 0.0031,-0.03638 -0.460853,-0.06615 -1.030986,-0.06615 h -1.036606 l -0.665253,2.050521 c -0.36589,1.127786 -1.091809,3.442043 -1.613155,5.142791 -0.952371,3.106854 -1.323033,3.632569 -2.297529,3.25862 -1.087783,-0.417422 -1.029972,-0.936272 0.739862,-6.640178 0.943995,-3.04235 1.915623,-5.876288 2.159174,-6.297639 0.592598,-1.025214 1.585135,-1.731191 2.844547,-2.023283 1.453604,-0.337132 7.963869,-0.309858 9.239938,0.03871 1.30064,0.355278 2.65442,1.347093 3.15194,2.309203 0.39837,0.77035 3.59494,11.090473 3.59494,11.606239 0,0.483776 -0.78013,1.138351 -1.3567,1.138351 -0.67977,0 -1.15114,-1.094807 -2.76249,-6.416147 l -1.26186,-4.167187 h -1.01364 c -0.55751,0 -1.01365,0.10205 -1.01365,0.226779 0,0.124729 0.35134,1.464182 0.78076,2.976563 2.26525,7.978169 3.71716,13.239761 3.71716,13.470691 0,0.14901 -0.95659,0.2593 -2.24896,0.2593 h -2.24896 l -0.004,6.94532 c -0.002,3.81992 -0.0915,7.07306 -0.19843,7.22919 -0.375591,0.54851 -1.188939,0.65813 -1.819172,0.24519 L 97.5746,115.57813 v -7.13765 -7.13765 H 96.383925 95.1933 v 7.12875 c 0,7.06671 -0.0051,7.13233 -0.588038,7.54062 -0.777164,0.54435 -1.15638,0.51955 -1.793212,-0.11729 z m 28.09195,-0.87694 -0.57528,-0.61237 V 99.102965 83.84033 h -1.19063 -1.19062 v 5.920728 c 0,6.368237 -0.0609,6.655654 -1.37094,6.468852 -0.83938,-0.119689 -0.97791,-1.132692 -0.98875,-7.230205 -0.0118,-6.632066 0.24665,-7.625688 2.357,-9.061979 0.84439,-0.57469 1.0852,-0.595313 6.9511,-0.595313 6.84558,0 7.34541,0.117912 8.66655,2.044489 0.65021,0.948181 0.65772,1.025234 0.73613,7.549807 0.0853,7.098995 0.028,7.434817 -1.24406,7.286269 -0.92465,-0.107979 -1.04993,-0.962345 -1.06887,-7.289419 l -0.0152,-5.093229 h -1.19062 -1.19063 v 15.299714 15.299716 l -0.61236,0.57528 c -0.7728,0.72601 -1.54443,0.73259 -2.1909,0.0187 -0.47177,-0.52098 -0.50889,-1.13905 -0.58006,-9.65729 l -0.076,-9.100683 h -1.18073 -1.18074 v 8.960153 c 0,8.66411 -0.0181,8.98319 -0.54837,9.65729 -0.67683,0.86046 -1.55694,0.89268 -2.31593,0.0848 z M 94.773985,78.437164 c -1.224711,-0.533239 -1.962105,-1.624036 -1.960946,-2.900745 0.0025,-2.746693 2.720072,-4.441789 4.945573,-3.084815 1.157458,0.705746 1.740181,1.684237 1.740181,2.922059 0,1.237821 -0.582723,2.216312 -1.740181,2.922059 -0.982035,0.598785 -1.840765,0.63948 -2.984627,0.141442 z M 122.7531,77.26604 c -1.3152,-1.228583 -1.43558,-3.176561 -0.28657,-4.637293 0.62237,-0.791212 2.28096,-1.36747 3.24179,-1.126319 1.84016,0.461852 3.11451,2.581552 2.56076,4.259451 -0.48609,1.472851 -1.63406,2.257617 -3.30247,2.257617 -1.18132,0 -1.53627,-0.120821 -2.21351,-0.753456 z"
         id="path31"
         inkscape:connector-curvature="0" />
      <path
         style="fill:#fe0278;stroke-width:0.26458335"
         d="m 92.81205,115.85491 c -0.50203,-0.50203 -0.529166,-0.88194 -0.529166,-7.40833 v -6.87917 H 90.45244 c -1.006744,0 -1.998136,-0.0643 -2.203093,-0.143 -0.297231,-0.11405 0.09886,-1.814204 1.957117,-8.400516 1.281372,-4.541638 2.332295,-8.287288 2.335384,-8.323668 0.0031,-0.03638 -0.460853,-0.06615 -1.030986,-0.06615 h -1.036606 l -0.665253,2.050521 c -0.36589,1.127786 -1.091809,3.442043 -1.613155,5.142791 -0.952371,3.106854 -1.323033,3.632569 -2.297529,3.25862 -1.087783,-0.417422 -1.029972,-0.936272 0.739862,-6.640178 0.943995,-3.04235 1.915623,-5.876288 2.159174,-6.297639 0.592598,-1.025214 1.585135,-1.731191 2.844547,-2.023283 1.453604,-0.337132 7.963869,-0.309858 9.239938,0.03871 1.30064,0.355278 2.65442,1.347093 3.15194,2.309203 0.39837,0.77035 3.59494,11.090473 3.59494,11.606239 0,0.483776 -0.78013,1.138351 -1.3567,1.138351 -0.67977,0 -1.15114,-1.094807 -2.76249,-6.416147 l -1.26186,-4.167187 h -1.01364 c -0.55751,0 -1.01365,0.10205 -1.01365,0.226779 0,0.124729 0.35134,1.464182 0.78076,2.976563 2.26525,7.978169 3.71716,13.239761 3.71716,13.470691 0,0.14901 -0.95659,0.2593 -2.24896,0.2593 h -2.24896 l -0.004,6.94532 c -0.002,3.81992 -0.0915,7.07306 -0.19843,7.22919 -0.375591,0.54851 -1.188939,0.65813 -1.819172,0.24519 L 97.5746,115.57813 v -7.13765 -7.13765 H 96.383925 95.1933 v 7.12875 c 0,7.06671 -0.0051,7.13233 -0.588038,7.54062 -0.777164,0.54435 -1.15638,0.51955 -1.793212,-0.11729 z m 1.961935,-37.417746 c -1.224711,-0.533239 -1.962105,-1.624036 -1.960946,-2.900745 0.0025,-2.746693 2.720072,-4.441789 4.945573,-3.084815 1.157458,0.705746 1.740181,1.684237 1.740181,2.922059 0,1.237821 -0.582723,2.216312 -1.740181,2.922059 -0.982035,0.598785 -1.840765,0.63948 -2.984627,0.141442 z"
         id="path29"
         inkscape:connector-curvature="0" />
      <path
         style="fill:#fe0177;stroke-width:0.26458335"
         d="m 92.825584,115.86845 c -0.519381,-0.51938 -0.5427,-0.83829 -0.5427,-7.42187 v -6.87917 l -1.653646,-0.004 c -3.090995,-0.007 -2.995425,0.53969 -1.078619,-6.167219 0.922332,-3.227244 1.914555,-6.781091 2.204939,-7.897439 0.290384,-1.116347 0.603016,-2.225287 0.694738,-2.464309 0.1413,-0.368223 -0.0056,-0.421903 -0.961988,-0.351527 l -1.128755,0.08305 -1.444324,4.7625 c -1.75122,5.774454 -2.194504,6.428975 -3.449423,5.093174 l -0.559318,-0.595367 1.724024,-5.556195 c 0.948213,-3.055908 1.923292,-5.900938 2.166843,-6.322289 0.646571,-1.118589 1.694443,-1.798277 3.138469,-2.035727 1.90168,-0.312705 7.736098,-0.279344 8.946016,0.05115 1.29997,0.355093 2.65708,1.348889 3.14267,2.301323 0.39298,0.770802 3.60421,11.124078 3.60421,11.620281 0,0.470947 -0.77971,1.132189 -1.33502,1.132189 -0.70257,0 -1.05432,-0.800456 -2.64515,-6.019271 l -1.39124,-4.564063 h -1.01846 c -0.56016,0 -1.01847,0.116636 -1.01847,0.25919 0,0.238967 2.78207,10.257861 3.98029,14.333968 0.2847,0.968471 0.51763,1.891211 0.51763,2.050521 0,0.1871 -0.79626,0.28965 -2.24896,0.28965 h -2.24896 v 7.00536 7.00536 l -0.661455,0.43341 c -0.61274,0.40148 -0.710175,0.40148 -1.322916,0 l -0.661459,-0.43341 v -7.13765 -7.13765 H 96.383925 95.1933 v 6.96089 c 0,7.35055 -0.04178,7.61856 -1.243237,7.97489 -0.401034,0.11894 -0.750381,0.004 -1.124479,-0.37016 z m 1.970841,-37.413673 c -1.187381,-0.54299 -1.767541,-1.340559 -1.912841,-2.629657 -0.320833,-2.846423 2.517842,-4.810784 4.875028,-3.373516 2.876198,1.753727 2.049516,5.784424 -1.280556,6.2437 -0.488334,0.06735 -1.245068,-0.04089 -1.681631,-0.240527 z"
         id="path27"
         inkscape:connector-curvature="0" />
      <path
         style="fill:#fe0276;stroke-width:0.26458335"
         d="m 93.341217,116.18238 c -0.993067,-0.30966 -1.058333,-0.78984 -1.058333,-7.78637 v -6.8286 l -1.785938,-0.0186 c -0.982266,-0.0102 -1.969699,-0.0995 -2.194295,-0.19843 -0.347811,-0.15318 -0.08483,-1.31751 1.77369,-7.852761 1.200126,-4.220104 2.251126,-7.94785 2.335556,-8.28388 0.144174,-0.573815 0.08629,-0.60599 -0.951994,-0.529167 l -1.105503,0.0818 -0.898522,2.910416 c -0.494188,1.60073 -1.153277,3.743855 -1.464642,4.7625 -0.673638,2.203841 -1.313805,3.042653 -1.995884,2.615215 -0.282593,-0.177093 -0.489885,-0.694533 -0.538716,-1.344733 -0.07372,-0.981602 0.151074,-1.843918 2.331411,-8.943398 0.695867,-2.265841 1.585601,-3.686659 2.6549,-4.239615 1.114466,-0.576313 8.38455,-0.868626 10.207453,-0.410418 1.40246,0.352524 2.82548,1.298133 3.30673,2.197358 0.34322,0.64132 3.65968,11.277683 3.66691,11.760338 0.007,0.47789 -0.76714,1.143379 -1.33034,1.143379 -0.70257,0 -1.05432,-0.800456 -2.64515,-6.019271 l -1.39124,-4.564063 h -1.01846 c -0.56016,0 -1.01847,0.126613 -1.01847,0.281363 0,0.154749 0.58168,2.327639 1.29263,4.828646 2.01344,7.083034 3.20529,11.413731 3.20529,11.646671 0,0.11722 -0.74414,0.19554 -1.65365,0.17404 -0.9095,-0.0215 -1.92153,-0.0297 -2.24895,-0.0182 l -0.59532,0.0208 v 7.00536 7.00536 l -0.661455,0.43341 c -0.61274,0.40148 -0.710175,0.40148 -1.322916,0 l -0.661459,-0.43341 v -7.13765 -7.13765 H 96.383925 95.1933 v 6.96089 c 0,7.13461 -0.06017,7.58444 -1.058333,7.91212 -0.218281,0.0717 -0.575469,0.0746 -0.79375,0.007 z M 94.73549,78.433591 c -2.404418,-1.080749 -2.546251,-4.522537 -0.244979,-5.944801 3.452795,-2.133945 6.984829,2.945595 3.759049,5.406017 -1.105452,0.843169 -2.396498,1.041115 -3.51407,0.538784 z"
         id="path25"
         inkscape:connector-curvature="0" />
      <path
         style="fill:#fe0076;stroke-width:0.26458335"
         d="m 93.341217,116.18238 c -0.992612,-0.30952 -1.058333,-0.79113 -1.058333,-7.75551 v -6.79774 l -0.595313,-0.15954 c -0.327422,-0.0877 -1.321908,-0.16116 -2.209968,-0.16315 l -1.614656,-0.004 2.165121,-7.606771 c 1.190816,-4.183724 2.248869,-7.941236 2.351228,-8.350026 0.183907,-0.734461 0.172956,-0.742288 -0.925462,-0.661458 l -1.111571,0.0818 -1.497477,4.839587 c -0.823612,2.661774 -1.698894,5.041006 -1.945071,5.287183 -0.677363,0.677363 -1.345023,0.123454 -1.443784,-1.197802 -0.09957,-1.332094 2.605953,-10.321185 3.541272,-11.765861 1.114198,-1.720969 1.733305,-1.886773 7.122139,-1.907388 7.256868,-0.02776 7.319818,0.02658 9.903038,8.54856 l 1.70095,5.611405 -0.54537,0.545378 c -0.83683,0.836823 -1.54698,0.446638 -2.14228,-1.177052 -0.2774,-0.756622 -1.01515,-3.072318 -1.63943,-5.14599 l -1.13507,-3.770312 h -1.0204 c -0.56122,0 -1.0204,0.123356 -1.0204,0.274125 0,0.150769 0.54432,2.204597 1.20959,4.564063 0.66527,2.359465 1.62357,5.778218 2.12954,7.597229 0.50598,1.81901 0.98172,3.51565 1.0572,3.77031 0.11889,0.40107 -0.0554,0.46302 -1.30272,0.46302 -0.79198,0 -1.81203,0.0744 -2.26678,0.16537 l -0.82683,0.16536 v 6.97229 6.97228 l -0.661455,0.43341 c -0.61274,0.40148 -0.710175,0.40148 -1.322916,0 l -0.661459,-0.43341 v -7.13765 -7.13765 H 96.383925 95.1933 v 6.96089 c 0,7.13461 -0.06017,7.58444 -1.058333,7.91212 -0.218281,0.0717 -0.575469,0.0746 -0.79375,0.007 z M 94.73549,78.420978 c -2.402937,-1.044623 -2.546047,-4.510049 -0.244979,-5.932188 1.162649,-0.718557 2.256863,-0.702803 3.371787,0.04854 1.115068,0.751445 1.555415,1.597773 1.560435,2.999086 0.0046,1.28739 -0.636361,2.224395 -1.947118,2.84639 -1.093651,0.518972 -1.617359,0.526267 -2.740125,0.03817 z"
         id="path23"
         inkscape:connector-curvature="0" />
    </g>
  </g>
</svg>
