<?xml version="1.0" encoding="UTF-8"?>
<svg version="1.1" xmlns="http://www.w3.org/2000/svg" width="289" height="287">
<path d="M0 0 C1.3617334 0.00040787 1.3617334 0.00040787 2.75097656 0.00082397 C39.32159203 0.05086039 84.28135666 0.5472694 113.5625 26.1875 C125.16243841 38.11886522 131.85795457 52.47439047 136.5625 68.1875 C136.75827637 68.83460937 136.95405273 69.48171875 137.15576172 70.1484375 C143.24217694 90.9857717 144.06875891 113.59867093 144.5625 135.1875 C144.58441406 136.0007373 144.60632813 136.81397461 144.62890625 137.65185547 C145.5410529 175.60475725 145.62628745 226.33602629 118.5625 256.1875 C117.92054688 256.93257813 117.27859375 257.67765625 116.6171875 258.4453125 C97.37498806 279.39161817 63.61287691 285.86479037 36.32744598 287.30551529 C31.15393744 287.48670916 25.98080262 287.49356074 20.8046875 287.48828125 C19.16154883 287.49219 17.51841114 287.49652891 15.87527466 287.50126648 C12.45848291 287.50864974 9.0417946 287.50849672 5.625 287.50317383 C2.1772759 287.4985495 -1.27009488 287.50544601 -4.71777344 287.52368164 C-86.22041033 287.95098197 -86.22041033 287.95098197 -114.08984375 261.5390625 C-143.58662023 231.99320653 -144.62570275 187.88564981 -144.62280273 148.50927734 C-144.62497791 145.22089457 -144.64317139 141.93285459 -144.66210938 138.64453125 C-144.75931996 101.96819557 -143.3892435 57.9816853 -117 29.5625 C-116.154375 28.77875 -115.30875 27.995 -114.4375 27.1875 C-113.88835937 26.65640625 -113.33921875 26.1253125 -112.7734375 25.578125 C-84.31280972 -0.89143005 -36.43365115 -0.04149332 0 0 Z " fill="#0070FD" transform="translate(144.4375,-0.1875)"/>
<path d="M0 0 C0.66 -0.33 1.32 -0.66 2 -1 C2.19335938 -0.39671875 2.38671875 0.2065625 2.5859375 0.828125 C2.97652344 2.02695313 2.97652344 2.02695313 3.375 3.25 C3.63023437 4.03890625 3.88546875 4.8278125 4.1484375 5.640625 C4.42945313 6.41921875 4.71046875 7.1978125 5 8 C5.23154785 8.69319336 5.4630957 9.38638672 5.70166016 10.10058594 C6.87795114 12.28019521 6.87795114 12.28019521 9.6015625 12.609375 C11.09816406 12.67898437 11.09816406 12.67898437 12.625 12.75 C13.62789063 12.80671875 14.63078125 12.8634375 15.6640625 12.921875 C16.43492187 12.94765625 17.20578125 12.9734375 18 13 C18.01458252 14.03406982 18.02916504 15.06813965 18.04418945 16.13354492 C18.10230882 19.98236082 18.17954023 23.83059999 18.26245117 27.67895508 C18.29563655 29.34227108 18.32368834 31.00569796 18.34643555 32.66918945 C18.38009999 35.06509499 18.4324194 37.45999035 18.48828125 39.85546875 C18.49467117 40.5952446 18.5010611 41.33502045 18.50764465 42.09721375 C18.63329971 46.54308862 19.2548976 49.46144732 22 53 C24.98997825 54.49498913 27.70042775 54.11577446 31 54 C34.02385608 53.32596503 34.02385608 53.32596503 35.16162109 51.31738281 C36.20240668 48.44052293 36.32411418 45.98011779 36.4140625 42.921875 C36.45273438 41.76171875 36.49140625 40.6015625 36.53125 39.40625 C36.5621875 38.1996875 36.593125 36.993125 36.625 35.75 C36.66367188 34.52796875 36.70234375 33.3059375 36.7421875 32.046875 C36.83642108 29.0314006 36.92203455 26.01593172 37 23 C37.91765137 23.32742187 38.83530273 23.65484375 39.78076172 23.9921875 C43.42922795 25.1343738 46.3153413 25.13165127 50.125 25 C57.32960041 24.75209977 57.32960041 24.75209977 61 27 C61.33 27 61.66 27 62 27 C62.51802865 42.97255014 61.21420698 58.8678159 50 71 C42.69408224 77.78406649 34.31175716 78.26136328 24.70703125 78.15625 C18.32949066 77.78813799 12.75772014 75.63895506 7 73 C7 72.34 7 71.68 7 71 C4.84977164 70.03122528 4.84977164 70.03122528 2 70 C0.085224 71.09041914 -1.57173651 72.36843279 -3.30859375 73.72265625 C-10.84214736 79.4119681 -22.39178497 78.78402551 -31.3046875 77.7265625 C-40.62510691 75.74269813 -49.66539487 69.68023805 -55.421875 62.13671875 C-57.05910889 59.51826592 -58.07029241 57.685351 -57.75 54.5625 C-57.5025 54.046875 -57.255 53.53125 -57 53 C-52.91621923 53 -49.87684087 53.80712589 -46 55 C-46.25561323 52.6568787 -46.59270772 50.32156597 -47 48 C-47.66 47.67 -48.32 47.34 -49 47 C-50.78398184 41.55416069 -51.28005062 37.70204367 -50 32 C-49 31 -49 31 -47.00390625 30.9375 C-45.37890454 30.97910004 -43.75390453 31.0207665 -42.12890625 31.0625 C-39.94497784 31.14781138 -39.94497784 31.14781138 -38 30 C-37.96261719 30.86882812 -37.92523438 31.73765625 -37.88671875 32.6328125 C-37.37378527 43.02885074 -37.37378527 43.02885074 -31.5625 51.3125 C-26.48927434 54.6534047 -20.91401047 54.50951475 -15 54 C-11.47587197 53.10914236 -8.77017824 51.74450563 -6.125 49.1875 C-3.02602316 43.1617117 -2.96920393 34.41537845 -4.49609375 27.875 C-6.07589643 23.73359635 -8.26943268 21.30939882 -12 19 C-14.68507329 18.21053391 -14.68507329 18.21053391 -17 18 C-16.505 16.515 -16.505 16.515 -16 15 C-15.34 15 -14.68 15 -14 15 C-13.67 13.02 -13.34 11.04 -13 9 C-12.01 9 -11.02 9 -10 9 C-10.495 7.02 -10.495 7.02 -11 5 C-10.34 5 -9.68 5 -9 5 C-9.495 2.525 -9.495 2.525 -10 0 C-6.40311424 -1.24507584 -3.69187598 -0.64206539 0 0 Z " fill="#FCEDD8" transform="translate(158,107)"/>
<path d="M0 0 C0.03552472 4.02238806 -0.00666885 8.04042419 -0.0625 12.0625 C-0.05154297 13.19623047 -0.04058594 14.32996094 -0.02929688 15.49804688 C-0.22260938 24.97035982 -0.22260938 24.97035982 -4.359375 29.0078125 C-5.56801958 30.01113702 -6.78101597 31.00926302 -8 32 C-10.33374378 35.1689784 -12.1715741 38.51804112 -14 42 C-14.39316406 42.71285156 -14.78632812 43.42570312 -15.19140625 44.16015625 C-22.47712344 59.40370477 -20.98458099 79.74458763 -16.25 95.5 C-14.25834576 100.91759679 -11.46031859 105.40842342 -8 110 C-7.4225 110.86625 -6.845 111.7325 -6.25 112.625 C1.61648486 120.9285118 11.43608769 124.42190067 22 128 C22 128.99 22 129.98 22 131 C21.41992188 130.835 20.83984375 130.67 20.2421875 130.5 C17.65044123 129.95256844 15.63679094 129.66824689 13 130 C10.96376559 131.83174078 9.70408118 133.68185418 8.2890625 136.01953125 C6.46564781 138.82095928 4.61628133 139.85194442 1.3984375 140.625 C-4.0298222 141.29827252 -7.98734453 141.62133134 -12.6875 138.5625 C-14.15232892 137.40888016 -15.58897618 136.21884137 -17 135 C-17.84304687 134.33742187 -18.68609375 133.67484375 -19.5546875 132.9921875 C-24.25469512 129.14140244 -24.25469512 129.14140244 -26 127 C-26.24609375 124.25390625 -26.24609375 124.25390625 -26 122 C-27.32 122 -28.64 122 -30 122 C-34.97972916 116.09936202 -37.79538155 108.44740502 -40.375 101.25 C-40.62556152 100.55398682 -40.87612305 99.85797363 -41.13427734 99.14086914 C-48.38889696 77.81370104 -44.6673941 50.69569719 -35.1875 30.75 C-31.24939007 23.22184541 -26.23059307 16.77469602 -20 11 C-19.39285156 10.43410156 -18.78570312 9.86820313 -18.16015625 9.28515625 C-7.57728214 -0.32271219 -7.57728214 -0.32271219 0 0 Z " fill="#04C8FD" transform="translate(102,72)"/>
<path d="M0 0 C1.66675781 0.04640625 1.66675781 0.04640625 3.3671875 0.09375 C20.62470236 0.93763826 38.99723116 7.25644667 52 19 C52.80824219 19.72832031 53.61648437 20.45664063 54.44921875 21.20703125 C64.16005008 30.42433752 69.77988285 40.35613338 74 53 C74.37125 54.09634766 74.37125 54.09634766 74.75 55.21484375 C76.38102379 60.75352869 76.18889926 66.2910447 76 72 C75.48179687 71.66871094 74.96359375 71.33742188 74.4296875 70.99609375 C70.26507839 69.28873793 65.9383167 70.02648922 61.5078125 70.22265625 C57.50236323 69.96841281 55.27912013 69.31666452 52 67 C50.96875 64.25 50.96875 64.25 50.5 61 C48.09521731 48.25038289 41.40281187 39.20696831 30.90625 31.859375 C16.31366274 22.52325735 -2.97311509 21.4352166 -19.65234375 24.23828125 C-27.66652172 26.06181066 -35.45796785 28.95328948 -42 34 C-43.37480606 30.04999751 -42.92344452 26.15492054 -42.625 22.0625 C-42.58117187 21.35931641 -42.53734375 20.65613281 -42.4921875 19.93164062 C-42.24140564 16.21519276 -41.83841469 12.63076194 -41 9 C-41.99 8.67 -42.98 8.34 -44 8 C-29.62376489 1.11138734 -15.70822326 -0.64510157 0 0 Z " fill="#01B4FE" transform="translate(143,63)"/>
<path d="M0 0 C7.2413611 -0.26819856 13.62855533 1.11773906 20.5546875 3.1484375 C19.8946875 3.8084375 19.2346875 4.4684375 18.5546875 5.1484375 C17.2346875 5.1484375 15.9146875 5.1484375 14.5546875 5.1484375 C15.0496875 7.6234375 15.0496875 7.6234375 15.5546875 10.1484375 C14.8946875 10.1484375 14.2346875 10.1484375 13.5546875 10.1484375 C14.0496875 12.1284375 14.0496875 12.1284375 14.5546875 14.1484375 C13.5646875 14.1484375 12.5746875 14.1484375 11.5546875 14.1484375 C11.4515625 15.0765625 11.3484375 16.0046875 11.2421875 16.9609375 C10.5476683 20.18098108 10.07727811 21.17423615 7.5546875 23.1484375 C9.1015625 23.179375 9.1015625 23.179375 10.6796875 23.2109375 C15.69903058 24.4252947 17.88304256 26.81822103 20.5546875 31.1484375 C22.8794923 37.91403711 22.27976785 46.66015095 19.5546875 53.1484375 C16.61191991 56.72747916 14.07888133 59.04252345 9.5546875 60.1484375 C1.99502639 60.86963175 -3.71821019 60.17041235 -9.7578125 55.2734375 C-13.05296689 51.12398382 -13.72730763 47.03817804 -14.0703125 41.8359375 C-14.14507812 40.76730469 -14.21984375 39.69867188 -14.296875 38.59765625 C-14.34585938 37.78941406 -14.39484375 36.98117188 -14.4453125 36.1484375 C-15.33476563 36.39400391 -15.33476563 36.39400391 -16.2421875 36.64453125 C-19.01067758 37.27774973 -21.61517484 37.21275881 -24.4453125 37.1484375 C-25.447743 42.49473352 -25.29419445 46.77218516 -24.4453125 52.1484375 C-23.4553125 52.4784375 -22.4653125 52.8084375 -21.4453125 53.1484375 C-21.4453125 55.4584375 -21.4453125 57.7684375 -21.4453125 60.1484375 C-22.5178125 59.9834375 -23.5903125 59.8184375 -24.6953125 59.6484375 C-29.70211971 58.84652317 -29.70211971 58.84652317 -34.4453125 60.1484375 C-39.01466714 49.86738955 -39.40318759 36.00389335 -35.484375 25.3828125 C-29.6003381 12.72992112 -22.30019718 6.52668143 -9.4453125 1.1484375 C-6.19942373 0.35120166 -3.31130447 0.2010057 0 0 Z " fill="#03C3FE" transform="translate(133.4453125,101.8515625)"/>
<path d="M0 0 C0.91765137 0.32742187 1.83530273 0.65484375 2.78076172 0.9921875 C6.42922795 2.1343738 9.3153413 2.13165127 13.125 2 C20.32960041 1.75209977 20.32960041 1.75209977 24 4 C24.33 4 24.66 4 25 4 C25.51802865 19.97255014 24.21420698 35.8678159 13 48 C5.69408224 54.78406649 -2.68824284 55.26136328 -12.29296875 55.15625 C-18.67050934 54.78813799 -24.24227986 52.63895506 -30 50 C-30 49.34 -30 48.68 -30 48 C-32.15022836 47.03122528 -32.15022836 47.03122528 -35 47 C-36.914776 48.09041914 -38.57173651 49.36843279 -40.30859375 50.72265625 C-45.86227392 54.91677499 -52.78466848 55.14098888 -59.5 55.125 C-61.12421875 55.12886719 -61.12421875 55.12886719 -62.78125 55.1328125 C-65.93390353 55.00272728 -68.90298066 54.5876874 -72 54 C-70.33333333 52.33333333 -68.66666667 50.66666667 -67 49 C-66.505 48.4225 -66.01 47.845 -65.5 47.25 C-62.2144139 44.51201159 -58.06064008 45 -54 45 C-52.515 44.505 -52.515 44.505 -51 44 C-51.2475 42.576875 -51.2475 42.576875 -51.5 41.125 C-52 38 -52 38 -52 36 C-50.69804687 36.03480469 -49.39609375 36.06960937 -48.0546875 36.10546875 C-46.32813796 36.13361901 -44.60157439 36.16091784 -42.875 36.1875 C-42.0190625 36.21263672 -41.163125 36.23777344 -40.28125 36.26367188 C-35.08194658 36.32366384 -31.47318963 35.95929237 -27 33 C-25.41571686 31.47079217 -25.41571686 31.47079217 -24.3125 29.8125 C-23.549375 28.884375 -22.78625 27.95625 -22 27 C-21.01 27 -20.02 27 -19 27 C-18.67 26.34 -18.34 25.68 -18 25 C-17.319375 26.2065625 -17.319375 26.2065625 -16.625 27.4375 C-15.25274335 30.08856572 -15.25274335 30.08856572 -13 31 C-9.32670036 31.13357453 -6.50147041 31.1671568 -3 30 C-0.77073651 26.77089449 -0.69917842 23.77206627 -0.5859375 19.921875 C-0.54726562 18.76171875 -0.50859375 17.6015625 -0.46875 16.40625 C-0.4378125 15.1996875 -0.406875 13.993125 -0.375 12.75 C-0.33632812 11.52796875 -0.29765625 10.3059375 -0.2578125 9.046875 C-0.16357892 6.0314006 -0.07796545 3.01593172 0 0 Z " fill="#78A5DE" transform="translate(195,130)"/>
<path d="M0 0 C1.03621277 2.72418835 2.05411937 5.45302216 3.0625 8.1875 C3.35705078 8.95642578 3.65160156 9.72535156 3.95507812 10.51757812 C5.47736587 14.69043747 6.53759488 17.61565802 5 22 C-2.99704031 24.02150939 -10.75213602 25.60251258 -19 26 C-19.7734375 26.04125 -20.546875 26.0825 -21.34375 26.125 C-32.86447692 26.43221938 -43.8554793 24.67556911 -54.75 21.0625 C-55.51248047 20.80968262 -56.27496094 20.55686523 -57.06054688 20.29638672 C-60.8336515 18.97512209 -63.95445747 17.68488618 -67 15 C-65.36622867 13.36622867 -63.37221115 13.68238235 -61.125 13.5 C-58.15077151 13.25720584 -55.84924786 12.94974929 -53 12 C-52.29605388 10.68596724 -51.63654342 9.3479743 -51 8 C-49.1875 5.25 -49.1875 5.25 -47 3 C-43.39129525 2.36847667 -41.11099161 3.15644942 -38 5 C-38 4.01 -38 3.02 -38 2 C-36.18628906 2.14308594 -36.18628906 2.14308594 -34.3359375 2.2890625 C-22.37539721 3.13454686 -11.38152447 0 0 0 Z " fill="#016BC6" transform="translate(162,198)"/>
<path d="M0 0 C3.76222616 2.84988631 6.04773612 6.50494744 7.0625 11.05859375 C7.7586343 18.55032476 7.70521369 25.8444825 2.75 31.87109375 C-2.79032878 36.38066369 -7.97148502 36.76607965 -14.9375 36.05859375 C-19.48619384 34.87834554 -22.99954381 32.75824228 -25.9375 29.05859375 C-28.98491326 22.63608838 -28.39172183 16.1372084 -27.375 9.24609375 C-25.00879594 3.99929344 -21.20978252 1.24637779 -16.1875 -1.37890625 C-10.79428875 -2.31234666 -5.02482585 -2.44149805 0 0 Z " fill="#0170FC" transform="translate(147.9375,125.94140625)"/>
<path d="M0 0 C3.25 -0.375 3.25 -0.375 7 0 C9.1875 2.6875 9.1875 2.6875 11 6 C17.94258899 16.41388349 29.7137959 20.17725345 41 24 C41 24.99 41 25.98 41 27 C40.41992188 26.835 39.83984375 26.67 39.2421875 26.5 C36.65044123 25.95256844 34.63679094 25.66824689 32 26 C29.96376559 27.83174078 28.70408118 29.68185418 27.2890625 32.01953125 C25.46564781 34.82095928 23.61628133 35.85194442 20.3984375 36.625 C14.9701778 37.29827252 11.01265547 37.62133134 6.3125 34.5625 C4.84375695 33.41386762 3.40727436 32.22316858 2 31 C1.15695313 30.30261719 0.31390625 29.60523438 -0.5546875 28.88671875 C-5.0004507 25.09881771 -5.0004507 25.09881771 -7 23 C-7 22.34 -7 21.68 -7 21 C-6.01 21 -5.02 21 -4 21 C-4 20.34 -4 19.68 -4 19 C-3.34 19 -2.68 19 -2 19 C-2 17.68 -2 16.36 -2 15 C-1.01 14.67 -0.02 14.34 1 14 C1.33 13.01 1.66 12.02 2 11 C0.02 11.33 -1.96 11.66 -4 12 C-4.33 10.68 -4.66 9.36 -5 8 C-4.34 7.67 -3.68 7.34 -3 7 C-3.66 6.67 -4.32 6.34 -5 6 C-5 5.34 -5 4.68 -5 4 C-3.35 3.67 -1.7 3.34 0 3 C0 2.01 0 1.02 0 0 Z " fill="#FEFAC9" transform="translate(83,176)"/>
<path d="M0 0 C2.97 0.495 2.97 0.495 6 1 C6 2.65 6 4.3 6 6 C4.35 6.66 2.7 7.32 1 8 C1.99 8.33 2.98 8.66 4 9 C3.67 9.99 3.34 10.98 3 12 C2.26394531 12.03738281 1.52789062 12.07476562 0.76953125 12.11328125 C-0.20628906 12.17902344 -1.18210937 12.24476563 -2.1875 12.3125 C-3.15042969 12.37050781 -4.11335938 12.42851562 -5.10546875 12.48828125 C-8.35517554 13.06279082 -10.20506325 14.28697425 -13 16 C-16.15625 16.9140625 -16.15625 16.9140625 -19.5 17.625 C-20.6034375 17.86476562 -21.706875 18.10453125 -22.84375 18.3515625 C-24.81681707 18.75692034 -26.79183805 19.15300679 -28.76953125 19.53515625 C-31.19532305 20.04070656 -32.92461835 20.64026719 -35 22 C-35.26941406 22.6290625 -35.53882813 23.258125 -35.81640625 23.90625 C-37.36597833 26.64740721 -38.93289035 27.3344337 -41.75 28.6875 C-42.59046875 29.10386719 -43.4309375 29.52023438 -44.296875 29.94921875 C-49.30769316 31.8970657 -54.16593645 32.13770015 -59.5 32.125 C-61.12421875 32.12886719 -61.12421875 32.12886719 -62.78125 32.1328125 C-65.93390353 32.00272728 -68.90298066 31.5876874 -72 31 C-70.33333333 29.33333333 -68.66666667 27.66666667 -67 26 C-66.505 25.4225 -66.01 24.845 -65.5 24.25 C-62.2144139 21.51201159 -58.06064008 22 -54 22 C-53.01 21.67 -52.02 21.34 -51 21 C-51.2475 19.576875 -51.2475 19.576875 -51.5 18.125 C-52 15 -52 15 -52 13 C-50.69804687 13.03480469 -49.39609375 13.06960937 -48.0546875 13.10546875 C-46.32813796 13.13361901 -44.60157439 13.16091784 -42.875 13.1875 C-42.0190625 13.21263672 -41.163125 13.23777344 -40.28125 13.26367188 C-35.08194658 13.32366384 -31.47318963 12.95929237 -27 10 C-25.41571686 8.47079217 -25.41571686 8.47079217 -24.3125 6.8125 C-23.549375 5.884375 -22.78625 4.95625 -22 4 C-21.01 4 -20.02 4 -19 4 C-18.67 3.34 -18.34 2.68 -18 2 C-17.319375 3.2065625 -17.319375 3.2065625 -16.625 4.4375 C-15.25274335 7.08856572 -15.25274335 7.08856572 -13 8 C-9.32670036 8.13357453 -6.50147041 8.1671568 -3 7 C-1.28432339 3.49705129 -1.28432339 3.49705129 0 0 Z " fill="#E2C1CB" transform="translate(195,153)"/>
<path d="M0 0 C0 0.99 0 1.98 0 3 C5.61 3.33 11.22 3.66 17 4 C17 3.01 17 2.02 17 1 C22.625 -0.125 22.625 -0.125 26 1 C24.63545733 6.62873851 20.44179674 9.66865244 16 13 C8.29532696 17.1342148 -2.83550656 17.14815866 -11.25 15.1875 C-14.98979576 14.00323134 -18.43844906 12.63237751 -22 11 C-22 10.34 -22 9.68 -22 9 C-24.475 8.01 -24.475 8.01 -27 7 C-25.0625 4.5 -25.0625 4.5 -22 2 C-19.72743488 1.74941297 -17.6196329 1.87940402 -15.33984375 2.02734375 C-12.11637185 1.98967379 -9.72260778 0.85377613 -6.796875 -0.3984375 C-4.2978027 -1.23508344 -2.45397731 -0.8435547 0 0 Z " fill="#839BD0" transform="translate(187,169)"/>
<path d="M0 0 C-0.33 6.6 -0.66 13.2 -1 20 C-1.66 20 -2.32 20 -3 20 C-3.33 20.99 -3.66 21.98 -4 23 C-6.31 23.33 -8.62 23.66 -11 24 C-11 25.65 -11 27.3 -11 29 C-12.98 29 -14.96 29 -17 29 C-17.33 29.99 -17.66 30.98 -18 32 C-21.63970867 32.42820102 -23.04569463 31.97413512 -26.3125 30.125 C-27.199375 29.42375 -28.08625 28.7225 -29 28 C-29 27.34 -29 26.68 -29 26 C-29.66 26 -30.32 26 -31 26 C-27.56050626 14.99362003 -17.57396348 7.2888275 -8.125 1.4375 C-5 0 -5 0 0 0 Z " fill="#F9EFEE" transform="translate(102,72)"/>
<path d="M0 0 C0.33 0 0.66 0 1 0 C1.02578125 0.83402344 1.0515625 1.66804687 1.078125 2.52734375 C1.46171515 10.41402972 1.46171515 10.41402972 4.125 17.75 C6.50372576 22.42157694 6.06797858 25.98050066 5 31 C4.814375 32.010625 4.62875 33.02125 4.4375 34.0625 C4.293125 34.701875 4.14875 35.34125 4 36 C-0.53701494 37.45184478 -4.18061476 38.23509196 -9 38 C-9.495 36.515 -9.495 36.515 -10 35 C-10.7425 34.979375 -11.485 34.95875 -12.25 34.9375 C-15.85031525 33.7101198 -16.65921204 32.0789918 -18.3515625 28.7890625 C-19 27 -19 27 -18.75 24.5625 C-18.5025 24.046875 -18.255 23.53125 -18 23 C-13.91621923 23 -10.87684087 23.80712589 -7 25 C-7.25561323 22.6568787 -7.59270772 20.32156597 -8 18 C-8.66 17.67 -9.32 17.34 -10 17 C-11.78398184 11.55416069 -12.28005062 7.70204367 -11 2 C-10 1 -10 1 -7.96875 0.9375 C-6.32291667 0.97916667 -4.67708333 1.02083333 -3.03125 1.0625 C-1.00390764 1.23224945 -1.00390764 1.23224945 0 0 Z " fill="#FFF7C7" transform="translate(119,137)"/>
<path d="M0 0 C1.45945288 0.08708669 2.91765868 0.19526907 4.375 0.3125 C5.59316406 0.39951172 5.59316406 0.39951172 6.8359375 0.48828125 C9 1 9 1 11 4 C11.07905064 6.33199388 11.08798769 8.66832622 11 11 C10.01 10.34 9.02 9.68 8 9 C8 8.34 8 7.68 8 7 C5.42672567 8.21030974 5.42672567 8.21030974 3 10 C3 11.32 3 12.64 3 14 C2.72650938 16.6763011 2.35563563 19.33273279 2 22 C2.66 22.33 3.32 22.66 4 23 C-1.34640457 23.24963757 -5.78231703 22.43506251 -10.8125 20.75 C-11.50666016 20.52546143 -12.20082031 20.30092285 -12.91601562 20.06958008 C-18.37120488 18.27840895 -23.72476304 16.26987359 -29 14 C-28.67 13.34 -28.34 12.68 -28 12 C-25.8203125 11.62109375 -25.8203125 11.62109375 -23.125 11.4375 C-20.13203161 11.22371654 -17.8671313 10.95571043 -15 10 C-14.29605388 8.68596724 -13.63654342 7.3479743 -13 6 C-11.1875 3.25 -11.1875 3.25 -9 1 C-5.39129525 0.36847667 -3.11099161 1.15644942 0 3 C0 2.01 0 1.02 0 0 Z " fill="#2186DA" transform="translate(124,200)"/>
<path d="M0 0 C1.98 0.66 3.96 1.32 6 2 C8.37349351 2.08457883 10.75141685 2.08202447 13.125 2 C20.32960041 1.75209977 20.32960041 1.75209977 24 4 C24.33 4 24.66 4 25 4 C25.11459026 11.41017023 24.91160286 18.64206267 24 26 C22.35 26.33 20.7 26.66 19 27 C19 26.34 19 25.68 19 25 C19.66 24.67 20.32 24.34 21 24 C21.65213292 21.97536745 21.65213292 21.97536745 22 20 C20.39482903 20.08733576 18.79078338 20.19552224 17.1875 20.3125 C16.29417969 20.37050781 15.40085938 20.42851562 14.48046875 20.48828125 C11.69396 21.06313581 10.75864246 21.8206856 9 24 C6.525 23.01 6.525 23.01 4 22 C4 21.34 4 20.68 4 20 C3.01 20 2.02 20 1 20 C0.67 13.4 0.34 6.8 0 0 Z " fill="#7FBBF3" transform="translate(195,130)"/>
<path d="M0 0 C4.34671293 1.41367259 8.6135639 2.97260641 12.875 4.625 C14.02742188 5.07101563 15.17984375 5.51703125 16.3671875 5.9765625 C17.23601562 6.31429687 18.10484375 6.65203125 19 7 C19 7.99 19 8.98 19 10 C18.41992188 9.835 17.83984375 9.67 17.2421875 9.5 C14.65044123 8.95256844 12.63679094 8.66824689 10 9 C7.96376559 10.83174078 6.70408118 12.68185418 5.2890625 15.01953125 C4 17 4 17 1 19 C-1.84765625 19.44921875 -1.84765625 19.44921875 -5.0625 19.6875 C-6.65771484 19.81705078 -6.65771484 19.81705078 -8.28515625 19.94921875 C-11 20 -11 20 -13 19 C-13.125 13.25 -13.125 13.25 -12 11 C-11.34 11 -10.68 11 -10 11 C-9.79375 10.2575 -9.5875 9.515 -9.375 8.75 C-7.59545636 5.19091273 -5.36205271 4.03124018 -2 2 C-1.34 1.34 -0.68 0.68 0 0 Z " fill="#E7C3CD" transform="translate(105,193)"/>
<path d="M0 0 C1.98 0.33 3.96 0.66 6 1 C6 2.65 6 4.3 6 6 C4.35 6.66 2.7 7.32 1 8 C1.99 8.33 2.98 8.66 4 9 C3.67 9.99 3.34 10.98 3 12 C2.26394531 12.03738281 1.52789062 12.07476562 0.76953125 12.11328125 C-0.20628906 12.17902344 -1.18210938 12.24476563 -2.1875 12.3125 C-3.15042969 12.37050781 -4.11335938 12.42851562 -5.10546875 12.48828125 C-8.35517554 13.06279082 -10.20506325 14.28697425 -13 16 C-16.15625 16.9140625 -16.15625 16.9140625 -19.5 17.625 C-20.6034375 17.86476562 -21.706875 18.10453125 -22.84375 18.3515625 C-24.81681707 18.75692034 -26.79183805 19.15300679 -28.76953125 19.53515625 C-31.19532305 20.04070656 -32.92461835 20.64026719 -35 22 C-35.68268138 23.32520503 -36.3507041 24.65812182 -37 26 C-37.99 26.33 -38.98 26.66 -40 27 C-40 26.01 -40 25.02 -40 24 C-40.66 23.34 -41.32 22.68 -42 22 C-37.375 19 -37.375 19 -34 19 C-34 17.68 -34 16.36 -34 15 C-32.96359375 14.74605469 -31.9271875 14.49210938 -30.859375 14.23046875 C-29.48946007 13.88329853 -28.1196751 13.53561521 -26.75 13.1875 C-26.06808594 13.02185547 -25.38617188 12.85621094 -24.68359375 12.68554688 C-20.76451988 11.67724146 -18.17942705 10.42077851 -15 8 C-12.74609375 7.7421875 -12.74609375 7.7421875 -10.4375 7.875 C-7.44802722 8.02623808 -5.91083169 7.97027723 -3 7 C-1.28432339 3.49705129 -1.28432339 3.49705129 0 0 Z " fill="#B6B3D5" transform="translate(195,153)"/>
<path d="M0 0 C2.97 0.33 5.94 0.66 9 1 C9 1.33 9 1.66 9 2 C7.02 2 5.04 2 3 2 C3 2.99 3 3.98 3 5 C1.35 5.33 -0.3 5.66 -2 6 C-2 6.66 -2 7.32 -2 8 C-1.01 8.33 -0.02 8.66 1 9 C0.01 9.33 -0.98 9.66 -2 10 C-1.67 11.32 -1.34 12.64 -1 14 C0.98 13.67 2.96 13.34 5 13 C4.67 14.32 4.34 15.64 4 17 C3.01 17 2.02 17 1 17 C1 18.32 1 19.64 1 21 C0.34 21 -0.32 21 -1 21 C-1 21.66 -1 22.32 -1 23 C-1.99 23 -2.98 23 -4 23 C-4 22.01 -4 21.02 -4 20 C-5.32 20 -6.64 20 -8 20 C-9.921875 17.55078125 -9.921875 17.55078125 -11.75 14.3125 C-12.36359375 13.25675781 -12.9771875 12.20101562 -13.609375 11.11328125 C-14.97428983 8.057559 -15.31710675 6.28693339 -15 3 C-11.67465243 1.89155081 -9.37817425 2.15545644 -6 3 C-6 3.66 -6 4.32 -6 5 C-4.02 5 -2.04 5 0 5 C0 3.35 0 1.7 0 0 Z " fill="#09D4FC" transform="translate(80,174)"/>
<path d="M0 0 C1.03125 0.515625 2.0625 1.03125 3.125 1.5625 C6.73052374 3.13395026 9.15678443 3.03110662 13 2 C13 2.99 13 3.98 13 5 C9.535 6.485 9.535 6.485 6 8 C6.66 8.66 7.32 9.32 8 10 C6.53966837 12.92066326 5.60087013 14.67520533 2.6875 16.25 C-2.53342474 17.70700225 -7.46380549 18.11771627 -12.875 18.0625 C-14.02742187 18.05347656 -15.17984375 18.04445312 -16.3671875 18.03515625 C-17.23601562 18.02355469 -18.10484375 18.01195312 -19 18 C-18.34 17.67 -17.68 17.34 -17 17 C-16.62690101 15.34178227 -16.29299023 13.67422986 -16 12 C-15 11 -15 11 -11.83984375 10.90234375 C-9.90818359 10.91974609 -9.90818359 10.91974609 -7.9375 10.9375 C-6.64714844 10.94652344 -5.35679687 10.95554688 -4.02734375 10.96484375 C-3.02832031 10.97644531 -2.02929688 10.98804688 -1 11 C-1.09539062 10.37351563 -1.19078125 9.74703125 -1.2890625 9.1015625 C-1.39992187 8.28429687 -1.51078125 7.46703125 -1.625 6.625 C-1.79902344 5.40683594 -1.79902344 5.40683594 -1.9765625 4.1640625 C-1.98429687 3.44992188 -1.99203125 2.73578125 -2 2 C-1.34 1.34 -0.68 0.68 0 0 Z " fill="#D5B8C7" transform="translate(148,167)"/>
<path d="M0 0 C2.0109375 0.7115625 2.0109375 0.7115625 4.0625 1.4375 C8.06610966 2.78048299 11.80806405 3.55404937 16 4 C17.27798935 8.71258572 18 12.04265048 18 17 C12.39 17 6.78 17 1 17 C0.67 11.39 0.34 5.78 0 0 Z " fill="#CEDCFC" transform="translate(195,130)"/>
<path d="M0 0 C5.61 0 11.22 0 17 0 C17 4.95 17 9.9 17 15 C12.34385708 16.16403573 10.41964414 15.73628877 6 14 C1.57104414 10.04985018 1.00746937 5.6250373 0 0 Z " fill="#08C8FD" transform="translate(159,105)"/>
<path d="M0 0 C3.84066037 1.56471348 6.13033315 4.06034127 9 7 C10.64864545 8.35555293 12.31003995 9.69631653 14 11 C12.48504725 15.2418677 9.63597407 16.57601729 6 19 C4.61131484 21.10039331 4.61131484 21.10039331 4 23 C3.34 23 2.68 23 2 23 C1.67 25.31 1.34 27.62 1 30 C-2.25964342 28.51222697 -4.93169293 26.64333184 -7.75 24.4375 C-8.54921875 23.81746094 -9.3484375 23.19742188 -10.171875 22.55859375 C-10.77515625 22.04425781 -11.3784375 21.52992188 -12 21 C-12 20.67 -12 20.34 -12 20 C-10.35 20 -8.7 20 -7 20 C-7 20.66 -7 21.32 -7 22 C-4.03 21.67 -1.06 21.34 2 21 C2.77426109 18.19235272 2.77426109 18.19235272 3 15 C2.484375 14.34 1.96875 13.68 1.4375 13 C0.963125 12.34 0.48875 11.68 0 11 C0.8125 7.75 0.8125 7.75 2 5 C0.68 5 -0.64 5 -2 5 C-1.125 1.125 -1.125 1.125 0 0 Z " fill="#FDD9C2" transform="translate(91,181)"/>
<path d="M0 0 C0 1.32 0 2.64 0 4 C-0.99 4.495 -0.99 4.495 -2 5 C-2.33 5.99 -2.66 6.98 -3 8 C-2.01 8.33 -1.02 8.66 0 9 C-0.66 10.32 -1.32 11.64 -2 13 C-2.66 13 -3.32 13 -4 13 C-4 13.66 -4 14.32 -4 15 C-3.01 15 -2.02 15 -1 15 C-1 16.32 -1 17.64 -1 19 C-2.65 19 -4.3 19 -6 19 C-6 18.34 -6 17.68 -6 17 C-8.31 16.67 -10.62 16.34 -13 16 C-14.5746461 12.55546165 -15.775236 9.77927552 -15 6 C-10.02702703 2 -10.02702703 2 -7 2 C-7 1.34 -7 0.68 -7 0 C-4.3333581 -1.33332095 -2.83319697 -0.67102033 0 0 Z " fill="#67DBFE" transform="translate(74,154)"/>
<path d="M0 0 C5.28 0 10.56 0 16 0 C14 5 14 5 12.5 6.9375 C10.65299252 9.47713529 9.88476994 12.00539405 9 15 C7.35 15.33 5.7 15.66 4 16 C4 16.66 4 17.32 4 18 C3.01 18.33 2.02 18.66 1 19 C0.34 18.67 -0.32 18.34 -1 18 C-0.125 12.25 -0.125 12.25 1 10 C1.13357453 6.32670036 1.1671568 3.50147041 0 0 Z " fill="#296FBD" transform="translate(133,201)"/>
<path d="M0 0 C0.33 1.32 0.66 2.64 1 4 C0.34 4 -0.32 4 -1 4 C-1 4.66 -1 5.32 -1 6 C-0.01 6 0.98 6 2 6 C3.175625 7.2375 3.175625 7.2375 4.375 8.5 C6.74105711 11.25854622 6.74105711 11.25854622 9.8125 11.3125 C10.8953125 11.1578125 10.8953125 11.1578125 12 11 C12 12.65 12 14.3 12 16 C10.02 16 8.04 16 6 16 C5.67 16.99 5.34 17.98 5 19 C1.36029133 19.42820102 -0.04569463 18.97413512 -3.3125 17.125 C-4.199375 16.42375 -5.08625 15.7225 -6 15 C-6 14.34 -6 13.68 -6 13 C-6.66 13 -7.32 13 -8 13 C-6.40956621 7.91061189 -3.2553049 4.12543357 0 0 Z " fill="#E7DAF1" transform="translate(79,85)"/>
<path d="M0 0 C0.99 0.33 1.98 0.66 3 1 C3 1.66 3 2.32 3 3 C3.99 3 4.98 3 6 3 C6 3.66 6 4.32 6 5 C7.65 4.67 9.3 4.34 11 4 C10.67 4.99 10.34 5.98 10 7 C12.64 7 15.28 7 18 7 C18.33 7.66 18.66 8.32 19 9 C9.31533222 11.54024073 0.63394802 11.90836167 -9 9 C-9 8.34 -9 7.68 -9 7 C-7.5459375 6.62875 -7.5459375 6.62875 -6.0625 6.25 C-4.5465625 5.63125 -4.5465625 5.63125 -3 5 C-2.18553891 2.99427359 -2.18553891 2.99427359 -2 1 C-1.34 0.67 -0.68 0.34 0 0 Z " fill="#7A90C5" transform="translate(181,174)"/>
<path d="M0 0 C0.99 0.33 1.98 0.66 3 1 C1.6875 4.4375 1.6875 4.4375 0 8 C-0.99 8.33 -1.98 8.66 -3 9 C-3.33 11.31 -3.66 13.62 -4 16 C-5.32 16 -6.64 16 -8 16 C-7.67 13.69 -7.34 11.38 -7 9 C-8.98 9 -10.96 9 -13 9 C-13 10.65 -13 12.3 -13 14 C-16.63 13.67 -20.26 13.34 -24 13 C-24 12.67 -24 12.34 -24 12 C-23.06027344 11.85304687 -23.06027344 11.85304687 -22.1015625 11.703125 C-21.28429687 11.55359375 -20.46703125 11.4040625 -19.625 11.25 C-18.81289062 11.11078125 -18.00078125 10.9715625 -17.1640625 10.828125 C-14.85410716 10.19527782 -14.85410716 10.19527782 -13.82421875 8.09375 C-13.55222656 7.4028125 -13.28023437 6.711875 -13 6 C-11.1875 3.25 -11.1875 3.25 -9 1 C-5.39129525 0.36847667 -3.11099161 1.15644942 0 3 C0 2.01 0 1.02 0 0 Z " fill="#8CA5DA" transform="translate(124,200)"/>
<path d="M0 0 C0.33 0 0.66 0 1 0 C1.33 5.61 1.66 11.22 2 17 C2.99 17.33 3.98 17.66 5 18 C4.67 18.66 4.34 19.32 4 20 C6.34533951 20.76956136 6.34533951 20.76956136 9 21 C9.4434375 20.5153125 9.886875 20.030625 10.34375 19.53125 C12.63730199 17.41079628 14.12268562 17.69309165 17.1875 17.8125 C18.53908203 17.85310547 18.53908203 17.85310547 19.91796875 17.89453125 C20.94857422 17.94673828 20.94857422 17.94673828 22 18 C21.67 19.65 21.34 21.3 21 23 C20.34 23 19.68 23 19 23 C19 23.66 19 24.32 19 25 C20.32 25.33 21.64 25.66 23 26 C17.39 26 11.78 26 6 26 C5.67 25.01 5.34 24.02 5 23 C2.525 22.01 2.525 22.01 0 21 C0 14.07 0 7.14 0 0 Z " fill="#6FB5F1" transform="translate(195,132)"/>
<path d="M0 0 C0.33 0 0.66 0 1 0 C1 2.64 1 5.28 1 8 C-0.32 8.33 -1.64 8.66 -3 9 C-2.67 9.99 -2.34 10.98 -2 12 C-3.2065625 12.6496875 -3.2065625 12.6496875 -4.4375 13.3125 C-7.27846354 14.80474002 -7.27846354 14.80474002 -8 18 C-8.66 17.67 -9.32 17.34 -10 17 C-11.78398184 11.55416069 -12.28005062 7.70204367 -11 2 C-10 1 -10 1 -7.96875 0.9375 C-6.32291667 0.97916667 -4.67708333 1.02083333 -3.03125 1.0625 C-1.00390764 1.23224945 -1.00390764 1.23224945 0 0 Z " fill="#FEF7E2" transform="translate(119,137)"/>
<path d="M0 0 C1.03060547 0.70962891 1.03060547 0.70962891 2.08203125 1.43359375 C5.38392446 3.20609599 7.97966673 3.62703041 11.6875 4.0625 C17.78791774 4.78791774 17.78791774 4.78791774 20 7 C18.21400363 9.4072125 16.8044794 10.81848389 13.8359375 11.48828125 C10.54045408 11.84788612 7.31513926 12 4 12 C1.84971696 12.94978897 1.84971696 12.94978897 0 14 C-1.25581395 5.62790698 -1.25581395 5.62790698 0 2 C0 1.34 0 0.68 0 0 Z " fill="#F8E6C9" transform="translate(124,157)"/>
<path d="M0 0 C0.98484375 0.00902344 1.9696875 0.01804688 2.984375 0.02734375 C4.10585937 0.04474609 4.10585937 0.04474609 5.25 0.0625 C5.58 1.3825 5.91 2.7025 6.25 4.0625 C4.93 4.3925 3.61 4.7225 2.25 5.0625 C1.59 8.0325 0.93 11.0025 0.25 14.0625 C-1.07 14.3925 -2.39 14.7225 -3.75 15.0625 C-4.7576952 13.2960343 -5.75591714 11.52416177 -6.75 9.75 C-7.306875 8.76386719 -7.86375 7.77773437 -8.4375 6.76171875 C-9.75 4.0625 -9.75 4.0625 -9.75 1.0625 C-6.43929162 0.06140485 -3.44915231 -0.04106134 0 0 Z " fill="#3DC6FE" transform="translate(132.75,62.9375)"/>
<path d="M0 0 C-0.875 4.75 -0.875 4.75 -2 7 C-2.99 7 -3.98 7 -5 7 C-5.33 8.32 -5.66 9.64 -6 11 C-6.66 11 -7.32 11 -8 11 C-7.67 12.32 -7.34 13.64 -7 15 C-6.34 14.67 -5.68 14.34 -5 14 C-5 15.98 -5 17.96 -5 20 C-5.66 20 -6.32 20 -7 20 C-7 19.34 -7 18.68 -7 18 C-7.66 18 -8.32 18 -9 18 C-9 19.65 -9 21.3 -9 23 C-9.66 23 -10.32 23 -11 23 C-11.33 23.66 -11.66 24.32 -12 25 C-12.02714735 22.77090129 -12.04646254 20.54170633 -12.0625 18.3125 C-12.07410156 17.07113281 -12.08570312 15.82976562 -12.09765625 14.55078125 C-12.01478673 11.53764546 -11.70839449 8.91724661 -11 6 C-11.99 5.67 -12.98 5.34 -14 5 C-12.04350603 4.16235732 -10.08474444 3.33000941 -8.125 2.5 C-6.48917969 1.80390625 -6.48917969 1.80390625 -4.8203125 1.09375 C-2 0 -2 0 0 0 Z " fill="#46C7FE" transform="translate(113,66)"/>
<path d="M0 0 C2.38932765 3.58399147 3 5.73195001 3 10 C1.58800422 10.39222105 0.17007236 10.76311059 -1.25 11.125 C-2.03890625 11.33382812 -2.8278125 11.54265625 -3.640625 11.7578125 C-6.4203071 12.04314411 -7.65887549 11.44977894 -10 10 C-10 9.34 -10 8.68 -10 8 C-12.475 7.01 -12.475 7.01 -15 6 C-11.25 1.16129032 -11.25 1.16129032 -7.69921875 0.703125 C-6.09499026 0.73382794 -4.49090671 0.80529819 -2.890625 0.921875 C-2.26671875 0.94765625 -1.6428125 0.9734375 -1 1 C-0.67 0.67 -0.34 0.34 0 0 Z " fill="#9395C0" transform="translate(175,170)"/>
<path d="M0 0 C5 1.66666667 10 3.33333333 15 5 C15 5.99 15 6.98 15 8 C14.41992188 7.835 13.83984375 7.67 13.2421875 7.5 C10.65044123 6.95256844 8.63679094 6.66824689 6 7 C3.96376559 8.83174078 2.70408118 10.68185418 1.2890625 13.01953125 C0 15 0 15 -3 17 C-5.91796875 17.4140625 -5.91796875 17.4140625 -9.1875 17.625 C-10.27417969 17.69976562 -11.36085938 17.77453125 -12.48046875 17.8515625 C-13.72763672 17.92503906 -13.72763672 17.92503906 -15 18 C-14.67 16.68 -14.34 15.36 -14 14 C-12.35 14 -10.7 14 -9 14 C-9 14.66 -9 15.32 -9 16 C-6.97954558 15.39816251 -4.97888961 14.72693904 -3 14 C-1.73762269 11.47524538 -1.90143596 9.68799534 -1.9375 6.875 C-1.94652344 5.96492187 -1.95554687 5.05484375 -1.96484375 4.1171875 C-1.97644531 3.41851562 -1.98804687 2.71984375 -2 2 C-1.34 2 -0.68 2 0 2 C0 1.34 0 0.68 0 0 Z " fill="#B2AED3" transform="translate(109,195)"/>
<path d="M0 0 C0.99 0 1.98 0 3 0 C3.5745952 3.73486879 4 7.21293268 4 11 C3.01 11.33 2.02 11.66 1 12 C0.67 12.66 0.34 13.32 0 14 C-2.97 13.505 -2.97 13.505 -6 13 C-6.33 13.99 -6.66 14.98 -7 16 C-9.91227269 12.71195019 -11.49701212 10.40114397 -12 6 C-10.5 4.8125 -10.5 4.8125 -8 4 C-5.21175762 4.72898704 -2.62334908 5.8156725 0 7 C0 4.69 0 2.38 0 0 Z " fill="#FEECC8" transform="translate(112,155)"/>
<path d="M0 0 C0.19335938 0.67546875 0.38671875 1.3509375 0.5859375 2.046875 C0.84632812 2.93890625 1.10671875 3.8309375 1.375 4.75 C1.63023438 5.63171875 1.88546875 6.5134375 2.1484375 7.421875 C2.92399312 9.98692657 2.92399312 9.98692657 4.1171875 12.19921875 C5 14 5 14 4.75 16.0625 C4 18 4 18 2 21 C0.5 19.6875 0.5 19.6875 -1 18 C-1 17.01 -1 16.02 -1 15 C-1.66 15 -2.32 15 -3 15 C-3.66 13.35 -4.32 11.7 -5 10 C-5.99 10 -6.98 10 -8 10 C-8.33 9.01 -8.66 8.02 -9 7 C-8.175 6.38125 -7.35 5.7625 -6.5 5.125 C-5.2625 4.073125 -5.2625 4.073125 -4 3 C-4 2.34 -4 1.68 -4 1 C-1 0 -1 0 0 0 Z " fill="#FEFDE9" transform="translate(120,145)"/>
<path d="M0 0 C2.97 0.495 2.97 0.495 6 1 C6 2.65 6 4.3 6 6 C4.35 6.66 2.7 7.32 1 8 C1.99 8.33 2.98 8.66 4 9 C3.67 9.99 3.34 10.98 3 12 C2.26394531 12.03738281 1.52789062 12.07476562 0.76953125 12.11328125 C-4.72356601 12.48335782 -8.35468805 12.90312537 -13 16 C-16.8125 16.6875 -16.8125 16.6875 -20 17 C-17.33441197 13.55041549 -14.08817247 13.05989657 -10 12 C-9.67 11.67 -9.34 11.34 -9 11 C-9.66 10.34 -10.32 9.68 -11 9 C-9.741875 8.814375 -8.48375 8.62875 -7.1875 8.4375 C-4.58129396 7.8147782 -3.36939111 7.52099789 -1.80078125 5.30859375 C-0.87461627 3.16740924 -0.87461627 3.16740924 0 0 Z " fill="#94B0E3" transform="translate(195,153)"/>
<path d="M0 0 C2.97 0 5.94 0 9 0 C7.02 0.99 7.02 0.99 5 2 C3.92000268 5.32999173 3.90055885 8.51955981 4 12 C-0.76307437 12.95261487 -5.1666528 13.08333357 -10 13 C-10.66 14.65 -11.32 16.3 -12 18 C-14.64 18 -17.28 18 -20 18 C-18.33333333 16.33333333 -16.66666667 14.66666667 -15 13 C-14.505 12.4225 -14.01 11.845 -13.5 11.25 C-10.2144139 8.51201159 -6.06064008 9 -2 9 C-1.01 8.67 -0.02 8.34 1 8 C0.7525 6.576875 0.7525 6.576875 0.5 5.125 C0 2 0 2 0 0 Z " fill="#EDC3C7" transform="translate(143,166)"/>
<path d="M0 0 C2.97 0.33 5.94 0.66 9 1 C9 1.33 9 1.66 9 2 C7.02 2 5.04 2 3 2 C3 2.99 3 3.98 3 5 C1.35 5.33 -0.3 5.66 -2 6 C-2 6.66 -2 7.32 -2 8 C-1.01 8.33 -0.02 8.66 1 9 C0.01 9.33 -0.98 9.66 -2 10 C-1.67 11.32 -1.34 12.64 -1 14 C0.98 13.67 2.96 13.34 5 13 C4.67 14.32 4.34 15.64 4 17 C3.01 17 2.02 17 1 17 C1 18.32 1 19.64 1 21 C0.34 21 -0.32 21 -1 21 C-1 21.66 -1 22.32 -1 23 C-1.99 23 -2.98 23 -4 23 C-4 22.01 -4 21.02 -4 20 C-4.99 20 -5.98 20 -7 20 C-6.505 18.515 -6.505 18.515 -6 17 C-4.7934375 17.0309375 -4.7934375 17.0309375 -3.5625 17.0625 C-1.06645115 17.29633621 -1.06645115 17.29633621 0 16 C-0.845625 15.484375 -1.69125 14.96875 -2.5625 14.4375 C-3.366875 13.633125 -4.17125 12.82875 -5 12 C-4.8125 8.25 -4.8125 8.25 -4 5 C-2.68 5 -1.36 5 0 5 C0 3.35 0 1.7 0 0 Z " fill="#ADECFD" transform="translate(80,174)"/>
<path d="M0 0 C0.99 0.33 1.98 0.66 3 1 C2.01 1.33 1.02 1.66 0 2 C0 2.99 0 3.98 0 5 C0.66 5 1.32 5 2 5 C2 7.31 2 9.62 2 12 C1.34 12 0.68 12 0 12 C-0.33 11.34 -0.66 10.68 -1 10 C-7.24104658 7.91965114 -13.37771215 7.62690974 -19.92578125 7.34375 C-23 7 -23 7 -26 5 C-20.96608857 3.53854184 -14.75023285 3.62488358 -10 6 C-10.33 5.01 -10.66 4.02 -11 3 C-10.67 2.34 -10.34 1.68 -10 1 C-8.02 1 -6.04 1 -4 1 C-4.33 3.31 -4.66 5.62 -5 8 C-3.68 8 -2.36 8 -1 8 C-1.0309375 6.2984375 -1.0309375 6.2984375 -1.0625 4.5625 C-1 1 -1 1 0 0 Z " fill="#4C93DA" transform="translate(121,208)"/>
<path d="M0 0 C2.8203125 0.0234375 2.8203125 0.0234375 6.125 0.375 C7.22070312 0.48585937 8.31640625 0.59671875 9.4453125 0.7109375 C10.28835937 0.80632812 11.13140625 0.90171875 12 1 C11.7452486 2.31571603 11.47065859 3.62760376 11.1875 4.9375 C11.03667969 5.66839844 10.88585937 6.39929688 10.73046875 7.15234375 C10.36888672 8.06693359 10.36888672 8.06693359 10 9 C6.52128379 10.15957207 5.65780355 9.77456651 2.3125 8.5625 C1.50425781 8.27503906 0.69601563 7.98757812 -0.13671875 7.69140625 C-0.75160156 7.46324219 -1.36648437 7.23507813 -2 7 C-2.125 4.625 -2.125 4.625 -2 2 C-1.34 1.34 -0.68 0.68 0 0 Z " fill="#56A2E4" transform="translate(206,157)"/>
<path d="M0 0 C2.31 0 4.62 0 7 0 C5.68 0.33 4.36 0.66 3 1 C3 2.32 3 3.64 3 5 C2.01 5.66 1.02 6.32 0 7 C0.33 7.66 0.66 8.32 1 9 C1.99 9.33 2.98 9.66 4 10 C3.67 11.98 3.34 13.96 3 16 C3.66 16 4.32 16 5 16 C5 16.66 5 17.32 5 18 C3.68 18 2.36 18 1 18 C0.67 18.99 0.34 19.98 0 21 C-2.31 21.33 -4.62 21.66 -7 22 C-6.01 21.67 -5.02 21.34 -4 21 C-4 20.34 -4 19.68 -4 19 C-3.34 19 -2.68 19 -2 19 C-2 17.68 -2 16.36 -2 15 C-1.01 14.67 -0.02 14.34 1 14 C1.33 13.01 1.66 12.02 2 11 C0.02 11.33 -1.96 11.66 -4 12 C-4.33 10.68 -4.66 9.36 -5 8 C-4.34 7.67 -3.68 7.34 -3 7 C-3.66 6.67 -4.32 6.34 -5 6 C-5 5.34 -5 4.68 -5 4 C-3.35 3.67 -1.7 3.34 0 3 C0 2.01 0 1.02 0 0 Z " fill="#F9F9F3" transform="translate(83,176)"/>
<path d="M0 0 C5.97340271 2.25955676 11.54060049 4.67688725 17 8 C17 8.66 17 9.32 17 10 C14.91695462 10.05418326 12.83350232 10.09287551 10.75 10.125 C9.00976562 10.15980469 9.00976562 10.15980469 7.234375 10.1953125 C4.17213954 10.0103949 2.55797249 9.60823023 0 8 C0 5.36 0 2.72 0 0 Z " fill="#DAE2F7" transform="translate(58,135)"/>
<path d="M0 0 C0.99 0 1.98 0 3 0 C4.49821059 3.37097383 5 5.20442119 5 9 C4.01 9.495 4.01 9.495 3 10 C2.67 10.99 2.34 11.98 2 13 C2 12.34 2 11.68 2 11 C-0.47266765 11.34444881 -0.47266765 11.34444881 -3 12 C-3.33 12.66 -3.66 13.32 -4 14 C-4.66 14 -5.32 14 -6 14 C-6.125 8.25 -6.125 8.25 -5 6 C-4.34 6 -3.68 6 -3 6 C-2.690625 5.195625 -2.38125 4.39125 -2.0625 3.5625 C-1 1 -1 1 0 0 Z " fill="#DAC6DE" transform="translate(98,198)"/>
<path d="M0 0 C1.93166016 0.01740234 1.93166016 0.01740234 3.90234375 0.03515625 C5.19269531 0.04417969 6.48304688 0.05320313 7.8125 0.0625 C8.81152344 0.07410156 9.81054688 0.08570313 10.83984375 0.09765625 C9.96484375 4.97265625 9.96484375 4.97265625 8.83984375 6.09765625 C6.65344922 6.17024571 4.46483986 6.18139408 2.27734375 6.16015625 C0.48103516 6.14662109 0.48103516 6.14662109 -1.3515625 6.1328125 C-2.27839844 6.12121094 -3.20523438 6.10960937 -4.16015625 6.09765625 C-4.20287725 4.4315372 -4.20079457 2.7638274 -4.16015625 1.09765625 C-3.16015625 0.09765625 -3.16015625 0.09765625 0 0 Z " fill="#599AD9" transform="translate(191.16015625,165.90234375)"/>
<path d="M0 0 C0.33 2.64 0.66 5.28 1 8 C-2.3 8.66 -5.6 9.32 -9 10 C-9.33 7.69 -9.66 5.38 -10 3 C-6.68152292 -0.06320961 -4.44849969 -0.3033068 0 0 Z " fill="#EEF3F0" transform="translate(69,157)"/>
<path d="M0 0 C0.66 0 1.32 0 2 0 C2 0.66 2 1.32 2 2 C6.455 2.99 6.455 2.99 11 4 C11.33 3.34 11.66 2.68 12 2 C12 3.65 12 5.3 12 7 C10.02 7 8.04 7 6 7 C5.67 7.99 5.34 8.98 5 10 C1.36029133 10.42820102 -0.04569463 9.97413512 -3.3125 8.125 C-4.199375 7.42375 -5.08625 6.7225 -6 6 C-6 5.34 -6 4.68 -6 4 C-6.66 3.67 -7.32 3.34 -8 3 C-5.525 3.495 -5.525 3.495 -3 4 C-3 4.66 -3 5.32 -3 6 C-1.35 6 0.3 6 2 6 C1.34 4.02 0.68 2.04 0 0 Z " fill="#C9D3F7" transform="translate(79,94)"/>
<path d="M0 0 C0.66 0.33 1.32 0.66 2 1 C1.72482232 5.67802059 -0.33193886 7.74638753 -3.52734375 10.86328125 C-5 12 -5 12 -7 12 C-7 11.34 -7 10.68 -7 10 C-9.02045442 10.60183749 -11.02111039 11.27306096 -13 12 C-13.33 12.66 -13.66 13.32 -14 14 C-16.97 13.505 -16.97 13.505 -20 13 C-20 12.67 -20 12.34 -20 12 C-19.195625 11.87625 -18.39125 11.7525 -17.5625 11.625 C-16.716875 11.41875 -15.87125 11.2125 -15 11 C-14.67 10.34 -14.34 9.68 -14 9 C-12.02 9 -10.04 9 -8 9 C-8 7.35 -8 5.7 -8 4 C-6.865625 3.71125 -5.73125 3.4225 -4.5625 3.125 C-3.386875 2.75375 -2.21125 2.3825 -1 2 C-0.67 1.34 -0.34 0.68 0 0 Z " fill="#23CCFE" transform="translate(99,92)"/>
<path d="M0 0 C8.625 3.75 8.625 3.75 12 6 C11.67 6.99 11.34 7.98 11 9 C7.50970582 10.47666292 3.72563614 10.07164685 0 10 C0 6.7 0 3.4 0 0 Z " fill="#FAF7F7" transform="translate(196,137)"/>
<path d="M0 0 C-0.66 1.65 -1.32 3.3 -2 5 C-8.37305598 5.74507544 -14.58311325 6.10349817 -21 6 C-20.67 5.01 -20.34 4.02 -20 3 C-16.37 3 -12.74 3 -9 3 C-9 2.01 -9 1.02 -9 0 C-5.52176885 -1.15941038 -3.54104422 -0.70820884 0 0 Z " fill="#B6B5DB" transform="translate(213,170)"/>
<path d="M0 0 C0 0.99 0 1.98 0 3 C2.64 3 5.28 3 8 3 C4.25 6 4.25 6 2 6 C2 5.34 2 4.68 2 4 C0.700625 4.433125 0.700625 4.433125 -0.625 4.875 C-5.3125 6.4375 -5.3125 6.4375 -10 8 C-11 3.25 -11 3.25 -11 1 C-6.87831311 -0.62950412 -4.29299643 -1.26264601 0 0 Z " fill="#7C9AD0" transform="translate(187,169)"/>
<path d="M0 0 C-0.66386719 0.58007812 -1.32773438 1.16015625 -2.01171875 1.7578125 C-6.74316633 5.94358948 -11.07175386 10.05801292 -15 15 C-15.33 15 -15.66 15 -16 15 C-15.58138802 9.66269721 -14.612721 6.94115019 -11 3 C-10.34 2.01 -9.68 1.02 -9 0 C-2.7 -1.35 -2.7 -1.35 0 0 Z " fill="#1363B7" transform="translate(159,200)"/>
<path d="M0 0 C0.33 0 0.66 0 1 0 C1 3.96 1 7.92 1 12 C0.67 10.68 0.34 9.36 0 8 C-1.65 7.67 -3.3 7.34 -5 7 C-5.66 5.02 -6.32 3.04 -7 1 C-9.64 0.67 -12.28 0.34 -15 0 C-15 -0.33 -15 -0.66 -15 -1 C-9.57369088 -2.27677862 -4.9400636 -2.92744509 0 0 Z " fill="#38C1F5" transform="translate(219,134)"/>
<path d="M0 0 C1.32 1.32 2.64 2.64 4 4 C3.34 6.31 2.68 8.62 2 11 C-1.37817425 11.84454356 -3.67465243 12.10844919 -7 11 C-7 10.34 -7 9.68 -7 9 C-8.65 9 -10.3 9 -12 9 C-12 8.34 -12 7.68 -12 7 C-8.42355152 5.7619986 -5.66305234 6.25073929 -2 7 C-0.49069817 3.6136749 -0.49069817 3.6136749 0 0 Z " fill="#FEF9C0" transform="translate(91,192)"/>
<path d="M0 0 C0 0.33 0 0.66 0 1 C-8.90661065 2.58339745 -17.30665189 2.62440698 -26 0 C-26 -0.66 -26 -1.32 -26 -2 C-17.10937919 -3.74325898 -8.76324407 -1.78841716 0 0 Z " fill="#6887C2" transform="translate(198,183)"/>
<path d="M0 0 C1.0528418 0.07831055 1.0528418 0.07831055 2.12695312 0.15820312 C3.85588054 0.28757865 5.58425355 0.42432531 7.3125 0.5625 C-0.0214058 5.45177054 -8.19206802 4.79560637 -16.6875 4.5625 C-16.6875 4.2325 -16.6875 3.9025 -16.6875 3.5625 C-15.0375 3.5625 -13.3875 3.5625 -11.6875 3.5625 C-11.3575 2.5725 -11.0275 1.5825 -10.6875 0.5625 C-6.99441024 -0.66852992 -3.80699288 -0.30925152 0 0 Z " fill="#C6ADBF" transform="translate(145.6875,180.4375)"/>
<path d="M0 0 C0.33 0 0.66 0 1 0 C1 2.64 1 5.28 1 8 C-1.31 8 -3.62 8 -6 8 C-6 9.98 -6 11.96 -6 14 C-6.99 14.495 -6.99 14.495 -8 15 C-12.06153846 8.6 -12.06153846 8.6 -11.75 5.5625 C-11.5025 5.046875 -11.255 4.53125 -11 4 C-6.91621923 4 -3.87684087 4.80712589 0 6 C0 4.02 0 2.04 0 0 Z " fill="#E6DDE0" transform="translate(112,156)"/>
<path d="M0 0 C-0.33 0.66 -0.66 1.32 -1 2 C-3.25946584 2.35557331 -5.4899777 2.44330506 -7.7734375 2.55859375 C-10.43381523 3.08600197 -11.21111035 4.03849819 -13 6 C-13.66 6 -14.32 6 -15 6 C-15.268125 6.639375 -15.53625 7.27875 -15.8125 7.9375 C-17 10 -17 10 -20 11 C-20 10.01 -20 9.02 -20 8 C-20.66 7.34 -21.32 6.68 -22 6 C-15.08983009 1.52871359 -8.19763251 0 0 0 Z " fill="#B0A8C6" transform="translate(175,169)"/>
<path d="M0 0 C2.0625 0.4375 2.0625 0.4375 4 1 C4 1.66 4 2.32 4 3 C3.34 3 2.68 3 2 3 C2 3.66 2 4.32 2 5 C2.99 5.66 3.98 6.32 5 7 C4.67 9.31 4.34 11.62 4 14 C2.68 14 1.36 14 0 14 C0.33 11.69 0.66 9.38 1 7 C-0.98 7 -2.96 7 -5 7 C-1.125 1.125 -1.125 1.125 0 0 Z " fill="#6EA3DF" transform="translate(116,202)"/>
<path d="M0 0 C3.19115755 0.2587425 4.81061913 0.8554725 7.375 2.8125 C9 5 9 5 8.875 7.0625 C8 9 8 9 6 12 C4.5 10.6875 4.5 10.6875 3 9 C3 8.01 3 7.02 3 6 C2.34 6 1.68 6 1 6 C0.34 4.35 -0.32 2.7 -1 1 C-0.67 0.67 -0.34 0.34 0 0 Z " fill="#FEFEF1" transform="translate(116,154)"/>
<path d="M0 0 C1.65 0 3.3 0 5 0 C5 0.66 5 1.32 5 2 C7.97 2 10.94 2 14 2 C13.67 4.64 13.34 7.28 13 10 C9.74035658 8.51222697 7.06830707 6.64333184 4.25 4.4375 C3.45078125 3.81746094 2.6515625 3.19742188 1.828125 2.55859375 C1.22484375 2.04425781 0.6215625 1.52992188 0 1 C0 0.67 0 0.34 0 0 Z " fill="#ECDFC8" transform="translate(79,201)"/>
<path d="M0 0 C3.3 0 6.6 0 10 0 C8.68 0.33 7.36 0.66 6 1 C6.33 2.65 6.66 4.3 7 6 C6.34 6 5.68 6 5 6 C5.33 7.32 5.66 8.64 6 10 C5.01 10 4.02 10 3 10 C2.67 10.66 2.34 11.32 2 12 C2 9.36 2 6.72 2 4 C0.02 4.99 0.02 4.99 -2 6 C-2 4.68 -2 3.36 -2 2 C-1.34 2 -0.68 2 0 2 C0 1.34 0 0.68 0 0 Z " fill="#5DCEFE" transform="translate(142,106)"/>
<path d="M0 0 C2.475 0.495 2.475 0.495 5 1 C5 1.99 5 2.98 5 4 C6.2375 3.649375 7.475 3.29875 8.75 2.9375 C11.903292 2.04406727 13.86774164 1.99118706 17 3 C16.01 3.66 15.02 4.32 14 5 C14.33 6.98 14.66 8.96 15 11 C11.22451284 9.66117477 8.38612311 7.98364112 5.25 5.5 C4.47140625 4.8915625 3.6928125 4.283125 2.890625 3.65625 C1 2 1 2 0 0 Z " fill="#F4ECB8" transform="translate(105,171)"/>
<path d="M0 0 C0.66 0.33 1.32 0.66 2 1 C2 1.99 2 2.98 2 4 C0.02 4.99 -1.96 5.98 -4 7 C-2.92598892 4.08482708 -2.22189824 2.22189824 0 0 Z M-6 7 C-5.34 7.33 -4.68 7.66 -4 8 C-7.20272959 11.43149599 -9.69753866 13.75265818 -14.47265625 14.265625 C-15.32730469 14.26046875 -16.18195313 14.2553125 -17.0625 14.25 C-17.91972656 14.25515625 -18.77695313 14.2603125 -19.66015625 14.265625 C-22 14 -22 14 -25 12 C-23.68 11.67 -22.36 11.34 -21 11 C-21 11.66 -21 12.32 -21 13 C-19.5608866 12.71640113 -18.12374482 12.42278601 -16.6875 12.125 C-15.88699219 11.96257812 -15.08648437 11.80015625 -14.26171875 11.6328125 C-11.74698882 11.05521001 -11.74698882 11.05521001 -9 9 C-8.01 9 -7.02 9 -6 9 C-6 8.34 -6 7.68 -6 7 Z " fill="#FBCFCE" transform="translate(174,153)"/>
<path d="M0 0 C0.99 0.99 1.98 1.98 3 3 C2 6 2 6 0.109375 7.16796875 C-7.72189969 10.55201294 -7.72189969 10.55201294 -12 10 C-11.319375 9.46375 -10.63875 8.9275 -9.9375 8.375 C-6.56615832 5.64923439 -3.27934457 2.83516822 0 0 Z " fill="#D0C0D5" transform="translate(177,157)"/>
<path d="M0 0 C-0.61277612 2.96175123 -1.25372522 4.38058783 -3 7 C-6.625 7.6875 -6.625 7.6875 -10 8 C-10.25 5.6875 -10.25 5.6875 -10 3 C-7.00198322 -0.3439418 -4.3216814 -0.2946601 0 0 Z " fill="#FFE0D3" transform="translate(174,139)"/>
<path d="M0 0 C3.4375 0.8125 3.4375 0.8125 7 2 C7.33 2.99 7.66 3.98 8 5 C6.35 5 4.7 5 3 5 C2.896875 5.78375 2.79375 6.5675 2.6875 7.375 C2 10 2 10 -1 12 C-1.33 8.7 -1.66 5.4 -2 2 C-1.34 2 -0.68 2 0 2 C0 1.34 0 0.68 0 0 Z " fill="#BCB2D3" transform="translate(109,195)"/>
<path d="M0 0 C0.33 0 0.66 0 1 0 C1.33 5.61 1.66 11.22 2 17 C2.99 17.33 3.98 17.66 5 18 C4.67 18.66 4.34 19.32 4 20 C5.175625 20.2165625 5.175625 20.2165625 6.375 20.4375 C9 21 9 21 11 22 C11 22.66 11 23.32 11 24 C8.125 24.125 8.125 24.125 5 24 C4.34 23.34 3.68 22.68 3 22 C2.01 21.67 1.02 21.34 0 21 C0 14.07 0 7.14 0 0 Z " fill="#7DA9D9" transform="translate(195,132)"/>
<path d="M0 0 C0.99386719 0.00902344 1.98773438 0.01804688 3.01171875 0.02734375 C4.15060547 0.04474609 4.15060547 0.04474609 5.3125 0.0625 C5.6425 1.3825 5.9725 2.7025 6.3125 4.0625 C3.0125 4.3925 -0.2875 4.7225 -3.6875 5.0625 C-3.6875 4.4025 -3.6875 3.7425 -3.6875 3.0625 C-5.3375 3.0625 -6.9875 3.0625 -8.6875 3.0625 C-8.6875 2.4025 -8.6875 1.7425 -8.6875 1.0625 C-5.53819107 0.01273036 -3.29935544 -0.03881595 0 0 Z " fill="#E1E2F1" transform="translate(132.6875,62.9375)"/>
<path d="M0 0 C0.99 0.33 1.98 0.66 3 1 C3.33 1.99 3.66 2.98 4 4 C1.06419434 5.95720377 0.10177164 6.30195175 -3.23046875 6.6328125 C-4.03291016 6.71660156 -4.83535156 6.80039063 -5.66210938 6.88671875 C-6.49548828 6.96535156 -7.32886719 7.04398438 -8.1875 7.125 C-9.4549707 7.25455078 -9.4549707 7.25455078 -10.74804688 7.38671875 C-12.83128923 7.5985739 -14.91556042 7.80026777 -17 8 C-17 7.01 -17 6.02 -17 5 C-14.72979256 4.80506805 -12.45879711 4.61929582 -10.1875 4.4375 C-8.92292969 4.33308594 -7.65835938 4.22867188 -6.35546875 4.12109375 C-3 4 -3 4 0 5 C0 3.35 0 1.7 0 0 Z " fill="#9EC7F5" transform="translate(213,142)"/>
<path d="M0 0 C0 0.99 0 1.98 0 3 C-0.9075 3.28875 -1.815 3.5775 -2.75 3.875 C-6.19166475 4.98747068 -6.19166475 4.98747068 -10 7 C-9.67 10.3 -9.34 13.6 -9 17 C-11.05299677 13.92050484 -11.38826122 12.57483032 -11.75 9 C-11.84796875 8.13375 -11.9459375 7.2675 -12.046875 6.375 C-12 4 -12 4 -10 1 C-7.87109375 0.7421875 -7.87109375 0.7421875 -5.4375 0.875 C-3.95944833 0.94594648 -2.47974207 0.99420845 -1 1 C-0.67 0.67 -0.34 0.34 0 0 Z " fill="#9FE2F9" transform="translate(119,137)"/>
<path d="M0 0 C4.29 0 8.58 0 13 0 C13 0.66 13 1.32 13 2 C14.32 2.33 15.64 2.66 17 3 C17 3.99 17 4.98 17 6 C11.07136283 4.83348574 5.61201606 3.24480642 0 1 C0 0.67 0 0.34 0 0 Z " fill="#228ADD" transform="translate(99,215)"/>
<path d="M0 0 C1.65 0.33 3.3 0.66 5 1 C4.505 1.86625 4.01 2.7325 3.5 3.625 C1.93733186 7.1410033 1.91427897 9.22827479 2 13 C1.34 13.66 0.68 14.32 0 15 C0.33 13.02 0.66 11.04 1 9 C-0.65 9 -2.3 9 -4 9 C-3.6875 7.0625 -3.6875 7.0625 -3 5 C-2.01 4.67 -1.02 4.34 0 4 C0 2.68 0 1.36 0 0 Z " fill="#FCF4DE" transform="translate(86,177)"/>
<path d="M0 0 C0 1.32 0 2.64 0 4 C-0.99 4 -1.98 4 -3 4 C-3 5.65 -3 7.3 -3 9 C-3.66 9 -4.32 9 -5 9 C-4.85691406 10.04800781 -4.85691406 10.04800781 -4.7109375 11.1171875 C-4.60007812 12.02726562 -4.48921875 12.93734375 -4.375 13.875 C-4.25898437 14.77992187 -4.14296875 15.68484375 -4.0234375 16.6171875 C-4.01570313 17.40351562 -4.00796875 18.18984375 -4 19 C-4.66 19.66 -5.32 20.32 -6 21 C-6.02714735 18.77090129 -6.04646254 16.54170633 -6.0625 14.3125 C-6.07410156 13.07113281 -6.08570312 11.82976562 -6.09765625 10.55078125 C-6.01478673 7.53764546 -5.70839449 4.91724661 -5 2 C-5.99 1.67 -6.98 1.34 -8 1 C-5.29120665 -0.35439668 -2.99066732 -0.06501451 0 0 Z " fill="#9DCFFC" transform="translate(107,70)"/>
<path d="M0 0 C2.97 0.99 5.94 1.98 9 3 C8.01 3.495 8.01 3.495 7 4 C7 4.99 7 5.98 7 7 C7.66 7 8.32 7 9 7 C9 7.66 9 8.32 9 9 C6.125 9.125 6.125 9.125 3 9 C0.23776722 6.23776722 0.42143709 3.79293383 0 0 Z " fill="#93DBFD" transform="translate(195,130)"/>
<path d="M0 0 C1.98 0 3.96 0 6 0 C6.66 1.65 7.32 3.3 8 5 C4.37 5.66 0.74 6.32 -3 7 C-2.01 4.69 -1.02 2.38 0 0 Z " fill="#4E8DD3" transform="translate(127,201)"/>
<path d="M0 0 C1.32 0 2.64 0 4 0 C4 0.66 4 1.32 4 2 C4.66 2 5.32 2 6 2 C5.979375 3.11375 5.95875 4.2275 5.9375 5.375 C5.73619282 8.83215921 5.73619282 8.83215921 7 11 C5.68 11 4.36 11 3 11 C2.67 9.35 2.34 7.7 2 6 C1.34 6 0.68 6 0 6 C0 4.02 0 2.04 0 0 Z " fill="#30D0FE" transform="translate(70,177)"/>
<path d="M0 0 C-1.65 0.33 -3.3 0.66 -5 1 C-4.938125 2.258125 -4.87625 3.51625 -4.8125 4.8125 C-4.79866854 8.71988667 -4.79866854 8.71988667 -6.4375 11 C-8 12 -8 12 -9 12 C-9 13.98 -9 15.96 -9 18 C-10.65 18 -12.3 18 -14 18 C-13.505 16.515 -13.505 16.515 -13 15 C-12.34 15 -11.68 15 -11 15 C-10.67 13.02 -10.34 11.04 -10 9 C-9.01 9 -8.02 9 -7 9 C-7.33 7.68 -7.66 6.36 -8 5 C-7.34 5 -6.68 5 -6 5 C-6.33 3.35 -6.66 1.7 -7 0 C-3.98968256 -0.93423645 -3.13349732 -1.04449911 0 0 Z " fill="#EFEDED" transform="translate(155,107)"/>
<path d="M0 0 C0.99 0 1.98 0 3 0 C3 0.99 3 1.98 3 3 C3.99 3 4.98 3 6 3 C5.56802365 7.7517398 4.67230705 9.92000054 1 13 C0.34 11.68 -0.32 10.36 -1 9 C-0.01 9 0.98 9 2 9 C1.67 8.2575 1.34 7.515 1 6.75 C0 4 0 4 0 0 Z " fill="#F1C9D2" transform="translate(101,198)"/>
<path d="M0 0 C2.31 0 4.62 0 7 0 C5.68 0.33 4.36 0.66 3 1 C3 2.32 3 3.64 3 5 C2.01 5.66 1.02 6.32 0 7 C-0.33 7.99 -0.66 8.98 -1 10 C-1.99 10.33 -2.98 10.66 -4 11 C-4.33 10.01 -4.66 9.02 -5 8 C-4.34 7.67 -3.68 7.34 -3 7 C-3.66 6.67 -4.32 6.34 -5 6 C-5 5.34 -5 4.68 -5 4 C-3.35 3.67 -1.7 3.34 0 3 C0 2.01 0 1.02 0 0 Z " fill="#ECE2EF" transform="translate(83,176)"/>
<path d="M0 0 C1.32 0 2.64 0 4 0 C4 0.66 4 1.32 4 2 C4.99 1.67 5.98 1.34 7 1 C7 1.66 7 2.32 7 3 C8.299375 2.835 9.59875 2.67 10.9375 2.5 C15.65419287 1.9684362 20.25638935 1.92470459 25 2 C24.67 2.66 24.34 3.32 24 4 C19.96933664 5.22029258 16.22911711 4.99060895 12.0625 4.6875 C10.87785156 4.60886719 9.69320312 4.53023437 8.47265625 4.44921875 C5.08516698 4.0110171 2.19132364 3.19370121 -1 2 C-0.67 1.34 -0.34 0.68 0 0 Z " fill="#A0A2CC" transform="translate(185,173)"/>
<path d="M0 0 C0.99 0.33 1.98 0.66 3 1 C2.34 1 1.68 1 1 1 C1 1.66 1 2.32 1 3 C1.99 3 2.98 3 4 3 C4 4.32 4 5.64 4 7 C2.35 7 0.7 7 -1 7 C-1 6.34 -1 5.68 -1 5 C-3.31 4.67 -5.62 4.34 -8 4 C-6.75 2.4375 -6.75 2.4375 -5 1 C-2.8125 1.3125 -2.8125 1.3125 -1 2 C-0.67 1.34 -0.34 0.68 0 0 Z " fill="#67D8FE" transform="translate(69,166)"/>
<path d="M0 0 C-0.33 0.99 -0.66 1.98 -1 3 C-0.67 3.99 -0.34 4.98 0 6 C-3.63 5.67 -7.26 5.34 -11 5 C-11.33 5.66 -11.66 6.32 -12 7 C-12.66 6.01 -13.32 5.02 -14 4 C-12.865625 3.71125 -11.73125 3.4225 -10.5625 3.125 C-9.386875 2.75375 -8.21125 2.3825 -7 2 C-6.67 1.34 -6.34 0.68 -6 0 C-2.49056604 -1.24528302 -2.49056604 -1.24528302 0 0 Z " fill="#F5F9D9" transform="translate(90,194)"/>
<path d="M0 0 C2.29013653 3.4352048 2.17842973 4.985331 2 9 C1.01 9 0.02 9 -1 9 C-1 8.34 -1 7.68 -1 7 C-2.65 6.67 -4.3 6.34 -6 6 C-6 4 -6 4 -4.125 1.875 C-2 0 -2 0 0 0 Z " fill="#72CFFE" transform="translate(67,116)"/>
<path d="M0 0 C0 0.99 0 1.98 0 3 C-0.66 3 -1.32 3 -2 3 C-2 3.99 -2 4.98 -2 6 C-0.35 6 1.3 6 3 6 C3 6.33 3 6.66 3 7 C-0.63 7 -4.26 7 -8 7 C-7.01 6.67 -6.02 6.34 -5 6 C-5 5.34 -5 4.68 -5 4 C-5.99 4 -6.98 4 -8 4 C-7.67 3.01 -7.34 2.02 -7 1 C-4 0 -4 0 0 0 Z " fill="#5FB1F1" transform="translate(215,151)"/>
<path d="M0 0 C1.5 1.25 1.5 1.25 3 3 C3 4.32 3 5.64 3 7 C4.65 7.33 6.3 7.66 8 8 C8 10.64 8 13.28 8 16 C5.525 15.01 5.525 15.01 3 14 C3.66 13.01 4.32 12.02 5 11 C5 10.34 5 9.68 5 9 C3.68 8.67 2.36 8.34 1 8 C0.67 5.36 0.34 2.72 0 0 Z " fill="#84C7FC" transform="translate(211,134)"/>
<path d="M0 0 C2.97 0 5.94 0 9 0 C11.28571429 8.42857143 11.28571429 8.42857143 11 13 C10.01 12.67 9.02 12.34 8 12 C8.66 12 9.32 12 10 12 C9.67 11.01 9.34 10.02 9 9 C8.34 8.67 7.68 8.34 7 8 C7.33 6.35 7.66 4.7 8 3 C3.89776415 1.98459888 3.89776415 1.98459888 0 3 C0 2.01 0 1.02 0 0 Z " fill="#B7D6FD" transform="translate(202,134)"/>
<path d="M0 0 C0.99 0 1.98 0 3 0 C3 0.66 3 1.32 3 2 C4.65 2 6.3 2 8 2 C8 3.65 8 5.3 8 7 C7.67 6.34 7.34 5.68 7 5 C4.52733235 5.34444881 4.52733235 5.34444881 2 6 C1.67 6.66 1.34 7.32 1 8 C0.34 8 -0.32 8 -1 8 C-1.125 2.25 -1.125 2.25 0 0 Z " fill="#DAC0D2" transform="translate(93,204)"/>
<path d="M0 0 C0 1.65 0 3.3 0 5 C-0.99 4.34 -1.98 3.68 -3 3 C-3 2.34 -3 1.68 -3 1 C-6.26460973 2.80412643 -7.88929795 3.83394693 -10 7 C-11.32 7 -12.64 7 -14 7 C-14 6.01 -14 5.02 -14 4 C-9.02495953 0.75099398 -6.11774896 -0.49940808 0 0 Z " fill="#1396EC" transform="translate(135,206)"/>
<path d="M0 0 C0.66 0 1.32 0 2 0 C2.95465783 2.16967689 3.14401212 3.56328793 2.3984375 5.82421875 C1.64129615 7.5684743 0.82390802 9.28627131 0 11 C0.66 11 1.32 11 2 11 C2 11.66 2 12.32 2 13 C1.01 13.33 0.02 13.66 -1 14 C-1.66 13.67 -2.32 13.34 -3 13 C-2.343621 8.51474352 -1.29925791 4.33085971 0 0 Z " fill="#2381D4" transform="translate(135,206)"/>
<path d="M0 0 C3.125 0.52083333 6.25 1.04166667 9.375 1.5625 C10.674375 1.7790625 10.674375 1.7790625 12 2 C12 2.33 12 2.66 12 3 C11.40832031 3.03738281 10.81664062 3.07476562 10.20703125 3.11328125 C5.24127909 3.52641887 2.25368718 4.31346073 -2 7 C-5.8125 7.6875 -5.8125 7.6875 -9 8 C-6.33441197 4.55041549 -3.08817247 4.05989657 1 3 C1.33 2.67 1.66 2.34 2 2 C1.34 1.34 0.68 0.68 0 0 Z " fill="#98ABD8" transform="translate(184,162)"/>
<path d="M0 0 C0.99 0.33 1.98 0.66 3 1 C3 2.65 3 4.3 3 6 C2.34 6 1.68 6 1 6 C0.67 6.99 0.34 7.98 0 9 C-0.33 8.01 -0.66 7.02 -1 6 C-1.66 6 -2.32 6 -3 6 C-3.66 7.32 -4.32 8.64 -5 10 C-5.66 10 -6.32 10 -7 10 C-6.34 8.02 -5.68 6.04 -5 4 C-2.03 4.495 -2.03 4.495 1 5 C0.67 3.35 0.34 1.7 0 0 Z " fill="#31C9FF" transform="translate(68,110)"/>
<path d="M0 0 C1.1055189 0.93590504 2.20935453 1.87379858 3.3125 2.8125 C3.92738281 3.33457031 4.54226562 3.85664063 5.17578125 4.39453125 C6.85424679 5.87172469 8.43882034 7.40039131 10 9 C7.33644766 9.39169887 5.60775627 9.40564529 3.33203125 7.88671875 C1.8489112 6.63610683 0.42045648 5.32135486 -1 4 C-0.67 2.68 -0.34 1.36 0 0 Z " fill="#E9D4AB" transform="translate(95,184)"/>
<path d="M0 0 C0.66 0 1.32 0 2 0 C1.67 6.6 1.34 13.2 1 20 C0.67 20 0.34 20 0 20 C-0.39271606 17.79474827 -0.76343631 15.58557296 -1.125 13.375 C-1.33382812 12.14523438 -1.54265625 10.91546875 -1.7578125 9.6484375 C-2.01067018 5.83925888 -1.45153404 3.49443381 0 0 Z " fill="#DADCF8" transform="translate(100,72)"/>
<path d="M0 0 C0.33 0.66 0.66 1.32 1 2 C2.65 2 4.3 2 6 2 C6 2.66 6 3.32 6 4 C7.32 4 8.64 4 10 4 C9.67 5.65 9.34 7.3 9 9 C8.01 9 7.02 9 6 9 C6 7.68 6 6.36 6 5 C4.35 5 2.7 5 1 5 C0.67 3.35 0.34 1.7 0 0 Z " fill="#8BD0FE" transform="translate(123,64)"/>
<path d="M0 0 C0.99 0.33 1.98 0.66 3 1 C2.67 3.64 2.34 6.28 2 9 C-0.475 8.01 -0.475 8.01 -3 7 C-2.67 5.68 -2.34 4.36 -2 3 C-1.34 3 -0.68 3 0 3 C0 2.01 0 1.02 0 0 Z " fill="#17D4FE" transform="translate(74,155)"/>
<path d="M0 0 C0 0.99 0 1.98 0 3 C-0.66 3.66 -1.32 4.32 -2 5 C-2.24287489 7.44012949 -2.24287489 7.44012949 -2.125 10.125 C-2.10695313 11.03507813 -2.08890625 11.94515625 -2.0703125 12.8828125 C-2.04710938 13.58148438 -2.02390625 14.28015625 -2 15 C-2.66 14.67 -3.32 14.34 -4 14 C-4.6328125 11.49609375 -4.6328125 11.49609375 -5.125 8.4375 C-5.29257813 7.42558594 -5.46015625 6.41367188 -5.6328125 5.37109375 C-5.75398438 4.58863281 -5.87515625 3.80617187 -6 3 C-4.02 2.01 -2.04 1.02 0 0 Z " fill="#F1EDEE" transform="translate(114,140)"/>
<path d="M0 0 C2.97 0 5.94 0 9 0 C9 5.94 9 11.88 9 18 C8.67 18 8.34 18 8 18 C8 12.72 8 7.44 8 2 C7.34 2 6.68 2 6 2 C6 2.66 6 3.32 6 4 C5.34 4 4.68 4 4 4 C3.67 3.34 3.34 2.68 3 2 C2.01 1.34 1.02 0.68 0 0 Z " fill="#E6F3EB" transform="translate(167,120)"/>
<path d="M0 0 C0.66 0 1.32 0 2 0 C2 1.32 2 2.64 2 4 C2.66 4 3.32 4 4 4 C4.33 3.01 4.66 2.02 5 1 C5.33 1 5.66 1 6 1 C6 2.98 6 4.96 6 7 C5.34 7 4.68 7 4 7 C4 6.34 4 5.68 4 5 C3.34 5 2.68 5 2 5 C2 6.65 2 8.3 2 10 C0 8 0 8 -0.1953125 6.0546875 C-0.13020833 4.03645833 -0.06510417 2.01822917 0 0 Z " fill="#5CC8FE" transform="translate(102,79)"/>
<path d="M0 0 C-2.49505962 2.49505962 -3.67328888 2.35948376 -7.125 2.625 C-8.03507813 2.69976562 -8.94515625 2.77453125 -9.8828125 2.8515625 C-10.93082031 2.92503906 -10.93082031 2.92503906 -12 3 C-12 2.01 -12 1.02 -12 0 C-7.91556885 -1.53166168 -4.20544343 -0.63081652 0 0 Z " fill="#BFB2C9" transform="translate(173,168)"/>
<path d="M0 0 C-0.33 2.31 -0.66 4.62 -1 7 C-3.88437779 5.70700306 -5.87219421 4.34058637 -8 2 C-2.25 0 -2.25 0 0 0 Z " fill="#F1CECB" transform="translate(93,204)"/>
<path d="M0 0 C3.3 0 6.6 0 10 0 C9.01 1.485 9.01 1.485 8 3 C5.8359375 3.29296875 5.8359375 3.29296875 3.375 3.1875 C2.55773437 3.16042969 1.74046875 3.13335937 0.8984375 3.10546875 C0.27195313 3.07066406 -0.35453125 3.03585938 -1 3 C-0.67 2.01 -0.34 1.02 0 0 Z " fill="#BEB4D1" transform="translate(193,173)"/>
<path d="M0 0 C2.66666667 0.66666667 5.33333333 1.33333333 8 2 C7.67 3.98 7.34 5.96 7 8 C6.34 8 5.68 8 5 8 C4.67 7.01 4.34 6.02 4 5 C1.99983534 3.79117904 1.99983534 3.79117904 0 3 C0 2.01 0 1.02 0 0 Z " fill="#FEFCD6" transform="translate(105,167)"/>
<path d="M0 0 C2 3 2 3 1.625 5.1875 C1.41875 5.785625 1.2125 6.38375 1 7 C-0.32 6.67 -1.64 6.34 -3 6 C-2.67 5.34 -2.34 4.68 -2 4 C-3.32 3.67 -4.64 3.34 -6 3 C-4.02 2.01 -2.04 1.02 0 0 Z " fill="#85AAE0" transform="translate(201,158)"/>
<path d="M0 0 C0.66 0.33 1.32 0.66 2 1 C2 1.99 2 2.98 2 4 C0.02 4.99 -1.96 5.98 -4 7 C-2.92598892 4.08482708 -2.22189824 2.22189824 0 0 Z M-6 7 C-5.34 7.33 -4.68 7.66 -4 8 C-5.32 9.32 -6.64 10.64 -8 12 C-8.66 11.67 -9.32 11.34 -10 11 C-8.68 10.34 -7.36 9.68 -6 9 C-6 8.34 -6 7.68 -6 7 Z " fill="#F6D3D7" transform="translate(174,153)"/>
<path d="M0 0 C0.33 0.66 0.66 1.32 1 2 C2.65 2 4.3 2 6 2 C6.33 2.99 6.66 3.98 7 5 C6.67 5.66 6.34 6.32 6 7 C4.68 6.67 3.36 6.34 2 6 C2 5.01 2 4.02 2 3 C0.68 2.34 -0.64 1.68 -2 1 C-1.34 0.67 -0.68 0.34 0 0 Z " fill="#3989D8" transform="translate(114,215)"/>
<path d="M0 0 C2.97 0.33 5.94 0.66 9 1 C9 1.33 9 1.66 9 2 C7.02 2 5.04 2 3 2 C3 2.99 3 3.98 3 5 C1.35 5.33 -0.3 5.66 -2 6 C-1.34 5.67 -0.68 5.34 0 5 C0 3.35 0 1.7 0 0 Z " fill="#6DD7FD" transform="translate(80,174)"/>
<path d="M0 0 C5.445 1.485 5.445 1.485 11 3 C10.67 3.66 10.34 4.32 10 5 C9.37351563 4.855625 8.74703125 4.71125 8.1015625 4.5625 C7.28429687 4.376875 6.46703125 4.19125 5.625 4 C4.81289062 3.814375 4.00078125 3.62875 3.1640625 3.4375 C1.04125049 2.93394761 1.04125049 2.93394761 -1 3 C-1 4.65 -1 6.3 -1 8 C-1.99 7.67 -2.98 7.34 -4 7 C-1.125 1.125 -1.125 1.125 0 0 Z " fill="#679FDC" transform="translate(204,164)"/>
<path d="M0 0 C2.97 0.495 2.97 0.495 6 1 C4.75 3.5 4.75 3.5 3 6 C1.68 6 0.36 6 -1 6 C-0.67 4.02 -0.34 2.04 0 0 Z " fill="#BDC0E4" transform="translate(195,153)"/>
<path d="M0 0 C0.33 0 0.66 0 1 0 C1 1.65 1 3.3 1 5 C-3.455 5.495 -3.455 5.495 -8 6 C-8 5.34 -8 4.68 -8 4 C-4.77208445 1.8480563 -3.71599191 1.79913557 0 2 C0 1.34 0 0.68 0 0 Z " fill="#C4D9FB" transform="translate(90,96)"/>
<path d="M0 0 C2.64 0.33 5.28 0.66 8 1 C7.01 2.98 6.02 4.96 5 7 C4.67 6.34 4.34 5.68 4 5 C3.34 5 2.68 5 2 5 C1.34 3.35 0.68 1.7 0 0 Z " fill="#3F78BF" transform="translate(133,201)"/>
<path d="M0 0 C0.66 0 1.32 0 2 0 C1.88648483 1.81325551 1.75887039 3.62563357 1.625 5.4375 C1.55539063 6.44683594 1.48578125 7.45617187 1.4140625 8.49609375 C1.27742188 9.32238281 1.14078125 10.14867187 1 11 C0.01 11.495 0.01 11.495 -1 12 C-1.33 8.7 -1.66 5.4 -2 2 C-1.34 2 -0.68 2 0 2 C0 1.34 0 0.68 0 0 Z " fill="#CDBAD2" transform="translate(109,195)"/>
<path d="M0 0 C1.32 0.66 2.64 1.32 4 2 C3.67 3.98 3.34 5.96 3 8 C2.67 7.01 2.34 6.02 2 5 C0.68 5 -0.64 5 -2 5 C-1.125 1.125 -1.125 1.125 0 0 Z " fill="#F5E8BB" transform="translate(91,181)"/>
<path d="M0 0 C0.33 0.99 0.66 1.98 1 3 C-2.3 5.64 -5.6 8.28 -9 11 C-9.33 10.34 -9.66 9.68 -10 9 C-7.66666667 6.66666667 -5.33333333 4.33333333 -3 2 C-2.01 2 -1.02 2 0 2 C0 1.34 0 0.68 0 0 Z " fill="#E4C9D4" transform="translate(176,155)"/>
<path d="M0 0 C0.33 0 0.66 0 1 0 C1 1.98 1 3.96 1 6 C-0.32 6.33 -1.64 6.66 -3 7 C-2.67 7.99 -2.34 8.98 -2 10 C-3.32 10.33 -4.64 10.66 -6 11 C-5.67 9.35 -5.34 7.7 -5 6 C-3.68 6 -2.36 6 -1 6 C-0.67 4.02 -0.34 2.04 0 0 Z " fill="#FDFDF7" transform="translate(119,139)"/>
<path d="M0 0 C2.97 0 5.94 0 9 0 C7.68 0.33 6.36 0.66 5 1 C5.33 2.65 5.66 4.3 6 6 C4.125 5.8125 4.125 5.8125 2 5 C0.75 2.4375 0.75 2.4375 0 0 Z " fill="#9CD2FD" transform="translate(143,106)"/>
<path d="M0 0 C-0.875 4.75 -0.875 4.75 -2 7 C-2.66 6.67 -3.32 6.34 -4 6 C-3.67 5.01 -3.34 4.02 -3 3 C-5.31 3.33 -7.62 3.66 -10 4 C-6.86268382 1.90845588 -3.85464592 0 0 0 Z " fill="#35BDF9" transform="translate(113,66)"/>
<path d="M0 0 C0.66 0 1.32 0 2 0 C2 0.99 2 1.98 2 3 C2.99 3.33 3.98 3.66 5 4 C4.01 4.33 3.02 4.66 2 5 C2.33 5.99 2.66 6.98 3 8 C1.68 7.67 0.36 7.34 -1 7 C-0.67 4.69 -0.34 2.38 0 0 Z " fill="#B7D3FB" transform="translate(76,179)"/>
<path d="M0 0 C2.4375 0.375 2.4375 0.375 5 1 C5.33 1.66 5.66 2.32 6 3 C8.02463255 3.65213292 8.02463255 3.65213292 10 4 C10 4.66 10 5.32 10 6 C10.99 6.33 11.98 6.66 13 7 C9.36029133 7.42820102 7.95430537 6.97413512 4.6875 5.125 C3.800625 4.42375 2.91375 3.7225 2 3 C2 2.34 2 1.68 2 1 C1.34 0.67 0.68 0.34 0 0 Z " fill="#9FD1FD" transform="translate(71,97)"/>
<path d="M0 0 C0.66 0.99 1.32 1.98 2 3 C1.67 3.99 1.34 4.98 1 6 C-0.98 6 -2.96 6 -5 6 C-3.63016497 2.83884224 -3.0109362 2.0072908 0 0 Z " fill="#F9E4EE" transform="translate(76,91)"/>
<path d="M0 0 C0.33 0.99 0.66 1.98 1 3 C-0.125 5.1875 -0.125 5.1875 -2 7 C-4.6875 7.25 -4.6875 7.25 -7 7 C-4.78071806 4.09197539 -3.07030857 2.04687238 0 0 Z " fill="#DFD4EA" transform="translate(90,76)"/>
<path d="M0 0 C2.16874252 0.50603992 3.99967627 0.99983813 6 2 C6 2.66 6 3.32 6 4 C1.71 4 -2.58 4 -7 4 C-7 3.67 -7 3.34 -7 3 C-3.535 2.505 -3.535 2.505 0 2 C0 1.34 0 0.68 0 0 Z " fill="#CFE4FD" transform="translate(69,141)"/>
<path d="M0 0 C1.98 0 3.96 0 6 0 C6 0.99 6 1.98 6 3 C4.02 3.66 2.04 4.32 0 5 C0 3.35 0 1.7 0 0 Z " fill="#19BBFE" transform="translate(195,121)"/>
<path d="M0 0 C1.98 0 3.96 0 6 0 C6 1.32 6 2.64 6 4 C4.02 4 2.04 4 0 4 C0 2.68 0 1.36 0 0 Z " fill="#43C8FE" transform="translate(153,82)"/>
<path d="M0 0 C0 1.65 0 3.3 0 5 C-3.63 4.67 -7.26 4.34 -11 4 C-11 3.67 -11 3.34 -11 3 C-9.88625 2.690625 -8.7725 2.38125 -7.625 2.0625 C-0.58823529 0 -0.58823529 0 0 0 Z " fill="#759BD4" transform="translate(111,209)"/>
<path d="M0 0 C2 0 2 0 3.625 1.375 C5 3 5 3 5 5 C3.02 5 1.04 5 -1 5 C-1 1 -1 1 0 0 Z " fill="#6BD8FE" transform="translate(199,134)"/>
<path d="M0 0 C0.99 0.33 1.98 0.66 3 1 C2.67 3.31 2.34 5.62 2 8 C0.68 8 -0.64 8 -2 8 C-1.34 5.36 -0.68 2.72 0 0 Z " fill="#7297D6" transform="translate(118,208)"/>
<path d="M0 0 C3.3 0 6.6 0 10 0 C6.55549263 2.29633824 4.06187717 2.54016485 0 3 C0 2.01 0 1.02 0 0 Z " fill="#B2A6C2" transform="translate(143,181)"/>
<path d="M0 0 C0.79921875 0.01804688 1.5984375 0.03609375 2.421875 0.0546875 C3.02515625 0.07789063 3.6284375 0.10109375 4.25 0.125 C3.92 0.785 3.59 1.445 3.25 2.125 C-0.9234802 3.47524359 -4.48933592 2.8768819 -8.75 2.125 C-5.68753253 0.34090198 -3.52920727 -0.10380021 0 0 Z " fill="#9DA9D6" transform="translate(205.75,174.875)"/>
<path d="M0 0 C0.66 0 1.32 0 2 0 C2.33 0.99 2.66 1.98 3 3 C2.01 3 1.02 3 0 3 C-0.33 3.99 -0.66 4.98 -1 6 C-1.33 5.34 -1.66 4.68 -2 4 C-3.98 4.66 -5.96 5.32 -8 6 C-8.33 5.34 -8.66 4.68 -9 4 C-6.03 3.01 -3.06 2.02 0 1 C0 0.67 0 0.34 0 0 Z " fill="#ABDDFC" transform="translate(69,163)"/>
<path d="M0 0 C3.63 0 7.26 0 11 0 C10.67 0.99 10.34 1.98 10 3 C6.7 2.34 3.4 1.68 0 1 C0 0.67 0 0.34 0 0 Z " fill="#ADB5DE" transform="translate(188,162)"/>
<path d="M0 0 C0 0.33 0 0.66 0 1 C-4.29 0.67 -8.58 0.34 -13 0 C-13 -0.33 -13 -0.66 -13 -1 C-8.05632546 -2.20577428 -4.79137588 -1.6290678 0 0 Z " fill="#5B82C2" transform="translate(187,184)"/>
<path d="M0 0 C1.65 0.33 3.3 0.66 5 1 C5 1.99 5 2.98 5 4 C2.03 3.505 2.03 3.505 -1 3 C-0.67 2.01 -0.34 1.02 0 0 Z " fill="#E4EDFA" transform="translate(69,153)"/>
<path d="M0 0 C0.99 0.495 0.99 0.495 2 1 C2 1.66 2 2.32 2 3 C3.32 3.33 4.64 3.66 6 4 C6 4.99 6 5.98 6 7 C4.35 6.67 2.7 6.34 1 6 C0.67 4.02 0.34 2.04 0 0 Z " fill="#5BC3FE" transform="translate(213,135)"/>
<path d="M0 0 C2.31 0.33 4.62 0.66 7 1 C6.67 1.99 6.34 2.98 6 4 C3.03 3.505 3.03 3.505 0 3 C0 2.01 0 1.02 0 0 Z " fill="#FDF4F4" transform="translate(58,139)"/>
<path d="M0 0 C0.99 0.33 1.98 0.66 3 1 C1.515 4.465 1.515 4.465 0 8 C-0.66 8 -1.32 8 -2 8 C-1.33333333 5.33333333 -0.66666667 2.66666667 0 0 Z " fill="#7C98D0" transform="translate(124,200)"/>
<path d="M0 0 C0.99 0 1.98 0 3 0 C3 0.99 3 1.98 3 3 C3.66 3 4.32 3 5 3 C4.67 3.99 4.34 4.98 4 6 C2.68 5.34 1.36 4.68 0 4 C0 2.68 0 1.36 0 0 Z " fill="#F6D3D9" transform="translate(101,198)"/>
<path d="M0 0 C2.64 0 5.28 0 8 0 C7.67 1.32 7.34 2.64 7 4 C6.01 4 5.02 4 4 4 C4 3.34 4 2.68 4 2 C2.68 1.67 1.36 1.34 0 1 C0 0.67 0 0.34 0 0 Z " fill="#87E7FE" transform="translate(77,187)"/>
<path d="M0 0 C3.63 0.66 7.26 1.32 11 2 C11 2.33 11 2.66 11 3 C8.36 3.33 5.72 3.66 3 4 C3 3.34 3 2.68 3 2 C2.01 2 1.02 2 0 2 C0 1.34 0 0.68 0 0 Z " fill="#8F9AC9" transform="translate(184,175)"/>
<path d="M0 0 C-0.66 1.65 -1.32 3.3 -2 5 C-2.4125 4.360625 -2.825 3.72125 -3.25 3.0625 C-5.17810487 0.79009069 -6.11424181 0.39803561 -9 0 C-5.52176885 -1.15941038 -3.54104422 -0.70820884 0 0 Z " fill="#A1AFDD" transform="translate(213,170)"/>
<path d="M0 0 C2.84875378 0.20153707 5.25099253 1.14375177 8 2 C8 2.33 8 2.66 8 3 C4.37 3 0.74 3 -3 3 C-2.01 2.01 -1.02 1.02 0 0 Z " fill="#54C5FB" transform="translate(146,103)"/>
<path d="M0 0 C2.31 0 4.62 0 7 0 C6.67 1.32 6.34 2.64 6 4 C4.02 3.01 2.04 2.02 0 1 C0 0.67 0 0.34 0 0 Z " fill="#1586DA" transform="translate(104,216)"/>
<path d="M0 0 C0 2.64 0 5.28 0 8 C-0.33 6.68 -0.66 5.36 -1 4 C-2.32 3.67 -3.64 3.34 -5 3 C-2.25 0 -2.25 0 0 0 Z " fill="#5E9CDD" transform="translate(118,205)"/>
<path d="M0 0 C0.99 0 1.98 0 3 0 C3 0.99 3 1.98 3 3 C2.01 3 1.02 3 0 3 C0 3.66 0 4.32 0 5 C-0.99 5.33 -1.98 5.66 -3 6 C-1.125 1.125 -1.125 1.125 0 0 Z " fill="#E7CCDE" transform="translate(98,198)"/>
<path d="M0 0 C1.875 0.3125 1.875 0.3125 4 1 C4.66 1.99 5.32 2.98 6 4 C3.69 4 1.38 4 -1 4 C-0.67 2.68 -0.34 1.36 0 0 Z " fill="#FAEAF1" transform="translate(197,143)"/>
<path d="M0 0 C0.99 0 1.98 0 3 0 C3.33 0.99 3.66 1.98 4 3 C0.67465243 4.10844919 -1.62182575 3.84454356 -5 3 C-5 2.67 -5 2.34 -5 2 C-3.35 2 -1.7 2 0 2 C0 1.34 0 0.68 0 0 Z " fill="#4BDEFD" transform="translate(172,117)"/>
<path d="M0 0 C1.32 0.66 2.64 1.32 4 2 C3.34 2 2.68 2 2 2 C1.34 3.32 0.68 4.64 0 6 C-0.66 6 -1.32 6 -2 6 C-1.34 4.02 -0.68 2.04 0 0 Z " fill="#4CC9FC" transform="translate(63,114)"/>
<path d="M0 0 C0.99 0.33 1.98 0.66 3 1 C3 2.32 3 3.64 3 5 C1.68 5 0.36 5 -1 5 C-0.67 3.35 -0.34 1.7 0 0 Z " fill="#FFFDDB" transform="translate(115,168)"/>
<path d="M0 0 C0.99 0 1.98 0 3 0 C3.6875 2.3125 3.6875 2.3125 4 5 C2.5625 6.8125 2.5625 6.8125 1 8 C0.67 5.36 0.34 2.72 0 0 Z " fill="#FAE7D3" transform="translate(112,155)"/>
<path d="M0 0 C0.66 0 1.32 0 2 0 C2.99 2.31 3.98 4.62 5 7 C2.525 6.01 2.525 6.01 0 5 C0 3.35 0 1.7 0 0 Z " fill="#F0E5C8" transform="translate(119,150)"/>
<path d="M0 0 C0.66 0 1.32 0 2 0 C2.6875 1.8125 2.6875 1.8125 3 4 C1.6875 5.75 1.6875 5.75 0 7 C-0.66 7 -1.32 7 -2 7 C-2 6.34 -2 5.68 -2 5 C-1.34 5 -0.68 5 0 5 C0 3.35 0 1.7 0 0 Z " fill="#1BC2FE" transform="translate(104,84)"/>
</svg>
