<?xml version="1.0" encoding="UTF-8" standalone="no"?>
<svg
   version="1.1"
   width="289"
   height="287"
   id="svg868"
   sodipodi:docname="bluesky.svg"
   inkscape:version="1.2.1 (9c6d41e410, 2022-07-14)"
   inkscape:export-filename="bluesky.png"
   inkscape:export-xdpi="96"
   inkscape:export-ydpi="96"
   xmlns:inkscape="http://www.inkscape.org/namespaces/inkscape"
   xmlns:sodipodi="http://sodipodi.sourceforge.net/DTD/sodipodi-0.dtd"
   xmlns="http://www.w3.org/2000/svg"
   xmlns:svg="http://www.w3.org/2000/svg">
  <defs
     id="defs872" />
  <sodipodi:namedview
     id="namedview870"
     pagecolor="#ffffff"
     bordercolor="#000000"
     borderopacity="0.25"
     inkscape:showpageshadow="2"
     inkscape:pageopacity="0.0"
     inkscape:pagecheckerboard="0"
     inkscape:deskcolor="#d1d1d1"
     showgrid="false"
     inkscape:zoom="2.8885017"
     inkscape:cx="107.32208"
     inkscape:cy="143.6731"
     inkscape:window-width="1920"
     inkscape:window-height="1009"
     inkscape:window-x="-8"
     inkscape:window-y="-8"
     inkscape:window-maximized="1"
     inkscape:current-layer="svg868" />
  <path
     d="M0 0 C1.3617334 0.00040787 1.3617334 0.00040787 2.75097656 0.00082397 C39.32159203 0.05086039 84.28135666 0.5472694 113.5625 26.1875 C125.16243841 38.11886522 131.85795457 52.47439047 136.5625 68.1875 C136.75827637 68.83460937 136.95405273 69.48171875 137.15576172 70.1484375 C143.24217694 90.9857717 144.06875891 113.59867093 144.5625 135.1875 C144.58441406 136.0007373 144.60632813 136.81397461 144.62890625 137.65185547 C145.5410529 175.60475725 145.62628745 226.33602629 118.5625 256.1875 C117.92054688 256.93257813 117.27859375 257.67765625 116.6171875 258.4453125 C97.37498806 279.39161817 63.61287691 285.86479037 36.32744598 287.30551529 C31.15393744 287.48670916 25.98080262 287.49356074 20.8046875 287.48828125 C19.16154883 287.49219 17.51841114 287.49652891 15.87527466 287.50126648 C12.45848291 287.50864974 9.0417946 287.50849672 5.625 287.50317383 C2.1772759 287.4985495 -1.27009488 287.50544601 -4.71777344 287.52368164 C-86.22041033 287.95098197 -86.22041033 287.95098197 -114.08984375 261.5390625 C-143.58662023 231.99320653 -144.62570275 187.88564981 -144.62280273 148.50927734 C-144.62497791 145.22089457 -144.64317139 141.93285459 -144.66210938 138.64453125 C-144.75931996 101.96819557 -143.3892435 57.9816853 -117 29.5625 C-116.154375 28.77875 -115.30875 27.995 -114.4375 27.1875 C-113.88835937 26.65640625 -113.33921875 26.1253125 -112.7734375 25.578125 C-84.31280972 -0.89143005 -36.43365115 -0.04149332 0 0 Z "
     fill="#0070FD"
     transform="translate(144.4375,-0.1875)"
     id="path566"
     style="fill:#1185fd;fill-opacity:1" />
  <path
     d="m 77.038389,72.292569 c 26.614231,11.711028 45.192711,38.157631 59.834491,62.135491 1.61754,2.64831 3.28356,5.26814 5.00886,7.84799 0.66306,-1.1544 1.32616,-2.30882 2.00935,-3.4982 10.72283,-18.3981 23.46595,-35.05834 38.99338,-49.763564 0.78481,-0.761624 1.56961,-1.523244 2.37821,-2.307945 9.89064,-9.250168 20.951,-16.849006 34.94067,-16.615271 4.05755,0.570957 5.97142,2.309407 8.65385,5.298113 5.46092,10.887874 2.15347,25.423567 1.02896,37.143047 -0.2527,2.65126 -0.49083,5.30356 -0.72803,7.95624 -2.56849,27.83426 -2.56849,27.83426 -14.15294,37.68193 -9.32491,6.51983 -18.48973,8.02901 -29.63572,8.87859 1.48475,0.56279 1.48475,0.56279 2.99949,1.13701 9.12925,3.5983 16.11758,6.39248 21.69533,14.73311 2.43379,6.87427 2.41216,12.34793 -0.62125,18.88934 -6.41587,11.3705 -16.50642,20.48975 -29.04361,24.69551 -5.95567,1.01262 -11.00641,0.57612 -16.30788,-2.39991 -11.10274,-7.90584 -16.56835,-19.78496 -20.96733,-32.28218 0,-1.22624 0,-2.45251 0,-3.71593 -0.82005,0 -1.64011,0 -2.485,0 -0.12318,1.04904 -0.24664,2.09806 -0.37373,3.17888 -2.35398,11.52369 -9.48574,25.04208 -19.34623,31.87576 -5.63156,3.18459 -11.10076,4.67748 -17.55524,3.34338 -12.968014,-4.54671 -23.700141,-13.7278 -29.820182,-26.01156 -2.178491,-6.51518 -2.305867,-12.51318 0.543597,-18.81195 6.774072,-7.41182 14.848398,-11.54571 24.306535,-14.63146 -1.66734,-0.16048 -1.66734,-0.16048 -3.368348,-0.32419 -13.852649,-1.60476 -23.840596,-4.62492 -33.319572,-15.09602 -5.67234,-9.79449 -6.45703,-21.00842 -7.431078,-32.06929 -0.221976,-2.50958 -0.464772,-5.01648 -0.71074,-7.52381 -2.750245,-28.958205 -2.750245,-28.958205 2.58451,-37.885143 5.526504,-6.325526 13.819973,-4.379007 20.889647,-1.857968 z"
     fill="#1185fd"
     id="path435"
     style="fill:#ffffff;fill-opacity:1;stroke-width:1.24058" />
</svg>
