<?xml version="1.0" encoding="UTF-8" standalone="no"?>
<svg
   version="1.1"
   width="343"
   height="342"
   id="svg10"
   sodipodi:docname="email.svg"
   inkscape:version="1.2.1 (9c6d41e410, 2022-07-14)"
   xml:space="preserve"
   xmlns:inkscape="http://www.inkscape.org/namespaces/inkscape"
   xmlns:sodipodi="http://sodipodi.sourceforge.net/DTD/sodipodi-0.dtd"
   xmlns="http://www.w3.org/2000/svg"
   xmlns:svg="http://www.w3.org/2000/svg"><defs
     id="defs14" /><sodipodi:namedview
     id="namedview12"
     pagecolor="#ffffff"
     bordercolor="#000000"
     borderopacity="0.25"
     inkscape:showpageshadow="2"
     inkscape:pageopacity="0.0"
     inkscape:pagecheckerboard="0"
     inkscape:deskcolor="#d1d1d1"
     showgrid="false"
     inkscape:zoom="1.2119883"
     inkscape:cx="73.845597"
     inkscape:cy="183.99518"
     inkscape:window-width="1920"
     inkscape:window-height="1009"
     inkscape:window-x="-8"
     inkscape:window-y="-8"
     inkscape:window-maximized="1"
     inkscape:current-layer="svg10" /><path
     d="M 0,0 C 5.0781781,0.01710236 10.155885,0.00692793 15.234047,-0.01032257 57.29157,-0.13164388 104.58396,0.91593131 138.53247,29.391113 c 1.01063,0.763125 2.02125,1.52625 3.0625,2.3125 8.26072,7.557682 13.75345,16.890425 18.9375,26.6875 0.46277,0.870117 0.92555,1.740235 1.40234,2.636719 6.04302,12.298407 9.36992,26.013962 11.84766,39.425778 0.1509,0.81187 0.3018,1.62374 0.45728,2.46021 2.66839,15.47066 3.61489,30.94267 3.62866,46.61792 0.006,1.78188 0.0132,3.56376 0.0202,5.34564 0.0119,3.71098 0.0157,7.42187 0.0145,11.13287 -1.7e-4,3.73262 0.0136,7.46475 0.041,11.19727 0.31038,42.94351 -0.0954,95.75824 -31.97314,128.80225 -1.46604,1.47486 -2.94918,2.93003 -4.43848,4.38134 -0.75023,0.75926 -1.50047,1.51852 -2.27344,2.30078 -21.76586,20.83536 -55.079593,25.81295 -83.726559,28.69922 -0.849694,0.0885 -1.699388,0.17693 -2.574829,0.26807 -8.879366,0.83844 -17.730796,0.91379 -26.640015,0.93506 -0.813339,0.003 -1.626677,0.006 -2.464663,0.009 -4.319318,0.0149 -8.638603,0.0242 -12.957944,0.0285 -3.5030381,0.004 -7.0058247,0.0181 -10.50878953,0.041 -42.80689347,0.27413 -93.61127347,0.52644 -127.85376047,-29.28125 -0.59684,-0.46664 -1.19367,-0.93328 -1.80859,-1.41406 -22.69655,-18.09658 -31.08384,-50.51323 -34.48389,-77.94578 -1.449,-12.95404 -2.0325,-25.78824 -2.04346,-38.81594 -0.006,-1.86631 -0.0132,-3.73261 -0.0202,-5.59892 -0.0118,-3.88315 -0.0157,-7.76621 -0.0145,-11.64937 1.6e-4,-3.90611 -0.0136,-7.81175 -0.041,-11.71777 -0.30112,-43.6251 -0.1168,-92.664816 29.41162,-127.858157 0.44473,-0.589101 0.88945,-1.178203 1.34766,-1.785156 4.58913,-5.873554 10.58436,-9.977383 16.65234,-14.214844 1.11955,-0.804375 1.11955,-0.804375 2.26172,-1.625 C -82.960164,-1.1986945 -38.127211,-0.12967702 0,0 Z"
     fill="#bfbfbf"
     id="path2"
     transform="translate(165.46753,-0.39111328)"
     inkscape:highlight-color="#e5e5e5"
     style="fill:#e5e5e5;fill-opacity:1" /><g
     id="g3105"
     transform="matrix(1.6964018,0,0,1.6964018,-38.397101,-40.279501)"><path
       style="fill:#fcf4ea;stroke-width:0.299498"
       d="m 56.433001,180.26912 -1.197993,-0.37888 -0.913026,-0.47607 -0.913026,-0.47607 -1.248077,-1.21122 -1.248077,-1.21121 -0.833879,-1.58266 -0.833879,-1.58265 V 126.32914 79.307925 l 0.728714,-1.64724 0.728713,-1.64724 0.909406,-1.347742 0.909405,-1.347742 1.293831,-1.257662 1.29383,-1.257663 1.560523,-0.885005 1.560524,-0.885006 2.053161,-0.62769 2.05316,-0.627691 h 2.002016 2.002015 l 1.715196,0.446752 1.715197,0.446752 1.5174,0.768925 1.5174,0.768925 25.35602,19.064629 25.356015,19.064633 h 0.45278 0.45278 l 25.36114,-19.067487 25.36115,-19.067483 1.51177,-0.766071 1.51177,-0.766071 1.71519,-0.446752 1.7152,-0.446752 h 2.00201 2.00202 l 2.05316,0.627691 2.05316,0.62769 1.54765,0.877641 1.54765,0.877642 1.67518,1.675173 1.67517,1.675173 1.26965,2.562235 1.26965,2.562236 v 47.043815 47.04382 l -0.74875,1.47044 -0.74875,1.47045 -1.28175,1.32055 -1.28175,1.32055 -1.71323,0.80298 -1.71323,0.80299 -13.25279,0.0866 -13.2528,0.0866 v -28.92114 -28.92114 l -20.36647,15.29923 -20.36646,15.29924 -17.84934,-13.41957 -17.849335,-13.41957 -2.515953,-1.86911 -2.515952,-1.86911 v 28.89882 28.89883 l -12.803548,-0.02 -12.803548,-0.02 -1.197993,-0.37887 z"
       id="path3227" /><path
       style="fill:#fbe9e7;stroke-width:0.299498"
       d="m 56.433001,180.26912 -1.197993,-0.37888 -0.913026,-0.47607 -0.913026,-0.47607 -1.248077,-1.21122 -1.248077,-1.21121 -0.833879,-1.58266 -0.833879,-1.58265 V 126.32914 79.307925 l 1.256305,-2.568708 1.256305,-2.568707 2.076203,-1.958585 2.076204,-1.958585 1.609212,-0.779681 1.609212,-0.779681 1.785039,-0.458367 1.785039,-0.458367 h 1.569574 1.569574 l 1.587107,0.335771 1.587107,0.335771 1.796989,0.817832 1.79699,0.817833 6.738709,5.074806 6.73871,5.074806 18.818317,14.154653 18.81831,14.154654 0.37984,-0.0921 0.37984,-0.0921 19.69276,-14.825161 19.69276,-14.825161 6.09452,-4.540526 6.09452,-4.540527 1.73628,-0.649732 1.73629,-0.649732 1.64724,-0.308162 1.64724,-0.308162 2.0141,0.183721 2.0141,0.18372 1.72963,0.642289 1.72963,0.642289 1.49749,0.952948 1.49749,0.952947 1.61979,1.772725 1.61979,1.772726 0.84134,1.777524 0.84134,1.777525 0.31393,1.516956 0.31394,1.516955 -0.0796,45.972978 -0.0796,45.97297 -0.79918,1.51418 -0.79918,1.51417 -1.29731,1.28802 -1.29731,1.28802 -1.64724,0.79178 -1.64724,0.79179 -13.2513,0.0866 -13.25131,0.0866 -0.0764,-28.90417 -0.0764,-28.90417 -20.291,15.27248 -20.29101,15.27248 -20.291,-15.27248 -20.291001,-15.27248 -0.07636,28.89241 -0.07637,28.89241 -12.802058,-0.02 -12.802058,-0.02 z"
       id="path3225" /><path
       style="fill:#fcead3;stroke-width:0.299498"
       d="m 56.433001,180.26912 -1.197993,-0.37888 -0.913026,-0.47607 -0.913026,-0.47607 -1.248077,-1.21122 -1.248077,-1.21121 -0.833879,-1.58266 -0.833879,-1.58265 -0.07958,-45.97297 -0.07958,-45.972978 0.313937,-1.516955 0.313937,-1.516956 0.894975,-1.892425 0.894976,-1.892425 2.16515,-2.137864 2.16515,-2.137865 1.76755,-0.84857 1.76755,-0.848571 2.325949,-0.480955 2.32595,-0.480954 2.195963,0.326996 2.195963,0.326996 1.775674,0.676243 1.775675,0.676242 25.838682,19.425826 25.838675,19.425825 h 0.3282 0.32821 l 25.83868,-19.425825 25.83868,-19.425826 1.77568,-0.664469 1.77567,-0.664469 1.64724,-0.308162 1.64724,-0.308162 2.01411,0.183721 2.0141,0.18372 1.72963,0.642289 1.72962,0.642289 1.49749,0.952948 1.49749,0.952947 1.61979,1.772725 1.61979,1.772726 0.84134,1.777524 0.84134,1.777525 0.31393,1.516956 0.31394,1.516955 -0.0796,45.972978 -0.0796,45.97297 -0.79918,1.51418 -0.79918,1.51417 -1.29731,1.28802 -1.29731,1.28802 -1.64724,0.79178 -1.64724,0.79179 -13.2513,0.0866 -13.25131,0.0866 -0.0764,-28.92651 -0.0764,-28.9265 -4.04322,3.05645 -4.04323,3.05645 -16.24778,12.2047 -16.24777,12.2047 -16.39753,-12.31438 -16.397523,-12.31438 -3.893476,-2.9419 -3.893477,-2.94189 -0.07636,28.90987 -0.07637,28.90987 -12.802058,-0.02 -12.802058,-0.02 z"
       id="path3223" /><path
       style="fill:#dceaf0;stroke-width:0.299498"
       d="m 56.433001,180.26912 -1.197993,-0.37888 -0.913026,-0.47607 -0.913026,-0.47607 -1.248077,-1.21122 -1.248077,-1.21121 -0.833879,-1.58266 -0.833879,-1.58265 -0.07958,-45.97297 -0.07958,-45.972978 0.313937,-1.516955 0.313937,-1.516956 0.894975,-1.892425 0.894976,-1.892425 2.16515,-2.137864 2.16515,-2.137865 1.76755,-0.84857 1.76755,-0.848571 2.325949,-0.480955 2.32595,-0.480954 2.195963,0.326996 2.195963,0.326996 1.775674,0.676243 1.775675,0.676242 25.838682,19.425826 25.838675,19.425825 h 0.31665 0.31664 l 25.08017,-18.819548 25.08019,-18.819549 1.19799,-0.777319 1.198,-0.77732 1.94675,-0.654458 1.94673,-0.654459 2.69549,-0.01656 2.69548,-0.01656 2.00378,0.669233 2.00377,0.669234 1.74824,1.129942 1.74824,1.129942 1.42823,1.621934 1.42823,1.621934 0.85908,1.796989 0.85909,1.79699 0.33883,1.796989 0.33882,1.796989 -0.0887,45.673477 -0.0887,45.67347 -0.79918,1.51418 -0.79918,1.51417 -1.29731,1.28802 -1.29731,1.28802 -1.64724,0.79179 -1.64724,0.79178 -13.2513,0.0866 -13.25131,0.0866 -0.0764,-28.9265 -0.0764,-28.92651 -4.04322,3.05645 -4.04323,3.05645 -16.24778,12.2047 -16.24777,12.2047 -16.39753,-12.31438 -16.397533,-12.31438 -3.893476,-2.94189 -3.893477,-2.9419 -0.07636,28.90987 -0.07637,28.90987 -12.802058,-0.02 -12.802058,-0.02 z"
       id="path3221" /><path
       style="fill:#f8d9d6;stroke-width:0.299498"
       d="m 56.861088,180.28021 -1.368902,-0.37076 -1.326581,-0.7832 -1.326583,-0.78319 -0.952605,-0.99886 -0.952605,-0.99886 -0.844384,-1.64724 -0.844384,-1.64724 -0.07959,-45.82322 -0.07959,-45.823228 0.313943,-1.516955 0.313943,-1.516956 0.894975,-1.892425 0.894976,-1.892425 2.16515,-2.137864 2.16515,-2.137865 1.76755,-0.84857 1.76755,-0.848571 2.325949,-0.480955 2.32595,-0.480954 2.195963,0.326996 2.195963,0.326996 1.775674,0.676243 1.775675,0.676242 25.838682,19.425826 25.838683,19.425825 h 0.31664 0.31664 l 25.08018,-18.819548 25.08019,-18.819549 1.19799,-0.777319 1.198,-0.77732 1.94674,-0.654458 1.94673,-0.654459 2.69549,-0.01656 2.69548,-0.01656 2.00378,0.669233 2.00377,0.669234 1.74824,1.129942 1.74824,1.129942 1.42823,1.621934 1.42823,1.621934 0.85908,1.796989 0.85909,1.79699 0.33883,1.796989 0.33883,1.796989 -0.0887,45.523727 -0.0887,45.52372 -0.87923,1.73523 -0.87923,1.73523 -1.31455,1.21171 -1.31456,1.21172 -1.69969,0.79678 -1.6997,0.79679 h -13.02817 -13.02817 l -0.14975,-28.83989 -0.14975,-28.83988 -4.04322,3.05646 -4.04323,3.05647 -16.24778,12.2047 -16.24778,12.2047 -16.39752,-12.31438 -16.397531,-12.31438 -3.893476,-2.94191 -3.893477,-2.94192 -0.149749,28.83502 -0.149749,28.83501 -12.429176,0.0563 -12.429175,0.0563 z"
       id="path3219" /><path
       style="fill:#fce6ae;stroke-width:0.299498"
       d="m 56.861088,180.28021 -1.368902,-0.37076 -1.326581,-0.7832 -1.326583,-0.78319 -0.952605,-0.99886 -0.952605,-0.99886 -0.844384,-1.64724 -0.844384,-1.64724 -0.09189,-45.67347 -0.09189,-45.673479 0.346543,-1.647241 0.346543,-1.64724 0.916782,-1.946738 0.916782,-1.946738 2.026804,-2.031229 2.026804,-2.031228 2.262144,-1.045176 2.262145,-1.045175 2.34781,-0.332023 2.347809,-0.332024 2.260728,0.461028 2.260728,0.461029 1.611509,0.774882 1.611509,0.774882 2.246236,1.692933 2.246237,1.692931 23.432623,17.626861 23.43263,17.626865 26.02476,-19.5633 26.02476,-19.563297 1.72877,-0.66156 1.72876,-0.66156 2.04917,-0.290624 2.04917,-0.290625 1.87235,0.267967 1.87234,0.267967 1.58172,0.604157 1.58172,0.604157 1.49718,0.96074 1.49718,0.96074 1.50605,1.68509 1.50604,1.68509 0.85539,1.796989 0.85539,1.796989 0.33883,1.79699 0.33883,1.796989 -0.0887,45.523731 -0.0887,45.52372 -0.87923,1.73523 -0.87923,1.73523 -1.31455,1.21171 -1.31456,1.21171 -1.69969,0.79679 -1.6997,0.79679 h -13.02817 -13.02817 l -0.14975,-28.85746 -0.14975,-28.85745 -20.13689,15.15541 -20.1369,15.15541 h -0.31065 -0.31065 l -20.13446,-15.15502 -20.134461,-15.15503 -0.149749,28.85707 -0.149749,28.85707 -12.429176,0.0563 -12.429175,0.0563 z"
       id="path3217" /><path
       style="fill:#f6c9c5;stroke-width:0.299498"
       d="m 56.861088,180.28021 -1.368902,-0.37076 -1.326581,-0.7832 -1.326583,-0.78319 -0.952605,-0.99886 -0.952605,-0.99886 -0.844384,-1.64724 -0.844384,-1.64724 -0.09189,-45.67347 -0.09189,-45.673479 0.346543,-1.647241 0.346543,-1.64724 0.916782,-1.946738 0.916782,-1.946738 2.026804,-2.031229 2.026804,-2.031228 2.262144,-1.045176 2.262145,-1.045175 2.34781,-0.332023 2.347809,-0.332024 2.260728,0.461028 2.260728,0.461029 1.611509,0.774882 1.611509,0.774882 2.246236,1.692933 2.246237,1.692931 23.426453,17.622219 23.42646,17.622217 25.84996,-19.398511 25.84997,-19.398509 1.48852,-0.634651 1.48853,-0.634651 1.19799,-0.327407 1.19799,-0.327408 2.69549,0.0046 2.69548,0.0046 2.08306,0.734967 2.08306,0.734967 1.60493,1.10536 1.60494,1.105361 1.17555,1.372962 1.17556,1.372961 0.89589,1.678096 0.89589,1.678097 0.45892,1.978828 0.45893,1.978827 -0.0787,45.610521 -0.0786,45.61053 -0.87923,1.73523 -0.87923,1.73523 -1.31455,1.21171 -1.31456,1.21171 -1.69969,0.79679 -1.6997,0.79679 h -13.02817 -13.02817 l -0.14975,-28.85746 -0.14975,-28.85745 -20.13689,15.15541 -20.1369,15.15541 h -0.31065 -0.31065 l -20.13446,-15.15502 -20.134461,-15.15503 -0.149749,28.85707 -0.149749,28.85707 -12.429176,0.0563 -12.429175,0.0563 z"
       id="path3215" /><path
       style="fill:#f5c1bd;stroke-width:0.299498"
       d="m 56.861088,180.28021 -1.368902,-0.37076 -1.326581,-0.7832 -1.326583,-0.78319 -0.952605,-0.99886 -0.952605,-0.99886 -0.844384,-1.64724 -0.844384,-1.64724 -0.0887,-45.52372 -0.0887,-45.523731 0.340473,-1.783503 0.340472,-1.7835 0.992571,-1.970984 0.992572,-1.970984 1.375517,-1.529906 1.375518,-1.529907 1.488888,-0.955416 1.488887,-0.955417 1.581717,-0.606882 1.581717,-0.606882 1.946738,-0.250658 1.946738,-0.250658 2.072805,0.289943 2.072805,0.289943 1.820672,0.808706 1.820671,0.808706 25.825302,19.407832 25.825303,19.407828 25.68839,-19.281602 25.68839,-19.281604 1.19799,-0.608576 1.19799,-0.608575 1.62673,-0.482285 1.62672,-0.482286 2.716,0.0063 2.716,0.0063 2.08306,0.734967 2.08306,0.734967 1.60493,1.10536 1.60494,1.105361 1.17555,1.372961 1.17556,1.372962 0.89589,1.678096 0.89589,1.678097 0.45892,1.978828 0.45893,1.978826 -0.0787,45.610533 -0.0786,45.61053 -0.87923,1.73523 -0.87923,1.73523 -1.31455,1.21171 -1.31456,1.21171 -1.69969,0.79679 -1.6997,0.79679 h -13.02817 -13.02817 l -0.0764,-28.85116 -0.0764,-28.85116 -0.22969,0.0993 -0.22969,0.0993 -19.09781,14.37592 -19.09781,14.37591 -1.03633,0.71403 -1.03633,0.71403 -1.12367,-0.77258 -1.12366,-0.77258 -19.16789,-14.41923 -19.167881,-14.41922 -0.149749,28.85369 -0.149749,28.85369 -12.429176,0.0563 -12.429175,0.0563 z"
       id="path3213" /><path
       style="fill:#fbdc89;stroke-width:0.299498"
       d="m 56.861088,180.28021 -1.368902,-0.37076 -1.326581,-0.7832 -1.326583,-0.78319 -0.952605,-0.99886 -0.952605,-0.99886 -0.844384,-1.64724 -0.844384,-1.64724 -0.07959,-45.67347 -0.0796,-45.673479 0.317352,-1.533344 0.317351,-1.533345 0.995222,-2.060634 0.995222,-2.060634 1.310264,-1.475932 1.310265,-1.475931 1.787044,-1.155022 1.787044,-1.155023 2.045768,-0.621382 2.045767,-0.621383 3.207888,0.119928 3.207888,0.119929 1.946738,0.875665 1.946738,0.875666 8.984946,6.765988 8.984946,6.765989 16.842873,12.653521 16.84287,12.653513 25.70794,-19.301097 25.70794,-19.3011 1.17593,-0.598985 1.17592,-0.598985 1.62673,-0.482285 1.62672,-0.482286 2.716,0.0063 2.716,0.0063 2.08306,0.734967 2.08306,0.734967 1.60493,1.10536 1.60494,1.105361 1.17555,1.372961 1.17556,1.372962 0.89589,1.678096 0.89589,1.678097 0.45892,1.978828 0.45893,1.978826 -0.0787,45.610533 -0.0786,45.61053 -0.87923,1.73523 -0.87923,1.73523 -1.31455,1.21171 -1.31456,1.21171 -1.69969,0.79679 -1.6997,0.79679 h -13.02817 -13.02817 l -0.0764,-28.82671 -0.0764,-28.8267 h -0.15104 -0.15104 L 144.4151,137.924 124.43369,152.96309 h -0.46278 -0.46279 L 103.52162,137.924 83.535123,122.88491 h -0.147021 -0.147017 l -0.07637,28.8267 -0.07637,28.82671 -12.429176,0.0563 -12.429175,0.0563 z"
       id="path3211" /><path
       style="fill:#a2c3f6;stroke-width:0.299498"
       d="m 56.861088,180.28021 -1.368902,-0.37076 -1.326581,-0.7832 -1.326583,-0.78319 -0.952605,-0.99886 -0.952605,-0.99886 -0.844384,-1.64724 -0.844384,-1.64724 -0.07959,-45.67347 -0.0796,-45.673479 0.317352,-1.533344 0.317351,-1.533345 0.995222,-2.060634 0.995222,-2.060634 1.310264,-1.475932 1.310265,-1.475931 1.787044,-1.155022 1.787044,-1.155023 2.045768,-0.621382 2.045767,-0.621383 3.207888,0.119928 3.207888,0.119929 1.946738,0.875665 1.946738,0.875666 8.984946,6.765988 8.984946,6.765989 16.841393,12.652404 16.84138,12.6524 25.92163,-19.454771 25.92164,-19.454777 2.01196,-0.814529 2.01196,-0.814529 2.73293,-0.150802 2.73293,-0.150802 1.60979,0.374936 1.6098,0.374936 2.09616,1.086532 2.09615,1.086531 1.70691,1.732464 1.7069,1.732464 1.0332,2.065243 1.0332,2.065243 0.33914,2.042507 0.33914,2.042509 -0.0839,45.224225 -0.0839,45.22423 -0.87923,1.73523 -0.87923,1.73523 -1.31455,1.21171 -1.31456,1.21171 -1.69969,0.79679 -1.6997,0.79679 h -13.02817 -13.02817 l -0.0764,-28.82671 -0.0764,-28.8267 h -0.15104 -0.15104 L 144.4151,137.924 124.43369,152.96309 h -0.46278 -0.46279 L 103.52162,137.924 83.535123,122.88491 h -0.147021 -0.147017 l -0.07637,28.8267 -0.07637,28.82671 -12.429176,0.0563 -12.429175,0.0563 z"
       id="path3209" /><path
       style="fill:#f3b2ad;stroke-width:0.299498"
       d="m 164.91579,180.50292 -0.21419,-0.21418 v -28.70192 -28.70191 h -0.15254 -0.15253 L 144.4151,137.924 124.43369,152.96309 h -0.46278 -0.46279 L 103.52162,137.924 83.535123,122.88491 H 83.386608 83.23809 v 28.76071 28.7607 l -13.402545,-0.0837 -13.402544,-0.0838 -1.370375,-0.6753 -1.370374,-0.6753 -1.237657,-1.05939 -1.237656,-1.05938 -0.985947,-2.00264 -0.985948,-2.00264 -0.08007,-45.53013 -0.08007,-45.530129 0.317831,-1.533344 0.317831,-1.533345 0.995222,-2.060634 0.995222,-2.060634 1.310264,-1.475932 1.310265,-1.475931 1.787044,-1.155022 1.787044,-1.155023 2.045768,-0.621382 2.045767,-0.621383 3.207888,0.119928 3.207888,0.119929 1.946738,0.875665 1.946738,0.875666 8.984946,6.765988 8.984946,6.765989 16.841394,12.652404 16.84138,12.6524 25.92163,-19.454771 25.92164,-19.454777 2.01196,-0.814529 2.01196,-0.814529 2.73293,-0.150802 2.73293,-0.150802 1.60979,0.374936 1.6098,0.374936 2.09616,1.086532 2.09615,1.086531 1.70691,1.732464 1.7069,1.732464 1.0332,2.065243 1.0332,2.065243 0.33914,2.042507 0.33914,2.042509 -0.0839,45.224225 -0.0839,45.22423 -0.87923,1.73523 -0.87923,1.73523 -1.31455,1.21171 -1.31456,1.21171 -1.69969,0.79679 -1.6997,0.79679 -12.88885,0.0894 -12.88886,0.0894 z"
       id="path3207" /><path
       style="fill:#93b8f7;stroke-width:0.299498"
       d="m 164.91579,180.50292 -0.21419,-0.21418 v -28.70192 -28.70191 h -0.16675 -0.16675 l -19.9745,15.03314 -19.97451,15.03315 -0.44925,-0.001 -0.44924,-0.001 -19.97608,-15.03209 -19.976075,-15.0318 H 83.403266 83.23809 v 28.76071 28.7607 l -13.402545,-0.0837 -13.402544,-0.0838 -1.370375,-0.6753 -1.370374,-0.6753 -1.237657,-1.05939 -1.237656,-1.05938 -0.985947,-2.00264 -0.985948,-2.00264 -0.07958,-45.46316 -0.07958,-45.463149 0.459855,-1.982858 0.459855,-1.982856 0.89589,-1.678097 0.89589,-1.678096 1.175558,-1.372961 1.175558,-1.372962 1.604934,-1.105361 1.604935,-1.10536 2.08306,-0.734967 2.083059,-0.734967 2.715999,-0.0063 2.716,-0.0063 1.626724,0.482286 1.626725,0.482285 1.19755,0.610018 1.19755,0.610017 25.68088,19.315621 25.680884,19.315617 25.90249,-19.475318 25.90249,-19.475327 2.02725,-0.820649 2.02725,-0.820648 2.73293,-0.150802 2.73293,-0.150802 1.60979,0.374936 1.6098,0.374936 2.09616,1.086532 2.09615,1.086531 1.70691,1.732464 1.7069,1.732464 1.0332,2.065243 1.0332,2.065243 0.33914,2.042507 0.33914,2.042509 -0.0839,45.224221 -0.0839,45.22423 -0.87923,1.73523 -0.87923,1.73523 -1.31455,1.21171 -1.31456,1.21171 -1.69969,0.79679 -1.6997,0.79679 -12.88885,0.0894 -12.88886,0.0894 z"
       id="path3205" /><path
       style="fill:#fbd570;stroke-width:0.299498"
       d="m 164.91579,180.50292 -0.21419,-0.21418 v -28.70192 -28.70191 h -0.16675 -0.16675 l -19.9745,15.03314 -19.97451,15.03315 -0.44925,-0.002 -0.44924,-0.002 -20.21613,-15.21033 -20.216129,-15.21034 -0.07637,28.94244 -0.07637,28.94245 -13.251304,-0.0864 -13.251304,-0.0866 -1.347742,-0.71709 -1.347742,-0.71708 -0.956895,-0.72851 -0.956895,-0.72852 -0.900044,-1.40259 -0.900044,-1.4026 -0.464172,-1.78208 -0.464172,-1.78208 0.0044,-44.63718 0.0044,-44.637179 0.452308,-1.918865 0.452309,-1.918864 0.8943,-1.675115 0.8943,-1.675113 1.175558,-1.372961 1.175558,-1.372962 1.604934,-1.105361 1.604935,-1.10536 2.08306,-0.734967 2.083059,-0.734967 2.715999,-0.0063 2.716,-0.0063 1.626724,0.482286 1.626725,0.482285 1.19755,0.610018 1.19755,0.610017 25.68088,19.315621 25.680884,19.315617 25.90249,-19.475318 25.90249,-19.475327 2.02725,-0.820649 2.02725,-0.820648 2.73293,-0.150802 2.73293,-0.150802 1.60979,0.374936 1.6098,0.374936 2.09616,1.086532 2.09615,1.086531 1.70691,1.732464 1.7069,1.732464 1.0332,2.065243 1.0332,2.065243 0.33914,2.042507 0.33914,2.042509 -0.0839,45.224221 -0.0839,45.22423 -0.87923,1.73523 -0.87923,1.73523 -1.31455,1.21171 -1.31456,1.21171 -1.69969,0.79679 -1.6997,0.79679 -12.88885,0.0894 -12.88886,0.0894 z"
       id="path3203" /><path
       style="fill:#f3a39b;stroke-width:0.299498"
       d="m 164.91579,180.50292 -0.21419,-0.21418 v -28.70192 -28.70191 h -0.16675 -0.16675 l -19.9745,15.03314 -19.97451,15.03315 -0.44925,-0.002 -0.44924,-0.002 -20.21613,-15.21033 -20.216129,-15.21034 -0.07637,28.94244 -0.07637,28.94245 -13.251304,-0.0864 -13.251304,-0.0866 -1.347742,-0.71709 -1.347742,-0.71708 -0.956895,-0.72851 -0.956895,-0.72852 -0.900044,-1.40259 -0.900044,-1.4026 -0.464172,-1.78208 -0.464172,-1.78208 0.0044,-44.63718 0.0044,-44.637179 0.452308,-1.918865 0.452309,-1.918864 0.8943,-1.675115 0.8943,-1.675113 1.175558,-1.372961 1.175558,-1.372962 1.604934,-1.105361 1.604935,-1.10536 2.08306,-0.734967 2.083059,-0.734967 2.715999,-0.0063 2.716,-0.0063 1.626724,0.482286 1.626725,0.482285 1.19755,0.610018 1.19755,0.610017 25.675611,19.311662 25.675613,19.311656 25.53902,-19.167888 25.53903,-19.167892 1.56733,-0.78932 1.56734,-0.78932 1.71519,-0.446752 1.7152,-0.446752 h 1.97064 1.97064 l 1.76064,0.45859 1.76064,0.458589 1.68771,0.899539 1.68771,0.899539 1.44142,1.381214 1.44142,1.381214 1.12752,1.744486 1.12752,1.744486 0.55972,2.030258 0.55972,2.030257 v 45.972972 45.97297 l -0.87923,1.73523 -0.87923,1.73523 -1.31455,1.21171 -1.31456,1.21171 -1.69969,0.79679 -1.6997,0.79679 -12.88885,0.0894 -12.88886,0.0894 z"
       id="path3201" /><path
       style="fill:#f29c94;stroke-width:0.299498"
       d="m 164.91579,180.50292 -0.21419,-0.21418 v -28.82703 -28.82703 l -19.09301,14.36415 -19.09301,14.36414 -1.27433,0.90103 -1.27433,0.90102 -1.18065,-0.83901 -1.18065,-0.83902 -19.09855,-14.37591 -19.098554,-14.37592 -0.234962,-0.0998 -0.234962,-0.0998 v 28.9383 28.9383 l -13.252796,-0.0866 -13.252795,-0.0866 -1.347742,-0.71709 -1.347742,-0.71708 -0.956895,-0.72851 -0.956895,-0.72852 -0.900044,-1.40259 -0.900044,-1.4026 -0.464172,-1.78208 -0.464172,-1.78208 0.0044,-44.63718 0.0044,-44.637179 0.452308,-1.918865 0.452309,-1.918864 0.965881,-1.824817 0.965881,-1.824818 1.796989,-1.797248 1.796989,-1.797247 1.946739,-0.954934 1.946738,-0.954934 1.347742,-0.310399 1.347742,-0.3104 2.439312,-0.0073 2.439313,-0.0073 1.903411,0.594012 1.903411,0.594012 1.048244,0.636081 1.048244,0.636082 25.525621,19.179322 25.525631,19.179316 25.55655,-19.177417 25.55655,-19.177419 1.54961,-0.785242 1.5496,-0.785243 1.71519,-0.446752 1.7152,-0.446752 h 1.97064 1.97064 l 1.76064,0.45859 1.76064,0.458589 1.68771,0.899539 1.68771,0.899539 1.44142,1.381214 1.44142,1.381214 1.12752,1.744486 1.12752,1.744486 0.55972,2.030258 0.55972,2.030257 v 45.972973 45.97297 l -0.87923,1.73523 -0.87923,1.73523 -1.31455,1.21171 -1.31456,1.21171 -1.69969,0.79679 -1.6997,0.79679 -12.88885,0.0894 -12.88886,0.0894 z"
       id="path3199" /><path
       style="fill:#99d2a8;stroke-width:0.299498"
       d="m 164.91579,180.50292 -0.21419,-0.21418 v -28.85009 -28.85008 l -20.36522,15.32127 -20.36523,15.32127 -20.25981,-15.24797 -20.259804,-15.24798 -0.256472,-0.0998 -0.256472,-0.0998 v 28.9383 28.9383 l -13.252796,-0.0866 -13.252795,-0.0866 -1.347742,-0.71709 -1.347742,-0.71708 -0.956895,-0.72851 -0.956895,-0.72852 -0.900044,-1.40259 -0.900044,-1.4026 -0.464172,-1.78208 -0.464172,-1.78208 0.0044,-44.63718 0.0044,-44.637179 0.452308,-1.918865 0.452309,-1.918864 0.965881,-1.824817 0.965881,-1.824818 1.798252,-1.797035 1.798252,-1.797035 2.020676,-0.9766 2.020676,-0.976601 1.557109,-0.33394 1.55711,-0.33394 2.710414,0.150375 2.710414,0.150375 1.61149,0.622136 1.61149,0.622136 1.083994,0.717362 1.083993,0.717362 25.0081,18.815836 25.008106,18.815832 0.44924,-0.003 0.44925,-0.003 25.34652,-19.043946 25.34651,-19.043952 1.52842,-0.774508 1.52842,-0.774507 1.71519,-0.446752 1.7152,-0.447013 h 1.97064 1.97064 l 1.76064,0.45859 1.76064,0.458589 1.68771,0.899539 1.68771,0.899539 1.44142,1.381214 1.44142,1.381214 1.12752,1.744486 1.12752,1.744486 0.55972,2.030258 0.55972,2.030257 v 45.972976 45.97297 l -0.87923,1.73523 -0.87923,1.73523 -1.31455,1.21171 -1.31456,1.21171 -1.69969,0.79679 -1.6997,0.79679 -12.88885,0.0894 -12.88886,0.0894 z"
       id="path3197" /><path
       style="fill:#facc4c;stroke-width:0.299498"
       d="m 56.580811,180.10873 -0.750684,-0.22835 -1.046305,-0.53904 -1.046305,-0.53904 -0.956895,-0.72734 -0.956895,-0.72734 -0.900044,-1.40259 -0.900044,-1.4026 -0.464172,-1.78208 -0.464172,-1.78208 0.0044,-44.63718 0.0044,-44.637179 0.452308,-1.918865 0.452309,-1.918864 0.965881,-1.824817 0.965881,-1.824818 1.798252,-1.797035 1.798252,-1.797035 2.020676,-0.9766 2.020676,-0.976601 1.557109,-0.33394 1.55711,-0.33394 2.710414,0.150375 2.710414,0.150375 1.61149,0.622136 1.61149,0.622136 1.083994,0.717362 1.083993,0.717362 25.0081,18.815836 25.008106,18.815832 0.44924,-0.003 0.44925,-0.003 25.34652,-19.043946 25.34651,-19.043952 1.52842,-0.774508 1.52842,-0.774507 1.71519,-0.446752 1.7152,-0.447013 h 1.97064 1.97064 l 1.76064,0.45859 1.76064,0.458589 1.68771,0.899539 1.68771,0.899539 1.44142,1.381214 1.44142,1.381214 1.12752,1.744486 1.12752,1.744486 0.55972,2.030258 0.55972,2.030257 v 45.823226 45.82322 l -0.79972,1.70609 -0.79971,1.7061 -1.30459,1.30458 -1.30458,1.30458 -1.48968,0.73306 -1.48968,0.73305 -13.40255,0.0838 -13.40254,0.0837 v -28.90887 -28.90888 l -20.36522,15.32127 -20.36523,15.32127 -20.25981,-15.24797 -20.259808,-15.24798 -0.256472,-0.0998 -0.256472,-0.0998 v 28.92653 28.92654 l -12.803548,-0.0258 -12.803548,-0.0258 -0.750685,-0.22834 z"
       id="path3195" /><path
       style="fill:#75a5f6;stroke-width:0.299498"
       d="m 56.580811,180.10873 -0.750684,-0.22835 -1.046305,-0.53904 -1.046305,-0.53904 -0.956895,-0.72734 -0.956895,-0.72734 -0.900044,-1.40259 -0.900044,-1.4026 -0.464172,-1.78208 -0.464172,-1.78208 0.0044,-44.63718 0.0044,-44.637179 0.452308,-1.918865 0.452309,-1.918864 0.965881,-1.824817 0.965881,-1.824818 1.798252,-1.797035 1.798252,-1.797035 2.020676,-0.9766 2.020676,-0.976601 1.557109,-0.33394 1.55711,-0.33394 2.710414,0.150375 2.710414,0.150375 1.61149,0.622136 1.61149,0.622136 1.083994,0.717362 1.083993,0.717362 25.0081,18.815836 25.008106,18.815832 0.44924,-0.007 0.44925,-0.007 25.45735,-19.105749 25.45735,-19.105749 1.79699,-0.848317 1.79698,-0.848317 2.32112,-0.360466 2.32111,-0.360466 2.28141,0.354683 2.28141,0.354683 1.92258,0.917564 1.92258,0.917564 1.93686,1.811834 1.93686,1.811834 1.05127,2.13596 1.05128,2.135959 0.44682,2.160562 0.44682,2.160565 -0.0766,45.010406 -0.0766,45.01037 -0.79972,1.70609 -0.79971,1.7061 -1.30459,1.30458 -1.30458,1.30458 -1.48968,0.73306 -1.48968,0.73305 -13.40255,0.0838 -13.40254,0.0837 v -28.90887 -28.90888 l -20.36522,15.32127 -20.36523,15.32127 -20.25981,-15.24797 -20.259808,-15.24798 -0.256472,-0.0998 -0.256472,-0.0998 v 28.92653 28.92654 l -12.803548,-0.0258 -12.803548,-0.0258 -0.750685,-0.22834 z"
       id="path3193" /><path
       style="fill:#f1948b;stroke-width:0.299498"
       d="m 56.433001,179.96962 -1.197993,-0.37887 -0.929714,-0.4847 -0.929713,-0.4847 -1.466272,-1.61065 -1.466272,-1.61064 -0.598997,-1.47409 -0.598996,-1.4741 -0.07759,-45.3156 -0.07759,-45.315597 0.457862,-1.974262 0.457862,-1.974264 0.967471,-1.8278 0.967471,-1.8278 1.798252,-1.797035 1.798252,-1.797035 2.020676,-0.9766 2.020676,-0.976601 1.557109,-0.33394 1.55711,-0.33394 2.710414,0.150375 2.710414,0.150375 1.61149,0.622136 1.61149,0.622136 1.083994,0.717362 1.083993,0.717362 25.0081,18.815836 25.0081,18.815832 0.44924,-0.007 0.44925,-0.007 25.45735,-19.105749 25.45735,-19.105749 1.79699,-0.848317 1.79698,-0.848317 2.32112,-0.360466 2.32111,-0.360466 2.28141,0.354683 2.28141,0.354683 1.92258,0.917564 1.92258,0.917564 1.93686,1.811834 1.93686,1.811834 1.05127,2.13596 1.05128,2.135959 0.44682,2.160562 0.44682,2.160565 -0.0766,45.010406 -0.0766,45.01037 -0.79972,1.70609 -0.79971,1.7061 -1.30459,1.30458 -1.30458,1.30458 -1.48968,0.73306 -1.48968,0.73305 -13.40255,0.0838 -13.40254,0.0837 v -28.90887 -28.90888 l -20.36522,15.32127 -20.36523,15.32127 -20.25981,-15.24797 -20.259802,-15.24798 -0.256472,-0.0998 -0.256472,-0.0998 v 28.92653 28.92654 l -12.653799,-0.02 -12.653799,-0.02 -1.197993,-0.37887 z"
       id="path3191" /><path
       style="fill:#f18c83;stroke-width:0.299498"
       d="m 56.433001,179.96962 -1.197993,-0.37887 -0.929714,-0.4847 -0.929713,-0.4847 -1.466272,-1.61065 -1.466272,-1.61064 -0.598997,-1.47409 -0.598996,-1.4741 -0.07759,-45.06704 -0.07759,-45.067032 0.278297,-1.504937 0.278297,-1.504936 0.652534,-1.743774 0.652534,-1.743773 1.416104,-1.844767 1.416104,-1.844767 1.821747,-1.246682 1.821748,-1.246682 1.749121,-0.701078 1.749121,-0.701077 3.593978,0.0079 3.593979,0.0079 2.00718,0.837409 2.00718,0.83741 6.828017,5.146095 6.828017,5.146095 18.868388,14.206464 18.86839,14.206462 0.44924,-0.007 0.44925,-0.007 25.45735,-19.118571 25.45735,-19.118571 1.79699,-0.844451 1.79698,-0.844451 2.32112,-0.360466 2.32111,-0.360466 2.28141,0.354683 2.28141,0.354683 1.92258,0.917564 1.92258,0.917564 1.93686,1.811834 1.93686,1.811833 1.05127,2.13596 1.05128,2.13596 0.44682,2.160562 0.44682,2.160565 -0.0766,45.010398 -0.0766,45.01041 -0.79972,1.70609 -0.79971,1.7061 -1.30459,1.30458 -1.30458,1.30458 -1.48968,0.73306 -1.48968,0.73305 -13.40255,0.0838 -13.40254,0.0837 V 151.48534 122.56435 L 144.33572,137.89497 123.96984,153.22558 103.61796,137.9055 83.266069,122.58541 H 83.10233 82.938592 v 28.90158 28.90158 l -12.653799,-0.02 -12.653799,-0.02 -1.197993,-0.37887 z"
       id="path3189" /><path
       style="fill:#669bf4;stroke-width:0.299498"
       d="m 56.433001,179.96962 -1.197993,-0.37887 -0.929714,-0.4847 -0.929713,-0.4847 -1.466272,-1.60717 -1.466272,-1.60717 -0.598997,-1.62732 -0.598996,-1.62732 V 126.32914 80.505918 l 0.560271,-1.64724 0.56027,-1.64724 0.905013,-1.608522 0.905012,-1.608521 1.576145,-1.576145 1.576145,-1.576145 2.121148,-1.061167 2.121149,-1.061167 1.725882,-0.358545 1.725882,-0.358544 2.545735,0.15101 2.545735,0.15101 1.977131,0.798556 1.977131,0.798557 5.809822,4.376614 5.809822,4.376613 19.910453,14.991156 19.91044,14.991162 0.45543,-0.004 0.45543,-0.004 25.45735,-19.124616 25.45735,-19.124617 1.79699,-0.844533 1.79698,-0.844532 2.32112,-0.360467 2.32111,-0.360466 2.28141,0.354683 2.28141,0.354684 1.92258,0.917563 1.92258,0.917564 1.93686,1.811834 1.93686,1.811834 1.05127,2.13596 1.05128,2.135959 0.44682,2.160562 0.44682,2.160565 -0.0766,45.010403 -0.0766,45.0104 -0.79972,1.70609 -0.79971,1.7061 -1.30459,1.30458 -1.30458,1.30458 -1.48968,0.73306 -1.48968,0.73305 -13.40255,0.0838 -13.40254,0.0837 v -28.92185 -28.92186 l -20.36588,15.31478 -20.36588,15.31477 -20.35071,-15.30337 -20.350713,-15.30338 h -0.164913 -0.164912 v 28.90158 28.90158 l -12.653799,-0.02 -12.653799,-0.02 -1.197993,-0.37887 z"
       id="path3187" /><path
       style="fill:#8acc9c;stroke-width:0.299498"
       d="m 56.964328,180.0731 -1.265662,-0.24983 -1.354115,-0.79357 -1.354115,-0.79356 -1.188838,-1.35059 -1.188837,-1.35059 -0.5753,-1.54155 -0.575299,-1.54154 -0.08311,-46.12273 -0.08311,-46.12272 0.627303,-1.707625 0.627303,-1.707625 0.829392,-1.415252 0.829393,-1.415251 1.559281,-1.559281 1.559281,-1.559281 2.121148,-1.061167 2.121149,-1.061167 1.725882,-0.358545 1.725882,-0.358544 2.545735,0.15101 2.545735,0.15101 1.977131,0.798556 1.977131,0.798557 5.809822,4.376614 5.809822,4.376613 19.910448,14.991156 19.91044,14.991162 0.45543,-0.004 0.45543,-0.004 25.45735,-19.124616 25.45735,-19.124617 1.79699,-0.844533 1.79698,-0.844532 2.32112,-0.360467 2.32111,-0.360466 2.28141,0.354683 2.28141,0.354684 1.92258,0.917563 1.92258,0.917564 1.93686,1.811834 1.93686,1.811834 1.05127,2.13596 1.05128,2.135959 0.44682,2.160562 0.44682,2.160565 -0.0766,45.010403 -0.0766,45.0104 -0.79972,1.70609 -0.79971,1.7061 -1.30459,1.30458 -1.30458,1.30458 -1.48968,0.73306 -1.48968,0.73305 -13.40255,0.0838 -13.40254,0.0837 v -28.92185 -28.92186 l -20.36588,15.31478 -20.36588,15.31477 -20.35071,-15.30337 -20.350708,-15.30338 h -0.164913 -0.164912 v 28.90158 28.90158 l -12.354301,-0.0328 -12.354301,-0.0328 z"
       id="path3185" /><path
       style="fill:#ed8577;stroke-width:0.299498"
       d="m 56.964328,180.0731 -1.265662,-0.24983 -1.354115,-0.79357 -1.354115,-0.79356 -1.188838,-1.35059 -1.188837,-1.35059 -0.5753,-1.54155 -0.575299,-1.54154 -0.08311,-46.12273 -0.08311,-46.12272 0.627303,-1.707625 0.627303,-1.707625 0.829392,-1.415252 0.829393,-1.415251 1.559281,-1.559281 1.559281,-1.559281 2.121148,-1.061167 2.121149,-1.061167 1.725882,-0.358545 1.725882,-0.358544 2.545735,0.15101 2.545735,0.15101 1.977131,0.798556 1.977131,0.798557 5.809822,4.376614 5.809822,4.376613 19.910448,14.991156 19.91044,14.991162 0.45543,-0.004 0.45543,-0.004 25.45735,-19.124616 25.45735,-19.124617 1.79699,-0.844533 1.79698,-0.844532 2.32112,-0.360467 2.32111,-0.360466 2.28141,0.354683 2.28141,0.354684 1.92258,0.917563 1.92258,0.917564 1.93686,1.811834 1.93686,1.811834 1.05099,2.13596 1.05099,2.135959 0.43864,2.096488 0.43865,2.096487 0.008,44.184135 0.008,44.18413 -0.46516,1.78588 -0.46515,1.78588 -0.90005,1.4026 -0.90004,1.40259 -0.9569,0.72852 -0.95689,0.72851 -1.34774,0.71708 -1.34774,0.71709 -13.2528,0.0866 -13.2528,0.0866 v -28.91334 -28.91335 h -0.16491 -0.16491 l -20.35071,15.30338 -20.3507,15.30337 -20.35071,-15.30337 -20.350718,-15.30338 h -0.164913 -0.164912 v 28.90158 28.90158 l -12.354301,-0.0328 -12.354301,-0.0328 z"
       id="path3183" /><path
       style="fill:#fac328;stroke-width:0.299498"
       d="m 56.964328,180.0731 -1.265662,-0.24983 -1.354115,-0.79357 -1.354115,-0.79356 -1.188838,-1.35059 -1.188837,-1.35059 -0.574714,-1.54155 -0.574713,-1.54154 -0.09986,-45.82323 -0.09986,-45.823224 0.540798,-1.796989 0.540798,-1.796989 0.914559,-1.607403 0.914559,-1.607403 1.584609,-1.559494 1.58461,-1.559493 1.767114,-0.941862 1.767114,-0.941862 1.760643,-0.458589 1.760643,-0.45859 2.108438,0.0036 2.108438,0.0036 1.497491,0.404341 1.497491,0.40434 1.181781,0.499828 1.181781,0.499828 25.557586,19.23353 25.557583,19.233531 0.4401,0.29797 0.44009,0.29796 0.43246,-0.29796 0.43244,-0.29797 25.09744,-18.868386 25.09744,-18.868386 1.94907,-0.973659 1.94907,-0.973659 2.32112,-0.352905 2.32111,-0.352905 2.28141,0.354683 2.28141,0.354683 1.92258,0.917564 1.92258,0.917564 1.93686,1.811834 1.93686,1.811834 1.05099,2.135959 1.05099,2.13596 0.43864,2.096487 0.43865,2.096488 0.008,44.184134 0.008,44.18413 -0.46516,1.78588 -0.46516,1.78588 -0.90005,1.4026 -0.90004,1.40259 -0.9569,0.72852 -0.95689,0.72851 -1.34774,0.71708 -1.34774,0.71709 -13.2528,0.0866 -13.2528,0.0866 v -28.91334 -28.91334 h -0.202 -0.20201 l -4.21559,3.19246 -4.21557,3.19247 -16.09803,12.08901 -16.09803,12.089 -16.09802,-12.089 -16.098035,-12.08901 -4.215592,-3.19247 -4.215593,-3.19247 h -0.202006 -0.202005 v 28.90158 28.90158 l -12.354301,-0.0328 -12.354301,-0.0328 z"
       id="path3181" /><path
       style="fill:#f7ba22;stroke-width:0.299498"
       d="m 56.964328,180.0731 -1.265662,-0.24983 -1.354115,-0.79357 -1.354115,-0.79356 -1.188838,-1.35059 -1.188837,-1.35059 -0.574714,-1.54155 -0.574713,-1.54154 -0.09986,-45.82323 -0.09986,-45.823224 0.540798,-1.796989 0.540798,-1.796989 0.914559,-1.607403 0.914559,-1.607403 1.584609,-1.559494 1.58461,-1.559493 1.767114,-0.941862 1.767114,-0.941862 1.760643,-0.458589 1.760643,-0.45859 2.108438,0.0036 2.108438,0.0036 1.497491,0.404341 1.497491,0.40434 1.181781,0.499828 1.181781,0.499828 25.557586,19.23353 25.557583,19.233531 0.4401,0.29797 0.44009,0.29796 0.43462,-0.29796 0.43462,-0.29797 19.94394,-14.974909 19.94395,-14.97491 5.30039,-3.981481 5.3004,-3.981481 1.51987,-0.743606 1.51988,-0.743605 2.37661,-0.488026 2.37662,-0.488027 2.38792,0.344744 2.38792,0.344744 2.10456,1.008241 2.10455,1.00824 1.47593,1.311902 1.47593,1.311902 1.1491,1.777878 1.1491,1.777878 0.66893,1.968341 0.66894,1.968341 0.0846,45.031304 0.0846,45.0313 -0.46888,1.83021 -0.46888,1.8302 -0.90453,1.40959 -0.90454,1.4096 -0.95689,0.72852 -0.9569,0.72851 -1.34774,0.71708 -1.34774,0.71709 -13.2528,0.0866 -13.25279,0.0866 v -28.91334 -28.91334 h -0.20201 -0.202 l -4.2156,3.19246 -4.21559,3.19247 -16.09803,12.08901 -16.09803,12.089 -16.09802,-12.089 -16.098035,-12.08901 -4.215592,-3.19247 -4.215593,-3.19247 h -0.202006 -0.202005 v 28.90158 28.90158 l -12.354301,-0.0328 -12.354301,-0.0328 z"
       id="path3179" /><path
       style="fill:#ee756a;stroke-width:0.299498"
       d="m 56.964328,180.0731 -1.265662,-0.24983 -1.354115,-0.79357 -1.354115,-0.79356 -1.188838,-1.35059 -1.188837,-1.35059 -0.574714,-1.54155 -0.574713,-1.54154 -0.09986,-45.82323 -0.09986,-45.823224 0.540798,-1.796989 0.540798,-1.796989 0.914559,-1.607403 0.914559,-1.607403 1.584609,-1.559494 1.58461,-1.559493 1.767114,-0.941862 1.767114,-0.941862 1.760643,-0.458589 1.760643,-0.45859 2.108438,0.0036 2.108438,0.0036 1.497491,0.404341 1.497491,0.40434 1.181781,0.499828 1.181781,0.499828 25.557586,19.23353 25.557583,19.233531 0.4401,0.29797 0.44009,0.29796 0.43462,-0.29796 0.43462,-0.29797 19.95145,-14.974909 19.95144,-14.97491 5.29591,-3.973492 5.29591,-3.973492 1.51686,-0.751595 1.51686,-0.751594 2.35537,-0.48033 2.35538,-0.48033 2.41722,0.341402 2.41723,0.341403 2.19606,1.042379 2.19606,1.042378 1.84989,1.874897 1.8499,1.874897 0.81103,1.519913 0.81104,1.519912 0.49043,1.774568 0.49043,1.774568 0.15603,44.774985 0.15603,44.77498 -0.49729,1.93677 -0.49729,1.93678 -0.90453,1.40959 -0.90454,1.4096 -0.95689,0.72852 -0.9569,0.72851 -1.34774,0.71708 -1.34774,0.71709 -13.2528,0.0866 -13.25279,0.0866 v -28.91334 -28.91334 h -0.20201 -0.202 l -4.2156,3.19246 -4.21559,3.19247 -16.09803,12.08901 -16.09803,12.089 -16.09802,-12.089 -16.098035,-12.08901 -4.215592,-3.19247 -4.215593,-3.19247 h -0.202006 -0.202005 v 28.90158 28.90158 l -12.354301,-0.0328 -12.354301,-0.0328 z"
       id="path3177" /><path
       style="fill:#f6bb16;stroke-width:0.299498"
       d="m 56.964328,180.0731 -1.265662,-0.24983 -1.354115,-0.79357 -1.354115,-0.79356 -1.188838,-1.35059 -1.188837,-1.35059 -0.574714,-1.54155 -0.574713,-1.54154 -0.09986,-45.82323 -0.09986,-45.823224 0.540798,-1.796989 0.540798,-1.796989 0.914559,-1.607403 0.914559,-1.607403 1.584609,-1.559494 1.58461,-1.559493 1.767114,-0.941862 1.767114,-0.941862 1.760643,-0.458589 1.760643,-0.45859 2.108438,0.0017 2.108438,0.0017 1.197992,0.3176 1.197993,0.3176 1.347742,0.491114 1.347742,0.491114 10.781935,8.117395 10.781935,8.117395 15.187904,11.4381 15.1879,11.43809 h 0.29807 0.29806 l 25.54529,-19.179484 25.54529,-19.179489 1.51686,-0.745131 1.51686,-0.74513 2.35537,-0.48033 2.35538,-0.48033 2.41722,0.341403 2.41723,0.341402 2.19606,1.042379 2.19606,1.042378 1.84989,1.874897 1.8499,1.874897 0.81103,1.519913 0.81104,1.519912 0.49043,1.774568 0.49043,1.774568 0.15603,44.774977 0.15603,44.77498 -0.49729,1.93678 -0.49729,1.93677 -0.90453,1.4096 -0.90454,1.40961 -0.95689,0.72851 -0.9569,0.72851 -1.34774,0.71709 -1.34774,0.71708 -13.2528,0.0866 -13.25279,0.0866 V 151.49874 122.5854 h -0.2146 -0.21459 l -20.30103,15.27708 -20.30104,15.27708 -20.30103,-15.27709 -20.301037,-15.27709 h -0.214591 -0.214593 v 28.90158 28.90158 l -12.354301,-0.0328 -12.354301,-0.0328 z"
       id="path3175" /><path
       style="fill:#727ad8;stroke-width:0.299498"
       d="m 56.964328,180.0731 -1.265662,-0.24983 -1.354115,-0.79357 -1.354115,-0.79356 -1.188838,-1.35059 -1.188837,-1.35059 -0.574714,-1.54155 -0.574713,-1.54154 -0.09986,-45.82323 -0.09986,-45.823224 0.540798,-1.796989 0.540798,-1.796989 0.914559,-1.607403 0.914559,-1.607403 1.584609,-1.559494 1.58461,-1.559493 1.767114,-0.941862 1.767114,-0.941862 1.760643,-0.458589 1.760643,-0.45859 2.108438,0.0017 2.108438,0.0017 1.197992,0.3176 1.197993,0.3176 1.347742,0.491114 1.347742,0.491114 10.781935,8.117395 10.781935,8.117395 15.187904,11.4381 15.1879,11.43809 h 0.31527 0.31527 l 20.43876,-15.34929 20.43877,-15.349283 5.08932,-3.783745 5.08932,-3.783745 1.49749,-0.742594 1.49749,-0.742594 1.64724,-0.395448 1.64724,-0.395448 h 1.94674 1.94674 l 1.64724,0.390762 1.64724,0.390762 1.64724,0.865466 1.64724,0.865466 1.39105,1.191023 1.39105,1.191022 1.12611,1.696554 1.12611,1.696554 0.7416,2.275474 0.74159,2.275473 0.14843,44.774981 0.14842,44.77498 -0.49751,1.93677 -0.49751,1.93678 -0.90453,1.40959 -0.90454,1.4096 -0.95689,0.72852 -0.9569,0.72851 -1.34774,0.71709 -1.34774,0.71709 -13.2528,0.0866 -13.25279,0.0866 v -28.91334 -28.91335 h -0.2146 -0.21459 L 144.27088,137.8625 123.96984,153.13959 103.66881,137.8625 83.367776,122.58541 h -0.214591 -0.214593 v 28.90158 28.90158 l -12.354301,-0.0328 -12.354301,-0.0328 z"
       id="path3173" /><path
       style="fill:#8771c5;stroke-width:0.299498"
       d="m 56.964328,180.0731 -1.265662,-0.24983 -1.354115,-0.79357 -1.354115,-0.79356 -1.188838,-1.35059 -1.188837,-1.35059 -0.574714,-1.54155 -0.574713,-1.54154 -0.09986,-45.82323 -0.09986,-45.823224 0.540798,-1.796989 0.540798,-1.796989 0.914559,-1.607403 0.914559,-1.607403 1.584609,-1.559494 1.58461,-1.559493 1.767114,-0.941862 1.767114,-0.941862 1.760643,-0.458589 1.760643,-0.45859 2.108438,0.0017 2.108438,0.0017 1.197992,0.3176 1.197993,0.3176 1.347742,0.491114 1.347742,0.491114 10.781935,8.117395 10.781935,8.117395 15.187904,11.4381 15.1879,11.43809 h 0.31527 0.31527 l 20.43876,-15.34929 20.43877,-15.349283 5.08932,-3.783745 5.08932,-3.783745 1.49749,-0.742594 1.49749,-0.742594 1.64724,-0.395448 1.64724,-0.395448 h 1.94674 1.94674 l 1.64724,0.390762 1.64724,0.390762 1.64724,0.865466 1.64724,0.865466 1.39105,1.191023 1.39105,1.191022 1.12611,1.696554 1.12611,1.696554 0.7416,2.275474 0.74159,2.275473 0.14843,44.774981 0.14842,44.77498 -0.49751,1.93677 -0.49751,1.93678 -0.90453,1.40959 -0.90454,1.4096 -0.95689,0.72852 -0.9569,0.72851 -1.34774,0.71709 -1.34774,0.71709 -13.2528,0.0866 -13.25279,0.0866 v -28.91334 -28.91335 h -0.2146 -0.21459 l -20.30199,15.27781 -20.302,15.2778 -19.84079,-14.9284 -19.8408,-14.92841 -0.748745,-0.48457 -0.748746,-0.48457 0.07782,29.03675 0.07782,29.03674 -12.357244,-0.0328 -12.357243,-0.0328 z"
       id="path3171" /><path
       style="fill:#f3a028;stroke-width:0.299498"
       d="m 56.964328,180.0731 -1.265662,-0.24983 -1.354115,-0.79357 -1.354115,-0.79356 -1.188838,-1.35059 -1.188837,-1.35059 -0.574714,-1.54155 -0.574713,-1.54154 -0.09986,-45.82323 -0.09986,-45.823224 0.540798,-1.796989 0.540798,-1.796989 0.914559,-1.607403 0.914559,-1.607403 1.584609,-1.559494 1.58461,-1.559493 1.767114,-0.941862 1.767114,-0.941862 1.760643,-0.458589 1.760643,-0.45859 2.108438,0.0017 2.108438,0.0017 1.197992,0.3176 1.197993,0.3176 1.347742,0.491114 1.347742,0.491114 10.781935,8.117395 10.781935,8.117395 15.187904,11.4381 15.1879,11.43809 h 0.31527 0.31527 l 20.43876,-15.34929 20.43877,-15.349283 5.08932,-3.783745 5.08932,-3.783745 1.49749,-0.742594 1.49749,-0.742594 1.64724,-0.395448 1.64724,-0.395448 h 1.94674 1.94674 l 1.64724,0.390762 1.64724,0.390762 1.64724,0.865466 1.64724,0.865466 1.39105,1.191023 1.39105,1.191022 1.12611,1.696554 1.12611,1.696554 0.7416,2.275474 0.74159,2.275473 0.14843,44.774981 0.14842,44.77498 -0.49751,1.93677 -0.49751,1.93678 -0.90453,1.40959 -0.90454,1.4096 -0.95689,0.72852 -0.9569,0.72851 -1.34774,0.71709 -1.34774,0.71709 -13.2528,0.0866 -13.25279,0.0866 v -28.91334 -28.91335 h -0.2146 -0.21459 l -20.30199,15.27781 -20.302,15.2778 -19.84079,-14.91953 -19.8408,-14.91952 -1.048243,-0.70625 -1.048244,-0.70625 0.374373,0.40787 0.374373,0.40786 v 28.84168 28.84168 l -12.354301,-0.0328 -12.354301,-0.0328 z"
       id="path3169" /><path
       style="fill:#c16791;stroke-width:0.299498"
       d="m 56.964328,180.0731 -1.265662,-0.24983 -1.354115,-0.79357 -1.354115,-0.79356 -1.188838,-1.35059 -1.188837,-1.35059 -0.574714,-1.54155 -0.574713,-1.54154 -0.09986,-45.82323 -0.09986,-45.823224 0.540798,-1.796989 0.540798,-1.796989 0.914559,-1.607403 0.914559,-1.607403 1.584609,-1.559494 1.58461,-1.559493 1.767114,-0.941862 1.767114,-0.941862 1.760643,-0.458589 1.760643,-0.45859 2.108438,0.0017 2.108438,0.0017 1.197992,0.3176 1.197993,0.3176 1.347742,0.491114 1.347742,0.491114 10.781935,8.117395 10.781935,8.117395 15.187904,11.4381 15.1879,11.43809 h 0.31793 0.31792 l 20.13446,-15.155013 20.13446,-15.155032 0.0768,21.893725 0.0768,21.89373 h 0.27988 0.27988 l 0.21369,-0.34578 0.21371,-0.34577 -0.34578,0.2137 -0.34577,0.2137 V 100.15789 78.294014 l 5.16634,-3.876885 5.16635,-3.876885 1.49749,-0.741495 1.49749,-0.741495 1.64724,-0.395448 1.64724,-0.395448 h 1.94674 1.94674 l 1.64724,0.390762 1.64724,0.390762 1.64724,0.865466 1.64724,0.865466 1.39105,1.191023 1.39105,1.191022 1.12611,1.696554 1.12611,1.696554 0.7416,2.275474 0.74159,2.275473 0.14843,44.774986 0.14842,44.77498 -0.49751,1.93677 -0.49751,1.93678 -0.90453,1.40959 -0.90454,1.4096 -0.95689,0.72852 -0.9569,0.72851 -1.34774,0.71708 -1.34774,0.71709 -13.2528,0.0866 -13.25279,0.0866 v -28.91334 -28.91335 h -0.2146 -0.21459 l -20.30199,15.27781 -20.302,15.27781 -19.84079,-14.91953 -19.8408,-14.91952 -1.048243,-0.70625 -1.048244,-0.70625 0.374373,0.40787 0.374373,0.40786 v 28.84168 28.84168 l -12.354301,-0.0328 -12.354301,-0.0328 z"
       id="path3167" /><path
       style="fill:#d9716d;stroke-width:0.299498"
       d="m 56.964328,180.0731 -1.265662,-0.24983 -1.354115,-0.79357 -1.354115,-0.79356 -1.188838,-1.35059 -1.188837,-1.35059 -0.574948,-1.54155 -0.574947,-1.54154 -0.0989,-45.82323 -0.0989,-45.823224 0.540072,-1.796989 0.540071,-1.796989 0.914559,-1.607403 0.914559,-1.607403 1.584609,-1.559494 1.58461,-1.559493 1.767114,-0.941862 1.767114,-0.941862 1.760643,-0.458589 1.760643,-0.45859 2.108438,0.0017 2.108438,0.0017 1.197992,0.3176 1.197993,0.3176 1.347742,0.491114 1.347742,0.491114 10.781935,8.117395 10.781935,8.117395 15.187905,11.4381 15.1879,11.43809 h 0.31793 0.31792 l 20.13446,-15.155013 20.13446,-15.155032 0.0768,21.893725 0.0768,21.89373 h 0.27988 0.27988 l 0.21369,-0.34578 0.21371,-0.34577 -0.34578,0.2137 -0.34577,0.2137 V 100.15789 78.294014 l 5.16634,-3.876885 5.16635,-3.876885 1.49749,-0.741495 1.49749,-0.741495 1.64724,-0.395448 1.64724,-0.395448 h 1.94674 1.94674 l 1.64724,0.390762 1.64724,0.390762 1.64724,0.865466 1.64724,0.865466 1.39105,1.191023 1.39105,1.191022 1.12611,1.696554 1.12611,1.696554 0.7416,2.275474 0.74159,2.275473 0.14843,44.774986 0.14842,44.77498 -0.49751,1.93677 -0.49751,1.93678 -0.90453,1.40959 -0.90454,1.4096 -0.95689,0.72852 -0.9569,0.72851 -1.34774,0.71708 -1.34774,0.71709 -13.2528,0.0866 -13.25279,0.0866 v -28.91334 -28.91335 h -0.2146 -0.21459 l -20.30151,15.27745 -20.30151,15.27745 -20.44028,-15.373 -20.440273,-15.37299 -0.449248,-0.24789 -0.449247,-0.24789 0.374373,0.40334 0.374373,0.40333 v 28.84168 28.84168 l -12.354301,-0.0328 -12.354301,-0.0328 z"
       id="path3165" /><path
       style="fill:#fabb02;stroke-width:0.299498"
       d="m 56.964328,180.0731 -1.265662,-0.24983 -1.354115,-0.79357 -1.354115,-0.79356 -1.188838,-1.35059 -1.188837,-1.35059 -0.575922,-1.54155 -0.575922,-1.54154 -0.09043,-45.82323 -0.09043,-45.823224 0.384599,-1.347742 0.384599,-1.347742 1.057982,-2.022329 1.057982,-2.02233 1.921404,-1.797379 1.921404,-1.79738 1.479613,-0.749776 1.479613,-0.749777 1.877601,-0.442682 1.877601,-0.442683 1.531487,-0.0044 1.531487,-0.0044 1.611947,0.3057 1.611946,0.305699 1.827172,0.855037 1.827173,0.855038 9.10581,6.867819 9.105809,6.867821 16.387594,12.337319 16.3876,12.337321 h 0.31622 0.31622 l 20.13446,-15.155018 20.13446,-15.155018 0.0768,21.893726 0.0768,21.89373 h 0.27988 0.27988 l 0.21369,-0.34578 0.21371,-0.34577 -0.34578,0.2137 -0.34577,0.2137 V 100.15789 78.294014 l 5.16634,-3.876885 5.16635,-3.876885 1.49749,-0.741495 1.49749,-0.741495 1.64724,-0.395448 1.64724,-0.395448 h 1.94674 1.94674 l 1.64724,0.390762 1.64724,0.390762 1.64724,0.865466 1.64724,0.865466 1.39105,1.191023 1.39105,1.191022 1.12611,1.696554 1.12611,1.696554 0.7416,2.275474 0.74159,2.275473 0.14843,44.774986 0.14842,44.77498 -0.49751,1.93677 -0.49751,1.93678 -0.90453,1.40959 -0.90454,1.4096 -0.95689,0.72852 -0.9569,0.72851 -1.34774,0.71708 -1.34774,0.71709 -13.2528,0.0866 -13.25279,0.0866 v -28.91334 -28.91335 h -0.2146 -0.21459 l -20.30151,15.27745 -20.30151,15.27745 -20.44028,-15.373 -20.440267,-15.37299 -0.449248,-0.24789 -0.449247,-0.24789 0.374373,0.40334 0.374373,0.40333 v 28.84168 28.84168 l -12.354301,-0.0328 -12.354301,-0.0328 z"
       id="path3163" /><path
       style="fill:#4184f2;stroke-width:0.299498"
       d="m 56.964328,180.0731 -1.265662,-0.24983 -1.354115,-0.79357 -1.354115,-0.79356 -1.188838,-1.35059 -1.188837,-1.35059 -0.575922,-1.54155 -0.575922,-1.54154 -0.09043,-45.82323 -0.09043,-45.823224 0.384599,-1.347742 0.384599,-1.347742 1.057982,-2.022329 1.057982,-2.02233 1.921404,-1.797379 1.921404,-1.79738 1.479613,-0.749776 1.479613,-0.749777 1.877601,-0.442682 1.877601,-0.442683 1.531487,-0.0044 1.531487,-0.0044 1.611947,0.3057 1.611946,0.305699 1.827172,0.855037 1.827173,0.855038 9.10581,6.867819 9.105809,6.867821 16.387594,12.337319 16.3876,12.337321 h 0.31622 0.31622 l 20.13446,-15.155018 20.13446,-15.155018 0.0768,21.893726 0.0768,21.89373 h 0.15807 0.15807 l 16.70182,-12.57893 16.70182,-12.578918 h 0.20956 0.20956 v 36.925098 36.9251 l -0.46417,1.78208 -0.46417,1.78208 -0.90004,1.4026 -0.90005,1.40259 -0.95689,0.72852 -0.9569,0.72851 -1.34774,0.71708 -1.34774,0.71709 -13.2528,0.0866 -13.25279,0.0866 v -28.91334 -28.91335 h -0.2146 -0.21459 l -20.30151,15.27745 -20.30151,15.27745 -20.44028,-15.373 -20.440267,-15.37299 -0.449248,-0.24789 -0.449247,-0.24789 0.374373,0.40334 0.374373,0.40333 v 28.84168 28.84168 l -12.354301,-0.0328 -12.354301,-0.0328 z"
       id="path3161" /><path
       style="fill:#70c186;stroke-width:0.299498"
       d="m 165.0011,151.49876 v -28.91335 h -0.2146 -0.21459 l -20.30151,15.27745 -20.30151,15.27745 -20.44028,-15.373 -20.440269,-15.37299 -0.449248,-0.26144 -0.449247,-0.26144 0.449247,0.58161 0.449248,0.58161 -0.449248,-0.32335 -0.449247,-0.32334 -1.946738,-1.43537 -1.946739,-1.43537 -1.017012,-1.08651 -1.017012,-1.08652 0.418016,0.59849 0.418016,0.5985 -1.197993,-0.8582 -1.197993,-0.8582 -1.017012,-1.08804 -1.017012,-1.08804 0.418016,0.599 0.418015,0.599 -0.598996,-0.42355 -0.598997,-0.42355 -1.017012,-1.07394 -1.017012,-1.07395 0.418016,0.5985 0.418016,0.59849 -1.197993,-0.85819 -1.197993,-0.8582 -1.017012,-1.08804 -1.017012,-1.08804 0.418016,0.58729 0.418015,0.5873 -0.964312,-0.67611 -0.964312,-0.67612 -0.210288,-0.36043 -0.210288,-0.36043 0.725353,0.599 0.725353,0.599 -0.5801,-0.68444 -0.580099,-0.68443 -0.371372,0.14251 -0.371373,0.14251 -0.39627,-0.50632 -0.39627,-0.50632 0.524122,0.41104 0.524122,0.41105 v -0.14979 -0.14978 l -3.519104,-2.6311 -3.519104,-2.63109 0.598996,0.72259 0.598997,0.7226 -0.598997,-0.46972 -0.598996,-0.46972 -2.321111,-1.71844 -2.321111,-1.71845 v -0.14819 -0.14818 l 1.048244,0.79953 1.048243,0.79953 v -0.14931 -0.14931 l -1.722114,-1.2858 -1.722115,-1.285805 0.598996,0.702584 0.598997,0.702581 -1.64724,-1.202791 -1.647241,-1.202797 -0.369957,-0.720829 -0.369958,-0.720833 -0.0022,-6.888458 -0.0022,-6.888459 0.302077,-1.946738 0.302078,-1.946738 1.188475,-2.432147 1.188474,-2.432146 1.963556,-1.83681 1.963555,-1.83681 1.479613,-0.749776 1.479613,-0.749777 1.877601,-0.442682 1.877601,-0.442683 1.531487,-0.0044 1.531487,-0.0044 1.611947,0.3057 1.611946,0.305699 1.827172,0.855037 1.827173,0.855038 9.10581,6.867819 9.105809,6.867821 16.387601,12.337319 16.3876,12.337321 h 0.31622 0.31622 l 20.13445,-15.155018 20.13446,-15.155018 0.0768,21.893726 0.0768,21.89373 h 0.15807 0.15807 l 16.70182,-12.57893 16.70182,-12.578918 h 0.20956 0.20956 v 36.925098 36.9251 l -0.46417,1.78208 -0.46417,1.78208 -0.90003,1.4026 -0.90005,1.40259 -0.95689,0.72852 -0.9569,0.72851 -1.34774,0.71708 -1.34774,0.71709 -13.2528,0.0866 -13.25279,0.0866 z"
       id="path3159" /><path
       style="fill:#cfb334;stroke-width:0.299498"
       d="m 165.0011,151.49887 v -28.91346 h -0.2146 -0.21459 l -20.30151,15.27745 -20.30151,15.27745 -20.44028,-15.373 -20.440269,-15.37299 -0.449248,-0.26144 -0.449247,-0.26144 0.449247,0.58161 0.449248,0.58161 -0.449248,-0.32335 -0.449247,-0.32334 -1.946738,-1.43537 -1.946739,-1.43537 -1.017012,-1.08651 -1.017012,-1.08652 0.418016,0.59849 0.418016,0.5985 -1.197993,-0.8582 -1.197993,-0.8582 -1.017012,-1.08804 -1.017012,-1.08804 0.418016,0.599 0.418015,0.599 -0.598996,-0.42355 -0.598997,-0.42355 -1.017012,-1.07394 -1.017012,-1.07395 0.418016,0.5985 0.418016,0.59849 -1.197993,-0.85819 -1.197993,-0.8582 -1.017012,-1.08804 -1.017012,-1.08804 0.418016,0.58729 0.418015,0.5873 -0.964312,-0.67611 -0.964312,-0.67612 -0.210288,-0.36043 -0.210288,-0.36043 0.725353,0.599 0.725353,0.599 -0.5801,-0.68444 -0.580099,-0.68443 -0.371372,0.14251 -0.371373,0.14251 -0.39627,-0.50632 -0.39627,-0.50632 0.524122,0.41104 0.524122,0.41105 v -0.14979 -0.14978 l -3.519104,-2.6311 -3.519104,-2.63109 0.598996,0.72259 0.598997,0.7226 -0.598997,-0.46972 -0.598996,-0.46972 -2.321111,-1.71844 -2.321111,-1.71845 v -0.14819 -0.14818 l 1.048244,0.79953 1.048243,0.79953 v -0.14931 -0.14931 l -1.722114,-1.2858 -1.722115,-1.285805 0.598996,0.702584 0.598997,0.702581 -1.64724,-1.202791 -1.647241,-1.202797 -0.369957,-0.720829 -0.369958,-0.720833 -0.0022,-6.888458 -0.0022,-6.888459 0.302077,-1.946738 0.302078,-1.946738 1.188475,-2.432147 1.188474,-2.432146 1.963556,-1.83681 1.963555,-1.83681 1.479613,-0.749776 1.479613,-0.749777 1.877601,-0.442682 1.877601,-0.442683 1.531487,-0.0044 1.531487,-0.0044 1.611947,0.3057 1.611946,0.305699 1.827172,0.855037 1.827173,0.855038 9.10581,6.867819 9.105809,6.867821 16.387601,12.337319 16.3876,12.337321 h 0.31622 0.31622 l 20.13445,-15.155018 20.13446,-15.155018 0.0768,21.893726 0.0768,21.89373 h 0.15868 0.15868 l 16.68355,-12.56655 16.68355,-12.566542 0.23401,0.23401 0.23402,0.234013 -0.0817,37.415499 -0.0817,37.41552 -0.599,1.47893 -0.599,1.47893 -1.56923,1.70245 -1.56923,1.70244 -1.5755,0.7121 -1.5755,0.7121 -13.10305,0.0867 -13.10304,0.0868 z"
       id="path3157" /><path
       style="fill:#9568b4;stroke-width:0.299498"
       d="m 165.0011,151.39669 v -29.01564 l 16.78169,-12.62548 16.78168,-12.625475 0.14679,0.382514 0.14678,0.382513 -0.0817,37.278368 -0.0817,37.27838 -0.599,1.47893 -0.599,1.47893 -1.56923,1.70245 -1.56923,1.70244 -1.5755,0.7121 -1.5755,0.7121 -13.10305,0.0867 -13.10304,0.0868 z m -61.39713,-13.57214 -20.216131,-15.26552 -0.598997,-0.33534 -0.598996,-0.33534 0.449247,0.57316 0.449248,0.57315 -0.449248,-0.32335 -0.449247,-0.32334 -1.946738,-1.43537 -1.946739,-1.43537 -1.017012,-1.08651 -1.017012,-1.08652 0.418016,0.59849 0.418016,0.5985 -1.197993,-0.8582 -1.197993,-0.8582 -1.017012,-1.08804 -1.017012,-1.08804 0.418016,0.599 0.418015,0.599 -0.598996,-0.42355 -0.598997,-0.42355 -1.017012,-1.07394 -1.017012,-1.07395 0.418016,0.5985 0.418016,0.59849 -1.197993,-0.85819 -1.197993,-0.8582 -1.017012,-1.08804 -1.017012,-1.08804 0.418016,0.58729 0.418015,0.5873 -0.964312,-0.67611 -0.964312,-0.67612 -0.210288,-0.36043 -0.210288,-0.36043 0.725353,0.599 0.725353,0.599 -0.5801,-0.68444 -0.580099,-0.68443 -0.371372,0.14251 -0.371373,0.14251 -0.39627,-0.50632 -0.39627,-0.50632 0.524122,0.41104 0.524122,0.41105 v -0.14979 -0.14978 l -3.519104,-2.6311 -3.519104,-2.63109 0.598996,0.72259 0.598997,0.7226 -0.598997,-0.46972 -0.598996,-0.46972 -2.321111,-1.71844 -2.321111,-1.71845 v -0.14819 -0.14818 l 1.048244,0.79953 1.048243,0.79953 v -0.14931 -0.14931 l -1.722114,-1.2858 -1.722115,-1.285805 0.598996,0.702584 0.598997,0.702581 -1.64724,-1.202791 -1.647241,-1.202797 -0.369957,-0.720829 -0.369958,-0.720833 -0.0022,-6.888458 -0.0022,-6.888459 0.302077,-1.946738 0.302078,-1.946738 1.188475,-2.432147 1.188474,-2.432146 1.963556,-1.83681 1.963555,-1.83681 1.479613,-0.749776 1.479613,-0.749777 1.877601,-0.442682 1.877601,-0.442683 1.531487,-0.0044 1.531487,-0.0044 1.611947,0.3057 1.611946,0.305699 1.827172,0.855037 1.827173,0.855038 9.10581,6.867819 9.105809,6.867821 16.387601,12.337319 16.3876,12.337321 h 0.31733 0.31731 l 19.83386,-14.920454 19.83385,-14.920455 0.37438,-0.221879 0.37437,-0.22188 v 21.982898 21.98291 l -20.2546,15.24742 -20.25459,15.24742 -0.18616,0.0528 -0.18615,0.0528 z"
       id="path3155" /><path
       style="fill:#3785f5;stroke-width:0.299498"
       d="m 165.0011,151.39669 v -29.01564 l 16.78169,-12.62548 16.78168,-12.625475 0.14679,0.382514 0.14678,0.382513 -0.0817,37.278368 -0.0817,37.27838 -0.599,1.47893 -0.599,1.47893 -1.56923,1.70245 -1.56923,1.70244 -1.5755,0.7121 -1.5755,0.7121 -13.10305,0.0867 -13.10304,0.0868 z m -61.54688,-13.6918 -20.365879,-15.38554 -0.2423,-0.0167 -0.242297,-0.0167 0.224914,0.37437 0.224917,0.37437 -0.431864,-0.32566 -0.431865,-0.32565 -2.47086,-1.85917 -2.47086,-1.85916 v -0.14975 -0.14975 l 2.321111,1.75603 2.321111,1.75602 0.449247,0.24811 0.449247,0.24811 -0.299498,-0.30301 -0.299498,-0.30301 -8.470743,-6.34143 -8.470744,-6.34143 -0.255644,0.15799 -0.255643,0.158 -0.408308,-0.52082 -0.408308,-0.52084 0.598996,0.44925 0.598997,0.44924 -0.422357,-0.53775 -0.422356,-0.53775 -0.365432,0.14023 -0.365432,0.14023 -1.009201,-0.89696 -1.009201,-0.89695 1.123119,0.8059 1.123118,0.80591 v -0.17384 -0.17383 l -2.47086,-1.84648 -2.470861,-1.84649 -0.449247,-0.33118 -0.449247,-0.33118 0.598996,0.74358 0.598997,0.74359 -0.598997,-0.46972 -0.598996,-0.46972 -2.321111,-1.71844 -2.321111,-1.71845 v -0.13245 -0.13244 l 1.422616,1.04678 1.422617,1.04678 0.82362,0.62494 0.82362,0.62494 v -0.16551 -0.1655 l -3.668853,-2.75106 -3.668853,-2.751058 -0.449247,-0.290517 -0.449248,-0.290519 0.788604,0.71124 0.788604,0.711242 1.008385,0.839733 1.008386,0.839729 -1.197993,-0.823484 -1.197993,-0.823492 -0.66464,-0.583898 -0.664641,-0.583902 0.145404,-0.235268 0.145404,-0.235268 -0.304383,-0.18812 -0.304384,-0.188118 0.0023,-6.94566 0.0023,-6.945657 0.302077,-1.946738 0.302078,-1.946738 1.188475,-2.432147 1.188474,-2.432146 1.963556,-1.83681 1.963555,-1.83681 1.479613,-0.749776 1.479613,-0.749777 1.877601,-0.442682 1.877601,-0.442683 1.531487,-0.0044 1.531487,-0.0044 1.611947,0.3057 1.611946,0.305699 1.827172,0.855037 1.827173,0.855038 9.10581,6.867819 9.105809,6.867821 16.387601,12.337319 16.3876,12.337321 h 0.31733 0.31732 l 19.83385,-14.920454 19.83386,-14.920455 0.37438,-0.221879 0.37437,-0.22188 v 21.982898 21.98291 l -20.25461,15.24742 -20.25458,15.24742 -0.18616,0.053 -0.18615,0.053 z"
       id="path3153" /><path
       style="fill:#ec6559;stroke-width:0.299498"
       d="m 165.0011,151.39669 v -29.01564 l 16.78169,-12.62548 16.78168,-12.625475 0.14679,0.382514 0.14678,0.382513 -0.0817,37.278368 -0.0817,37.27838 -0.599,1.47893 -0.599,1.47893 -1.56923,1.70245 -1.56923,1.70244 -1.5755,0.7121 -1.5755,0.7121 -13.10305,0.0867 -13.10304,0.0868 z M 88.285958,126.37437 52.75182,99.673802 l -1.828263,-1.422304 -1.828262,-1.422302 0.0023,-6.963648 0.0023,-6.963645 0.302077,-1.946738 0.302078,-1.946738 1.188475,-2.432147 1.188474,-2.432146 1.963556,-1.83681 1.963555,-1.83681 1.479613,-0.749776 1.479613,-0.749777 1.877601,-0.442682 1.877601,-0.442683 1.531487,-0.0044 1.531487,-0.0044 1.611947,0.3057 1.611946,0.305699 1.827172,0.855037 1.827173,0.855038 9.10581,6.867819 9.105809,6.867821 16.387601,12.337319 16.3876,12.337321 h 0.31733 0.31731 l 19.83386,-14.920454 19.83386,-14.920455 0.37438,-0.221879 0.37437,-0.22188 v 21.982898 21.98291 l -20.25461,15.24742 -20.25458,15.24742 -0.18616,0.0452 -0.18615,0.0452 z"
       id="path3151" /><path
       style="fill:#b9b03d;stroke-width:0.299498"
       d="m 165.0011,151.39669 v -29.01564 l 16.78169,-12.62548 16.78168,-12.625475 0.14679,0.382514 0.14678,0.382513 -0.0817,37.278368 -0.0817,37.27838 -0.599,1.47893 -0.599,1.47893 -1.56923,1.70245 -1.56923,1.70244 -1.5755,0.7121 -1.5755,0.7121 -13.10305,0.0867 -13.10304,0.0868 z m -41.78832,1.1794 -0.59068,-0.55814 -19.91663,-14.91087 -19.916628,-14.91088 -15.41275,-11.56069 -15.41275,-11.560704 -1.434024,-1.130081 -1.434023,-1.130085 0.0023,-6.956367 0.0023,-6.95637 0.302077,-1.946738 0.302078,-1.946738 1.188475,-2.432147 1.188474,-2.432146 1.963556,-1.83681 1.963555,-1.83681 1.479613,-0.749776 1.479613,-0.749777 1.877601,-0.442682 1.877601,-0.442683 1.531487,-0.0044 1.531487,-0.0044 1.573265,0.298364 1.573264,0.298364 1.73496,0.778603 1.73496,0.778604 5.223497,3.939627 5.223497,3.939628 19.886605,14.942199 19.88661,14.942195 0.67387,0.60904 0.67387,0.60904 0.67388,-0.60863 0.67387,-0.60863 19.31763,-14.467005 19.31763,-14.46701 0.37438,-0.287648 0.37437,-0.287647 v 21.97632 21.97632 l -3.8186,2.88844 -3.8186,2.88844 -16.58373,12.45943 -16.58373,12.45944 h -0.0467 -0.0467 z"
       id="path3149" /><path
       style="fill:#acae42;stroke-width:0.299498"
       d="m 165.0011,151.41978 v -28.99254 l 16.60517,-12.49984 16.60517,-12.499834 h 0.32321 0.32322 l -0.0816,37.512154 -0.0816,37.51215 -0.599,1.47893 -0.599,1.47893 -1.56923,1.70245 -1.56923,1.70244 -1.5755,0.7121 -1.5755,0.7121 -13.10305,0.0867 -13.10304,0.0868 z m -41.78832,1.15631 -0.59068,-0.55814 -19.91663,-14.91087 -19.916628,-14.91088 -15.41275,-11.56069 -15.41275,-11.560704 -1.434024,-1.130081 -1.434023,-1.130085 0.0023,-6.956367 0.0023,-6.95637 0.302077,-1.946738 0.302078,-1.946738 1.188475,-2.432147 1.188474,-2.432146 1.963556,-1.83681 1.963555,-1.83681 1.479613,-0.749776 1.479613,-0.749777 1.877601,-0.442682 1.877601,-0.442683 1.531487,-0.0044 1.531487,-0.0044 1.573265,0.298364 1.573264,0.298364 1.73496,0.778603 1.73496,0.778604 5.223497,3.939627 5.223497,3.939628 19.886605,14.942199 19.88661,14.942195 0.67387,0.60904 0.67387,0.60904 0.67388,-0.60863 0.67387,-0.60863 19.31763,-14.467005 19.31763,-14.46701 0.37438,-0.287648 0.37437,-0.287647 v 21.97632 21.97632 l -3.8186,2.88844 -3.8186,2.88844 -16.58373,12.45943 -16.58373,12.45944 h -0.0467 -0.0467 z"
       id="path3147" /><path
       style="fill:#aa5690;stroke-width:0.299498"
       d="m 165.00162,151.424 6e-4,-28.98833 16.48191,-12.36755 16.48191,-12.367549 0.44597,-0.17114 0.44598,-0.171136 -0.0816,37.546785 -0.0817,37.54679 -0.599,1.47893 -0.599,1.47893 -1.56923,1.70245 -1.56923,1.70244 -1.5755,0.7121 -1.5755,0.7121 -13.10305,0.0867 -13.10304,0.0868 6e-4,-28.98833 z m -41.78884,1.15209 -0.59068,-0.55814 -19.91663,-14.91087 -19.916628,-14.91088 -15.41275,-11.56069 -15.41275,-11.560704 -1.434024,-1.130081 -1.434023,-1.130085 0.0023,-6.956367 0.0023,-6.95637 0.302077,-1.946738 0.302078,-1.946738 1.188475,-2.432147 1.188474,-2.432146 1.963556,-1.83681 1.963555,-1.83681 1.479613,-0.749776 1.479613,-0.749777 1.877601,-0.442682 1.877601,-0.442683 1.531487,-0.0044 1.531487,-0.0044 1.573265,0.298364 1.573264,0.298364 1.73496,0.778603 1.73496,0.778604 5.223497,3.939627 5.223497,3.939628 19.886605,14.942199 19.88661,14.942195 0.67387,0.60904 0.67387,0.60904 0.67388,-0.60863 0.67387,-0.60863 19.31763,-14.467005 19.31763,-14.46701 0.37438,-0.287648 0.37437,-0.287647 v 21.97632 21.97632 l -3.8186,2.88844 -3.8186,2.88844 -16.58373,12.45943 -16.58373,12.45944 h -0.0467 -0.0467 z"
       id="path3145" /><path
       style="fill:#ea5549;stroke-width:0.299498"
       d="m 165.00162,151.424 6e-4,-28.98833 16.48191,-12.36755 16.48191,-12.367549 0.44597,-0.17114 0.44598,-0.171136 -0.0816,37.546785 -0.0817,37.54679 -0.599,1.47893 -0.599,1.47893 -1.56923,1.70245 -1.56923,1.70244 -1.5755,0.7121 -1.5755,0.7121 -13.10305,0.0867 -13.10304,0.0868 6e-4,-28.98833 z m -41.58064,1.33586 -0.36916,-0.37437 -36.903389,-27.70359 -36.903387,-27.703581 -0.08347,-6.888459 -0.08347,-6.888458 0.310611,-2.096488 0.310612,-2.096487 1.190802,-2.432147 1.190801,-2.432146 1.963556,-1.83681 1.963555,-1.83681 1.479613,-0.749776 1.479613,-0.749777 1.877601,-0.442682 1.877601,-0.442683 1.531487,-0.0044 1.531487,-0.0044 1.573265,0.298364 1.573264,0.298364 1.73496,0.778603 1.73496,0.778604 5.223497,3.939627 5.223497,3.939628 19.886614,14.942199 19.88661,14.942195 0.67387,0.60904 0.67387,0.60904 0.67388,-0.60863 0.67387,-0.60863 19.31763,-14.467005 19.31763,-14.46701 0.37438,-0.287648 0.37437,-0.287647 v 21.97632 21.97632 l -3.8186,2.88844 -3.8186,2.88844 -16.58373,12.45943 -16.58373,12.45944 h -0.0534 -0.0534 z"
       id="path3143" /><path
       style="fill:#5cb774;stroke-width:0.299498"
       d="m 165.00162,151.424 6e-4,-28.98833 16.48191,-12.36755 16.48191,-12.367549 0.44597,-0.17114 0.44598,-0.171136 -0.0816,37.546785 -0.0817,37.54679 -0.599,1.47893 -0.599,1.47893 -1.56923,1.70245 -1.56923,1.70244 -1.5755,0.7121 -1.5755,0.7121 -13.10305,0.0867 -13.10304,0.0868 6e-4,-28.98833 z m -55.29155,-9.13629 -14.073689,-10.5676 -6.215897,-4.64222 -6.215899,-4.64222 -16.979771,-12.73588 -16.97977,-12.735874 -0.08347,-6.881259 -0.08347,-6.881255 0.310611,-2.096488 0.310612,-2.096487 1.190802,-2.432147 1.190801,-2.432146 1.963556,-1.83681 1.963555,-1.83681 1.479613,-0.749776 1.479613,-0.749777 1.877601,-0.442682 1.877601,-0.442683 1.531487,-0.0044 1.531487,-0.0044 1.613244,0.299136 1.613244,0.299136 2.096488,1.043043 2.096487,1.043043 5.091469,3.89745 5.09147,3.89745 20.289395,15.283637 20.2894,15.283629 19.23207,-14.458421 19.23208,-14.458425 1.13541,-0.84953 1.13541,-0.84953 -0.006,21.964146 -0.006,21.96416 -20.06558,15.06123 -20.06558,15.06123 -0.38721,0.14859 -0.38721,0.14858 -14.07369,-10.56759 z"
       id="path3141" /><path
       style="fill:#8cab4a;stroke-width:0.299498"
       d="m 165.00131,151.42672 2.2e-4,-28.99105 16.69681,-12.52685 16.69681,-12.52685 0.076,37.44574 0.076,37.44574 -0.61625,1.64709 -0.61625,1.64708 -1.34584,1.4969 -1.34583,1.49689 -1.70793,0.83871 -1.70792,0.8387 -13.10305,0.0895 -13.10304,0.0895 z m -55.29124,-9.13901 -14.073689,-10.5676 -6.215897,-4.64222 -6.215899,-4.64222 -16.979771,-12.73588 -16.97977,-12.735874 -0.08347,-6.881259 -0.08347,-6.881255 0.310611,-2.096488 0.310612,-2.096487 1.190802,-2.432147 1.190801,-2.432146 1.963556,-1.83681 1.963555,-1.83681 1.479613,-0.749776 1.479613,-0.749777 1.877601,-0.442682 1.877601,-0.442683 1.531487,-0.0044 1.531487,-0.0044 1.613244,0.299136 1.613244,0.299136 2.096488,1.043043 2.096487,1.043043 5.091469,3.89745 5.09147,3.89745 20.289395,15.283637 20.2894,15.283629 19.23207,-14.458421 19.23208,-14.458425 1.13541,-0.84953 1.13541,-0.84953 -0.006,21.964146 -0.006,21.96416 -20.06558,15.06123 -20.06558,15.06123 -0.38721,0.14859 -0.38721,0.14858 -14.07369,-10.56759 z"
       id="path3139" /><path
       style="fill:#d1524e;stroke-width:0.299498"
       d="m 165.01704,151.42672 0.016,-28.99105 16.68108,-12.50688 16.68108,-12.50687 0.076,37.42577 0.076,37.42576 -0.61625,1.64709 -0.61625,1.64708 -1.34584,1.4969 -1.34583,1.49689 -1.70793,0.83871 -1.70792,0.8387 -13.10305,0.0895 -13.10304,0.0895 0.0159,-28.99106 z m -55.30697,-9.13901 -14.073689,-10.5676 -6.215897,-4.64222 -6.215899,-4.64222 -16.979771,-12.73588 -16.97977,-12.735874 -0.08347,-6.881259 -0.08347,-6.881255 0.310611,-2.096488 0.310612,-2.096487 1.190802,-2.432147 1.190801,-2.432146 1.963556,-1.83681 1.963555,-1.83681 1.479613,-0.749776 1.479613,-0.749777 1.877601,-0.442682 1.877601,-0.442683 1.531487,-0.0044 1.531487,-0.0044 1.613244,0.299136 1.613244,0.299136 2.096488,1.043043 2.096487,1.043043 5.091469,3.89745 5.09147,3.89745 20.289395,15.283637 20.2894,15.283629 19.23207,-14.458421 19.23208,-14.458425 1.13541,-0.84953 1.13541,-0.84953 -0.006,21.964146 -0.006,21.96416 -20.06558,15.06123 -20.06558,15.06123 -0.38721,0.14859 -0.38721,0.14858 -14.07369,-10.56759 z"
       id="path3137" /><path
       style="fill:#b64772;stroke-width:0.299498"
       d="m 165.01704,151.42672 0.016,-28.99105 16.68108,-12.50688 16.68108,-12.50687 0.076,37.42577 0.076,37.42576 -0.61625,1.64709 -0.61625,1.64708 -1.34584,1.4969 -1.34583,1.49689 -1.70793,0.83871 -1.70792,0.8387 -13.10305,0.0895 -13.10304,0.0895 0.0159,-28.99106 z m -55.30697,-9.13901 -14.073689,-10.5676 -6.215897,-4.64222 -6.215899,-4.64222 -16.979771,-12.73755 -16.97977,-12.737544 0.003,-7.927831 0.003,-7.927831 0.660561,-2.108924 0.660561,-2.108924 1.154388,-1.784553 1.154388,-1.784552 1.503876,-1.350729 1.503876,-1.350729 1.74683,-0.855339 1.74683,-0.855339 2.384038,-0.469681 2.384038,-0.469681 2.408571,0.351053 2.408572,0.351053 1.8192,0.86034 1.8192,0.860341 7.187956,5.461686 7.187957,5.461686 18.495074,13.903324 18.49507,13.903324 19.22941,-14.456426 19.22941,-14.456424 1.13541,-0.84953 1.13541,-0.84953 -0.006,21.96415 -0.006,21.96416 -20.06558,15.06123 -20.06558,15.06123 -0.38721,0.14859 -0.38721,0.14858 -14.07369,-10.56759 z"
       id="path3135" /><path
       style="fill:#6da94f;stroke-width:0.299498"
       d="m 165.01704,151.42672 0.016,-28.99105 16.68108,-12.50688 16.68108,-12.50687 0.076,37.42577 0.076,37.42576 -0.61625,1.64709 -0.61625,1.64708 -1.34584,1.4969 -1.34583,1.49689 -1.70793,0.83871 -1.70792,0.8387 -13.10305,0.0895 -13.10304,0.0895 0.0159,-28.99106 z m -46.16332,-2.26589 -4.91706,-3.69945 L 98.198468,133.64903 82.460284,121.83667 65.746301,109.30554 49.03232,96.774402 l 0.134345,-7.984493 0.134346,-7.984493 0.641467,-1.968341 0.641468,-1.968341 1.148464,-1.775387 1.148463,-1.775386 1.503876,-1.350729 1.503876,-1.350729 1.74683,-0.855339 1.74683,-0.855339 2.384038,-0.469681 2.384038,-0.469681 2.408571,0.351053 2.408572,0.351053 1.8192,0.86034 1.8192,0.860341 7.187956,5.461686 7.187957,5.461686 18.495073,13.903324 18.49507,13.903324 19.22941,-14.456426 19.22941,-14.456424 1.13541,-0.84953 1.13541,-0.84953 -0.006,21.96415 -0.006,21.96416 -20.06558,15.06123 -20.06558,15.06123 -0.3937,0.15107 -0.39369,0.15108 -4.91706,-3.69945 z"
       id="path3133" /><path
       style="fill:#e84234;stroke-width:0.299498"
       d="m 165.07448,151.45282 0.0764,-28.96496 16.62215,-12.52179 16.62215,-12.521789 0.076,37.414589 0.076,37.41458 -0.61625,1.64709 -0.61625,1.64708 -1.34584,1.4969 -1.34583,1.49689 -1.70793,0.83871 -1.70792,0.8387 -13.10454,0.0895 -13.10453,0.0895 z m -46.22076,-2.29199 -4.91706,-3.69945 L 98.198468,133.64903 82.460284,121.83667 65.746301,109.30554 49.03232,96.774402 l 0.134345,-7.984493 0.134346,-7.984493 0.641467,-1.968341 0.641468,-1.968341 1.148464,-1.775387 1.148463,-1.775386 1.503876,-1.350729 1.503876,-1.350729 1.74683,-0.855339 1.74683,-0.855339 2.384038,-0.469681 2.384038,-0.469681 2.408571,0.351053 2.408572,0.351053 1.8192,0.86034 1.8192,0.860341 7.187956,5.461686 7.187957,5.461686 18.495073,13.903324 18.49507,13.903324 19.22941,-14.456426 19.22941,-14.456424 1.13541,-0.84953 1.13541,-0.84953 -0.006,21.96415 -0.006,21.96416 -20.06558,15.06123 -20.06558,15.06123 -0.3937,0.15107 -0.39369,0.15108 -4.91706,-3.69945 z"
       id="path3131" /><path
       style="fill:#bd3956;stroke-width:0.299498"
       d="m 165.07448,151.45282 0.0764,-28.96496 16.62215,-12.52179 16.62215,-12.521789 0.076,37.414589 0.076,37.41458 -0.61625,1.64709 -0.61625,1.64708 -1.34584,1.4969 -1.34583,1.49689 -1.70793,0.83871 -1.70792,0.8387 -13.10454,0.0895 -13.10453,0.0895 z M 66.134378,109.60837 49.245044,96.930818 l 0.003,-7.912952 0.003,-7.912952 0.660561,-2.108924 0.660561,-2.108924 1.154388,-1.784553 1.154388,-1.784552 1.503876,-1.350729 1.503876,-1.350729 1.74683,-0.855339 1.74683,-0.855339 2.384038,-0.469681 2.384038,-0.469681 2.390177,0.348372 2.390177,0.348372 1.667554,0.763431 1.667554,0.763431 5.486133,4.103456 5.486134,4.103456 v 21.944469 21.94447 h -0.107188 -0.10719 z"
       id="path3129" /><path
       style="fill:#51a852;stroke-width:0.299498"
       d="m 165.07448,151.45282 0.0764,-28.96496 16.62215,-12.52179 16.62215,-12.521789 0.076,37.414589 0.076,37.41458 -0.61625,1.64709 -0.61625,1.64708 -1.34584,1.4969 -1.34583,1.49689 -1.70793,0.83871 -1.70792,0.8387 -13.10454,0.0895 -13.10453,0.0895 z M 66.023137,109.49199 49.033312,96.698066 l 0.133849,-7.946325 0.13385,-7.946325 0.641467,-1.968341 0.641468,-1.968341 1.148464,-1.775387 1.148463,-1.775386 1.503876,-1.350729 1.503876,-1.350729 1.74683,-0.855339 1.74683,-0.855339 2.384038,-0.469681 2.384038,-0.469681 2.390177,0.348372 2.390177,0.348372 1.667554,0.763431 1.667554,0.763431 5.486133,4.103456 5.486134,4.103456 v 21.944469 21.94447 h -0.112564 -0.112563 z"
       id="path3127" /><path
       style="fill:#cd413b;stroke-width:0.299498"
       d="m 165.0011,151.49326 v -28.89531 l 16.7719,-12.5888 16.7719,-12.588802 V 134.85 172.27964 l -0.59292,1.58361 -0.59291,1.5836 -0.92755,1.12453 -0.92755,1.12454 -1.30002,0.89444 -1.30002,0.89443 -1.73491,0.45189 -1.73492,0.45189 H 177.2176 165.0011 Z M 66.023137,109.49199 49.033312,96.698066 l 0.133849,-7.946325 0.13385,-7.946325 0.641467,-1.968341 0.641468,-1.968341 1.148464,-1.775387 1.148463,-1.775386 1.503876,-1.350729 1.503876,-1.350729 1.74683,-0.855339 1.74683,-0.855339 2.384038,-0.469681 2.384038,-0.469681 2.390177,0.348372 2.390177,0.348372 1.667554,0.763431 1.667554,0.763431 5.486133,4.103456 5.486134,4.103456 v 21.944469 21.94447 h -0.112564 -0.112563 z"
       id="path3125" /><path
       style="fill:#d43a30;stroke-width:0.299498"
       d="m 165.0011,151.49326 v -28.89531 l 16.7719,-12.5888 16.7719,-12.588802 V 134.85 172.27964 l -0.59292,1.58361 -0.59291,1.5836 -0.92755,1.12453 -0.92755,1.12454 -1.30002,0.89444 -1.30002,0.89443 -1.73491,0.45189 -1.73492,0.45189 h -12.2165 -12.2165 z m -98.940641,-41.97313 -17.02788,-12.822618 0.140162,-7.796297 0.140163,-7.796301 0.500048,-1.774567 0.500048,-1.774568 0.811036,-1.519913 0.811035,-1.519912 1.849894,-1.874897 1.849895,-1.874898 2.19606,-1.042378 2.196059,-1.042378 2.417225,-0.341403 2.417226,-0.341403 2.355376,0.48033 2.355377,0.48033 1.516861,0.753029 1.51686,0.75303 4.791971,3.606209 4.791971,3.606209 0.526096,0.525891 0.526095,0.52589 -0.07685,21.806615 -0.07685,21.80661 z"
       id="path3123" /><path
       style="fill:#c03246;stroke-width:0.299498"
       d="m 165.0011,151.49326 v -28.89531 l 16.7719,-12.5888 16.7719,-12.588802 V 134.85 172.27964 l -0.59292,1.58361 -0.59291,1.5836 -0.92755,1.12453 -0.92755,1.12454 -1.30002,0.89444 -1.30002,0.89443 -1.73491,0.45189 -1.73492,0.45189 H 177.2176 165.0011 Z M 66.02277,109.49172 49.032579,96.697512 l 0.140162,-7.796297 0.140163,-7.796301 0.500048,-1.774567 0.500048,-1.774568 0.811036,-1.519913 0.811035,-1.519912 1.849894,-1.874897 1.849895,-1.874898 2.19606,-1.042378 2.196059,-1.042378 2.417225,-0.341403 2.417226,-0.341403 2.355376,0.48033 2.355377,0.48033 1.516861,0.751345 1.51686,0.751345 5.091469,3.840066 5.091469,3.840068 0.14975,22.071969 0.149749,22.07197 -0.03769,-5e-5 -0.03769,-5e-5 z"
       id="path3121" /><path
       style="fill:#cb362d;stroke-width:0.299498"
       d="m 165.0011,151.49326 v -28.89531 l 16.7719,-12.5888 16.7719,-12.588802 V 134.85 172.27964 l -0.59292,1.58361 -0.59291,1.5836 -0.92755,1.12453 -0.92755,1.12454 -1.30002,0.89444 -1.30002,0.89443 -1.73491,0.45189 -1.73492,0.45189 H 177.2176 165.0011 Z M 79.607935,119.65643 76.127527,117.0447 62.580049,106.87138 49.032571,96.698066 l 0.140167,-7.796576 0.140166,-7.796576 0.500048,-1.774567 0.500048,-1.774568 0.811036,-1.519913 0.811035,-1.519912 1.849894,-1.874897 1.849895,-1.874898 2.19606,-1.042378 2.196059,-1.042378 2.417225,-0.341403 2.417226,-0.341403 2.355376,0.48033 2.355377,0.48033 1.516861,0.751345 1.51686,0.751345 5.091469,3.840066 5.091469,3.840068 0.14975,22.071969 0.149749,22.07197 v -0.009 -0.009 l -3.480406,-2.61173 z"
       id="path3119" /><path
       style="fill:#33a652;stroke-width:0.299498"
       d="m 165.0011,151.49326 v -28.89531 l 16.7719,-12.5888 16.7719,-12.588802 V 134.85 172.27964 l -0.59292,1.58361 -0.59291,1.5836 -0.92755,1.12453 -0.92755,1.12454 -1.30002,0.89444 -1.30002,0.89443 -1.73491,0.45189 -1.73492,0.45189 H 177.2176 165.0011 Z M 67.514434,110.56392 51.940528,98.853351 50.64879,97.900363 l -1.291738,-0.952988 0.02786,-8.013015 0.02786,-8.013017 0.69345,-2.183688 0.69345,-2.183688 1.126112,-1.696559 1.126112,-1.696559 1.241301,-1.070004 1.241301,-1.070004 1.300081,-0.767711 1.30008,-0.76771 1.164222,-0.401107 1.164222,-0.401107 2.048046,-0.317766 2.048046,-0.317765 2.076612,0.331325 2.076612,0.331326 1.796989,0.801984 1.79699,0.801985 5.312265,3.96864 5.312265,3.968639 0.0787,22.017206 0.0787,22.01721 v -0.006 -0.006 L 67.514434,110.56393 Z"
       id="path3117" /><path
       style="fill:#29a652;stroke-width:0.299498"
       d="m 165.3006,122.51922 0.44924,-0.45007 16.4724,-12.36045 16.47241,-12.36045 -0.74875,0.748721 -0.74875,0.748722 -15.73653,11.813867 -15.73654,11.81388 -0.43636,0.24792 -0.43637,0.24793 z M 67.514434,110.56392 51.940528,98.853351 50.64879,97.900363 l -1.291738,-0.952988 0.02786,-8.013015 0.02786,-8.013017 0.69345,-2.183688 0.69345,-2.183688 1.126112,-1.696559 1.126112,-1.696559 1.241301,-1.070004 1.241301,-1.070004 1.300081,-0.767711 1.30008,-0.76771 1.164222,-0.401107 1.164222,-0.401107 2.048046,-0.317766 2.048046,-0.317765 2.076612,0.331325 2.076612,0.331326 1.796989,0.801984 1.79699,0.801985 5.312265,3.96864 5.312265,3.968639 0.0787,22.017206 0.0787,22.01721 v -0.006 -0.006 L 67.514434,110.56393 Z"
       id="path3115" /><path
       style="fill:#c42523;stroke-width:0.299498"
       d="M 67.514434,110.56392 51.940528,98.853351 50.64879,97.900363 l -1.291738,-0.952988 0.02786,-8.013015 0.02786,-8.013017 0.69345,-2.183688 0.69345,-2.183688 1.126112,-1.696559 1.126112,-1.696559 1.241301,-1.070004 1.241301,-1.070004 1.300081,-0.767711 1.30008,-0.76771 1.164222,-0.401107 1.164222,-0.401107 2.048046,-0.317766 2.048046,-0.317765 2.076612,0.331325 2.076612,0.331326 1.796989,0.801984 1.79699,0.801985 5.312265,3.96864 5.312265,3.968639 0.0787,22.017206 0.0787,22.01721 v -0.006 -0.006 L 67.514434,110.56393 Z"
       id="path3113" /><path
       style="fill:#08a653;stroke-width:0.299498"
       d="m 73.354649,114.94115 -9.733691,-7.3332 0.08229,-0.32048 0.0823,-0.32049 -0.283863,0.17544 -0.283864,0.17544 -2.860184,-2.14163 -2.860183,-2.14162 0.187919,-0.30406 0.18792,-0.30407 -0.316569,0.19565 -0.316568,0.19565 -3.94171,-2.975366 -3.941711,-2.975368 0.02799,-7.77769 0.028,-7.777689 0.449623,-1.726221 0.449624,-1.726221 0.964027,-1.809463 0.964027,-1.809462 1.497491,-1.525248 1.497491,-1.525247 1.64724,-0.932939 1.64724,-0.932938 1.946739,-0.502212 1.946738,-0.502212 1.973391,-0.01307 1.973392,-0.01307 1.620587,0.381947 1.620587,0.381947 1.455896,0.729646 1.455897,0.729647 5.204131,3.9056 5.204129,3.905599 0.07868,21.97912 0.07868,21.97913 v -0.006 -0.006 z"
       id="path3111" /><path
       style="fill:#c3211d;stroke-width:0.299498"
       d="m 73.354649,114.94115 -9.733691,-7.3332 0.08229,-0.32048 0.0823,-0.32049 -0.283863,0.17544 -0.283864,0.17544 -2.860184,-2.14163 -2.860183,-2.14162 0.187919,-0.30406 0.18792,-0.30407 -0.316569,0.19565 -0.316568,0.19565 -3.94171,-2.975366 -3.941711,-2.975368 0.02799,-7.77769 0.028,-7.777689 0.449623,-1.726221 0.449624,-1.726221 0.964027,-1.809463 0.964027,-1.809462 1.497491,-1.525248 1.497491,-1.525247 1.64724,-0.932939 1.64724,-0.932938 1.946739,-0.502212 1.946738,-0.502212 1.973391,-0.01307 1.973392,-0.01307 1.620587,0.381947 1.620587,0.381947 1.455896,0.729646 1.455897,0.729647 5.204131,3.9056 5.204129,3.905599 0.07868,21.97912 0.07868,21.97913 v -0.006 -0.006 z"
       id="path3109" /><path
       style="fill:#c21e1b;stroke-width:0.299498"
       d="m 66.070455,109.48237 -16.647918,-12.504051 -0.01387,-0.219643 -0.01387,-0.219643 14.600537,10.987787 14.600538,10.98779 1.946738,1.46039 1.946738,1.4604 0.152705,-21.662736 0.152706,-21.662732 0.07192,21.938248 0.07192,21.93824 h -0.110111 -0.110107 z"
       id="path3107" /></g></svg>
