<?xml version="1.0" encoding="UTF-8" standalone="no"?>
<svg
   version="1.1"
   width="343"
   height="342"
   id="svg10"
   sodipodi:docname="email.svg"
   inkscape:version="1.2.1 (9c6d41e410, 2022-07-14)"
   xmlns:inkscape="http://www.inkscape.org/namespaces/inkscape"
   xmlns:sodipodi="http://sodipodi.sourceforge.net/DTD/sodipodi-0.dtd"
   xmlns="http://www.w3.org/2000/svg"
   xmlns:svg="http://www.w3.org/2000/svg">
  <defs
     id="defs14" />
  <sodipodi:namedview
     id="namedview12"
     pagecolor="#ffffff"
     bordercolor="#000000"
     borderopacity="0.25"
     inkscape:showpageshadow="2"
     inkscape:pageopacity="0.0"
     inkscape:pagecheckerboard="0"
     inkscape:deskcolor="#d1d1d1"
     showgrid="false"
     inkscape:zoom="2.4239766"
     inkscape:cx="135.52111"
     inkscape:cy="171.20627"
     inkscape:window-width="1920"
     inkscape:window-height="1009"
     inkscape:window-x="-8"
     inkscape:window-y="-8"
     inkscape:window-maximized="1"
     inkscape:current-layer="svg10" />
  <path
     d="M0 0 C5.07817809 0.01710236 10.1558849 0.00692793 15.23404694 -0.01032257 C57.29156976 -0.13164388 104.58395691 0.91593131 138.5324707 29.39111328 C139.5430957 30.15423828 140.5537207 30.91736328 141.5949707 31.70361328 C149.85569266 39.26129507 155.34841819 48.59403781 160.5324707 58.39111328 C160.99524414 59.26123047 161.45801758 60.13134766 161.93481445 61.02783203 C167.9778309 73.32623931 171.3047325 87.0417945 173.7824707 100.45361328 C173.93337158 101.26548096 174.08427246 102.07734863 174.23974609 102.91381836 C176.90813748 118.38447515 177.85463723 133.85648702 177.8684082 149.53173828 C177.87487257 151.31361994 177.88160324 153.09550065 177.88858032 154.87738037 C177.90043919 158.58836311 177.90427347 162.29925362 177.90307617 166.01025391 C177.90291447 169.7428747 177.91668903 173.47500027 177.9440918 177.20751953 C178.25447283 220.1510324 177.84869722 272.96575652 145.97094727 306.00976562 C144.50491223 307.48463219 143.02177196 308.93979909 141.5324707 310.39111328 C140.78223633 311.15037109 140.03200195 311.90962891 139.2590332 312.69189453 C117.49316916 333.52724766 84.17943727 338.50484111 55.5324707 341.39111328 C54.6827771 341.4795752 53.8330835 341.56803711 52.9576416 341.65917969 C44.07827628 342.49761942 35.22684633 342.57296852 26.31762695 342.59423828 C25.50428831 342.59706566 24.69094967 342.59989304 23.8529644 342.60280609 C19.53364629 342.61771616 15.21436077 342.62699262 10.89501953 342.63134766 C7.39198189 342.63569795 3.88919531 342.64946647 0.38623047 342.67236328 C-42.42066335 342.94648675 -93.22504268 343.19879802 -127.4675293 313.39111328 C-128.06436523 312.92447266 -128.66120117 312.45783203 -129.27612305 311.97705078 C-151.9726726 293.88047007 -160.35995573 261.46381668 -163.76001358 234.0312748 C-165.20900597 221.07722825 -165.79251439 208.24302565 -165.8034668 195.21533203 C-165.8099326 193.34902354 -165.81666334 191.48271596 -165.82363892 189.6164093 C-165.83548746 185.73326276 -165.83933304 181.8502043 -165.83813477 177.96704102 C-165.83797292 174.06092676 -165.8517731 170.15528501 -165.87915039 166.24926758 C-166.18027327 122.62416618 -165.99594562 73.5844536 -136.4675293 38.39111328 C-136.02280273 37.80201172 -135.57807617 37.21291016 -135.11987305 36.60595703 C-130.53074069 30.73240279 -124.53551022 26.62857364 -118.4675293 22.39111328 C-117.34797852 21.58673828 -117.34797852 21.58673828 -116.20581055 20.76611328 C-82.96016393 -1.19869454 -38.12721142 -0.12967702 0 0 Z "
     fill="#BFBFBF"
     id="path2"
     transform="translate(165.467529296875,-0.39111328125)" />
  <g
     id="g246"
     transform="matrix(1.2726877,0,0,1.2726877,-45.746541,-54.949888)">
    <path
       d="m 0,0 c 15.319292,14.427339 26.071565,35.074796 27.222656,56.1875 0.02965,1.03125 0.0593,2.0625 0.08984,3.125 0.03996,1.19625 0.07992,2.3925 0.121094,3.625 0.436948,25.085969 -7.326149,46.73607 -24.6127932,64.85156 -11.1585018,11.27049 -24.6391898,18.39145 -39.5083008,23.52344 -0.858516,0.30809 -1.717031,0.61617 -2.601562,0.93359 -19.381678,6.77387 -41.298705,3.39158 -59.609375,-5.0625 -22.463609,-10.93752 -38.930499,-29.08158 -47.648429,-52.472653 -0.37641,-1.121484 -0.75282,-2.242968 -1.14063,-3.398437 -0.39167,-1.06396 -0.39167,-1.06396 -0.79126,-2.149414 -2.43756,-7.132407 -2.7117,-13.85386 -2.64624,-21.350586 0.009,-1.235244 0.018,-2.470488 0.0273,-3.743164 0.40397,-21.494632 6.79412,-39.016653 20.41016,-55.756836 0.66387,-0.8391797 1.32773,-1.6783594 2.01172,-2.5429688 C -114.0874,-11.623317 -91.92828,-21.890574 -69.636763,-24.433594 -43.28189,-26.128019 -20.011997,-17.117003 0,0 Z"
       fill="#36373b"
       transform="translate(230.6875,112.6875)"
       id="path4" />
    <path
       d="m 0,0 c 9.2781015,7.2794175 15.468379,18.247048 17.972656,29.664062 0.864747,10.783693 1.41939,22.335155 -4,32 C 13.48668,62.531602 13.000703,63.399141 12.5,64.292969 7.829508,71.701716 1.7960715,76.40001 -6.0898437,80.101562 c -5.4904653,1.051366 -10.0104313,1.507142 -15.1250003,-1 -3.321253,-2.878419 -6.088407,-5.998574 -8.8125,-9.4375 -0.424101,0.386719 -0.848203,0.773438 -1.285156,1.171875 -6.312212,5.60469 -11.566845,9.458748 -20.226562,9.984375 -5.792685,-0.363747 -9.887715,-3.219166 -13.800782,-7.34375 C -70.746883,66.488777 -71.62252,59.670951 -70.652344,51 c 2.139377,-11.418925 7.836856,-20.448872 17.289063,-27.253906 5.267284,-3.270689 9.470437,-5.205414 15.714844,-5.214844 1.251518,-0.0029 1.251518,-0.0029 2.52832,-0.0059 0.87624,0.0045 1.75248,0.009 2.655273,0.01367 0.892998,0.0019 1.785996,0.0039 2.706055,0.0059 6.283518,0.04108 12.49347,0.317933 18.731445,1.11914 1.022926,3.068777 0.999344,4.26998 0.562744,7.379639 -0.1202,0.880687 -0.2404,1.761373 -0.364242,2.668747 -0.204606,1.420444 -0.204606,1.420444 -0.413346,2.869583 -0.134591,0.972381 -0.269182,1.944763 -0.407852,2.94661 -0.431791,3.108584 -0.87318,6.21572 -1.314804,9.322921 -0.294252,2.106032 -0.58788,4.212151 -0.880859,6.31836 -0.719965,5.16575 -1.447816,10.330342 -2.181641,15.49414 1.762034,-0.224238 3.520626,-0.475625 5.277344,-0.738281 0.9796069,-0.137043 1.9592139,-0.274087 2.9685059,-0.415283 4.0774714,-1.253133 5.5334648,-3.706936 7.6330566,-7.264404 2.5820449,-5.946799 3.5106553,-11.427142 3.4960938,-17.83203 -0.00161,-0.742902 -0.00322,-1.485805 -0.00488,-2.25122 C 3.1054031,27.426486 -0.8465575,18.514251 -8.5898438,11.039063 -17.251693,3.7210144 -28.988702,1.7958547 -40.027344,2.6640625 c -12.675914,2.221552 -23.812634,7.327666 -32.050781,17.5429685 -8.717687,12.936525 -11.907443,28.183435 -9.453125,43.566406 1.545643,6.182574 3.996651,11.579352 7.503906,16.890625 0.611016,0.941661 0.611016,0.941661 1.234375,1.902344 5.124596,6.88806 14.204476,11.188075 22.539063,12.851563 9.931229,1.097662 19.147814,-0.03606 28.828125,-2.097657 3.398437,-0.65625 3.398437,-0.65625 7.398437,-0.65625 0.602234,7.106363 0.602234,7.106363 -1.9375,10.874998 -9.665313,6.70655 -25.63298,5.98712 -36.875,4.4375 -13.413573,-2.46823 -25.372697,-8.799259 -33.625,-19.812498 -9.356099,-13.919584 -12.883739,-28.897589 -9.90625,-45.585937 3.617282,-17.28627 12.194691,-31.525571 26.53125,-41.9140625 1.589058,-1.02383904 3.192039,-2.0266265 4.8125,-3 0.910723,-0.5781445 0.910723,-0.5781445 1.839844,-1.1679688 C -43.391886,-14.809498 -18.551201,-12.224491 0,0 Z"
       fill="#bdbdbd"
       transform="translate(209.02734,128.33594)"
       id="path6" />
    <path
       d="m 0,0 c 0.62392235,10.398706 -1.1056797,21.857746 -8,30 -2.758536,2.829268 -4.181193,3.849607 -8.0625,4.5625 C -19,34 -19,34 -21.15625,31.863281 -24.348417,26.905954 -23.576844,21.698094 -23,16 -21.825505,10.850292 -19.062893,7.3241849 -15,4 -9.8223766,1.456606 -5.7331882,0 0,0 Z"
       fill="#37383b"
       transform="translate(180,160)"
       id="path8" />
  </g>
</svg>
