<?xml version="1.0" encoding="UTF-8"?>
<svg version="1.1" xmlns="http://www.w3.org/2000/svg" width="343" height="343">
<path d="M0 0 C3.75927772 0.01075756 7.51807994 0.0000016 11.27734375 -0.01269531 C31.85857404 -0.02587576 52.42786323 0.7149825 72.69140625 4.57324219 C73.86195557 4.78980469 75.03250488 5.00636719 76.23852539 5.22949219 C85.14254217 6.93736541 93.61455451 9.14239752 102.12890625 12.26074219 C103.28261719 12.66164063 104.43632812 13.06253906 105.625 13.47558594 C116.43738171 17.38804313 125.27601522 22.99320931 134.12890625 30.26074219 C135.58103516 31.41123047 135.58103516 31.41123047 137.0625 32.58496094 C163.90307133 55.08180917 169.74820325 94.3840201 172.8515625 127.02197266 C176.64016446 171.26457263 176.69699809 219.17859329 165.12890625 262.26074219 C164.82210938 263.40414063 164.5153125 264.54753906 164.19921875 265.72558594 C161.57813799 274.36587429 157.40893928 282.34331112 153.12890625 290.26074219 C152.59523438 291.25332031 152.0615625 292.24589844 151.51171875 293.26855469 C140.32972198 312.35027056 120.76787007 324.52701965 100.12890625 331.26074219 C99.45988281 331.47923828 98.79085938 331.69773437 98.1015625 331.92285156 C77.97205876 338.31406271 57.12663938 340.85038932 36.12890625 342.26074219 C34.93201172 342.34751221 34.93201172 342.34751221 33.7109375 342.43603516 C-1.57232901 344.9594776 -38.0613653 343.73314753 -72.87109375 337.26074219 C-73.6904541 337.10879395 -74.50981445 336.9568457 -75.35400391 336.80029297 C-102.10492836 331.63061827 -127.24972843 320.29736882 -143.9765625 298.11230469 C-164.70436394 266.9137582 -168.97958366 228.52995035 -169.07421875 191.94433594 C-169.07845982 190.80982341 -169.07845982 190.80982341 -169.08278656 189.65239143 C-169.09766012 185.63780515 -169.10696015 181.6232536 -169.11132812 177.60864258 C-169.11568027 174.36178144 -169.12946169 171.1151909 -169.15234375 167.8684082 C-169.47033304 121.8000466 -167.91596967 68.827878 -134.2421875 33.50292969 C-99.67679552 0.59788405 -44.75219164 -0.1516628 0 0 Z " fill="#81B9FE" transform="translate(168.87109375,-0.2607421875)"/>
<path d="M0 0 C1.15242188 -0.00128906 2.30484375 -0.00257812 3.4921875 -0.00390625 C4.68585938 -0.00003906 5.87953125 0.00382812 7.109375 0.0078125 C8.92308594 0.00201172 8.92308594 0.00201172 10.7734375 -0.00390625 C11.92070312 -0.00261719 13.06796875 -0.00132813 14.25 0 C15.8282959 0.00169189 15.8282959 0.00169189 17.43847656 0.00341797 C19.859375 0.1328125 19.859375 0.1328125 20.859375 1.1328125 C21.80796286 9.99801017 22.39799766 19.22969673 21.859375 28.1328125 C20.34516499 29.64702251 18.93464732 29.34591106 16.82421875 29.44921875 C16.09581787 29.48732666 15.36741699 29.52543457 14.61694336 29.56469727 C13.6863208 29.60780029 12.75569824 29.65090332 11.796875 29.6953125 C8.8475 29.8396875 5.898125 29.9840625 2.859375 30.1328125 C2.529375 37.7228125 2.199375 45.3128125 1.859375 53.1328125 C9.38347307 53.42208166 9.38347307 53.42208166 16.90795898 53.70092773 C17.83938721 53.73903564 18.77081543 53.77714355 19.73046875 53.81640625 C20.68880615 53.85306396 21.64714355 53.88972168 22.63452148 53.92749023 C24.859375 54.1328125 24.859375 54.1328125 25.859375 55.1328125 C25.79426431 62.4577654 25.13911543 76.85307207 19.859375 82.1328125 C17.97998047 82.35986328 17.97998047 82.35986328 15.7265625 82.328125 C14.92089844 82.32167969 14.11523438 82.31523437 13.28515625 82.30859375 C12.44339844 82.29183594 11.60164063 82.27507812 10.734375 82.2578125 C9.88488281 82.24878906 9.03539062 82.23976563 8.16015625 82.23046875 C6.05977616 82.20686897 3.95954056 82.17099733 1.859375 82.1328125 C1.86159561 82.88227646 1.86381622 83.63174042 1.86610413 84.40391541 C1.88610679 91.45263541 1.901349 98.50134565 1.91118717 105.55008602 C1.91641502 109.1742721 1.92351087 112.7984348 1.93481445 116.42260742 C1.94564684 119.91741225 1.95165258 123.41219454 1.95425224 126.90701485 C1.95701051 128.89520639 1.96482188 130.88338881 1.97267151 132.87156677 C1.97274704 134.07273636 1.97282257 135.27390594 1.97290039 136.51147461 C1.975121 137.57514755 1.97734161 138.6388205 1.97962952 139.73472595 C1.859375 142.1328125 1.859375 142.1328125 0.859375 143.1328125 C-1.34713156 143.23293651 -3.55684886 143.2636243 -5.765625 143.265625 C-6.42771973 143.26658173 -7.08981445 143.26753845 -7.77197266 143.26852417 C-9.17415461 143.26920576 -10.5763397 143.26735292 -11.97851562 143.26318359 C-14.13158213 143.25783496 -16.28444002 143.2631292 -18.4375 143.26953125 C-19.79687546 143.26887046 -21.1562508 143.26758929 -22.515625 143.265625 C-23.76085937 143.26449707 -25.00609375 143.26336914 -26.2890625 143.26220703 C-29.140625 143.1328125 -29.140625 143.1328125 -30.140625 142.1328125 C-30.23448881 140.2610031 -30.25806304 138.3856319 -30.25415039 136.51147461 C-30.25407486 135.31030502 -30.25399933 134.10913544 -30.25392151 132.87156677 C-30.24876022 131.5643013 -30.24359894 130.25703583 -30.23828125 128.91015625 C-30.23641698 127.56637118 -30.23499312 126.22258543 -30.23399353 124.87879944 C-30.23016902 121.33598973 -30.22033932 117.7932208 -30.20928955 114.25042725 C-30.19907399 110.63766023 -30.1944956 107.02488666 -30.18945312 103.41210938 C-30.17871698 96.3189937 -30.16164136 89.22590576 -30.140625 82.1328125 C-31.42839844 82.14441406 -32.71617187 82.15601563 -34.04296875 82.16796875 C-35.72135272 82.1773452 -37.39973826 82.18644555 -39.078125 82.1953125 C-39.92826172 82.20369141 -40.77839844 82.21207031 -41.65429688 82.22070312 C-42.46318359 82.22392578 -43.27207031 82.22714844 -44.10546875 82.23046875 C-44.8543335 82.23570557 -45.60319824 82.24094238 -46.37475586 82.24633789 C-48.140625 82.1328125 -48.140625 82.1328125 -49.140625 81.1328125 C-49.22810707 79.20613743 -49.24759834 77.27629389 -49.23828125 75.34765625 C-49.23505859 74.17783203 -49.23183594 73.00800781 -49.22851562 71.80273438 C-49.22013672 70.57103516 -49.21175781 69.33933594 -49.203125 68.0703125 C-49.19861328 66.83474609 -49.19410156 65.59917969 -49.18945312 64.32617188 C-49.17762108 61.26167133 -49.16113673 58.19726529 -49.140625 55.1328125 C-42.79239298 52.82436449 -36.84581086 52.93462967 -30.140625 53.1328125 C-30.16157227 52.24609863 -30.18251953 51.35938477 -30.20410156 50.44580078 C-30.27287143 47.10959171 -30.32270883 43.77415155 -30.36035156 40.4375 C-30.38028689 39.00215663 -30.40744574 37.56689253 -30.44238281 36.13183594 C-30.67736057 26.22130346 -30.2579036 17.82908867 -24.24609375 9.51171875 C-16.89865337 2.55334853 -10.18073112 0.0108669 0 0 Z " fill="#36393E" transform="translate(180.140625,108.8671875)"/>
</svg>
