<?xml version="1.0" encoding="UTF-8" standalone="no"?>
<svg
   version="1.1"
   width="343"
   height="343"
   id="svg6"
   sodipodi:docname="facebook.svg"
   inkscape:version="1.2.1 (9c6d41e410, 2022-07-14)"
   xmlns:inkscape="http://www.inkscape.org/namespaces/inkscape"
   xmlns:sodipodi="http://sodipodi.sourceforge.net/DTD/sodipodi-0.dtd"
   xmlns="http://www.w3.org/2000/svg"
   xmlns:svg="http://www.w3.org/2000/svg">
  <defs
     id="defs10" />
  <sodipodi:namedview
     id="namedview8"
     pagecolor="#ffffff"
     bordercolor="#000000"
     borderopacity="0.25"
     inkscape:showpageshadow="2"
     inkscape:pageopacity="0.0"
     inkscape:pagecheckerboard="0"
     inkscape:deskcolor="#d1d1d1"
     showgrid="false"
     inkscape:zoom="2.4169096"
     inkscape:cx="134.05549"
     inkscape:cy="172.12063"
     inkscape:window-width="1920"
     inkscape:window-height="1009"
     inkscape:window-x="-8"
     inkscape:window-y="-8"
     inkscape:window-maximized="1"
     inkscape:current-layer="svg6" />
  <path
     d="m 0,0 c 3.7592777,0.01075756 7.5180799,1.6e-6 11.277344,-0.01269531 20.58123,-0.01318045 41.150519,0.72767781 61.414062,4.58593751 1.17055,0.2165625 2.341099,0.433125 3.547119,0.65625 8.904017,1.7078732 17.37603,3.9129053 25.890385,7.0312498 1.15371,0.400899 2.30742,0.801797 3.49609,1.214844 10.81238,3.912457 19.65102,9.517623 28.50391,16.785156 1.45213,1.150488 1.45213,1.150488 2.93359,2.324219 26.84057,22.496848 32.6857,61.799059 35.78906,94.437009 3.7886,44.2426 3.84544,92.15662 -7.72265,135.23877 -0.3068,1.1434 -0.6136,2.2868 -0.92969,3.46485 -2.62108,8.64028 -6.79028,16.61772 -11.07031,24.53515 -0.53368,0.99258 -1.06735,1.98516 -1.61719,3.00781 -11.182,19.08172 -30.74385,31.25847 -51.38281,37.99219 -0.669027,0.2185 -1.338051,0.43699 -2.027348,0.66211 -20.129503,6.39121 -40.974923,8.92754 -61.972656,10.33789 -1.196894,0.0868 -1.196894,0.0868 -2.417969,0.1753 -35.283266,2.52344 -71.772302,1.29711 -106.582031,-5.1753 -0.81936,-0.15195 -1.63872,-0.30389 -2.48291,-0.46045 -26.750926,-5.16967 -51.895726,-16.50292 -68.622556,-38.68799 -20.7278,-31.19854 -25.00302,-69.58235 -25.09766,-106.16796 -0.004,-1.13452 -0.004,-1.13452 -0.009,-2.29195 -0.0149,-4.01458 -0.0242,-8.02914 -0.0285,-12.04375 -0.004,-3.24686 -0.0181,-6.49345 -0.041,-9.74023 -0.31799,-46.06836 1.23637,-99.040532 34.91015,-134.36548 C -99.676796,0.59788405 -44.752192,-0.1516628 0,0 Z"
     fill="#81b9fe"
     transform="translate(168.87109,-0.26074219)"
     id="path2"
     style="display:inline" />
  <path
     d="m 186.55929,48.944689 c 1.95114,-0.0022 3.90228,-0.0043 5.91257,-0.0067 2.02098,0.0066 4.04196,0.0131 6.12419,0.01984 3.07076,-0.0098 3.07076,-0.0098 6.20358,-0.01984 1.9424,0.0022 3.88481,0.0043 5.88609,0.0067 2.67219,0.0029 2.67219,0.0029 5.39836,0.0058 4.09879,0.219077 4.09879,0.219077 5.79187,1.912161 1.60604,15.009521 2.60502,30.639543 1.69309,45.713268 -2.56369,2.563682 -4.95182,2.053872 -8.52494,2.228792 -1.23325,0.0645 -2.4665,0.12903 -3.73711,0.19551 -1.57562,0.0729 -3.15124,0.14595 -4.77461,0.22114 -4.99353,0.24445 -9.98707,0.48887 -15.13193,0.74073 -0.55872,12.8505 -1.11743,25.70099 -1.69309,38.94091 12.73893,0.48976 12.73893,0.48976 25.4785,0.96187 1.577,0.0645 3.15399,0.12903 4.77877,0.1955 1.62253,0.062 3.24509,0.12415 4.9168,0.18809 3.76686,0.34762 3.76686,0.34762 5.45994,2.04071 -0.11019,12.40175 -1.21946,36.77421 -10.1585,45.71326 -3.18197,0.38442 -3.18197,0.38442 -6.99721,0.33067 -1.36405,-0.0114 -2.72811,-0.0218 -4.1335,-0.0331 -1.42516,-0.0284 -2.85032,-0.0568 -4.31868,-0.0859 -1.43826,-0.0154 -2.87652,-0.0306 -4.35837,-0.0463 -3.55612,-0.0399 -7.11199,-0.10062 -10.66775,-0.16534 0.003,1.26891 0.008,2.53782 0.0115,3.84517 0.0339,11.93408 0.0596,23.86812 0.0763,35.80223 0.009,6.13605 0.0209,12.27207 0.04,18.4081 0.0183,5.917 0.0286,11.83395 0.0329,17.75098 0.004,3.36618 0.0179,6.73233 0.0311,10.09848 1.2e-4,2.03368 2.6e-4,4.06736 3.9e-4,6.16266 0.003,1.8009 0.008,3.60178 0.0114,5.45724 -0.2036,4.06016 -0.2036,4.06016 -1.89668,5.75324 -3.73581,0.16953 -7.47705,0.22148 -11.21669,0.22487 -1.12099,0.001 -2.24197,0.003 -3.39692,0.004 -2.37401,10e-4 -4.74802,-0.002 -7.12203,-0.009 -3.64531,-0.009 -7.29028,-9e-5 -10.9356,0.01 -2.30153,-10e-4 -4.60307,-0.003 -6.9046,-0.007 -2.10829,-0.002 -4.21658,-0.003 -6.38874,-0.006 -4.82794,-0.21908 -4.82794,-0.21908 -6.52103,-1.91216 -0.15891,-3.16913 -0.19883,-6.34429 -0.1922,-9.51739 1.2e-4,-2.03368 2.6e-4,-4.06736 3.9e-4,-6.16266 0.009,-2.21332 0.0175,-4.42663 0.0265,-6.707 0.003,-2.27515 0.006,-4.55029 0.007,-6.82543 0.007,-5.99829 0.023,-11.99649 0.0418,-17.99473 0.0172,-6.11672 0.025,-12.23344 0.0336,-18.35018 0.0181,-12.00923 0.047,-24.01843 0.0827,-36.02763 -2.18031,0.0197 -4.36061,0.0392 -6.607,0.0595 -2.84164,0.0159 -5.68329,0.0314 -8.52494,0.0463 -1.43935,0.0141 -2.87869,0.0283 -4.36167,0.0429 -1.36951,0.006 -2.73903,0.0115 -4.15004,0.0166 -1.26789,0.009 -2.53578,0.0177 -3.84209,0.0268 -2.98977,-0.1922 -2.98977,-0.1922 -4.68285,-1.88529 -0.14812,-3.26203 -0.18111,-6.52941 -0.16534,-9.79476 0.006,-1.9806 0.0114,-3.96122 0.0166,-6.00185 0.0141,-2.08536 0.0284,-4.17073 0.0429,-6.3193 0.008,-2.09191 0.0153,-4.18383 0.0232,-6.33914 0.02,-5.18845 0.0479,-10.37676 0.0827,-15.56513 10.74808,-3.90839 20.81614,-3.7217 32.16859,-3.38617 -0.0354,-1.50128 -0.0709,-3.00256 -0.10752,-4.54934 -0.11643,-5.64848 -0.20082,-11.29565 -0.26454,-16.94487 -0.0338,-2.43016 -0.0797,-4.86018 -0.13889,-7.28985 -0.39785,-16.77937 0.31233,-30.988096 10.49083,-45.070098 12.43984,-11.781103 23.81384,-16.085737 41.05067,-16.104135 z"
     fill="#36393e"
     id="path4"
     style="stroke-width:1.69308;fill:#ffffff" />
</svg>
