<?xml version="1.0" encoding="UTF-8" standalone="no"?>
<svg
   version="1.1"
   width="282.03799"
   height="284.42355"
   id="svg2615"
   sodipodi:docname="github.svg"
   inkscape:version="1.2.1 (9c6d41e410, 2022-07-14)"
   xml:space="preserve"
   xmlns:inkscape="http://www.inkscape.org/namespaces/inkscape"
   xmlns:sodipodi="http://sodipodi.sourceforge.net/DTD/sodipodi-0.dtd"
   xmlns="http://www.w3.org/2000/svg"
   xmlns:svg="http://www.w3.org/2000/svg">
  <defs
   id="defs2619" />
  <sodipodi:namedview
   id="namedview2617"
   pagecolor="#ffffff"
   bordercolor="#000000"
   borderopacity="0.25"
   inkscape:showpageshadow="2"
   inkscape:pageopacity="0.0"
   inkscape:pagecheckerboard="0"
   inkscape:deskcolor="#d1d1d1"
   showgrid="false"
   inkscape:zoom="2.908772"
   inkscape:cx="33.5193"
   inkscape:cy="107.26176"
   inkscape:window-width="1920"
   inkscape:window-height="1009"
   inkscape:window-x="-8"
   inkscape:window-y="-8"
   inkscape:window-maximized="1"
   inkscape:current-layer="svg2615" />
  <g
   id="g633">
    <path
   d="m 251.29043,31.008757 c 11.37979,11.6959 17.94629,25.786772 22.56001,41.196542 0.19203,0.63473 0.38406,1.26946 0.58191,1.923425 5.97367,20.451329 6.74188,42.610766 7.26505,63.794876 0.0215,0.6706 0.043,1.34121 0.0651,2.03214 1.09083,36.1157 0.1221,84.48676 -25.56776,112.72965 -0.70174,0.8029 -1.40349,1.60579 -2.1265,2.43302 -18.84834,20.32423 -50.68878,27.36967 -77.32397,28.95482 -10.20701,0.33663 -20.4196,0.32539 -30.63112,0.30964 -3.19148,-0.005 -6.38259,0.002 -9.57402,0.0201 -37.291108,0.20717 -80.011517,-0.62999 -108.887111,-27.79411 -2.868828,-3.11203 -5.406335,-6.35295 -7.84696,-9.8087 -0.510819,-0.70806 -1.021638,-1.41613 -1.547936,-2.14565 -18.49668464,-28.03708 -18.28505032,-66.63922 -18.25337761,-98.88396 2.6671e-4,-1.02057 5.3342e-4,-2.04114 8.0821e-4,-3.09264 0.0177762,-14.74914 0.22921513,-29.3437 2.144885,-43.98912 0.099888,-0.810798 0.1997756,-1.621597 0.3026903,-2.456965 2.9785739,-23.56199 9.2043231,-47.567518 27.1616701,-64.242198 0.610707,-0.593005 1.221413,-1.18601 1.850626,-1.796984 44.557546,-41.837696 175.041685,-38.9050117 219.826005,0.816114 z"
   fill="#F3B266"
   id="path2605"
   style="fill:#000000;stroke-width:0.98087" />
    <g
   transform="matrix(0.11277522,0,0,-0.11277522,36.85597,246.04566)"
   fill="#000000"
   stroke="none"
   id="g445"
   style="fill:#ffffff">
      <path
   d="M 725,1783 C 373,1708 89,1421 16,1068 -5,969 -5,791 16,693 73,414 254,183 517,53 612,6 665,-5 681,21 c 5,8 9,55 9,105 v 91 l -72,-5 c -132,-8 -198,26 -245,127 -15,32 -50,78 -81,108 -29,29 -51,57 -47,63 10,16 67,12 104,-8 19,-10 53,-43 76,-73 58,-76 96,-99 161,-99 63,0 103,13 110,37 3,10 14,37 25,61 21,48 25,43 -61,61 -79,16 -159,56 -208,104 -131,127 -161,383 -62,537 27,43 29,49 23,122 -6,82 10,166 33,175 22,8 126,-26 186,-62 l 58,-34 82,16 c 90,17 271,13 339,-7 34,-9 43,-7 110,29 95,51 165,70 185,49 24,-23 38,-129 25,-188 -10,-48 -10,-52 19,-92 41,-56 60,-126 60,-223 0,-235 -112,-382 -325,-425 -33,-7 -65,-14 -71,-15 -8,-2 -4,-20 12,-51 23,-45 24,-58 24,-220 0,-171 0,-174 23,-189 28,-18 59,-10 168,45 241,121 428,366 483,632 21,99 21,277 0,376 -73,356 -360,643 -716,716 -97,20 -288,20 -383,-1 z"
   id="path443"
   style="fill:#ffffff" />
    </g>
  </g>
</svg>
