<?xml version="1.0" encoding="UTF-8" standalone="no"?>
<svg
   version="1.1"
   width="289"
   height="287"
   id="svg1061"
   sodipodi:docname="keyoxide.svg"
   inkscape:version="1.2.1 (9c6d41e410, 2022-07-14)"
   xmlns:inkscape="http://www.inkscape.org/namespaces/inkscape"
   xmlns:sodipodi="http://sodipodi.sourceforge.net/DTD/sodipodi-0.dtd"
   xmlns="http://www.w3.org/2000/svg"
   xmlns:svg="http://www.w3.org/2000/svg">
  <defs
     id="defs1065" />
  <sodipodi:namedview
     id="namedview1063"
     pagecolor="#ffffff"
     bordercolor="#000000"
     borderopacity="0.25"
     inkscape:showpageshadow="2"
     inkscape:pageopacity="0.0"
     inkscape:pagecheckerboard="0"
     inkscape:deskcolor="#d1d1d1"
     showgrid="false"
     inkscape:zoom="2.8885017"
     inkscape:cx="144.3655"
     inkscape:cy="143.6731"
     inkscape:window-width="1920"
     inkscape:window-height="1009"
     inkscape:window-x="-8"
     inkscape:window-y="-8"
     inkscape:window-maximized="1"
     inkscape:current-layer="svg1061" />
  <path
     d="M0 0 C0.82290527 0.00202423 1.64581055 0.00404846 2.49365234 0.00613403 C3.33331543 0.00517731 4.17297852 0.00422058 5.03808594 0.00323486 C6.81689529 0.00255306 8.59570712 0.00440737 10.37451172 0.00857544 C13.10699011 0.01392371 15.83930411 0.00863048 18.57177734 0.00222778 C20.29573604 0.00288856 22.01969464 0.00416973 23.74365234 0.00613403 C24.56655762 0.0041098 25.38946289 0.00208557 26.23730469 0 C32.0037018 0.02399599 32.0037018 0.02399599 33.11865234 1.13894653 C34.9773974 1.33233322 36.84268865 1.46330504 38.70849609 1.56863403 C39.87638672 1.63985474 41.04427734 1.71107544 42.24755859 1.78445435 C44.1328125 1.89805298 44.1328125 1.89805298 46.05615234 2.01394653 C73.76794284 3.87862598 107.02142085 8.52465128 127.44287109 29.52957153 C137.59071012 41.31415878 143.70460422 54.39609354 148.11865234 69.13894653 C148.31442871 69.78605591 148.51020508 70.43316528 148.71191406 71.09988403 C154.20596395 89.90920765 155.24398503 110.16462941 155.82836914 129.65139771 C155.5439972 133.7218012 155.5439972 133.7218012 157.11865234 137.13894653 C157.21852209 139.98229701 157.25743116 142.79591816 157.24365234 145.63894653 C157.24751953 146.43687622 157.25138672 147.23480591 157.25537109 148.05691528 C157.24526002 154.01233886 157.24526002 154.01233886 156.11865234 155.13894653 C155.93652274 157.20803022 155.81777905 159.28272504 155.72412109 161.35769653 C155.65797607 162.67044556 155.59183105 163.98319458 155.52368164 165.33572388 C155.4888266 166.03735657 155.45397156 166.73898926 155.4180603 167.46188354 C153.88211242 197.34228984 151.20708924 231.87831013 130.11865234 255.13894653 C129.47669922 255.88402466 128.83474609 256.62910278 128.17333984 257.39675903 C110.59237994 276.53470432 80.72209465 283.13471576 55.89526367 285.49295044 C52.19744912 285.52967745 52.19744912 285.52967745 49.11865234 287.13894653 C46.85415855 287.2386224 44.58651023 287.26694484 42.31982422 287.26834106 C41.60927383 287.27009338 40.89872345 287.2718457 40.16664124 287.27365112 C37.80687043 287.27806931 35.44717397 287.27513178 33.08740234 287.27175903 C31.45454901 287.27243208 29.82169577 287.27340212 28.18884277 287.2746582 C24.76227873 287.27613513 21.33574071 287.27398079 17.90917969 287.26931763 C13.50710733 287.26362034 9.10509594 287.26689937 4.70302582 287.27289009 C1.32997169 287.27649585 -2.04306788 287.27535705 -5.41612244 287.2727623 C-7.03970853 287.27209307 -8.66329592 287.27292131 -10.28688049 287.27524185 C-12.55212936 287.27776862 -14.81727816 287.27392748 -17.08251953 287.26834106 C-19.01992004 287.26714767 -19.01992004 287.26714767 -20.99645996 287.26593018 C-23.88134766 287.13894653 -23.88134766 287.13894653 -24.88134766 286.13894653 C-26.45801955 285.88826623 -28.04384687 285.69471003 -29.63134766 285.52566528 C-31.12021484 285.35877197 -31.12021484 285.35877197 -32.63916016 285.18850708 C-33.70908203 285.0690271 -34.77900391 284.94954712 -35.88134766 284.82644653 C-65.24412573 281.3144535 -91.82668775 273.23627131 -110.88134766 249.13894653 C-126.18441885 228.62149553 -129.40215992 198.88914167 -130.5402832 174.10110474 C-130.43400611 170.83604868 -130.43400611 170.83604868 -131.88134766 168.13894653 C-131.9795751 166.67089361 -132.00933136 165.19817193 -132.01074219 163.72683716 C-132.01547043 162.32032898 -132.01547043 162.32032898 -132.02029419 160.88540649 C-132.01826996 159.86563721 -132.01624573 158.84586792 -132.01416016 157.79519653 C-132.01511688 156.75576904 -132.01607361 155.71634155 -132.01705933 154.64541626 C-132.01774128 152.442901 -132.01588592 150.24038374 -132.01171875 148.03787231 C-132.00637073 144.65354934 -132.01166324 141.26935909 -132.01806641 137.88504028 C-132.01740563 135.7509254 -132.01612447 133.61681061 -132.01416016 131.48269653 C-132.01618439 130.46292725 -132.01820862 129.44315796 -132.02029419 128.39248657 C-132.01714203 127.45481445 -132.01398987 126.51714233 -132.01074219 125.55105591 C-132.00994659 124.72134277 -132.009151 123.89162964 -132.0083313 123.03677368 C-131.88134766 121.13894653 -131.88134766 121.13894653 -130.88134766 120.13894653 C-130.68886072 118.58436029 -130.55734202 117.02214769 -130.45166016 115.45925903 C-130.38035889 114.47715454 -130.30905762 113.49505005 -130.2355957 112.48318481 C-130.15994385 111.42083618 -130.08429199 110.35848755 -130.00634766 109.26394653 C-127.73553728 80.33738188 -123.24777114 48.86880244 -100.88134766 28.13894653 C-100.33220703 27.60785278 -99.78306641 27.07675903 -99.21728516 26.52957153 C-76.89352507 5.76755598 -42.0167257 2.59503249 -12.85961914 1.48001099 C-8.17232017 1.28830041 -4.68921096 0.01951344 0 0 Z "
     fill="#4A88CC"
     transform="translate(131.88134765625,-0.138946533203125)"
     id="path1049" />
  <g
     id="g5076"
     style="fill:#ffffff">
    <path
       d="M0 0 C3.96360178 3.59201411 4.62238226 8.79403538 6 13.8125 C6.61875 13.89757812 7.2375 13.98265625 7.875 14.0703125 C10 14.8125 10 14.8125 11.125 16.5546875 C11.41375 17.25851563 11.7025 17.96234375 12 18.6875 C13.41916651 22.12137612 14.72844383 23.95049728 18 25.8125 C20.58881802 26.17284523 20.58881802 26.17284523 23.25 26 C24.14203125 25.97292969 25.0340625 25.94585937 25.953125 25.91796875 C26.96632812 25.86576172 26.96632812 25.86576172 28 25.8125 C31.20220185 32.6670124 30.90773857 40.16542046 29.4765625 47.4921875 C26.16218837 56.13222262 17.45494744 60.99217789 10.24121094 66.17333984 C6.8223206 68.67382239 3.53699235 71.3298857 0.25 74 C-3.38552197 76.93751722 -7.03074623 79.85361605 -10.75390625 82.6796875 C-11.35299805 83.13448486 -11.95208984 83.58928223 -12.56933594 84.05786133 C-14.20566806 85.29427755 -15.84681185 86.52431847 -17.48828125 87.75390625 C-20.16453273 89.74306876 -20.16453273 89.74306876 -22 92.8125 C-15.77339845 97.48140432 -9.42956938 101.90193874 -2.91796875 106.16015625 C-1.85535324 106.85714127 -1.85535324 106.85714127 -0.77127075 107.56820679 C2.1659013 109.49331955 5.10408017 111.41659253 8.05249023 113.32446289 C10.23549571 114.73919212 12.40925728 116.16727847 14.58203125 117.59765625 C15.23839066 118.01765396 15.89475006 118.43765167 16.57099915 118.87037659 C22.41803964 122.74614341 28.17216186 127.79844641 30 134.8125 C30.80679866 142.66471487 31.08999208 150.39403491 26 156.8125 C21.40005744 161.77999245 17.07339517 164.49959953 10.203125 165.02734375 C0.79797051 165.31979258 -5.54385 162.3354781 -13.3125 157.375 C-13.98676025 156.94977051 -14.66102051 156.52454102 -15.35571289 156.08642578 C-21.75195024 152.02692375 -28.05005278 147.81877631 -34.32348633 143.57250977 C-35.05075928 143.08194092 -35.77803223 142.59137207 -36.52734375 142.0859375 C-37.17437256 141.64685059 -37.82140137 141.20776367 -38.48803711 140.75537109 C-39.84444424 139.72430852 -39.84444424 139.72430852 -41 139.8125 C-41.07476562 140.5859375 -41.14953125 141.359375 -41.2265625 142.15625 C-42.14801716 149.45561636 -43.55518902 154.67705328 -49 159.8125 C-55.95871051 164.86935955 -62.62274231 165.54186323 -71 164.8125 C-77.65712226 163.13813289 -82.33118727 159.59839811 -86 153.8125 C-87.59737195 150.33424501 -88.25245608 147.60473484 -88.26742554 143.7853241 C-88.27595551 142.79714188 -88.28448547 141.80895966 -88.29327393 140.79083252 C-88.29236755 139.71799011 -88.29146118 138.64514771 -88.29052734 137.53979492 C-88.29724457 136.4009938 -88.30396179 135.26219269 -88.31088257 134.08888245 C-88.32988301 130.32353351 -88.33378789 126.55836265 -88.3359375 122.79296875 C-88.34236417 120.17369005 -88.34909243 117.55441207 -88.35610962 114.93513489 C-88.36889036 109.44331708 -88.3718756 103.95154747 -88.37060547 98.4597168 C-88.36940489 92.12544598 -88.39049315 85.79151636 -88.4220928 79.45733184 C-88.45146945 73.34962331 -88.45857959 67.24207761 -88.45738602 61.13430214 C-88.45974398 58.54239827 -88.46857843 55.9504918 -88.48405075 53.35863304 C-88.50368349 49.72993179 -88.49788217 46.10210452 -88.48583984 42.47338867 C-88.49707886 41.40661896 -88.50831787 40.33984924 -88.51989746 39.24075317 C-88.45763746 31.84403379 -87.22098733 26.54509829 -82.25390625 20.7890625 C-81.69574219 20.34304687 -81.13757813 19.89703125 -80.5625 19.4375 C-80.00691406 18.97601563 -79.45132813 18.51453125 -78.87890625 18.0390625 C-72.39762494 13.80803894 -65.49238331 14.14217352 -58 14.8125 C-51.79405629 16.44461433 -47.46381883 20.50645906 -44 25.8125 C-42.16823848 29.60322871 -41.65097274 32.93941342 -41.375 37.125 C-41.30023438 38.19363281 -41.22546875 39.26226562 -41.1484375 40.36328125 C-41.09945312 41.17152344 -41.05046875 41.97976562 -41 42.8125 C-38.22569117 41.50235664 -35.80756086 40.04407227 -33.35546875 38.203125 C-32.67806641 37.69523437 -32.00066406 37.18734375 -31.30273438 36.6640625 C-30.60470703 36.13554688 -29.90667969 35.60703125 -29.1875 35.0625 C-28.50107422 34.54945312 -27.81464844 34.03640625 -27.10742188 33.5078125 C-22.58613723 30.10294724 -18.26333343 26.5352539 -14 22.8125 C-14.804375 22.008125 -15.60875 21.20375 -16.4375 20.375 C-19.63994244 16.50652252 -20.30106131 12.767109 -20 7.8125 C-19.21559149 4.44528297 -18.21235753 1.59974515 -15.1953125 -0.359375 C-10.28512085 -2.21161811 -4.82440529 -1.90966043 0 0 Z "
       fill="#35363A"
       transform="translate(170,55.1875)"
       id="path1051"
       style="fill:#ffffff" />
    <path
       d="M0 0 C3 2 3 2 3.8125 5.875 C4.10896376 9.14203063 4.05640468 11.29420437 2 14 C-1.12706959 15.5635348 -4.57982443 15.39958487 -8 15 C-11 13 -11 13 -11.6171875 10.9765625 C-11.99971303 7.48746601 -12.27037262 4.79180552 -11.125 1.4375 C-7.71755815 -0.86753419 -3.98825513 -0.62135859 0 0 Z "
       fill="#37383C"
       transform="translate(143,48)"
       id="path1053"
       style="fill:#ffffff" />
    <path
       d="M0 0 C1.875 -0.36328125 1.875 -0.36328125 4 -0.3125 C4.70125 -0.30863281 5.4025 -0.30476563 6.125 -0.30078125 C8 0 8 0 10 2 C10.26991906 4.68839385 10.08737357 7.29141936 10 10 C7.1528258 11.93607846 5.84582804 11.98954766 2.3125 11.75 C1.219375 11.5025 0.12625 11.255 -1 11 C-2.38550197 8.22899606 -2.1877467 6.0665294 -2 3 C-1.34 2.01 -0.68 1.02 0 0 Z "
       fill="#37383C"
       transform="translate(187,66)"
       id="path1055"
       style="fill:#ffffff" />
    <path
       d="M0 0 C3 0.25 3 0.25 5 2.25 C5.3125 5.25 5.3125 5.25 5 8.25 C2 10.25 2 10.25 -1.125 9.9375 C-4 9.25 -4 9.25 -5 8.25 C-5.1875 5.3125 -5.1875 5.3125 -5 2.25 C-3 0.25 -3 0.25 0 0 Z "
       fill="#37383C"
       transform="translate(147,33.75)"
       id="path1057"
       style="fill:#ffffff" />
    <path
       d="M0 0 C1.98 0 3.96 0 6 0 C6 1.98 6 3.96 6 6 C4.02 6 2.04 6 0 6 C0 4.02 0 2.04 0 0 Z "
       fill="#37383C"
       transform="translate(129,32)"
       id="path1059"
       style="fill:#ffffff" />
  </g>
</svg>
