<?xml version="1.0" encoding="UTF-8" standalone="no"?>
<svg
   version="1.1"
   width="343"
   height="343"
   id="svg6"
   sodipodi:docname="linkedin.svg"
   inkscape:version="1.3.2 (091e20e, 2023-11-25, custom)"
   xmlns:inkscape="http://www.inkscape.org/namespaces/inkscape"
   xmlns:sodipodi="http://sodipodi.sourceforge.net/DTD/sodipodi-0.dtd"
   xmlns="http://www.w3.org/2000/svg"
   xmlns:svg="http://www.w3.org/2000/svg">
  <defs
     id="defs10" />
  <sodipodi:namedview
     id="namedview8"
     pagecolor="#ffffff"
     bordercolor="#000000"
     borderopacity="0.25"
     inkscape:showpageshadow="2"
     inkscape:pageopacity="0.0"
     inkscape:pagecheckerboard="0"
     inkscape:deskcolor="#d1d1d1"
     showgrid="false"
     inkscape:zoom="1.2084548"
     inkscape:cx="227.14958"
     inkscape:cy="208.94451"
     inkscape:window-width="1920"
     inkscape:window-height="1009"
     inkscape:window-x="-8"
     inkscape:window-y="-8"
     inkscape:window-maximized="1"
     inkscape:current-layer="svg6" />
  <path
     d="m 0,0 c 3.7592777,0.01075756 7.5180799,1.6e-6 11.277344,-0.01269531 20.58123,-0.01318045 41.150519,0.72767781 61.414062,4.58593751 1.17055,0.2165625 2.341099,0.433125 3.547119,0.65625 8.904017,1.7078732 17.37603,3.9129053 25.890385,7.0312498 1.15371,0.400899 2.30742,0.801797 3.49609,1.214844 10.81238,3.912457 19.65102,9.517623 28.50391,16.785156 1.45213,1.150488 1.45213,1.150488 2.93359,2.324219 26.84057,22.496848 32.6857,61.799059 35.78906,94.437009 3.7886,44.2426 3.84544,92.15662 -7.72265,135.23877 -0.3068,1.1434 -0.6136,2.2868 -0.92969,3.46485 -2.62108,8.64028 -6.79028,16.61772 -11.07031,24.53515 -0.53368,0.99258 -1.06735,1.98516 -1.61719,3.00781 -11.182,19.08172 -30.74385,31.25847 -51.38281,37.99219 -0.669027,0.2185 -1.338051,0.43699 -2.027348,0.66211 -20.129503,6.39121 -40.974923,8.92754 -61.972656,10.33789 -1.196894,0.0868 -1.196894,0.0868 -2.417969,0.1753 -35.283266,2.52344 -71.772302,1.29711 -106.582031,-5.1753 -0.81936,-0.15195 -1.63872,-0.30389 -2.48291,-0.46045 -26.750926,-5.16967 -51.895726,-16.50292 -68.622556,-38.68799 -20.7278,-31.19854 -25.00302,-69.58235 -25.09766,-106.16796 -0.004,-1.13452 -0.004,-1.13452 -0.009,-2.29195 -0.0149,-4.01458 -0.0242,-8.02914 -0.0285,-12.04375 -0.004,-3.24686 -0.0181,-6.49345 -0.041,-9.74023 -0.31799,-46.06836 1.23637,-99.040532 34.91015,-134.36548 C -99.676796,0.59788405 -44.752192,-0.1516628 0,0 Z"
     fill="#81b9fe"
     transform="translate(168.87109,-0.26074219)"
     id="path2"
     style="display:inline;mix-blend-mode:darken;fill:#00669c;fill-opacity:1" />
  <g
     id="g84"
     transform="matrix(1.605351,0,0,1.605351,-1.2509197,-13.270573)"
     style="fill:#ffffff;fill-opacity:1">
    <path
       style="fill:#ffffff;fill-opacity:1"
       d="m 121.08964,116.99485 c 0,-0.0319 0.1211,-0.15304 0.26913,-0.26913 0.24391,-0.19129 0.24935,-0.18585 0.0581,0.0581 -0.20091,0.25618 -0.32719,0.33764 -0.32719,0.21107 z m 0.46136,-0.61515 c 0,-0.0319 0.12111,-0.15305 0.26913,-0.26913 0.24392,-0.1913 0.24936,-0.18586 0.0581,0.0581 -0.2009,0.25617 -0.32719,0.33764 -0.32719,0.21107 z m 1.69167,-1.86429 c 0.71523,-0.71897 1.33501,-1.30721 1.37731,-1.30721 0.0423,0 -0.50829,0.58824 -1.22352,1.30721 -0.71523,0.71896 -1.33501,1.3072 -1.3773,1.3072 -0.0423,0 0.50829,-0.58824 1.22351,-1.3072 z m 22.43348,0.42291 c -0.19129,-0.24391 -0.18585,-0.24935 0.0581,-0.0581 0.14803,0.11609 0.26913,0.23719 0.26913,0.26913 0,0.12657 -0.12629,0.0451 -0.32719,-0.21107 z m -1.13861,-1.3072 -0.91792,-0.96117 0.96118,0.91791 c 0.89285,0.85267 1.03155,1.00444 0.91792,1.00444 -0.0238,0 -0.45633,-0.43253 -0.96118,-0.96118 z m -19.29562,-0.78856 c 0,-0.0319 0.12111,-0.15304 0.26913,-0.26913 0.24392,-0.19129 0.24936,-0.18585 0.0581,0.0581 -0.2009,0.25617 -0.32719,0.33764 -0.32719,0.21106 z m 17.97362,-0.36485 c -0.1913,-0.24392 -0.18586,-0.24936 0.0581,-0.0581 0.14802,0.11608 0.26913,0.23719 0.26913,0.26913 0,0.12657 -0.12629,0.0451 -0.32719,-0.21107 z M 118.01387,98.54025 c 0,-0.03194 0.12111,-0.153043 0.26913,-0.269129 0.24392,-0.191293 0.24936,-0.185853 0.0581,0.05806 -0.2009,0.256173 -0.32719,0.337639 -0.32719,0.211066 z m 55.80554,-0.826219 c -0.19129,-0.243917 -0.18585,-0.249356 0.0581,-0.05806 0.25617,0.200904 0.33764,0.327193 0.21106,0.327193 -0.0319,0 -0.15304,-0.121109 -0.26913,-0.26913 z m -55.0366,-0.250299 c 0,-0.03193 0.12111,-0.153043 0.26913,-0.269129 0.24392,-0.191293 0.24936,-0.185854 0.0581,0.05806 -0.2009,0.256173 -0.32719,0.337639 -0.32719,0.211066 z m 54.57524,-0.364854 c -0.1913,-0.243917 -0.18586,-0.249357 0.0581,-0.05806 0.25617,0.200905 0.33764,0.327193 0.21107,0.327193 -0.0319,0 -0.15305,-0.121108 -0.26913,-0.269129 z m -53.88319,-0.499812 c 0.15309,-0.169167 0.31295,-0.307577 0.35525,-0.307577 0.0423,0 -0.0484,0.13841 -0.20146,0.307577 -0.1531,0.169167 -0.31296,0.307576 -0.35525,0.307576 -0.0423,0 0.0484,-0.138409 0.20146,-0.307576 z m 53.27601,-0.26913 -0.37283,-0.422918 0.42292,0.372832 c 0.2326,0.205057 0.42292,0.39537 0.42292,0.422917 0,0.120613 -0.12454,0.02245 -0.47301,-0.372831 z m -52.66086,-0.499812 c 0.1531,-0.169167 0.31296,-0.307576 0.35525,-0.307576 0.0423,0 -0.0484,0.138409 -0.20146,0.307576 -0.15309,0.169167 -0.31296,0.307577 -0.35525,0.307577 -0.0423,0 0.0484,-0.13841 0.20146,-0.307577 z m 51.81699,-0.499812 -0.45169,-0.499812 0.49981,0.45169 c 0.4659,0.421039 0.5705,0.547934 0.45169,0.547934 -0.0265,0 -0.25138,-0.224915 -0.49981,-0.499812 z m -50.89426,-0.576706 c 0.33038,-0.338334 0.63529,-0.615153 0.67758,-0.615153 0.0423,0 -0.19342,0.276819 -0.52379,0.615153 -0.33037,0.338334 -0.63528,0.615153 -0.67758,0.615153 -0.0423,0 0.19342,-0.276819 0.52379,-0.615153 z m 49.59148,-0.884283 -0.84058,-0.884283 0.88428,0.840583 c 0.82153,0.780927 0.95473,0.927983 0.84058,0.927983 -0.024,0 -0.42196,-0.397927 -0.88428,-0.884283 z m -48.20738,-0.6536 c 0.41655,-0.422918 0.79198,-0.768942 0.83427,-0.768942 0.0423,0 -0.26393,0.346024 -0.68049,0.768942 -0.41655,0.422918 -0.79198,0.768941 -0.83427,0.768941 -0.0423,0 0.26393,-0.346023 0.68049,-0.768941 z m 46.66647,-0.730495 -0.52998,-0.576706 0.57671,0.52998 c 0.53678,0.493294 0.64741,0.623432 0.52998,0.623432 -0.0257,0 -0.28522,-0.259517 -0.57671,-0.576706 z m -45.20548,-0.576706 c 0.28693,-0.296043 0.5563,-0.538259 0.59859,-0.538259 0.0423,0 -0.15787,0.242216 -0.44481,0.538259 -0.28693,0.296042 -0.5563,0.538259 -0.59859,0.538259 -0.0423,0 0.15787,-0.242217 0.44481,-0.538259 z m 44.19953,-0.26913 -0.29297,-0.346023 0.34602,0.292964 c 0.19032,0.161131 0.34603,0.316842 0.34603,0.346024 0,0.12307 -0.12377,0.03221 -0.39908,-0.292965 z m -43.19991,-0.576706 c 0.15309,-0.169167 0.31295,-0.307576 0.35525,-0.307576 0.0423,0 -0.0484,0.138409 -0.20146,0.307576 -0.1531,0.169167 -0.31296,0.307577 -0.35525,0.307577 -0.0423,0 0.0484,-0.13841 0.20146,-0.307577 z m 42.50285,0.03845 c -0.19129,-0.243917 -0.18585,-0.249356 0.0581,-0.05806 0.25617,0.200904 0.33764,0.327193 0.21106,0.327193 -0.0319,0 -0.15304,-0.121108 -0.26913,-0.26913 z m -0.61515,-0.461365 c -0.19129,-0.243917 -0.18585,-0.249356 0.0581,-0.05806 0.14802,0.116086 0.26913,0.237194 0.26913,0.269129 0,0.126573 -0.12629,0.04511 -0.32719,-0.211066 z m -41.34944,0.05728 c 0,-0.03194 0.12111,-0.153043 0.26913,-0.26913 0.24392,-0.191292 0.24935,-0.185853 0.0581,0.05806 -0.2009,0.256173 -0.32719,0.337639 -0.32719,0.211066 z m 0.61515,-0.461365 c 0,-0.03194 0.12111,-0.153043 0.26913,-0.26913 0.24392,-0.191292 0.24936,-0.185853 0.0581,0.05806 -0.20091,0.256173 -0.3272,0.337639 -0.3272,0.211066 z m 19.33888,-5.887744 c 0.10573,-0.04266 0.27874,-0.04266 0.38447,0 0.10573,0.04266 0.0192,0.07757 -0.19223,0.07757 -0.21146,0 -0.29797,-0.03491 -0.19224,-0.07757 z M 51.702269,74.656069 c 0.111016,-0.04443 0.243658,-0.03896 0.294761,0.01214 0.0511,0.0511 -0.03973,0.08745 -0.201848,0.08077 -0.179154,-0.0074 -0.215595,-0.04382 -0.09291,-0.09291 z m 3.844708,0 c 0.111016,-0.04443 0.243658,-0.03896 0.294761,0.01214 0.0511,0.0511 -0.03973,0.08745 -0.201848,0.08077 -0.179154,-0.0074 -0.215595,-0.04382 -0.09291,-0.09291 z m -5.228803,-0.153788 c 0.111016,-0.04442 0.243658,-0.03896 0.294761,0.01214 0.0511,0.0511 -0.03973,0.08745 -0.201847,0.08077 -0.179155,-0.0074 -0.215596,-0.04382 -0.09291,-0.09291 z m 6.612897,0 c 0.111016,-0.04442 0.243659,-0.03896 0.294761,0.01214 0.0511,0.0511 -0.03973,0.08745 -0.201847,0.08077 -0.179154,-0.0074 -0.215596,-0.04382 -0.09291,-0.09291 z m -7.381839,-0.153789 c 0.111016,-0.04442 0.243659,-0.03896 0.294761,0.01214 0.0511,0.0511 -0.03973,0.08745 -0.201847,0.08077 -0.179155,-0.0074 -0.215596,-0.04382 -0.09291,-0.09291 z m 8.304569,0 c 0.111016,-0.04442 0.243659,-0.03896 0.294761,0.01214 0.0511,0.0511 -0.03973,0.08745 -0.201847,0.08077 -0.179154,-0.0074 -0.215596,-0.04382 -0.09291,-0.09291 z m -9.07351,-0.153788 c 0.111015,-0.04443 0.243658,-0.03896 0.29476,0.01214 0.0511,0.0511 -0.03973,0.08745 -0.201847,0.08077 -0.179154,-0.0074 -0.215595,-0.04382 -0.09291,-0.09291 z M 71.42815,61.445618 c 0.0074,-0.179154 0.04382,-0.215595 0.09291,-0.09291 0.04443,0.111016 0.03896,0.243658 -0.01214,0.294761 -0.0511,0.0511 -0.08745,-0.03973 -0.08077,-0.201848 z m 0.153788,-0.922729 c 0.0074,-0.179155 0.04382,-0.215596 0.09291,-0.09291 0.04443,0.111016 0.03896,0.243658 -0.01214,0.294761 -0.0511,0.0511 -0.08745,-0.03973 -0.08077,-0.201847 z m 0.153789,-1.84546 c 0.0074,-0.179155 0.04382,-0.215596 0.09291,-0.09291 0.04443,0.111016 0.03896,0.243658 -0.01214,0.294761 -0.0511,0.0511 -0.08745,-0.03973 -0.08077,-0.201847 z m 0,-0.768942 c 0.0074,-0.179155 0.04382,-0.215596 0.09291,-0.09291 0.04443,0.111016 0.03896,0.243659 -0.01214,0.294761 -0.0511,0.0511 -0.08745,-0.03973 -0.08077,-0.201847 z m -0.153789,-1.84546 c 0.0074,-0.179154 0.04382,-0.215596 0.09291,-0.09291 0.04443,0.111016 0.03896,0.243659 -0.01214,0.294761 -0.0511,0.0511 -0.08745,-0.03973 -0.08077,-0.201847 z m -0.153788,-0.92273 c 0.0074,-0.179154 0.04382,-0.215595 0.09291,-0.09291 0.04443,0.111016 0.03896,0.243659 -0.01214,0.294761 -0.0511,0.0511 -0.08745,-0.03973 -0.08077,-0.201847 z m -0.153788,-0.768941 c 0.0074,-0.179155 0.04382,-0.215596 0.09291,-0.09291 0.04442,0.111016 0.03896,0.243658 -0.01214,0.294761 -0.0511,0.0511 -0.08745,-0.03973 -0.08077,-0.201847 z"
       id="path107" />
    <path
       style="fill:#ffffff;fill-opacity:1"
       d="m 69.800234,133.73895 c 0,-25.62883 0.01775,-36.090448 0.03944,-23.24805 0.02169,12.8424 0.02169,33.81144 -2e-6,46.59786 -0.02169,12.78643 -0.03944,2.27901 -0.03944,-23.34981 z m 79.969146,20.76142 c 0,-14.21004 0.0181,-20.00047 0.0402,-12.86762 0.0221,7.13284 0.0221,18.75924 0,25.83643 -0.0221,7.0772 -0.0402,1.24123 -0.0402,-12.96881 z m -63.674249,4.92123 c 5.3e-5,-2.96043 0.02072,-4.14975 0.04592,-2.64293 0.0252,1.50681 0.02516,3.92898 -9.5e-5,5.38259 -0.02525,1.45361 -0.04587,0.22076 -0.04582,-2.73966 z m 31.943019,-33.29518 c 0,-0.21146 0.0349,-0.29796 0.0776,-0.19223 0.0427,0.10573 0.0427,0.27874 0,0.38447 -0.0427,0.10573 -0.0776,0.0192 -0.0776,-0.19224 z m 5.05073,-11.61101 c 0.19866,-0.21146 0.3958,-0.38448 0.43809,-0.38448 0.0423,0 -0.0856,0.17302 -0.2843,0.38448 -0.19865,0.21145 -0.39579,0.38447 -0.43808,0.38447 -0.0423,0 0.0856,-0.17302 0.28429,-0.38447 z m 10.26537,-4.63861 c 0.10573,-0.0427 0.27875,-0.0427 0.38447,0 0.10573,0.0427 0.0192,0.0776 -0.19223,0.0776 -0.21146,0 -0.29797,-0.0349 -0.19224,-0.0776 z m 1.99925,0 c 0.10573,-0.0427 0.27874,-0.0427 0.38447,0 0.10573,0.0427 0.0192,0.0776 -0.19223,0.0776 -0.21146,0 -0.29797,-0.0349 -0.19224,-0.0776 z m 35.17427,-15.930583 -0.91792,-0.961177 0.96118,0.917916 c 0.52864,0.504854 0.96117,0.937383 0.96117,0.961177 0,0.113635 -0.15177,-0.02506 -1.00443,-0.917916 z m -48.05404,-0.6536 c 0.45943,-0.46521 0.86993,-0.845836 0.91222,-0.845836 0.0423,0 -0.299,0.380626 -0.75843,0.845836 -0.45943,0.46521 -0.86993,0.845836 -0.91222,0.845836 -0.0423,0 0.299,-0.380626 0.75843,-0.845836 z M 86.080487,90.678215 c -4.69e-4,-0.761252 0.02554,-1.092062 0.05779,-0.735134 0.03225,0.356928 0.03264,0.97977 8.52e-4,1.384094 -0.03178,0.404325 -0.05817,0.112293 -0.05864,-0.64896 z M 37.736367,87.08302 c 0,-0.155106 0.444785,-0.554511 0.516344,-0.463663 0.02615,0.0332 -0.07933,0.18147 -0.234399,0.329492 -0.15507,0.148021 -0.281945,0.208398 -0.281945,0.134171 z m 48.289532,0 c 0,-0.155106 0.444785,-0.554511 0.516344,-0.463663 0.02615,0.0332 -0.07933,0.18147 -0.234399,0.329492 -0.15507,0.148021 -0.281945,0.208398 -0.281945,0.134171 z m 31.641951,-0.19825 c -0.14803,-0.15507 -0.2084,-0.281945 -0.13418,-0.281945 0.15511,0 0.55451,0.444785 0.46367,0.516344 -0.0332,0.02615 -0.18147,-0.07933 -0.32949,-0.234399 z M 52.846069,74.647476 c 0.486356,-0.03052 1.28221,-0.03052 1.768566,0 0.486355,0.03052 0.08843,0.05549 -0.884283,0.05549 -0.972711,0 -1.370638,-0.02497 -0.884283,-0.05549 z m -2.076142,-0.141991 c 0.105729,-0.04266 0.278741,-0.04266 0.384471,0 0.105729,0.04266 0.01922,0.07757 -0.192236,0.07757 -0.211459,0 -0.297965,-0.03491 -0.192235,-0.07757 z m 5.462412,-0.0047 c 0.149631,-0.03899 0.357245,-0.03643 0.461365,0.0057 0.10412,0.04213 -0.01831,0.07403 -0.272056,0.07089 -0.253751,-0.0031 -0.33894,-0.0376 -0.189309,-0.07659 z M 42.176612,71.108651 c -0.191293,-0.243916 -0.185854,-0.249356 0.05806,-0.05806 0.148021,0.116086 0.26913,0.237194 0.26913,0.269129 0,0.126573 -0.126289,0.04511 -0.327193,-0.211066 z m 23.626123,-0.346023 c 0.153094,-0.169167 0.312955,-0.307577 0.355247,-0.307577 0.04229,0 -0.04836,0.13841 -0.201459,0.307577 -0.153094,0.169167 -0.312955,0.307576 -0.355247,0.307576 -0.04229,0 0.04837,-0.138409 0.201459,-0.307576 z m -25.225409,-1.114966 -1.072393,-1.114965 1.114965,1.072394 c 0.613231,0.589816 1.114965,1.091551 1.114965,1.114965 0,0.112805 -0.161497,-0.03681 -1.157537,-1.072394 z m 26.526183,0 c 0.637293,-0.679004 0.775368,-0.801097 0.775368,-0.68562 0,0.02468 -0.328722,0.353403 -0.730494,0.730495 l -0.730495,0.68562 z m 0.929157,-1.096134 c 0,-0.03194 0.121108,-0.153044 0.269129,-0.26913 0.243917,-0.191293 0.249357,-0.185853 0.05806,0.05806 -0.200905,0.256172 -0.327193,0.337639 -0.327193,0.211066 z m 3.57281,-8.707871 c 0,-0.296043 0.03165,-0.417151 0.07033,-0.26913 0.03868,0.148021 0.03868,0.390238 0,0.538259 -0.03868,0.148022 -0.07033,0.02691 -0.07033,-0.269129 z m 0,-3.075767 c 0,-0.296042 0.03165,-0.41715 0.07033,-0.269129 0.03868,0.148021 0.03868,0.390238 0,0.538259 -0.03868,0.148021 -0.07033,0.02691 -0.07033,-0.26913 z M 39.120462,48.251469 c 0,-0.03193 0.121108,-0.153043 0.269129,-0.26913 0.243917,-0.191292 0.249357,-0.185853 0.05806,0.05806 -0.200904,0.256173 -0.327193,0.337639 -0.327193,0.211066 z m 29.046376,-0.364854 c -0.191293,-0.243917 -0.185854,-0.249357 0.05806,-0.05806 0.256173,0.200905 0.337639,0.327193 0.211066,0.327193 -0.03194,0 -0.153043,-0.121108 -0.269129,-0.269129 z m -27.662281,-1.19186 c 0.459431,-0.465209 0.869931,-0.845836 0.912223,-0.845836 0.04229,0 -0.299004,0.380627 -0.758435,0.845836 -0.459431,0.46521 -0.869931,0.845836 -0.912223,0.845836 -0.04229,0 0.299004,-0.380626 0.758435,-0.845836 z m 26.446337,-0.192235 -0.840582,-0.884283 0.884283,0.840582 c 0.821526,0.780928 0.954732,0.927984 0.840582,0.927984 -0.02403,0 -0.421963,-0.397928 -0.884283,-0.884283 z M 41.734863,45.637068 c 0,-0.03193 0.121108,-0.153044 0.26913,-0.26913 0.243917,-0.191293 0.249356,-0.185853 0.05806,0.05806 -0.200904,0.256172 -0.327193,0.337639 -0.327193,0.211066 z m 23.817573,-0.364855 c -0.191293,-0.243917 -0.185853,-0.249356 0.05806,-0.05806 0.256172,0.200904 0.337639,0.327193 0.211066,0.327193 -0.03194,0 -0.153044,-0.121108 -0.26913,-0.26913 z"
       id="path106" />
    <path
       style="fill:#ffffff;fill-opacity:1"
       d="m 37.812263,133.73895 c 10e-7,-25.62883 0.01775,-36.090448 0.03944,-23.24805 0.02169,12.8424 0.02169,33.81144 -10e-7,46.59786 -0.02169,12.78643 -0.03944,2.27901 -0.03944,-23.34981 z m 48.285055,38.75465 c -2.7e-5,-4.31376 0.01967,-6.10062 0.04378,-3.9708 0.0241,2.12983 0.02413,5.65927 4.9e-5,7.84321 -0.02408,2.18394 -0.0438,0.44136 -0.04383,-3.87241 z m 31.837942,-18.91596 c 0,-14.71754 0.0181,-20.71558 0.0401,-13.32897 0.0221,7.38661 0.0221,19.42824 0,26.75917 -0.0221,7.33093 -0.0401,1.28734 -0.0401,-13.4302 z M 86.255079,123.05066 c 0,-16.87443 0.01797,-23.7776 0.03994,-15.34039 0.02197,8.43721 0.02197,22.24356 0,30.68077 -0.02197,8.43721 -0.03994,1.53404 -0.03994,-15.34038 z m 63.486841,4.84433 c 8.6e-4,-0.5075 0.0296,-0.69658 0.0638,-0.42016 0.0342,0.27641 0.0335,0.69164 -0.002,0.92273 -0.0351,0.23109 -0.0631,0.005 -0.0622,-0.50257 z m -0.17146,-1.99925 c 0.003,-0.25375 0.0376,-0.33894 0.0766,-0.18931 0.039,0.14963 0.0364,0.35725 -0.006,0.46137 -0.0421,0.10412 -0.074,-0.0183 -0.0709,-0.27206 z m -31.51781,-0.61515 c 0.002,-0.33834 0.0332,-0.45864 0.07,-0.26734 0.0368,0.1913 0.0354,0.46812 -0.003,0.61515 -0.0385,0.14704 -0.0686,-0.009 -0.0669,-0.34781 z m 31.34618,-0.62797 c 0.007,-0.17916 0.0438,-0.2156 0.0929,-0.0929 0.0444,0.11101 0.039,0.24365 -0.0121,0.29476 -0.0511,0.0511 -0.0875,-0.0397 -0.0808,-0.20185 z m -31.21903,-0.76894 c 0.007,-0.17916 0.0438,-0.2156 0.0929,-0.0929 0.0444,0.11102 0.039,0.24366 -0.0121,0.29476 -0.0511,0.0511 -0.0875,-0.0397 -0.0808,-0.20184 z m 62.74563,-7.38184 c 0.007,-0.17916 0.0438,-0.2156 0.0929,-0.0929 0.0444,0.11102 0.039,0.24366 -0.0121,0.29476 -0.0511,0.0511 -0.0875,-0.0397 -0.0808,-0.20184 z m -58.60549,-1.21749 c 0.19866,-0.21146 0.3958,-0.38447 0.43809,-0.38447 0.0423,0 -0.0856,0.17301 -0.2843,0.38447 -0.19865,0.21146 -0.39579,0.38447 -0.43809,0.38447 -0.0423,0 0.0857,-0.17301 0.2843,-0.38447 z m 22.29406,-1.73012 -0.84059,-0.88428 0.88429,0.84058 c 0.82152,0.78093 0.95473,0.92798 0.84058,0.92798 -0.024,0 -0.42196,-0.39793 -0.88428,-0.88428 z m -21.06375,0.52858 c 0,-0.0265 0.22491,-0.25138 0.49981,-0.49981 l 0.49981,-0.45169 -0.45169,0.49981 c -0.42104,0.4659 -0.54793,0.5705 -0.54793,0.45169 z m 7.96816,-4.05543 c 0.11101,-0.0444 0.24365,-0.039 0.29476,0.0121 0.0511,0.0511 -0.0397,0.0875 -0.20185,0.0808 -0.17915,-0.007 -0.2156,-0.0438 -0.0929,-0.0929 z m 0.99001,-0.15474 c 0.14802,-0.0387 0.39024,-0.0387 0.53826,0 0.14802,0.0387 0.0269,0.0703 -0.26913,0.0703 -0.29604,0 -0.41715,-0.0316 -0.26913,-0.0703 z m 3.53713,0 c 0.14802,-0.0387 0.39024,-0.0387 0.53826,0 0.14802,0.0387 0.0269,0.0703 -0.26913,0.0703 -0.29604,0 -0.41715,-0.0316 -0.26913,-0.0703 z m -1.60517,-0.15283 c 0.11102,-0.0444 0.24366,-0.039 0.29477,0.0121 0.0511,0.0511 -0.0397,0.0875 -0.20185,0.0808 -0.17916,-0.007 -0.2156,-0.0438 -0.0929,-0.0929 z M 117.92985,92.98504 c -5e-5,-3.214176 0.0203,-4.550922 0.0453,-2.970548 0.025,1.580375 0.025,4.210155 9e-5,5.843957 -0.0249,1.633801 -0.0454,0.340767 -0.0454,-2.873409 z m 1.46811,3.863539 c 0,-0.03194 0.12111,-0.153043 0.26913,-0.26913 0.24392,-0.191293 0.24936,-0.185853 0.0581,0.05806 -0.20091,0.256172 -0.3272,0.337639 -0.3272,0.211066 z m 53.27304,-0.441749 -0.29296,-0.346023 0.34602,0.292964 c 0.19032,0.161131 0.34603,0.316842 0.34603,0.346024 0,0.12307 -0.12377,0.03221 -0.39909,-0.292965 z m -52.65788,-0.327193 c 0,-0.03194 0.12111,-0.153043 0.26913,-0.269129 0.24391,-0.191293 0.24935,-0.185854 0.0581,0.05806 -0.2009,0.256173 -0.32719,0.337639 -0.32719,0.211066 z m 51.81502,-0.672431 -0.37283,-0.422918 0.42292,0.372832 c 0.2326,0.205057 0.42292,0.39537 0.42292,0.422917 0,0.120613 -0.12454,0.02245 -0.47301,-0.372831 z M 121.08964,94.8305 c 0.28693,-0.296042 0.5563,-0.538259 0.59859,-0.538259 0.0423,0 -0.15787,0.242217 -0.44481,0.538259 -0.28693,0.296043 -0.5563,0.538259 -0.59859,0.538259 -0.0423,0 0.15787,-0.242216 0.44481,-0.538259 z m 47.89538,-2.268378 -0.45169,-0.499812 0.49981,0.451691 c 0.2749,0.248429 0.49982,0.473345 0.49982,0.499812 0,0.11881 -0.1269,0.0142 -0.54794,-0.451691 z m -45.43477,-0.163463 c 0,-0.02647 0.22491,-0.251382 0.49981,-0.499812 l 0.49981,-0.45169 -0.45169,0.499812 c -0.42104,0.465895 -0.54793,0.570501 -0.54793,0.45169 z m 44.42521,-0.682372 c -0.1913,-0.243917 -0.18586,-0.249357 0.0581,-0.05806 0.14802,0.116086 0.26913,0.237195 0.26913,0.26913 0,0.126573 -0.12629,0.04511 -0.32719,-0.211066 z m -43.1949,-0.404088 c 0,-0.03194 0.1211,-0.153043 0.26912,-0.269129 0.24392,-0.191293 0.24936,-0.185854 0.0581,0.05806 -0.20091,0.256173 -0.32719,0.337639 -0.32719,0.211066 z M 86.077604,88.294496 c 0,-0.634376 0.02715,-0.893894 0.06033,-0.576706 0.03318,0.317189 0.03318,0.836224 0,1.153413 -0.03318,0.317188 -0.06033,0.05767 -0.06033,-0.576707 z M 46.091109,86.641297 c 4.299065,-0.02272 11.288744,-0.02271 15.53262,1.4e-5 4.243876,0.02272 0.726458,0.04131 -7.816483,0.0413 -8.542941,-8e-6 -12.015203,-0.0186 -7.716137,-0.04132 z m 48.200912,7e-6 c 4.250325,-0.02273 11.205399,-0.02273 15.455729,0 4.25032,0.02273 0.77278,0.04132 -7.72787,0.04132 -8.500645,0 -11.978184,-0.01859 -7.727859,-0.04132 z m 57.987809,-1.681417 c 0.11102,-0.04442 0.24366,-0.03896 0.29476,0.01214 0.0511,0.0511 -0.0397,0.08745 -0.20185,0.08077 -0.17915,-0.0074 -0.21559,-0.04382 -0.0929,-0.09291 z m -12.45685,-0.153789 c 0.11101,-0.04443 0.24365,-0.03896 0.29476,0.01214 0.0511,0.0511 -0.0397,0.08745 -0.20185,0.08077 -0.17916,-0.0074 -0.2156,-0.04382 -0.0929,-0.09291 z m 11.37072,0.0032 c 0.10573,-0.04266 0.27874,-0.04266 0.38447,0 0.10573,0.04266 0.0192,0.07757 -0.19224,0.07757 -0.21145,0 -0.29796,-0.03491 -0.19223,-0.07757 z m -10.22692,-0.157947 c 0.14802,-0.03868 0.39023,-0.03868 0.53826,0 0.14802,0.03868 0.0269,0.07033 -0.26913,0.07033 -0.29605,0 -0.41716,-0.03165 -0.26913,-0.07033 z m 8.76593,0 c 0.14802,-0.03868 0.39024,-0.03868 0.53826,0 0.14802,0.03868 0.0269,0.07033 -0.26913,0.07033 -0.29604,0 -0.41715,-0.03165 -0.26913,-0.07033 z m -6.60826,-0.161008 c 0.40433,-0.03178 1.02717,-0.0314 1.3841,8.52e-4 0.35693,0.03225 0.0261,0.05826 -0.73514,0.05779 -0.76125,-4.69e-4 -1.05328,-0.02686 -0.64896,-0.05864 z m 3.53249,1.89e-4 c 0.40178,-0.03168 1.05922,-0.03168 1.46099,0 0.40177,0.03168 0.073,0.0576 -0.73049,0.0576 -0.80355,0 -1.13227,-0.02592 -0.7305,-0.0576 z"
       id="path105" />
    <path
       style="fill:#ffffff;fill-opacity:1"
       d="m 123.01199,114.43851 c 0.15309,-0.16917 0.31296,-0.30758 0.35525,-0.30758 0.0423,0 -0.0484,0.13841 -0.20146,0.30758 -0.1531,0.16917 -0.31296,0.30758 -0.35525,0.30758 -0.0423,0 0.0484,-0.13841 0.20146,-0.30758 z m 47.43844,-20.415399 -0.84058,-0.884282 0.88428,0.840582 c 0.82153,0.780928 0.95474,0.927983 0.84059,0.927983 -0.024,0 -0.42197,-0.397927 -0.88429,-0.884283 z m -47.89981,-0.6536 c 0.41656,-0.422918 0.79199,-0.768942 0.83428,-0.768942 0.0423,0 -0.26393,0.346024 -0.68049,0.768942 -0.41656,0.422918 -0.79198,0.768942 -0.83427,0.768942 -0.0423,0 0.26393,-0.346024 0.68048,-0.768942 z m 22.79912,-8.867785 c 0.10573,-0.04266 0.27874,-0.04266 0.38447,0 0.10573,0.04266 0.0192,0.07757 -0.19223,0.07757 -0.21146,0 -0.29797,-0.03491 -0.19224,-0.07757 z M 42.176612,70.954863 c -0.191293,-0.243917 -0.185854,-0.249356 0.05806,-0.05806 0.148021,0.116087 0.26913,0.237195 0.26913,0.26913 0,0.126573 -0.126289,0.04511 -0.327193,-0.211066 z m 23.395441,-0.09651 c 0,-0.03193 0.121108,-0.153043 0.269129,-0.269129 0.243917,-0.191293 0.249357,-0.185853 0.05806,0.05806 -0.200905,0.256173 -0.327193,0.337639 -0.327193,0.211066 z m -24.918151,-1.287584 -0.995181,-1.038071 1.038071,0.995181 c 0.570939,0.54735 1.038071,1.014482 1.038071,1.038072 0,0.11319 -0.156594,-0.03098 -1.080961,-0.995182 z m 26.37914,-0.03845 c 0.330374,-0.338334 0.635283,-0.615153 0.677575,-0.615153 0.04229,0 -0.193412,0.276819 -0.523787,0.615153 -0.330375,0.338334 -0.635284,0.615153 -0.677575,0.615153 -0.04229,0 0.193412,-0.276819 0.523787,-0.615153 z m 0.845835,-0.980793 c 0,-0.03194 0.121109,-0.153044 0.26913,-0.26913 0.243917,-0.191293 0.249356,-0.185853 0.05806,0.05806 -0.200905,0.256172 -0.327194,0.337639 -0.327194,0.211066 z M 39.27425,48.251469 c 0,-0.03193 0.121108,-0.153043 0.26913,-0.26913 0.243916,-0.191292 0.249356,-0.185853 0.05806,0.05806 -0.200904,0.256173 -0.327193,0.337639 -0.327193,0.211066 z m 28.738799,-0.364854 c -0.191293,-0.243917 -0.185853,-0.249357 0.05806,-0.05806 0.256172,0.200905 0.337639,0.327193 0.211066,0.327193 -0.03194,0 -0.153044,-0.121108 -0.26913,-0.269129 z M 40.581451,46.771649 c 0.416558,-0.422917 0.791981,-0.768941 0.834273,-0.768941 0.04229,0 -0.263926,0.346024 -0.680485,0.768941 -0.416558,0.422918 -0.791981,0.768942 -0.834273,0.768942 -0.04229,0 0.263926,-0.346024 0.680485,-0.768942 z m 26.292021,-0.192235 -0.76316,-0.807389 0.807388,0.763161 c 0.75024,0.709142 0.877916,0.851617 0.763161,0.851617 -0.02433,0 -0.387651,-0.363325 -0.807389,-0.807389 z M 41.734863,45.790856 c 0,-0.03193 0.121108,-0.153043 0.26913,-0.26913 0.243917,-0.191292 0.249356,-0.185853 0.05806,0.05806 -0.200904,0.256173 -0.327193,0.337639 -0.327193,0.211066 z m 23.817573,-0.364854 c -0.191293,-0.243917 -0.185853,-0.249357 0.05806,-0.05806 0.256172,0.200904 0.337639,0.327193 0.211066,0.327193 -0.03194,0 -0.153044,-0.121108 -0.26913,-0.269129 z"
       id="path104" />
    <path
       style="fill:#ffffff;fill-opacity:1"
       d="m 52.769175,74.493471 c 0.528647,-0.03003 1.393707,-0.03003 1.922354,0 0.528647,0.03003 0.09612,0.0546 -0.961177,0.0546 -1.057295,0 -1.489824,-0.02457 -0.961177,-0.0546 z M 50.62575,74.348492 c 0.111016,-0.04442 0.243659,-0.03896 0.294761,0.01214 0.0511,0.0511 -0.03973,0.08745 -0.201847,0.08077 -0.179154,-0.0074 -0.215596,-0.04382 -0.09291,-0.09291 z m 5.834345,0.0032 c 0.105729,-0.04266 0.278741,-0.04266 0.384471,0 0.105729,0.04266 0.01922,0.07757 -0.192236,0.07757 -0.211459,0 -0.297965,-0.03491 -0.192235,-0.07757 z M 71.44599,60.074339 c 0.0031,-0.25375 0.0376,-0.338939 0.07659,-0.189308 0.03899,0.149631 0.03643,0.357245 -0.0057,0.461365 -0.04213,0.104119 -0.07403,-0.01831 -0.07089,-0.272057 z m 0.148089,-1.768565 c 0,-0.211459 0.03491,-0.297965 0.07757,-0.192236 0.04266,0.10573 0.04266,0.278741 0,0.384471 -0.04266,0.105729 -0.07757,0.01922 -0.07757,-0.192235 z M 71.44599,56.537208 c 0.0031,-0.253751 0.0376,-0.33894 0.07659,-0.189309 0.03899,0.149631 0.03643,0.357246 -0.0057,0.461365 -0.04213,0.10412 -0.07403,-0.0183 -0.07089,-0.272056 z"
       id="path103" />
    <path
       style="fill:#ffffff;fill-opacity:1"
       d="m 69.646444,133.81584 c 0,-25.58653 0.01775,-36.05375 0.03944,-23.26048 0.02169,12.79326 0.02169,33.7277 0,46.52096 -0.02169,12.79327 -0.03944,2.32605 -0.03944,-23.26048 z m 80.276716,20.76142 c 0,-14.16775 0.0181,-19.96364 0.0402,-12.87977 0.0221,7.08388 0.0221,18.67567 0,25.75955 -0.0221,7.08387 -0.0402,1.28797 -0.0402,-12.87978 z m -63.674437,4.84434 c 5.6e-5,-2.87585 0.0208,-4.0306 0.0461,-2.56611 0.0253,1.46448 0.02525,3.81744 -1.01e-4,5.2288 -0.02536,1.41136 -0.04606,0.21315 -0.046,-2.66269 z m 35.763647,-43.96463 c 0,-0.0319 0.1211,-0.15305 0.26913,-0.26913 0.24391,-0.1913 0.24935,-0.18586 0.0581,0.0581 -0.20091,0.25617 -0.32719,0.33764 -0.32719,0.21107 z m 22.67799,-1.97964 -0.76316,-0.80738 0.80739,0.76316 c 0.75024,0.70914 0.87792,0.85161 0.76316,0.85161 -0.0243,0 -0.38765,-0.36332 -0.80739,-0.80739 z m -20.75564,0.0385 c 0.15309,-0.16917 0.31296,-0.30758 0.35525,-0.30758 0.0423,0 -0.0484,0.13841 -0.20146,0.30758 -0.1531,0.16917 -0.31296,0.30758 -0.35525,0.30758 -0.0423,0 0.0484,-0.13841 0.20146,-0.30758 z m 48.65439,-17.032055 c -0.1913,-0.243917 -0.18586,-0.249357 0.0581,-0.05806 0.14802,0.116086 0.26913,0.237195 0.26913,0.269129 0,0.126574 -0.12629,0.04511 -0.32719,-0.211065 z m -0.84084,-0.999625 -0.29296,-0.346023 0.34602,0.292965 c 0.32518,0.275314 0.41604,0.399082 0.29297,0.399082 -0.0292,0 -0.18489,-0.155711 -0.34603,-0.346024 z m -50.50485,-0.6536 c 0.19866,-0.211459 0.3958,-0.384471 0.43809,-0.384471 0.0423,0 -0.0856,0.173012 -0.2843,0.384471 -0.19865,0.211459 -0.39579,0.384471 -0.43808,0.384471 -0.0423,0 0.0856,-0.173012 0.28429,-0.384471 z m 47.66274,-2.191484 -0.37283,-0.422917 0.42292,0.372831 c 0.2326,0.205057 0.42292,0.39537 0.42292,0.422918 0,0.120612 -0.12454,0.02245 -0.47301,-0.372832 z M 124.01161,92.06231 c 0.19866,-0.211459 0.3958,-0.384471 0.43809,-0.384471 0.0423,0 -0.0856,0.173012 -0.2843,0.384471 -0.19865,0.211459 -0.39579,0.384471 -0.43808,0.384471 -0.0423,0 0.0856,-0.173012 0.28429,-0.384471 z M 86.232408,90.678215 c 5.58e-4,-0.676668 0.02759,-0.934357 0.06008,-0.572641 0.03249,0.361716 0.03203,0.915354 -0.001,1.230307 -0.03305,0.314952 -0.05963,0.019 -0.05907,-0.657666 z"
       id="path102" />
    <path
       style="fill:#ffffff;fill-opacity:1"
       d="m 65.418264,70.858352 c 0,-0.03193 0.121109,-0.153043 0.26913,-0.269129 0.243917,-0.191293 0.249356,-0.185853 0.05806,0.05806 -0.200904,0.256173 -0.327193,0.337639 -0.327193,0.211066 z m -24.687149,-1.364478 -1.072394,-1.114965 1.114965,1.072393 c 0.613231,0.589817 1.114966,1.091551 1.114966,1.114966 0,0.112804 -0.161498,-0.03681 -1.157537,-1.072394 z m 26.218605,0 c 0.377092,-0.401772 0.705814,-0.730495 0.730495,-0.730495 0.115477,0 -0.0066,0.138076 -0.68562,0.775369 L 66.2641,70.224369 Z m 0.929157,-1.096135 c 0,-0.03194 0.121109,-0.153043 0.26913,-0.269129 0.243917,-0.191293 0.249356,-0.185854 0.05806,0.05806 -0.200905,0.256173 -0.327194,0.337639 -0.327194,0.211066 z m 0.134172,-20.357336 c -0.191293,-0.243917 -0.185853,-0.249356 0.05806,-0.05806 0.256172,0.200905 0.337639,0.327194 0.211066,0.327194 -0.03194,0 -0.153044,-0.121109 -0.26913,-0.26913 z M 40.658345,46.848544 c 0.459431,-0.46521 0.869931,-0.845836 0.912223,-0.845836 0.04229,0 -0.299004,0.380626 -0.758435,0.845836 -0.459431,0.465209 -0.869931,0.845835 -0.912223,0.845835 -0.04229,0 0.299004,-0.380626 0.758435,-0.845835 z m 26.138761,-0.192236 -0.840583,-0.884283 0.884283,0.840583 c 0.821527,0.780927 0.954732,0.927983 0.840583,0.927983 -0.02404,0 -0.421963,-0.397927 -0.884283,-0.884283 z M 41.888652,45.790856 c 0,-0.03193 0.121108,-0.153043 0.269129,-0.26913 0.243917,-0.191292 0.249356,-0.185853 0.05806,0.05806 -0.200905,0.256173 -0.327193,0.337639 -0.327193,0.211066 z m 23.509996,-0.364854 c -0.191293,-0.243917 -0.185853,-0.249357 0.05806,-0.05806 0.256173,0.200904 0.337639,0.327193 0.211066,0.327193 -0.03194,0 -0.153043,-0.121108 -0.269129,-0.269129 z"
       id="path101" />
    <path
       style="fill:#ffffff;fill-opacity:1"
       d="m 37.96605,133.81584 c 0,-25.58653 0.01775,-36.05375 0.03944,-23.26048 0.02169,12.79326 0.02169,33.7277 0,46.52096 -0.02169,12.79327 -0.03944,2.32605 -0.03944,-23.26048 z m 48.285008,38.75466 c 0,-4.27147 0.01973,-6.01889 0.04385,-3.88316 0.02412,2.13574 0.02412,5.63058 0,7.76631 -0.02412,2.13574 -0.04385,0.38832 -0.04385,-3.88315 z m 31.530422,-19.06976 c 0,-14.75983 0.0181,-20.79794 0.0401,-13.41803 0.0221,7.37992 0.0221,19.45615 0,26.83607 -0.0221,7.37991 -0.0401,1.3418 -0.0401,-13.41804 z M 86.408875,123.05066 c 0,-16.95901 0.01797,-23.896786 0.03993,-15.41728 0.02196,8.4795 0.02196,22.35505 0,30.83456 -0.02196,8.4795 -0.03993,1.54172 -0.03993,-15.41728 z m 63.486835,4.69054 c 8.6e-4,-0.5075 0.0296,-0.69657 0.0638,-0.42016 0.0342,0.27641 0.0335,0.69164 -0.002,0.92273 -0.0351,0.23109 -0.0631,0.005 -0.0622,-0.50257 z m -0.17147,-1.99925 c 0.003,-0.25375 0.0376,-0.33894 0.0766,-0.18931 0.039,0.14964 0.0364,0.35725 -0.006,0.46137 -0.0421,0.10412 -0.074,-0.0183 -0.0709,-0.27206 z m -31.82538,-0.61515 c 0.002,-0.33833 0.0332,-0.45864 0.07,-0.26734 0.0368,0.1913 0.0354,0.46812 -0.003,0.61516 -0.0385,0.14703 -0.0686,-0.009 -0.0669,-0.34782 z m 31.65376,-0.62797 c 0.007,-0.17915 0.0438,-0.2156 0.0929,-0.0929 0.0444,0.11101 0.039,0.24366 -0.0121,0.29476 -0.0511,0.0511 -0.0874,-0.0397 -0.0808,-0.20185 z m -31.52661,-0.76894 c 0.007,-0.17916 0.0438,-0.2156 0.0929,-0.0929 0.0444,0.11101 0.039,0.24365 -0.0121,0.29476 -0.0511,0.0511 -0.0875,-0.0397 -0.0808,-0.20185 z m 62.91156,-6.06182 c 0,-0.21146 0.0349,-0.29797 0.0776,-0.19224 0.0427,0.10573 0.0427,0.27874 0,0.38447 -0.0427,0.10573 -0.0776,0.0192 -0.0776,-0.19223 z m -0.16593,-1.01244 c 0.007,-0.17916 0.0438,-0.2156 0.0929,-0.0929 0.0444,0.11102 0.039,0.24366 -0.0121,0.29476 -0.0511,0.0511 -0.0874,-0.0397 -0.0808,-0.20184 z m -49.40702,-6.78204 c 0.11101,-0.0444 0.24366,-0.039 0.29476,0.0122 0.0511,0.0511 -0.0397,0.0875 -0.20185,0.0808 -0.17915,-0.007 -0.21559,-0.0438 -0.0929,-0.0929 z m 0.99001,-0.15474 c 0.14802,-0.0387 0.39024,-0.0387 0.53826,0 0.14802,0.0387 0.0269,0.0703 -0.26913,0.0703 -0.29604,0 -0.41715,-0.0316 -0.26913,-0.0703 z m 3.84471,0 c 0.14802,-0.0387 0.39024,-0.0387 0.53826,0 0.14802,0.0387 0.0269,0.0703 -0.26913,0.0703 -0.29604,0 -0.41715,-0.0316 -0.26913,-0.0703 z m -1.84253,-0.15435 c 0.14963,-0.039 0.35724,-0.0364 0.46136,0.006 0.10412,0.0421 -0.0183,0.074 -0.27206,0.0709 -0.25375,-0.003 -0.33894,-0.0376 -0.1893,-0.0766 z M 117.77614,93.215723 c 0,-3.256468 0.0204,-4.588659 0.0453,-2.960426 0.0249,1.628234 0.0249,4.292617 0,5.920851 -0.0249,1.628234 -0.0453,0.296042 -0.0453,-2.960425 z M 86.228911,88.294496 c 0,-0.549793 0.02791,-0.774708 0.06203,-0.499812 0.03411,0.274897 0.03411,0.724728 0,0.999624 -0.03411,0.274897 -0.06203,0.04998 -0.06203,-0.499812 z m -40.060919,-1.49941 c 4.256768,-0.02273 11.177243,-0.02273 15.378832,1.4e-5 4.20159,0.02274 0.71878,0.04134 -7.739578,0.04133 -8.458357,-8e-6 -11.896022,-0.01861 -7.639254,-0.04135 z m 48.200923,7e-6 c 4.208033,-0.02274 11.093905,-0.02274 15.301935,0 4.20804,0.02274 0.7651,0.04135 -7.65097,0.04135 -8.416062,0 -11.858998,-0.01861 -7.650965,-0.04135 z m 57.757125,-1.681418 c 0.11102,-0.04443 0.24366,-0.03896 0.29476,0.01214 0.0511,0.0511 -0.0397,0.08745 -0.20185,0.08077 -0.17915,-0.0074 -0.21559,-0.04382 -0.0929,-0.09291 z m -12.14928,-0.153788 c 0.11102,-0.04442 0.24366,-0.03896 0.29476,0.01214 0.0511,0.0511 -0.0397,0.08745 -0.20184,0.08077 -0.17916,-0.0074 -0.2156,-0.04382 -0.0929,-0.09291 z m 11.06315,0.0032 c 0.10573,-0.04266 0.27874,-0.04266 0.38447,0 0.10573,0.04266 0.0192,0.07757 -0.19223,0.07757 -0.21146,0 -0.29797,-0.03491 -0.19224,-0.07757 z m -9.91935,-0.157948 c 0.14803,-0.03868 0.39024,-0.03868 0.53826,0 0.14802,0.03868 0.0269,0.07033 -0.26913,0.07033 -0.29604,0 -0.41715,-0.03165 -0.26913,-0.07033 z m 8.45836,0 c 0.14802,-0.03868 0.39024,-0.03868 0.53826,0 0.14802,0.03868 0.0269,0.07033 -0.26913,0.07033 -0.29604,0 -0.41715,-0.03165 -0.26913,-0.07033 z m -6.30068,-0.161008 c 0.40433,-0.03178 1.02717,-0.0314 1.3841,8.52e-4 0.35692,0.03225 0.0261,0.05826 -0.73514,0.05779 -0.76125,-4.69e-4 -1.05328,-0.02686 -0.64896,-0.05864 z m 3.22492,1.89e-4 c 0.40177,-0.03168 1.05921,-0.03168 1.46098,0 0.40178,0.03168 0.0731,0.0576 -0.73049,0.0576 -0.80354,0 -1.13227,-0.02592 -0.73049,-0.0576 z"
       id="path100" />
    <path
       style="fill:#ffffff;fill-opacity:1"
       d="m 122.9351,114.36162 c 0.28693,-0.29605 0.5563,-0.53826 0.59859,-0.53826 0.0423,0 -0.15787,0.24221 -0.44481,0.53826 -0.28693,0.29604 -0.5563,0.53826 -0.59859,0.53826 -0.0423,0 0.15787,-0.24222 0.44481,-0.53826 z m 47.43791,-20.261614 -0.76316,-0.807389 0.80739,0.76316 c 0.75024,0.709143 0.87791,0.851617 0.76316,0.851617 -0.0243,0 -0.38765,-0.363325 -0.80739,-0.807388 z m -47.75192,-0.615154 c 0.37709,-0.401772 0.70582,-0.730494 0.7305,-0.730494 0.11547,0 -0.007,0.138075 -0.68562,0.775368 l -0.7305,0.685621 z m -86.090747,-32.2571 c 0,-0.211459 0.03491,-0.297965 0.07757,-0.192236 0.04266,0.10573 0.04266,0.278742 0,0.384471 -0.04266,0.10573 -0.07757,0.01922 -0.07757,-0.192235 z m -0.142392,-1.076519 c 0,-0.296042 0.03165,-0.41715 0.07033,-0.269129 0.03868,0.148021 0.03868,0.390238 0,0.538259 -0.03868,0.148021 -0.07033,0.02691 -0.07033,-0.26913 z m 0,-3.998496 c 0,-0.296042 0.03165,-0.417151 0.07033,-0.26913 0.03868,0.148022 0.03868,0.390238 0,0.53826 -0.03868,0.148021 -0.07033,0.02691 -0.07033,-0.26913 z m 0.142392,-1.076518 c 0,-0.211459 0.03491,-0.297965 0.07757,-0.192236 0.04266,0.10573 0.04266,0.278742 0,0.384471 -0.04266,0.10573 -0.07757,0.01922 -0.07757,-0.192235 z M 50.000985,42.209937 c 0.10573,-0.04266 0.278742,-0.04266 0.384471,0 0.10573,0.04266 0.01922,0.07757 -0.192235,0.07757 -0.211459,0 -0.297965,-0.03491 -0.192236,-0.07757 z m 7.615449,-0.0047 c 0.149631,-0.03899 0.357245,-0.03643 0.461365,0.0057 0.10412,0.04213 -0.01831,0.07403 -0.272056,0.07089 -0.253751,-0.0031 -0.33894,-0.0376 -0.189309,-0.07659 z M 51.000609,42.05199 c 0.148022,-0.03868 0.390238,-0.03868 0.53826,0 0.148021,0.03868 0.02691,0.07033 -0.26913,0.07033 -0.296043,0 -0.417151,-0.03165 -0.26913,-0.07033 z m 5.461279,-0.0028 c 0.191299,-0.03679 0.468118,-0.03539 0.615153,0.0031 0.147035,0.03849 -0.0095,0.06859 -0.347817,0.06688 -0.338334,-0.0017 -0.458635,-0.0332 -0.267336,-0.06999 z"
       id="path99" />
    <path
       style="fill:#ffffff;fill-opacity:1"
       d="m 122.08926,115.20745 c 0.15309,-0.16916 0.31296,-0.30757 0.35525,-0.30757 0.0423,0 -0.0484,0.13841 -0.20146,0.30757 -0.1531,0.16917 -0.31296,0.30758 -0.35525,0.30758 -0.0423,0 0.0484,-0.13841 0.20146,-0.30758 z m 22.67852,-1.80701 -0.84058,-0.88428 0.88428,0.84058 c 0.82153,0.78093 0.95474,0.92798 0.84059,0.92798 -0.024,0 -0.42197,-0.39792 -0.88429,-0.88428 z m -20.90995,0.0384 c 0.19865,-0.21146 0.39579,-0.38447 0.43808,-0.38447 0.0423,0 -0.0856,0.17301 -0.2843,0.38447 -0.19865,0.21146 -0.39579,0.38447 -0.43808,0.38447 -0.0423,0 0.0856,-0.17301 0.2843,-0.38447 z m -6.15154,-14.132075 c 0,-0.03324 0.1074,-0.101654 0.23867,-0.152027 0.13686,-0.05252 0.19859,-0.02674 0.14471,0.06044 -0.0903,0.14613 -0.38338,0.216141 -0.38338,0.09159 z m 1.84546,-2.304448 c 0,-0.03194 0.12111,-0.153043 0.26913,-0.269129 0.24392,-0.191293 0.24936,-0.185854 0.0581,0.05806 -0.20091,0.256173 -0.3272,0.337639 -0.3272,0.211066 z m 52.96547,-0.441748 -0.29297,-0.346024 0.34603,0.292965 c 0.32517,0.275314 0.41603,0.399082 0.29296,0.399082 -0.0292,0 -0.18489,-0.15571 -0.34602,-0.346023 z m -52.35031,-0.327193 c 0,-0.03193 0.1211,-0.153044 0.26913,-0.26913 0.24391,-0.191293 0.24935,-0.185853 0.0581,0.05806 -0.20091,0.256172 -0.32719,0.337639 -0.32719,0.211066 z m 51.50744,-0.672431 -0.37283,-0.422918 0.42292,0.372831 c 0.39528,0.348467 0.49344,0.473004 0.37283,0.473004 -0.0276,0 -0.21786,-0.190313 -0.42292,-0.422917 z m -50.7385,-0.240358 c 0,-0.02647 0.22491,-0.251382 0.49981,-0.499812 l 0.49981,-0.45169 -0.45169,0.499812 c -0.42104,0.465895 -0.54793,0.570501 -0.54793,0.45169 z m 47.89538,-2.604726 -0.45169,-0.499812 0.49982,0.45169 c 0.27489,0.24843 0.49981,0.473345 0.49981,0.499812 0,0.118811 -0.1269,0.0142 -0.54794,-0.45169 z m -45.12719,-0.163463 c 0,-0.02647 0.22491,-0.251383 0.49981,-0.499812 l 0.49981,-0.451691 -0.45169,0.499812 c -0.42104,0.465895 -0.54793,0.570501 -0.54793,0.451691 z m 44.11763,-0.682373 c -0.19129,-0.243917 -0.18586,-0.249357 0.0581,-0.05806 0.25617,0.200905 0.33764,0.327193 0.21107,0.327193 -0.0319,0 -0.15305,-0.121108 -0.26913,-0.269129 z m -42.88733,-0.404087 c 0,-0.03193 0.12111,-0.153044 0.26913,-0.26913 0.24392,-0.191293 0.24936,-0.185853 0.0581,0.05806 -0.20091,0.256172 -0.3272,0.337639 -0.3272,0.211066 z"
       id="path98" />
    <path
       style="fill:#ffffff;fill-opacity:1"
       d="m 69.492657,133.73895 c 1e-6,-25.62883 0.01775,-36.090448 0.03944,-23.24805 0.02169,12.8424 0.02169,33.81144 -2e-6,46.59786 -0.02169,12.78643 -0.03944,2.27901 -0.03944,-23.34981 z m 80.584293,20.91521 c 0,-14.12546 0.0181,-19.88129 0.0402,-12.79074 0.0221,7.09056 0.0221,18.64775 0,25.68265 -0.0221,7.03491 -0.0402,1.23354 -0.0402,-12.89191 z m -63.674438,4.61365 c 5.5e-5,-2.87584 0.0208,-4.03059 0.0461,-2.56611 0.0253,1.46448 0.02525,3.81744 -1.01e-4,5.2288 -0.02535,1.41136 -0.04605,0.21315 -0.046,-2.66269 z m -0.01632,-68.435806 c 5.58e-4,-0.676669 0.0276,-0.934357 0.06008,-0.572641 0.03249,0.361716 0.03203,0.915354 -10e-4,1.230306 -0.03305,0.314953 -0.05963,0.019 -0.05907,-0.657665 z M 52.769175,74.339683 c 0.528647,-0.03003 1.393707,-0.03003 1.922354,0 0.528647,0.03003 0.09612,0.0546 -0.961177,0.0546 -1.057295,0 -1.489824,-0.02457 -0.961177,-0.0546 z m -2.153036,-0.141775 c 0.105729,-0.04266 0.278741,-0.04266 0.38447,0 0.10573,0.04266 0.01922,0.07757 -0.192235,0.07757 -0.211459,0 -0.297965,-0.03491 -0.192235,-0.07757 z m 5.769988,-0.0047 c 0.149631,-0.03899 0.357246,-0.03643 0.461365,0.0057 0.10412,0.04213 -0.01831,0.07403 -0.272056,0.07089 -0.253751,-0.0031 -0.33894,-0.0376 -0.189309,-0.07659 z m 1.160098,-0.152269 c 0.111016,-0.04442 0.243658,-0.03896 0.294761,0.01214 0.0511,0.0511 -0.03973,0.08745 -0.201848,0.08077 -0.179154,-0.0074 -0.215595,-0.04382 -0.09291,-0.09291 z M 71.120573,61.138042 c 0.0074,-0.179155 0.04382,-0.215596 0.09291,-0.09291 0.04443,0.111016 0.03896,0.243658 -0.01214,0.294761 -0.0511,0.0511 -0.08745,-0.03973 -0.08077,-0.201847 z M 71.2979,59.997445 c 0,-0.296042 0.03165,-0.417151 0.07033,-0.269129 0.03868,0.148021 0.03868,0.390237 0,0.538259 -0.03868,0.148021 -0.07033,0.02691 -0.07033,-0.26913 z m 0.142391,-1.691671 c 0,-0.211459 0.03491,-0.297965 0.07757,-0.192236 0.04266,0.10573 0.04266,0.278741 0,0.384471 -0.04266,0.105729 -0.07757,0.01922 -0.07757,-0.192235 z M 71.2979,56.614102 c 0,-0.296042 0.03165,-0.417151 0.07033,-0.26913 0.03868,0.148022 0.03868,0.390238 0,0.53826 -0.03868,0.148021 -0.07033,0.02691 -0.07033,-0.26913 z m -0.177327,-1.166228 c 0.0074,-0.179155 0.04382,-0.215596 0.09291,-0.09291 0.04443,0.111016 0.03896,0.243659 -0.01214,0.294761 -0.0511,0.0511 -0.08745,-0.03973 -0.08077,-0.201847 z"
       id="path97" />
    <path
       style="fill:#ffffff;fill-opacity:1"
       d="m 40.80688,69.41698 -0.840582,-0.884283 0.884282,0.840582 c 0.486356,0.462321 0.884283,0.860248 0.884283,0.884283 0,0.11415 -0.147056,-0.01905 -0.927983,-0.840582 z m 25.687903,0.374796 c 0,-0.02647 0.224915,-0.251382 0.499812,-0.499812 l 0.499812,-0.45169 -0.451691,0.499812 c -0.421038,0.465895 -0.547933,0.570501 -0.547933,0.45169 z M 40.735239,46.925438 c 0.330375,-0.338335 0.635284,-0.615154 0.677575,-0.615154 0.04229,0 -0.193412,0.276819 -0.523787,0.615154 -0.330374,0.338334 -0.635283,0.615153 -0.677575,0.615153 -0.04229,0 0.193413,-0.276819 0.523787,-0.615153 z m 25.98299,-0.192236 -0.607917,-0.6536 0.6536,0.607917 c 0.607842,0.565357 0.72427,0.699284 0.607917,0.699284 -0.02513,0 -0.319246,-0.29412 -0.6536,-0.653601 z"
       id="path96" />
    <path
       style="fill:#ffffff;fill-opacity:1"
       d="m 122.47373,114.69797 c 0,-0.0265 0.22492,-0.25139 0.49981,-0.49982 l 0.49981,-0.45169 -0.45169,0.49982 c -0.42103,0.46589 -0.54793,0.5705 -0.54793,0.45169 z M 170.3019,94.215347 c -0.37356,-0.380626 -0.64459,-0.692048 -0.6023,-0.692048 0.0423,0 0.38253,0.311422 0.75609,0.692048 0.37355,0.380626 0.64459,0.692047 0.6023,0.692047 -0.0423,0 -0.38254,-0.311421 -0.75609,-0.692047 z m -47.59749,-0.692048 c 0.33038,-0.338334 0.63529,-0.615153 0.67758,-0.615153 0.0423,0 -0.19341,0.276819 -0.52379,0.615153 -0.33037,0.338335 -0.63528,0.615154 -0.67757,0.615154 -0.0423,0 0.19341,-0.276819 0.52378,-0.615154 z"
       id="path95" />
    <path
       style="fill:#ffffff;fill-opacity:1"
       d="m 38.119838,133.81584 c 0,-25.58653 0.01775,-36.05375 0.03944,-23.26048 0.02169,12.79326 0.02169,33.7277 0,46.52096 -0.02169,12.79327 -0.03944,2.32605 -0.03944,-23.26048 z m 48.285008,38.75466 c 0,-4.27147 0.01973,-6.01889 0.04385,-3.88316 0.02412,2.13574 0.02412,5.63058 0,7.76631 -0.02412,2.13574 -0.04385,0.38832 -0.04385,-3.88315 z m 31.222844,-19.06976 c 0,-14.75983 0.0181,-20.79794 0.0401,-13.41803 0.0221,7.37992 0.0221,19.45615 0,26.83607 -0.0221,7.37991 -0.0401,1.3418 -0.0401,-13.41804 z M 86.562663,123.05066 c 0,-16.95901 0.01797,-23.896786 0.03993,-15.41728 0.02196,8.4795 0.02196,22.35505 0,30.83456 -0.02196,8.4795 -0.03993,1.54172 -0.03993,-15.41728 z m 63.486827,4.69054 c 8.7e-4,-0.5075 0.0296,-0.69657 0.0638,-0.42016 0.0342,0.27641 0.0335,0.69164 -0.002,0.92273 -0.0351,0.23109 -0.0631,0.005 -0.0622,-0.50257 z m -0.17146,-1.99925 c 0.003,-0.25375 0.0376,-0.33894 0.0766,-0.18931 0.039,0.14964 0.0364,0.35725 -0.006,0.46137 -0.0421,0.10412 -0.074,-0.0183 -0.0709,-0.27206 z m -32.13295,-0.61515 c 0.002,-0.33833 0.0332,-0.45864 0.07,-0.26734 0.0368,0.1913 0.0354,0.46812 -0.003,0.61516 -0.0385,0.14703 -0.0686,-0.009 -0.0669,-0.34782 z m 31.96132,-0.62797 c 0.007,-0.17915 0.0438,-0.2156 0.0929,-0.0929 0.0444,0.11101 0.039,0.24366 -0.0121,0.29476 -0.0511,0.0511 -0.0875,-0.0397 -0.0808,-0.20185 z m -31.83418,-0.76894 c 0.007,-0.17916 0.0438,-0.2156 0.0929,-0.0929 0.0444,0.11101 0.039,0.24365 -0.0122,0.29476 -0.0511,0.0511 -0.0875,-0.0397 -0.0808,-0.20185 z m 63.07105,-4.75462 c 0.003,-0.25375 0.0376,-0.33894 0.0766,-0.18931 0.039,0.14963 0.0364,0.35724 -0.006,0.46136 -0.0421,0.10412 -0.074,-0.0183 -0.0709,-0.27205 z m -0.15948,-1.3072 c 0,-0.21146 0.0349,-0.29797 0.0776,-0.19224 0.0427,0.10573 0.0427,0.27874 0,0.38447 -0.0427,0.10573 -0.0776,0.0192 -0.0776,-0.19223 z m -48.27244,-8.10357 c 0.14963,-0.039 0.35724,-0.0364 0.46136,0.006 0.10412,0.0421 -0.0183,0.074 -0.27206,0.0709 -0.25375,-0.003 -0.33894,-0.0376 -0.1893,-0.0766 z m 3.68799,5.6e-4 c 0.14802,-0.0387 0.39024,-0.0387 0.53826,0 0.14802,0.0387 0.0269,0.0703 -0.26913,0.0703 -0.29604,0 -0.41715,-0.0316 -0.26913,-0.0703 z m -1.84253,-0.15435 c 0.14963,-0.039 0.35724,-0.0364 0.46136,0.006 0.10412,0.0421 -0.0183,0.074 -0.27206,0.0709 -0.25375,-0.003 -0.33894,-0.0376 -0.1893,-0.0766 z m -16.7343,-16.041199 c 0,-3.341051 0.0203,-4.707845 0.0451,-3.037319 0.0248,1.670525 0.0248,4.404113 0,6.074638 -0.0248,1.670526 -0.0451,0.303732 -0.0451,-3.037319 z M 86.382699,88.294496 c 0,-0.549793 0.02791,-0.774708 0.06203,-0.499812 0.03411,0.274897 0.03411,0.724728 0,0.999624 -0.03411,0.274897 -0.06203,0.04998 -0.06203,-0.499812 z M 46.167992,86.948874 c 4.256768,-0.02273 11.177243,-0.02273 15.378832,1.4e-5 4.20159,0.02274 0.71878,0.04134 -7.739578,0.04133 -8.458357,-8e-6 -11.896022,-0.01861 -7.639254,-0.04134 z m 48.200923,8e-6 c 4.208033,-0.02274 11.093905,-0.02274 15.301935,0 4.20804,0.02274 0.7651,0.04135 -7.65097,0.04135 -8.416062,0 -11.858998,-0.01861 -7.650965,-0.04135 z m 45.607845,-1.835207 c 0.11102,-0.04443 0.24366,-0.03896 0.29476,0.01214 0.0511,0.0511 -0.0397,0.08745 -0.20184,0.08077 -0.17916,-0.0074 -0.2156,-0.04382 -0.0929,-0.09291 z m 11.06315,0.0032 c 0.10573,-0.04266 0.27874,-0.04266 0.38447,0 0.10573,0.04266 0.0192,0.07757 -0.19223,0.07757 -0.21146,0 -0.29797,-0.03491 -0.19224,-0.07757 z m -9.91935,-0.157948 c 0.14803,-0.03868 0.39024,-0.03868 0.53826,0 0.14802,0.03868 0.0269,0.07033 -0.26913,0.07033 -0.29604,0 -0.41715,-0.03165 -0.26913,-0.07033 z m 8.45836,0 c 0.14802,-0.03868 0.39024,-0.03868 0.53826,0 0.14802,0.03868 0.0269,0.07033 -0.26913,0.07033 -0.29604,0 -0.41715,-0.03165 -0.26913,-0.07033 z m -6.30068,-0.161008 c 0.40433,-0.03178 1.02717,-0.0314 1.3841,8.52e-4 0.35692,0.03225 0.0261,0.05826 -0.73514,0.05779 -0.76125,-4.68e-4 -1.05328,-0.02686 -0.64896,-0.05864 z m 3.22492,1.9e-4 c 0.40177,-0.03168 1.05921,-0.03168 1.46098,0 0.40178,0.03168 0.0731,0.0576 -0.73049,0.0576 -0.80354,0 -1.13227,-0.02592 -0.73049,-0.0576 z"
       id="path94" />
    <path
       style="fill:#ffffff;fill-opacity:1"
       d="m 121.85858,115.30318 c 0,-0.0319 0.12111,-0.15305 0.26913,-0.26913 0.24391,-0.19129 0.24935,-0.18586 0.0581,0.0581 -0.2009,0.25617 -0.32719,0.33764 -0.32719,0.21107 z m 22.98557,-1.97963 -0.76316,-0.80739 0.80739,0.76316 c 0.75024,0.70914 0.87791,0.85161 0.76316,0.85161 -0.0243,0 -0.38765,-0.36332 -0.80739,-0.80738 z m -21.06322,0.0384 c 0.1531,-0.16916 0.31296,-0.30757 0.35525,-0.30757 0.0423,0 -0.0484,0.13841 -0.20146,0.30757 -0.15309,0.16917 -0.31296,0.30758 -0.35525,0.30758 -0.0423,0 0.0484,-0.13841 0.20146,-0.30758 z m 48.65439,-16.724477 c -0.1913,-0.243917 -0.18586,-0.249357 0.0581,-0.05806 0.14802,0.116087 0.26913,0.237195 0.26913,0.26913 0,0.126573 -0.12629,0.04511 -0.32719,-0.211066 z m -0.84083,-0.999624 -0.29297,-0.346024 0.34603,0.292965 c 0.32517,0.275315 0.41603,0.399082 0.29296,0.399082 -0.0292,0 -0.18489,-0.15571 -0.34602,-0.346023 z m -50.19728,-0.653601 c 0.19866,-0.211459 0.3958,-0.38447 0.43809,-0.38447 0.0423,0 -0.0856,0.173011 -0.2843,0.38447 -0.19865,0.211459 -0.39579,0.384471 -0.43809,0.384471 -0.0423,0 0.0857,-0.173012 0.2843,-0.384471 z m 47.35516,-2.191483 -0.37283,-0.422918 0.42292,0.372831 c 0.23261,0.205057 0.42292,0.39537 0.42292,0.422918 0,0.120612 -0.12454,0.02245 -0.47301,-0.372831 z M 124.1654,92.216099 c 0.19866,-0.211459 0.3958,-0.384471 0.43809,-0.384471 0.0423,0 -0.0856,0.173012 -0.2843,0.384471 -0.19865,0.211459 -0.39579,0.38447 -0.43809,0.38447 -0.0423,0 0.0857,-0.173011 0.2843,-0.38447 z"
       id="path93" />
    <path
       style="fill:#ffffff;fill-opacity:1"
       d="m 40.884213,69.340086 -0.917915,-0.961177 0.961177,0.917915 c 0.528647,0.504854 0.961177,0.937384 0.961177,0.961177 0,0.113635 -0.151773,-0.02506 -1.004439,-0.917915 z m 25.841252,0.03845 c 0.330375,-0.338335 0.635283,-0.615154 0.677575,-0.615154 0.04229,0 -0.193412,0.276819 -0.523787,0.615154 -0.330374,0.338334 -0.635283,0.615153 -0.677575,0.615153 -0.04229,0 0.193412,-0.276819 0.523787,-0.615153 z M 40.805706,47.040779 c 0.377091,-0.401772 0.705814,-0.730495 0.730495,-0.730495 0.115477,0 -0.0066,0.138076 -0.685621,0.775369 l -0.730494,0.685621 z m 25.842865,-0.192235 c -0.373556,-0.380627 -0.644591,-0.692048 -0.602299,-0.692048 0.04229,0 0.382531,0.311421 0.756087,0.692048 0.373556,0.380626 0.644591,0.692047 0.602299,0.692047 -0.04229,0 -0.382531,-0.311421 -0.756087,-0.692047 z"
       id="path92" />
    <path
       style="fill:#ffffff;fill-opacity:1"
       d="m 69.338867,133.81584 c 0,-25.58653 0.01775,-36.05375 0.03944,-23.26048 0.02169,12.79326 0.02169,33.7277 0,46.52096 -0.02169,12.79327 -0.03944,2.32605 -0.03944,-23.26048 z m 80.891873,20.76142 c 0,-14.16775 0.0181,-19.96364 0.0402,-12.87977 0.0221,7.08388 0.0221,18.67567 0,25.75955 -0.0221,7.08387 -0.0402,1.28797 -0.0402,-12.87978 z M 86.5563,159.4216 c 5.5e-5,-2.87585 0.0208,-4.0306 0.0461,-2.56611 0.0253,1.46448 0.02526,3.81744 -1e-4,5.2288 -0.02536,1.41136 -0.04605,0.21315 -0.046,-2.66269 z m 36.22501,-45.21377 c 0.19865,-0.21146 0.39579,-0.38447 0.43808,-0.38447 0.0423,0 -0.0856,0.17301 -0.28429,0.38447 -0.19866,0.21146 -0.3958,0.38447 -0.43809,0.38447 -0.0423,0 0.0856,-0.17301 0.2843,-0.38447 z m 47.43791,-19.954036 -0.76316,-0.807389 0.80739,0.763161 c 0.75024,0.709142 0.87792,0.851617 0.76316,0.851617 -0.0243,0 -0.38765,-0.363325 -0.80739,-0.807389 z m -47.44434,-0.615153 c 0.63729,-0.679005 0.77537,-0.801098 0.77537,-0.685621 0,0.02468 -0.32872,0.353404 -0.7305,0.730495 l -0.73049,0.68562 z M 86.539984,90.678215 c 5.59e-4,-0.676668 0.0276,-0.934357 0.06008,-0.572641 0.03249,0.361716 0.03203,0.915354 -0.001,1.230307 -0.03305,0.314952 -0.05963,0.019 -0.05907,-0.657666 z M 52.846069,74.186111 c 0.486356,-0.03052 1.28221,-0.03052 1.768566,0 0.486355,0.03052 0.08843,0.05549 -0.884283,0.05549 -0.972711,0 -1.370638,-0.02497 -0.884283,-0.05549 z m -2.06653,-0.145195 c 0.111016,-0.04442 0.243658,-0.03896 0.294761,0.01214 0.0511,0.0511 -0.03973,0.08745 -0.201848,0.08077 -0.179154,-0.0074 -0.215595,-0.04382 -0.09291,-0.09291 z m 5.526767,0.0032 c 0.10573,-0.04266 0.278742,-0.04266 0.384471,0 0.10573,0.04266 0.01922,0.07757 -0.192235,0.07757 -0.211459,0 -0.297965,-0.03491 -0.192236,-0.07757 z M 71.138413,59.920551 c 0.0031,-0.253751 0.0376,-0.33894 0.07659,-0.189309 0.03899,0.149631 0.03643,0.357246 -0.0057,0.461365 -0.04213,0.10412 -0.07403,-0.01831 -0.07089,-0.272056 z m 0,-3.229555 c 0.0031,-0.253751 0.0376,-0.338939 0.07659,-0.189308 0.03899,0.149631 0.03643,0.357245 -0.0057,0.461365 -0.04213,0.104119 -0.07403,-0.01831 -0.07089,-0.272057 z"
       id="path91" />
    <path
       style="fill:#ffffff;fill-opacity:1"
       d="m 181.27009,122.58929 c 0,-0.54979 0.0279,-0.77471 0.062,-0.49981 0.0341,0.2749 0.0341,0.72473 0,0.99962 -0.0341,0.2749 -0.062,0.05 -0.062,-0.49981 z m -0.16112,-2.15303 c 0,-0.38063 0.03,-0.53634 0.0666,-0.34603 0.0367,0.19032 0.0367,0.50174 0,0.69205 -0.0367,0.19031 -0.0666,0.0346 -0.0666,-0.34602 z M 36.364413,59.44637 c 0.0074,-0.179154 0.04382,-0.215595 0.09291,-0.09291 0.04443,0.111015 0.03896,0.243658 -0.01214,0.29476 -0.0511,0.0511 -0.08745,-0.03973 -0.08077,-0.201847 z m 0,-2.614401 c 0.0074,-0.179155 0.04382,-0.215596 0.09291,-0.09291 0.04443,0.111016 0.03896,0.243658 -0.01214,0.294761 -0.0511,0.0511 -0.08745,-0.03973 -0.08077,-0.201847 z"
       id="path90" />
    <path
       style="fill:#ffffff;fill-opacity:1"
       d="m 38.273627,133.81584 c 0,-25.58653 0.01775,-36.05375 0.03944,-23.26048 0.02169,12.79326 0.02169,33.7277 0,46.52096 -0.02169,12.79327 -0.03944,2.32605 -0.03944,-23.26048 z m 48.285007,38.75466 c 0,-4.27147 0.01973,-6.01889 0.04385,-3.88316 0.02412,2.13574 0.02412,5.63058 0,7.76631 -0.02412,2.13574 -0.04385,0.38832 -0.04385,-3.88315 z m 30.915256,-18.99286 c 1e-5,-14.71754 0.0181,-20.71558 0.0402,-13.32897 0.0221,7.38661 0.0221,19.42824 -10e-6,26.75917 -0.0221,7.33093 -0.0401,1.28734 -0.0401,-13.4302 z M 86.716444,123.05066 c 0,-16.87443 0.01797,-23.7776 0.03994,-15.34039 0.02197,8.43721 0.02197,22.24356 0,30.68077 -0.02197,8.43721 -0.03994,1.53404 -0.03994,-15.34038 z m 63.485266,4.76744 c 0,-0.46521 0.0288,-0.65553 0.0641,-0.42292 0.0352,0.2326 0.0352,0.61323 0,0.84583 -0.0352,0.23261 -0.0641,0.0423 -0.0641,-0.42291 z m -0.17559,-1.99925 c 0,-0.21146 0.0349,-0.29797 0.0776,-0.19224 0.0427,0.10573 0.0427,0.27874 0,0.38447 -0.0427,0.10573 -0.0776,0.0192 -0.0776,-0.19223 z m -32.43794,-0.61516 c 0,-0.29604 0.0316,-0.41715 0.0703,-0.26913 0.0387,0.14803 0.0387,0.39024 0,0.53826 -0.0387,0.14802 -0.0703,0.0269 -0.0703,-0.26913 z m 63.36079,-4.76743 c 0,-0.29605 0.0316,-0.41716 0.0703,-0.26913 0.0387,0.14802 0.0387,0.39023 0,0.53826 -0.0387,0.14802 -0.0703,0.0269 -0.0703,-0.26913 z m -0.16518,-1.53789 c 0,-0.21146 0.0349,-0.29796 0.0776,-0.19223 0.0427,0.10573 0.0427,0.27874 0,0.38447 -0.0427,0.10573 -0.0776,0.0192 -0.0776,-0.19224 z m -0.16593,-1.32001 c 0.007,-0.17916 0.0438,-0.2156 0.0929,-0.0929 0.0444,0.11102 0.039,0.24366 -0.0121,0.29476 -0.0511,0.0511 -0.0875,-0.0397 -0.0808,-0.20184 z m -58.91307,-2.27518 c 0,-0.0319 0.12111,-0.15305 0.26913,-0.26913 0.24392,-0.19129 0.24935,-0.18586 0.0581,0.0581 -0.2009,0.25617 -0.32719,0.33764 -0.32719,0.21107 z m 23.21678,-2.05653 -0.84058,-0.88428 0.88428,0.84058 c 0.82153,0.78093 0.95473,0.92798 0.84058,0.92798 -0.024,0 -0.42196,-0.39792 -0.88428,-0.88428 z m -21.14064,-0.0384 c 0.1531,-0.16916 0.31296,-0.30757 0.35525,-0.30757 0.0423,0 -0.0484,0.13841 -0.20146,0.30757 -0.15309,0.16917 -0.31296,0.30758 -0.35525,0.30758 -0.0423,0 0.0484,-0.13841 0.20146,-0.30758 z m 8.73042,-3.79749 c 0.14963,-0.039 0.35724,-0.0364 0.46136,0.006 0.10412,0.0421 -0.0183,0.074 -0.27206,0.0709 -0.25375,-0.003 -0.33894,-0.0376 -0.1893,-0.0766 z m 3.69091,0 c 0.14964,-0.039 0.35725,-0.0364 0.46137,0.006 0.10412,0.0421 -0.0183,0.074 -0.27206,0.0709 -0.25375,-0.003 -0.33894,-0.0376 -0.18931,-0.0766 z m -1.76188,-0.15227 c 0.11102,-0.0444 0.24366,-0.039 0.29477,0.0121 0.0511,0.0511 -0.0397,0.0875 -0.20185,0.0808 -0.17916,-0.007 -0.2156,-0.0438 -0.0929,-0.0929 z M 117.4688,93.446405 c 4e-5,-3.383343 0.0203,-4.745527 0.0451,-3.027077 0.0248,1.718451 0.0247,4.486641 -8e-5,6.151533 -0.0248,1.664893 -0.0451,0.258887 -0.045,-3.124456 z m 54.81273,3.191108 c -0.19129,-0.243917 -0.18585,-0.249357 0.0581,-0.05806 0.14802,0.116087 0.26913,0.237195 0.26913,0.26913 0,0.126573 -0.12629,0.04511 -0.32719,-0.211066 z m -0.84083,-0.999624 -0.29297,-0.346024 0.34603,0.292965 c 0.32517,0.275315 0.41603,0.399082 0.29296,0.399082 -0.0292,0 -0.18489,-0.15571 -0.34602,-0.346023 z M 121.551,94.984288 c 0.19866,-0.211459 0.39579,-0.38447 0.43809,-0.38447 0.0423,0 -0.0857,0.173011 -0.2843,0.38447 -0.19866,0.211459 -0.39579,0.384471 -0.43809,0.384471 -0.0423,0 0.0857,-0.173012 0.2843,-0.384471 z m 47.20137,-2.037695 -0.37283,-0.422918 0.42292,0.372831 c 0.23261,0.205058 0.42292,0.395371 0.42292,0.422918 0,0.120613 -0.12454,0.02245 -0.47301,-0.372831 z M 124.1654,92.369887 c 0.19866,-0.211459 0.3958,-0.384471 0.43809,-0.384471 0.0423,0 -0.0856,0.173012 -0.2843,0.384471 -0.19865,0.211459 -0.39579,0.384471 -0.43809,0.384471 -0.0423,0 0.0857,-0.173012 0.2843,-0.384471 z M 86.536488,88.294496 c 0,-0.549793 0.02791,-0.774708 0.06203,-0.499812 0.03411,0.274897 0.03411,0.724728 0,0.999624 -0.03411,0.274897 -0.06203,0.04998 -0.06203,-0.499812 z M 46.167992,87.102663 c 4.256768,-0.02273 11.177243,-0.02273 15.378832,1.4e-5 4.20159,0.02274 0.71878,0.04134 -7.739578,0.04133 -8.458357,-7e-6 -11.896022,-0.01861 -7.639254,-0.04134 z m 48.200923,7e-6 c 4.208033,-0.02274 11.093905,-0.02274 15.301935,0 4.20804,0.02274 0.7651,0.04135 -7.65097,0.04135 -8.416062,0 -11.858998,-0.01861 -7.650965,-0.04135 z m 56.834395,-1.835207 c 0.11102,-0.04443 0.24366,-0.03896 0.29476,0.01214 0.0511,0.0511 -0.0397,0.08745 -0.20185,0.08077 -0.17915,-0.0074 -0.21559,-0.04382 -0.0929,-0.09291 z m -10.07982,-0.155307 c 0.14963,-0.03899 0.35725,-0.03643 0.46137,0.0057 0.10412,0.04213 -0.0183,0.07403 -0.27206,0.07089 -0.25375,-0.0031 -0.33894,-0.0376 -0.18931,-0.07659 z m 8.61215,0 c 0.14963,-0.03899 0.35724,-0.03643 0.46136,0.0057 0.10412,0.04213 -0.0183,0.07403 -0.27205,0.07089 -0.25376,-0.0031 -0.33894,-0.0376 -0.18931,-0.07659 z m -6.53893,-0.159819 c 0.35948,-0.03238 0.94772,-0.03238 1.3072,0 0.35948,0.03238 0.0654,0.05887 -0.6536,0.05887 -0.71896,0 -1.01308,-0.02649 -0.6536,-0.05887 z m 3.46487,-6.25e-4 c 0.40433,-0.03178 1.02717,-0.0314 1.3841,8.52e-4 0.35693,0.03225 0.0261,0.05826 -0.73514,0.05779 -0.76125,-4.69e-4 -1.05328,-0.02686 -0.64896,-0.05864 z"
       id="path89" />
    <path
       style="fill:#ffffff;fill-opacity:1"
       d="m 122.70441,114.13093 c 0.1531,-0.16916 0.31296,-0.30757 0.35525,-0.30757 0.0423,0 -0.0484,0.13841 -0.20146,0.30757 -0.15309,0.16917 -0.31295,0.30758 -0.35525,0.30758 -0.0423,0 0.0484,-0.13841 0.20146,-0.30758 z m 47.43845,-19.800242 -0.84059,-0.884283 0.88429,0.840583 c 0.48635,0.46232 0.88428,0.860247 0.88428,0.884282 0,0.11415 -0.14706,-0.01906 -0.92798,-0.840582 z m -47.28466,-0.6536 c 0.41656,-0.422918 0.79198,-0.768942 0.83427,-0.768942 0.0423,0 -0.26392,0.346024 -0.68048,0.768942 -0.41656,0.422918 -0.79198,0.768941 -0.83427,0.768941 -0.0423,0 0.26392,-0.346023 0.68048,-0.768941 z m 22.49154,-8.713997 c 0.10573,-0.04266 0.27874,-0.04266 0.38447,0 0.10573,0.04266 0.0192,0.07757 -0.19223,0.07757 -0.21146,0 -0.29797,-0.03491 -0.19224,-0.07757 z M 65.264476,70.550776 c 0,-0.03194 0.121108,-0.153044 0.26913,-0.26913 0.243916,-0.191293 0.249356,-0.185853 0.05806,0.05806 -0.200904,0.256172 -0.327193,0.337639 -0.327193,0.211066 z m -24.302997,-1.287584 -0.995181,-1.038072 1.038071,0.995182 c 0.964204,0.924367 1.108372,1.080961 0.995181,1.080961 -0.02359,0 -0.490721,-0.467132 -1.038071,-1.038071 z m 25.763986,-0.03845 c 0.330375,-0.338334 0.635283,-0.615153 0.677575,-0.615153 0.04229,0 -0.193412,0.276819 -0.523787,0.615153 -0.330374,0.338335 -0.635283,0.615154 -0.677575,0.615154 -0.04229,0 0.193412,-0.276819 0.523787,-0.615154 z m 0.845836,-0.980793 c 0,-0.03193 0.121108,-0.153043 0.269129,-0.26913 0.243917,-0.191292 0.249357,-0.185853 0.05806,0.05806 -0.200905,0.256173 -0.327193,0.337639 -0.327193,0.211066 z m 0.134172,-20.04976 c -0.191293,-0.243916 -0.185854,-0.249356 0.05806,-0.05806 0.256173,0.200904 0.337639,0.327193 0.211066,0.327193 -0.03194,0 -0.153043,-0.121108 -0.269129,-0.26913 z M 40.889027,47.079226 c 0.416559,-0.422918 0.791982,-0.768942 0.834274,-0.768942 0.04229,0 -0.263927,0.346024 -0.680485,0.768942 -0.416559,0.422918 -0.791982,0.768942 -0.834274,0.768942 -0.04229,0 0.263927,-0.346024 0.680485,-0.768942 z m 25.676868,-0.192235 -0.76316,-0.807389 0.807389,0.76316 c 0.75024,0.709143 0.877916,0.851617 0.76316,0.851617 -0.02433,0 -0.38765,-0.363325 -0.807389,-0.807388 z M 42.04244,46.098433 c 0,-0.03193 0.121108,-0.153044 0.269129,-0.26913 0.243917,-0.191293 0.249357,-0.185853 0.05806,0.05806 -0.200904,0.256172 -0.327193,0.337639 -0.327193,0.211066 z m 23.202419,-0.364855 c -0.191292,-0.243917 -0.185853,-0.249356 0.05806,-0.05806 0.256173,0.200904 0.337639,0.327193 0.211066,0.327193 -0.03193,0 -0.153043,-0.121109 -0.26913,-0.26913 z"
       id="path88" />
    <path
       style="fill:#ffffff;fill-opacity:1"
       d="m 122.01237,114.84181 c 0,-0.0319 0.1211,-0.15304 0.26913,-0.26913 0.24391,-0.19129 0.24935,-0.18585 0.0581,0.0581 -0.20091,0.25617 -0.32719,0.33764 -0.32719,0.21106 z m 1.07651,-1.07652 c 0,-0.0319 0.12111,-0.15304 0.26913,-0.26913 0.24392,-0.19129 0.24936,-0.18585 0.0581,0.0581 -0.20091,0.25617 -0.3272,0.33764 -0.3272,0.21106 z M 117.4767,99.830382 c -0.0539,-0.08718 0.008,-0.112959 0.14471,-0.06044 0.26643,0.102237 0.31517,0.212467 0.094,0.212467 -0.0796,0 -0.18699,-0.06841 -0.23867,-0.152027 z M 52.692281,74.031929 c 0.570939,-0.02959 1.505203,-0.02959 2.076142,0 0.570939,0.02959 0.103807,0.0538 -1.038071,0.0538 -1.141878,0 -1.60901,-0.02421 -1.038071,-0.0538 z M 50.62575,73.887127 c 0.111016,-0.04442 0.243659,-0.03896 0.294761,0.01214 0.0511,0.0511 -0.03973,0.08745 -0.201847,0.08077 -0.179154,-0.0074 -0.215596,-0.04382 -0.09291,-0.09291 z m 5.834345,0.0032 c 0.105729,-0.04266 0.278741,-0.04266 0.384471,0 0.105729,0.04266 0.01922,0.07757 -0.192236,0.07757 -0.211459,0 -0.297965,-0.03491 -0.192235,-0.07757 z M 36.684131,60.305022 c 0,-0.211459 0.03491,-0.297965 0.07757,-0.192236 0.04266,0.10573 0.04266,0.278742 0,0.384471 -0.04266,0.10573 -0.07757,0.01922 -0.07757,-0.192235 z m 34.300494,-0.230683 c 0.0031,-0.25375 0.0376,-0.338939 0.07659,-0.189308 0.03899,0.149631 0.03643,0.357245 -0.0057,0.461365 -0.04213,0.104119 -0.07403,-0.01831 -0.07089,-0.272057 z m 0.159486,-1.768565 c 0,-0.296043 0.03165,-0.417151 0.07033,-0.26913 0.03868,0.148021 0.03868,0.390238 0,0.538259 -0.03868,0.148021 -0.07033,0.02691 -0.07033,-0.269129 z m -0.159486,-1.768566 c 0.0031,-0.253751 0.0376,-0.33894 0.07659,-0.189309 0.03899,0.149631 0.03643,0.357246 -0.0057,0.461365 -0.04213,0.10412 -0.07403,-0.0183 -0.07089,-0.272056 z M 36.684131,55.998949 c 0,-0.211459 0.03491,-0.297965 0.07757,-0.192236 0.04266,0.10573 0.04266,0.278742 0,0.384471 -0.04266,0.10573 -0.07757,0.01922 -0.07757,-0.192235 z M 50.923715,42.363725 c 0.10573,-0.04266 0.278742,-0.04266 0.384471,0 0.10573,0.04266 0.01922,0.07757 -0.192235,0.07757 -0.211459,0 -0.297965,-0.03491 -0.192236,-0.07757 z m 5.690168,0 c 0.10573,-0.04266 0.278741,-0.04266 0.384471,0 0.105729,0.04266 0.01922,0.07757 -0.192236,0.07757 -0.211459,0 -0.297964,-0.03491 -0.192235,-0.07757 z"
       id="path87" />
    <path
       style="fill:#ffffff;fill-opacity:1"
       d="m 69.185079,133.81584 c 0,-25.58653 0.01775,-36.05375 0.03944,-23.26048 0.02169,12.79326 0.02169,33.7277 0,46.52096 -0.02169,12.79327 -0.03944,2.32605 -0.03944,-23.26048 z m 81.199451,20.68453 c 10e-6,-14.21004 0.0181,-20.00047 0.0402,-12.86762 0.0221,7.13284 0.0221,18.75924 -1e-5,25.83643 -0.0221,7.0772 -0.0402,1.24123 -0.0402,-12.96881 z m -63.674341,4.99812 c 0,-2.91813 0.02068,-4.11192 0.04596,-2.65285 0.02528,1.45907 0.02528,3.84663 0,5.3057 -0.02528,1.45906 -0.04596,0.26528 -0.04596,-2.65285 z m 30.700671,-33.46178 c 0.007,-0.17915 0.0438,-0.21559 0.0929,-0.0929 0.0444,0.11102 0.039,0.24366 -0.0121,0.29476 -0.0511,0.0511 -0.0875,-0.0397 -0.0808,-0.20185 z m 4.14014,-10.73353 c 0,-0.0319 0.12111,-0.15305 0.26913,-0.26913 0.24392,-0.19129 0.24936,-0.18586 0.0581,0.0581 -0.2009,0.25617 -0.32719,0.33764 -0.32719,0.21107 z m 23.44791,-2.13342 -0.91792,-0.96118 0.96118,0.91792 c 0.89285,0.85266 1.03155,1.00443 0.91791,1.00443 -0.0238,0 -0.45632,-0.43253 -0.96117,-0.96117 z m -21.21798,-0.11534 c 0.1531,-0.16917 0.31296,-0.30758 0.35525,-0.30758 0.0423,0 -0.0484,0.13841 -0.20146,0.30758 -0.15309,0.16916 -0.31296,0.30757 -0.35525,0.30757 -0.0423,0 0.0484,-0.13841 0.20146,-0.30757 z m 9.58294,-3.79598 c 0.11101,-0.0444 0.24365,-0.039 0.29476,0.0121 0.0511,0.0511 -0.0397,0.0875 -0.20185,0.0808 -0.17915,-0.007 -0.2156,-0.0438 -0.0929,-0.0929 z m 2.15303,0 c 0.11102,-0.0444 0.24366,-0.039 0.29476,0.0121 0.0511,0.0511 -0.0397,0.0875 -0.20184,0.0808 -0.17916,-0.007 -0.2156,-0.0438 -0.0929,-0.0929 z m 36.61084,-12.620927 c -0.19129,-0.243917 -0.18585,-0.249357 0.0581,-0.05806 0.14803,0.116087 0.26913,0.237195 0.26913,0.26913 0,0.126573 -0.12628,0.04511 -0.32719,-0.211066 z m -0.84083,-0.999624 -0.29296,-0.346024 0.34602,0.292965 c 0.32518,0.275315 0.41603,0.399082 0.29296,0.399082 -0.0292,0 -0.18489,-0.15571 -0.34602,-0.346023 z m -49.58212,-0.653601 c 0.19865,-0.211459 0.39579,-0.38447 0.43808,-0.38447 0.0423,0 -0.0856,0.173011 -0.28429,0.38447 -0.19866,0.211459 -0.3958,0.384471 -0.43809,0.384471 -0.0423,0 0.0856,-0.173012 0.2843,-0.384471 z m 47.04758,-1.883907 -0.37283,-0.422917 0.42292,0.372831 c 0.23261,0.205057 0.42292,0.39537 0.42292,0.422918 0,0.120612 -0.12454,0.02245 -0.47301,-0.372832 z M 124.1654,92.523675 c 0.19866,-0.211459 0.3958,-0.384471 0.43809,-0.384471 0.0423,0 -0.0856,0.173012 -0.2843,0.384471 -0.19865,0.211459 -0.39579,0.384471 -0.43809,0.384471 -0.0423,0 0.0857,-0.173012 0.2843,-0.384471 z M 86.694788,90.601321 c 0,-0.71896 0.02649,-1.01308 0.05887,-0.6536 0.03238,0.35948 0.03238,0.94772 0,1.307201 -0.03238,0.35948 -0.05887,0.06536 -0.05887,-0.653601 z M 42.637977,70.647286 c -0.191293,-0.243916 -0.185854,-0.249356 0.05806,-0.05806 0.148021,0.116086 0.26913,0.237194 0.26913,0.269129 0,0.126573 -0.126289,0.04511 -0.327193,-0.211066 z m 22.472711,-0.09651 c 0,-0.03194 0.121108,-0.153044 0.269129,-0.26913 0.243917,-0.191293 0.249357,-0.185853 0.05806,0.05806 -0.200905,0.256172 -0.327193,0.337639 -0.327193,0.211066 z m -24.071997,-1.364479 -1.072393,-1.114965 1.114965,1.072394 c 0.613231,0.589816 1.114965,1.091551 1.114965,1.114965 0,0.112805 -0.161497,-0.03681 -1.157537,-1.072394 z m 25.532986,0.03845 c 0.416558,-0.422917 0.791981,-0.768941 0.834273,-0.768941 0.04229,0 -0.263926,0.346024 -0.680485,0.768941 -0.416559,0.422918 -0.791982,0.768942 -0.834273,0.768942 -0.04229,0 0.263926,-0.346024 0.680485,-0.768942 z m 0.999624,-1.134581 c 0,-0.03194 0.121108,-0.153044 0.269129,-0.26913 0.243917,-0.191293 0.249357,-0.185853 0.05806,0.05806 -0.200905,0.256172 -0.327193,0.337639 -0.327193,0.211066 z M 39.581827,48.712834 c 0,-0.03194 0.121108,-0.153043 0.269129,-0.26913 0.243917,-0.191292 0.249357,-0.185853 0.05806,0.05806 -0.200905,0.256173 -0.327193,0.337639 -0.327193,0.211066 z M 67.705473,48.34798 c -0.191293,-0.243917 -0.185854,-0.249357 0.05806,-0.05806 0.256173,0.200905 0.337639,0.327193 0.211066,0.327193 -0.03194,0 -0.153043,-0.121108 -0.269129,-0.269129 z M 40.965922,47.15612 c 0.45943,-0.465209 0.869931,-0.845836 0.912223,-0.845836 0.04229,0 -0.299004,0.380627 -0.758435,0.845836 -0.459431,0.46521 -0.869931,0.845836 -0.912223,0.845836 -0.04229,0 0.299004,-0.380626 0.758435,-0.845836 z m 25.523607,-0.192235 -0.840582,-0.884283 0.884283,0.840582 c 0.821526,0.780928 0.954732,0.927984 0.840582,0.927984 -0.02403,0 -0.421963,-0.397928 -0.884283,-0.884283 z M 42.196228,46.098433 c 0,-0.03193 0.121108,-0.153044 0.26913,-0.26913 0.243917,-0.191293 0.249356,-0.185853 0.05806,0.05806 -0.200904,0.256172 -0.327193,0.337639 -0.327193,0.211066 z m 22.894843,-0.364855 c -0.191293,-0.243917 -0.185853,-0.249356 0.05806,-0.05806 0.256172,0.200904 0.337639,0.327193 0.211066,0.327193 -0.03194,0 -0.153044,-0.121109 -0.26913,-0.26913 z"
       id="path86" />
    <path
       style="fill:#ffffff;fill-opacity:1"
       d="m 38.428037,133.73895 3.77e-4,-46.444078 15.340391,-0.0011 15.34039,-0.0011 -15.301692,0.04031 -15.301692,0.04031 -0.03908,46.404888 -0.03908,46.40488 z m 48.284435,38.75465 c -2.7e-5,-4.31376 0.01967,-6.10062 0.04378,-3.9708 0.02411,2.12983 0.02413,5.65927 4.9e-5,7.84321 -0.02408,2.18394 -0.0438,0.44136 -0.04383,-3.87241 z m 30.607638,-18.99286 c 0,-14.75983 0.0181,-20.79794 0.0401,-13.41803 0.0221,7.37992 0.0221,19.45615 0,26.83607 -0.0221,7.37991 -0.0401,1.3418 -0.0401,-13.41804 z M 86.87024,123.05066 c 0,-16.95901 0.01797,-23.896786 0.03993,-15.41728 0.02196,8.4795 0.02196,22.35505 0,30.83456 -0.02196,8.4795 -0.03993,1.54172 -0.03993,-15.41728 z m 63.4884,4.76744 c 0,-0.5498 0.0279,-0.77471 0.062,-0.49982 0.0341,0.2749 0.0341,0.72473 0,0.99963 -0.0341,0.27489 -0.062,0.05 -0.062,-0.49981 z m -0.16733,-1.99925 c 0,-0.29605 0.0317,-0.41715 0.0703,-0.26913 0.0387,0.14802 0.0387,0.39024 0,0.53826 -0.0387,0.14802 -0.0703,0.0269 -0.0703,-0.26913 z m -32.75071,-0.61516 c 0,-0.38062 0.03,-0.53633 0.0666,-0.34602 0.0367,0.19031 0.0367,0.50173 0,0.69205 -0.0367,0.19031 -0.0666,0.0346 -0.0666,-0.34603 z m 32.58552,-0.61515 c 0,-0.21146 0.0349,-0.29796 0.0776,-0.19224 0.0427,0.10573 0.0427,0.27875 0,0.38448 -0.0427,0.10573 -0.0776,0.0192 -0.0776,-0.19224 z m -32.44933,-0.76894 c 0,-0.21146 0.0349,-0.29797 0.0776,-0.19224 0.0427,0.10573 0.0427,0.27874 0,0.38447 -0.0427,0.10573 -0.0776,0.0192 -0.0776,-0.19223 z m 32.2834,-0.2435 c 0.007,-0.17915 0.0438,-0.2156 0.0929,-0.0929 0.0444,0.11101 0.039,0.24366 -0.0121,0.29476 -0.0511,0.0511 -0.0875,-0.0397 -0.0808,-0.20185 z m 31.10233,-0.98681 c 0,-0.54979 0.0279,-0.77471 0.062,-0.49981 0.0341,0.2749 0.0341,0.72473 0,0.99962 -0.0341,0.2749 -0.062,0.05 -0.062,-0.49981 z m -63.24409,0.21787 c 0.007,-0.17916 0.0438,-0.2156 0.0929,-0.0929 0.0444,0.11101 0.039,0.24365 -0.0121,0.29476 -0.0511,0.0511 -0.0875,-0.0397 -0.0808,-0.20185 z m 63.08296,-2.3709 c 0,-0.38063 0.03,-0.53634 0.0667,-0.34603 0.0366,0.19032 0.0366,0.50174 0,0.69205 -0.0367,0.19031 -0.0667,0.0346 -0.0667,-0.34602 z m -0.16,-1.53789 c 0,-0.29604 0.0316,-0.41715 0.0703,-0.26913 0.0387,0.14802 0.0387,0.39024 0,0.53826 -0.0387,0.14802 -0.0703,0.0269 -0.0703,-0.26913 z m -0.16518,-1.2303 c 0,-0.21146 0.0349,-0.29797 0.0776,-0.19224 0.0427,0.10573 0.0427,0.27874 0,0.38447 -0.0427,0.10573 -0.0776,0.0192 -0.0776,-0.19223 z m -0.15379,-1.07652 c 0,-0.21146 0.0349,-0.29797 0.0776,-0.19224 0.0427,0.10573 0.0427,0.27874 0,0.38447 -0.0427,0.10573 -0.0776,0.0192 -0.0776,-0.19223 z m -0.16593,-1.01244 c 0.007,-0.17916 0.0438,-0.2156 0.0929,-0.0929 0.0444,0.11102 0.039,0.24366 -0.0122,0.29477 -0.0511,0.0511 -0.0874,-0.0397 -0.0808,-0.20185 z m -57.5354,-1.48662 c 0.37709,-0.40177 0.70582,-0.7305 0.7305,-0.7305 0.11547,0 -0.007,0.13808 -0.68562,0.77537 l -0.7305,0.68562 z m 8.74353,-4.68026 c 0.11101,-0.0444 0.24366,-0.039 0.29476,0.0121 0.0511,0.0511 -0.0397,0.0875 -0.20185,0.0808 -0.17915,-0.007 -0.21559,-0.0438 -0.0929,-0.0929 z m 6.15153,0 c 0.11102,-0.0444 0.24366,-0.039 0.29476,0.0121 0.0511,0.0511 -0.0397,0.0875 -0.20185,0.0808 -0.17915,-0.007 -0.21559,-0.0438 -0.0929,-0.0929 z m -5.08283,-0.1575 c 0.1913,-0.0368 0.46812,-0.0354 0.61515,0.003 0.14704,0.0385 -0.009,0.0686 -0.34782,0.0669 -0.33833,-0.002 -0.45863,-0.0332 -0.26733,-0.07 z m 3.69092,0 c 0.1913,-0.0368 0.46812,-0.0354 0.61515,0.003 0.14704,0.0385 -0.009,0.0686 -0.34782,0.0669 -0.33833,-0.002 -0.45863,-0.0332 -0.26733,-0.07 z m -1.76743,-0.1516 c 0.14963,-0.039 0.35724,-0.0364 0.46136,0.006 0.10412,0.0421 -0.0183,0.074 -0.27206,0.0709 -0.25375,-0.003 -0.33894,-0.0376 -0.1893,-0.0766 z m -16.83314,-9.07199 c 0.11102,-0.04442 0.24366,-0.03896 0.29476,0.0121 0.0511,0.0511 -0.0397,0.0875 -0.20185,0.0808 -0.17915,-0.007 -0.21559,-0.0438 -0.0929,-0.0929 z m -0.24211,-6.392499 -0.0366,-6.266875 H 102.02691 86.808894 l -0.05688,1.000241 -0.05688,1.00024 0.01141,-1.038687 0.01141,-1.038688 15.268036,-0.03919 c 12.1437,-0.03117 15.2832,3.49e-4 15.34218,0.154045 0.0408,0.106281 0.0552,2.961312 0.0321,6.344515 l -0.0421,6.151277 z m 3.65429,2.287208 c 0,-0.03194 0.12111,-0.153043 0.26913,-0.26913 0.24391,-0.191292 0.24935,-0.185853 0.0581,0.05806 -0.2009,0.256173 -0.32719,0.337639 -0.32719,0.211066 z m 49.13055,-1.518267 -0.91791,-0.961177 0.96117,0.917916 c 0.89285,0.852665 1.03155,1.004438 0.91792,1.004438 -0.0238,0 -0.45633,-0.432529 -0.96118,-0.961177 z m -47.1313,-0.6536 c 0.45943,-0.46521 0.86993,-0.845836 0.91222,-0.845836 0.0423,0 -0.29901,0.380626 -0.75844,0.845836 -0.45943,0.465209 -0.86993,0.845836 -0.91222,0.845836 -0.0423,0 0.299,-0.380627 0.75844,-0.845836 z m 15.96515,-8.178942 c 0.11101,-0.04443 0.24365,-0.03896 0.29476,0.01214 0.0511,0.0511 -0.0397,0.08745 -0.20185,0.08077 -0.17916,-0.0074 -0.2156,-0.04382 -0.0929,-0.09291 z m 13.21618,0.0032 c 0.10573,-0.04266 0.27874,-0.04266 0.38447,0 0.10573,0.04266 0.0192,0.07757 -0.19224,0.07757 -0.21145,0 -0.29796,-0.03491 -0.19223,-0.07757 z m -12.30307,-0.153788 c 0.10573,-0.04266 0.27874,-0.04266 0.38447,0 0.10573,0.04266 0.0192,0.07757 -0.19223,0.07757 -0.21146,0 -0.29797,-0.03491 -0.19224,-0.07757 z m 11.22655,0 c 0.10573,-0.04266 0.27874,-0.04266 0.38447,0 0.10573,0.04266 0.0192,0.07757 -0.19223,0.07757 -0.21146,0 -0.29797,-0.03491 -0.19224,-0.07757 z m -9.99445,-0.160706 c 0.1913,-0.03678 0.46812,-0.03539 0.61516,0.0031 0.14703,0.03849 -0.009,0.06859 -0.34782,0.06688 -0.33833,-0.0017 -0.45864,-0.0332 -0.26734,-0.06999 z m 8.61215,0 c 0.1913,-0.03678 0.46812,-0.03539 0.61515,0.0031 0.14704,0.03849 -0.009,0.06859 -0.34781,0.06688 -0.33834,-0.0017 -0.45864,-0.0332 -0.26734,-0.06999 z m -6.5378,-0.158061 c 0.40177,-0.03168 1.05922,-0.03168 1.46099,0 0.40177,0.03168 0.073,0.0576 -0.73049,0.0576 -0.80355,0 -1.13227,-0.02592 -0.7305,-0.0576 z m 3.46539,-5.17e-4 c 0.4469,-0.03116 1.13895,-0.03084 1.53789,7.28e-4 0.39893,0.03156 0.0333,0.05706 -0.81255,0.05666 -0.84583,-4.01e-4 -1.17223,-0.02623 -0.72534,-0.05739 z M 36.67199,59.44637 c 0.0074,-0.179154 0.04382,-0.215595 0.09291,-0.09291 0.04442,0.111015 0.03896,0.243658 -0.01214,0.29476 -0.0511,0.0511 -0.08745,-0.03973 -0.08077,-0.201847 z m 34.294795,-0.307576 c 0.0074,-0.179155 0.04382,-0.215596 0.09291,-0.09291 0.04443,0.111016 0.03896,0.243658 -0.01214,0.294761 -0.0511,0.0511 -0.08745,-0.03973 -0.08077,-0.201847 z m 0,-1.691672 c 0.0074,-0.179155 0.04382,-0.215596 0.09291,-0.09291 0.04443,0.111016 0.03896,0.243659 -0.01214,0.294761 -0.0511,0.0511 -0.08745,-0.03973 -0.08077,-0.201847 z M 36.67199,56.831969 c 0.0074,-0.179155 0.04382,-0.215596 0.09291,-0.09291 0.04442,0.111016 0.03896,0.243658 -0.01214,0.294761 -0.0511,0.0511 -0.08745,-0.03973 -0.08077,-0.201847 z"
       id="path85" />
    <path
       style="fill:#ffffff;fill-opacity:1"
       d="m 38.197732,180.4137 c 0,-0.0846 0.0692,-0.15379 0.153788,-0.15379 0.102186,0 0.153788,-15.58388 0.153788,-46.44407 V 87.371766 h 15.301938 15.301938 v 46.444074 c 0,30.86019 0.0516,46.44407 0.153788,46.44407 0.08458,0 0.153789,0.0692 0.153789,0.15379 0,0.10152 -5.305697,0.15379 -15.609515,0.15379 -10.303817,0 -15.609514,-0.0523 -15.609514,-0.15379 z m 48.289532,0.0128 c 0,-0.0775 0.07636,-0.16643 0.169693,-0.19754 0.123166,-0.0411 0.175874,-12.77886 0.192236,-46.45682 l 0.02254,-46.400251 15.186597,-7.1e-5 15.1866,-7.2e-5 0.002,6.18998 c 10e-4,3.404489 0.0619,6.283892 0.13459,6.398673 0.23588,0.372271 0.69071,0.04139 1.40094,-1.019147 1.97311,-2.946323 5.22414,-6.360558 7.76965,-8.159686 4.91746,-3.475591 10.20639,-5.237081 16.63507,-5.540352 9.86213,-0.465245 17.79995,1.802004 24.42307,6.975871 1.38396,1.081119 3.95587,3.680682 5.02005,5.074008 4.79009,6.271667 7.56201,14.495257 8.26806,24.529237 l 0.12445,1.76857 0.0468,-1.23031 0.0468,-1.23031 0.1117,1.46099 c 0.0614,0.80355 0.11945,14.17736 0.12891,29.7196 l 0.0172,28.2586 H 165.7647 c -10.30382,0 -15.60951,-0.0523 -15.60951,-0.15379 0,-0.0846 0.071,-0.15379 0.15785,-0.15379 0.10755,0 0.14164,-8.71177 0.10696,-27.33587 l -0.0509,-27.33588 -0.338,-1.76856 c -0.47526,-2.48678 -1.16682,-4.75794 -1.95985,-6.43628 -1.86396,-3.94483 -5.03539,-6.65584 -8.94701,-7.64811 -4.88412,-1.23896 -9.98722,-0.43713 -13.89219,2.18283 -2.99529,2.00962 -5.94387,5.89101 -7.0552,9.28716 -0.87836,2.68419 -0.84015,1.34112 -0.89358,31.41126 -0.0337,18.95715 8.3e-4,27.64345 0.10984,27.64345 0.0874,0 0.15895,0.0692 0.15895,0.15379 0,0.10151 -5.28006,0.15379 -15.53262,0.15379 -9.311181,0 -15.532618,-0.0565 -15.532618,-0.14097 z M 51.192845,73.886298 C 43.320161,72.865885 37.77013,67.586131 36.835498,60.228128 c -0.136626,-1.07561 -0.136776,-1.07587 -0.177237,-0.307577 l -0.0405,0.768942 -0.129755,-0.999625 c -0.07137,-0.549793 -0.08125,-1.691671 -0.02196,-2.537507 0.09329,-1.330937 0.118942,-1.43441 0.190617,-0.768941 l 0.08282,0.768941 0.113195,-1.095093 c 0.154197,-1.491779 0.779784,-3.577987 1.511762,-5.04143 2.416363,-4.831032 6.971885,-7.778326 13.289763,-8.598101 0.358324,-0.04649 0.306804,-0.0696 -0.230683,-0.103455 l -0.692047,-0.04359 0.768941,-0.119768 c 0.978248,-0.152368 3.893996,-0.151999 4.998121,6.32e-4 l 0.845836,0.116926 -0.768942,0.04111 -0.768942,0.04111 1.076519,0.136742 c 5.809126,0.737889 10.690714,4.266864 12.790986,9.246802 2.584299,6.127611 1.371932,12.961653 -3.091174,17.424759 -2.508622,2.508621 -6.136579,4.190687 -10.080249,4.673605 -1.236656,0.151434 -4.315446,0.182568 -5.309731,0.05369 z"
       id="path84" />
  </g>
</svg>
