<svg
   width="15.999911"
   height="17.150999"
   xmlns="http://www.w3.org/2000/svg"
   xmlns:svg="http://www.w3.org/2000/svg">
  <path
     d="m 15.999288,5.6310869 c 0,-3.72056 -2.43865,-4.81146999 -2.43865,-4.81146999 -2.3931,-1.09856 -8.7486701,-1.08707 -11.1188001,0 0,0 -2.43904003,1.09090999 -2.43904003,4.81146999 0,4.4286901 -0.25263,9.9291401 4.04324003,11.0659801 1.55061,0.40957 2.88305,0.4976 3.9552,0.43636 1.94487,-0.10718 3.0361601,-0.69282 3.0361601,-0.69282 l -0.0651,-1.41243 c 0,0 -1.3898501,0.43636 -2.9519501,0.3866 -1.54679,-0.0536 -3.17702,-0.16842 -3.4308,-2.06698 a 3.9249599,3.9249599 0 0 1 -0.0344,-0.53205 c 3.27769,0.79999 6.0727001,0.34832 6.8420801,0.25645 2.14812,-0.25645 4.01912,-1.58085 4.25759,-2.79042 0.37511,-1.9062101 0.34449,-4.6506901 0.34449,-4.6506901 z m -2.87539,4.7923201 h -1.78488 V 6.0521369 c 0,-1.90239 -2.4497501,-1.97511 -2.4497501,0.26411 v 2.39234 h -1.77339 v -2.39272 c 0,-2.23923 -2.44975,-2.1665 -2.44975,-0.26412 v 4.3712801 h -1.7887 c 0,-4.6736701 -0.19904,-5.6612201 0.70469,-6.6985401 0.99138,-1.10621 3.0553,-1.17894 3.97434,0.23349 l 0.44401,0.74641 0.44402,-0.74641 c 0.92287,-1.42009 2.9902301,-1.33205 3.9743401,-0.23349 0.90755,1.04497 0.7043,2.0287 0.7043,6.6985401 z"
     id="path2"
     style="fill:#ffffff;stroke-width:0.0382774" />
</svg>