<?xml version="1.0" encoding="UTF-8"?>
<svg version="1.1" xmlns="http://www.w3.org/2000/svg" width="287" height="285">
<path d="M0 0 C3.38752409 0.01604728 6.77477353 0.00589664 10.16230583 -0.00373173 C48.56355773 -0.09081193 91.1943164 1.18070505 120.26867676 29.83233643 C147.02580243 58.42705364 148.2312937 102.33486148 148.16638184 139.28057861 C148.16176228 142.13262758 148.16864278 144.98424886 148.18688965 147.83624268 C148.4282525 185.94937804 146.78790013 229.90845664 118.52258301 258.83233643 C98.99869771 277.95661003 67.31054544 285.53706543 40.65686035 285.62652588 C39.78540878 285.63309708 38.91395721 285.63966827 38.01609802 285.6464386 C35.15627929 285.66600474 32.29651291 285.67780323 29.43664551 285.68780518 C28.44757832 285.6918807 27.45851112 285.69595623 26.4394722 285.70015526 C21.19341498 285.72095571 15.94738336 285.73527748 10.70129395 285.74468994 C5.35083933 285.75567899 0.00080923 285.79000878 -5.34949684 285.82986164 C-9.52121614 285.85634173 -13.69283958 285.86440967 -17.86463547 285.86797142 C-19.8329082 285.8727651 -21.80117886 285.88416479 -23.76936722 285.90300941 C-51.50462149 286.15184013 -85.57631917 281.87888211 -107.14929199 262.44952393 C-107.93433105 261.7560083 -108.71937012 261.06249268 -109.52819824 260.34796143 C-123.82561004 246.94550212 -130.29069514 230.68094989 -134.89929199 212.01202393 C-135.19754883 210.81694214 -135.19754883 210.81694214 -135.50183105 209.59771729 C-138.82749657 195.24687163 -139.46433787 180.76403469 -139.45007324 166.09796143 C-139.45397956 164.38373719 -139.45831803 162.66951388 -139.46305847 160.95529175 C-139.47045111 157.38709356 -139.47028163 153.81899441 -139.46496582 150.25079346 C-139.46034034 146.64389558 -139.46723985 143.03733531 -139.48547363 139.43048096 C-139.63589243 109.41834601 -139.33244792 79.4632621 -127.14929199 51.44952393 C-126.79351074 50.60260986 -126.43772949 49.7556958 -126.07116699 48.88311768 C-123.64177409 43.55385085 -120.49016106 38.96940171 -116.96179199 34.32452393 C-116.30110718 33.45247314 -116.30110718 33.45247314 -115.6270752 32.56280518 C-114.51938127 31.14972398 -113.33966393 29.79369614 -112.14929199 28.44952393 C-111.48929199 28.44952393 -110.82929199 28.44952393 -110.14929199 28.44952393 C-109.81929199 27.45952393 -109.48929199 26.46952393 -109.14929199 25.44952393 C-78.93526166 0.2222753 -37.34225757 -0.25106005 0 0 Z " fill="#7262D7" transform="translate(139.1492919921875,-0.44952392578125)"/>
<path d="M0 0 C12.45885303 14.26780715 12.78873516 31.58067983 11.6328125 49.54296875 C11.46833647 51.75817373 11.29904077 53.97302596 11.125 56.1875 C11.04636719 57.29802734 10.96773437 58.40855469 10.88671875 59.55273438 C9.99915894 71.09783928 8.91213144 79.45816132 0.25 87.65625 C-18.66858317 103.10642626 -48.25200964 101.81174223 -71.35302734 99.69238281 C-76.62316985 99.03929311 -81.81344746 98.13603758 -87 97 C-85.21752602 105.92204694 -85.21752602 105.92204694 -80 113 C-64.94103984 120.71376805 -48.13161709 118.18733791 -32 116 C-30.73762269 118.52475462 -30.90143596 120.31200466 -30.9375 123.125 C-30.94652344 124.03507813 -30.95554687 124.94515625 -30.96484375 125.8828125 C-30.97644531 126.58148438 -30.98804688 127.28015625 -31 128 C-32.72744016 128.65043719 -34.4570369 129.29514844 -36.1875 129.9375 C-37.15042969 130.29714844 -38.11335938 130.65679687 -39.10546875 131.02734375 C-57.22603535 137.11644103 -83.30134996 134.37281327 -100.5625 126.75 C-111.71915299 120.42600888 -118.13622393 109.65335227 -121.72021484 97.57226562 C-125.73991801 81.79006443 -126.18719554 65.61225944 -126.18530273 49.40795898 C-126.18751062 47.30237193 -126.20584294 45.19729376 -126.22460938 43.09179688 C-126.29556831 26.12334 -124.41215569 11.05172299 -112.41015625 -1.6875 C-90.23062615 -22.56235186 -21.29727146 -20.54456124 0 0 Z " fill="#35363A" transform="translate(204,87)"/>
<path d="M0 0 C1.63761681 1.69380954 3.13832013 3.43822033 4.60546875 5.28125 C5.97745727 6.97221625 7.43618318 8.4869265 9 10 C9.37511719 9.46890625 9.75023437 8.9378125 10.13671875 8.390625 C14.86998007 1.85705522 18.72483053 -2.50775632 27 -4 C33.85283128 -4 39.56926498 -3.0758314 44.8125 1.625 C51.70490675 8.74715364 53.36045851 16.71774702 53.31445312 26.45117188 C53.29318359 27.43666016 53.27191406 28.42214844 53.25 29.4375 C53.23356445 30.98727539 53.23356445 30.98727539 53.21679688 32.56835938 C53.08263201 42.05906512 52.62537062 51.53010204 52 61 C47.05 61 42.1 61 37 61 C36.98541748 59.82493896 36.97083496 58.64987793 36.95581055 57.43920898 C36.89760489 53.05739728 36.82037392 48.67608752 36.73754883 44.29467773 C36.70440393 42.40250833 36.67633983 40.51024254 36.65356445 38.61791992 C36.61982579 35.88939546 36.56750135 33.161746 36.51171875 30.43359375 C36.50532883 29.59477158 36.4989389 28.7559494 36.49235535 27.89170837 C36.36050676 22.56091323 35.53129238 18.7239153 33 14 C29.5607468 12.2803734 25.76835438 12.61780036 22 13 C18.71068486 14.72689045 18.1859733 15.4420801 17 19 C16.86130782 21.05214382 16.7749085 23.10800413 16.71875 25.1640625 C16.68136719 26.36804688 16.64398438 27.57203125 16.60546875 28.8125 C16.53494029 31.3619732 16.46462911 33.91145242 16.39453125 36.4609375 C16.35714844 37.66234375 16.31976563 38.86375 16.28125 40.1015625 C16.25095703 41.20838379 16.22066406 42.31520508 16.18945312 43.45556641 C16 46 16 46 15 47 C12.66839945 47.09909302 10.33370058 47.12970504 8 47.125 C6.72125 47.12757813 5.4425 47.13015625 4.125 47.1328125 C1 47 1 47 0 46 C-0.12177855 44.05983776 -0.17973477 42.1156049 -0.2109375 40.171875 C-0.23929688 38.97949219 -0.26765625 37.78710938 -0.296875 36.55859375 C-0.3486349 34.03529875 -0.39300024 31.5118404 -0.4296875 28.98828125 C-0.460625 27.79074219 -0.4915625 26.59320313 -0.5234375 25.359375 C-0.5531665 23.71146973 -0.5531665 23.71146973 -0.58349609 22.03027344 C-1.08793494 18.3602295 -2.35884071 15.64115929 -5 13 C-6.97619447 12.87485072 -8.95738173 12.8242724 -10.9375 12.8125 C-12.01902344 12.79832031 -13.10054687 12.78414062 -14.21484375 12.76953125 C-17.14044315 12.70951969 -17.14044315 12.70951969 -19 15 C-20.2040452 20.05611557 -20.21401913 25.16537245 -20.31640625 30.3359375 C-20.33718735 31.21528961 -20.35796844 32.09464172 -20.37937927 33.00064087 C-20.44442963 35.79201931 -20.50355148 38.58348671 -20.5625 41.375 C-20.60572762 43.27474855 -20.64934323 45.17448831 -20.69335938 47.07421875 C-20.80006501 51.71605614 -20.90145615 56.35798246 -21 61 C-25.95 61 -30.9 61 -36 61 C-36.0746515 55.05927213 -36.12883772 49.1188227 -36.16479492 43.17773438 C-36.17979884 41.16043333 -36.20020855 39.14316444 -36.22631836 37.12597656 C-36.26307353 34.21150737 -36.27981068 31.29747274 -36.29296875 28.3828125 C-36.30845261 27.49385284 -36.32393646 26.60489319 -36.33988953 25.68899536 C-36.34236051 16.30926706 -34.39771602 8.48095715 -27.83203125 1.625 C-20.00833898 -5.314565 -8.63063387 -5.75375591 0 0 Z " fill="#7061CE" transform="translate(139,102)"/>
</svg>
